G04 #@! TF.GenerationSoftware,KiCad,Pcbnew,(5.0.2)-1*
G04 #@! TF.CreationDate,2019-10-04T12:36:52+03:00*
G04 #@! TF.ProjectId,esp32d,65737033-3264-42e6-9b69-6361645f7063,rev?*
G04 #@! TF.SameCoordinates,Original*
G04 #@! TF.FileFunction,Paste,Top*
G04 #@! TF.FilePolarity,Positive*
%FSLAX46Y46*%
G04 Gerber Fmt 4.6, Leading zero omitted, Abs format (unit mm)*
G04 Created by KiCad (PCBNEW (5.0.2)-1) date 04.10.2019 12:36:52*
%MOMM*%
%LPD*%
G01*
G04 APERTURE LIST*
%ADD10C,0.100000*%
%ADD11C,0.975000*%
%ADD12C,0.875000*%
%ADD13R,1.075000X0.500000*%
%ADD14R,0.600000X0.800000*%
%ADD15R,0.800000X0.600000*%
%ADD16R,1.000000X0.300000*%
%ADD17R,0.300000X1.000000*%
%ADD18R,3.350000X3.350000*%
%ADD19R,1.300000X0.600000*%
%ADD20R,0.750000X1.800000*%
%ADD21R,0.600000X1.800000*%
%ADD22R,1.500000X0.900000*%
%ADD23R,2.000000X3.800000*%
%ADD24R,2.000000X1.500000*%
%ADD25R,5.000000X5.000000*%
%ADD26R,2.000000X0.900000*%
%ADD27R,0.900000X2.000000*%
%ADD28C,1.000000*%
%ADD29C,1.500000*%
%ADD30R,1.060000X0.650000*%
%ADD31R,0.900000X0.800000*%
%ADD32R,1.500000X0.400000*%
%ADD33R,1.400000X1.400000*%
%ADD34R,1.000000X1.000000*%
G04 APERTURE END LIST*
D10*
G04 #@! TO.C,D6*
G36*
X159955142Y-127571174D02*
X159978803Y-127574684D01*
X160002007Y-127580496D01*
X160024529Y-127588554D01*
X160046153Y-127598782D01*
X160066670Y-127611079D01*
X160085883Y-127625329D01*
X160103607Y-127641393D01*
X160119671Y-127659117D01*
X160133921Y-127678330D01*
X160146218Y-127698847D01*
X160156446Y-127720471D01*
X160164504Y-127742993D01*
X160170316Y-127766197D01*
X160173826Y-127789858D01*
X160175000Y-127813750D01*
X160175000Y-128726250D01*
X160173826Y-128750142D01*
X160170316Y-128773803D01*
X160164504Y-128797007D01*
X160156446Y-128819529D01*
X160146218Y-128841153D01*
X160133921Y-128861670D01*
X160119671Y-128880883D01*
X160103607Y-128898607D01*
X160085883Y-128914671D01*
X160066670Y-128928921D01*
X160046153Y-128941218D01*
X160024529Y-128951446D01*
X160002007Y-128959504D01*
X159978803Y-128965316D01*
X159955142Y-128968826D01*
X159931250Y-128970000D01*
X159443750Y-128970000D01*
X159419858Y-128968826D01*
X159396197Y-128965316D01*
X159372993Y-128959504D01*
X159350471Y-128951446D01*
X159328847Y-128941218D01*
X159308330Y-128928921D01*
X159289117Y-128914671D01*
X159271393Y-128898607D01*
X159255329Y-128880883D01*
X159241079Y-128861670D01*
X159228782Y-128841153D01*
X159218554Y-128819529D01*
X159210496Y-128797007D01*
X159204684Y-128773803D01*
X159201174Y-128750142D01*
X159200000Y-128726250D01*
X159200000Y-127813750D01*
X159201174Y-127789858D01*
X159204684Y-127766197D01*
X159210496Y-127742993D01*
X159218554Y-127720471D01*
X159228782Y-127698847D01*
X159241079Y-127678330D01*
X159255329Y-127659117D01*
X159271393Y-127641393D01*
X159289117Y-127625329D01*
X159308330Y-127611079D01*
X159328847Y-127598782D01*
X159350471Y-127588554D01*
X159372993Y-127580496D01*
X159396197Y-127574684D01*
X159419858Y-127571174D01*
X159443750Y-127570000D01*
X159931250Y-127570000D01*
X159955142Y-127571174D01*
X159955142Y-127571174D01*
G37*
D11*
X159687500Y-128270000D03*
D10*
G36*
X158080142Y-127571174D02*
X158103803Y-127574684D01*
X158127007Y-127580496D01*
X158149529Y-127588554D01*
X158171153Y-127598782D01*
X158191670Y-127611079D01*
X158210883Y-127625329D01*
X158228607Y-127641393D01*
X158244671Y-127659117D01*
X158258921Y-127678330D01*
X158271218Y-127698847D01*
X158281446Y-127720471D01*
X158289504Y-127742993D01*
X158295316Y-127766197D01*
X158298826Y-127789858D01*
X158300000Y-127813750D01*
X158300000Y-128726250D01*
X158298826Y-128750142D01*
X158295316Y-128773803D01*
X158289504Y-128797007D01*
X158281446Y-128819529D01*
X158271218Y-128841153D01*
X158258921Y-128861670D01*
X158244671Y-128880883D01*
X158228607Y-128898607D01*
X158210883Y-128914671D01*
X158191670Y-128928921D01*
X158171153Y-128941218D01*
X158149529Y-128951446D01*
X158127007Y-128959504D01*
X158103803Y-128965316D01*
X158080142Y-128968826D01*
X158056250Y-128970000D01*
X157568750Y-128970000D01*
X157544858Y-128968826D01*
X157521197Y-128965316D01*
X157497993Y-128959504D01*
X157475471Y-128951446D01*
X157453847Y-128941218D01*
X157433330Y-128928921D01*
X157414117Y-128914671D01*
X157396393Y-128898607D01*
X157380329Y-128880883D01*
X157366079Y-128861670D01*
X157353782Y-128841153D01*
X157343554Y-128819529D01*
X157335496Y-128797007D01*
X157329684Y-128773803D01*
X157326174Y-128750142D01*
X157325000Y-128726250D01*
X157325000Y-127813750D01*
X157326174Y-127789858D01*
X157329684Y-127766197D01*
X157335496Y-127742993D01*
X157343554Y-127720471D01*
X157353782Y-127698847D01*
X157366079Y-127678330D01*
X157380329Y-127659117D01*
X157396393Y-127641393D01*
X157414117Y-127625329D01*
X157433330Y-127611079D01*
X157453847Y-127598782D01*
X157475471Y-127588554D01*
X157497993Y-127580496D01*
X157521197Y-127574684D01*
X157544858Y-127571174D01*
X157568750Y-127570000D01*
X158056250Y-127570000D01*
X158080142Y-127571174D01*
X158080142Y-127571174D01*
G37*
D11*
X157812500Y-128270000D03*
G04 #@! TD*
D10*
G04 #@! TO.C,R1*
G36*
X114641191Y-122855053D02*
X114662426Y-122858203D01*
X114683250Y-122863419D01*
X114703462Y-122870651D01*
X114722868Y-122879830D01*
X114741281Y-122890866D01*
X114758524Y-122903654D01*
X114774430Y-122918070D01*
X114788846Y-122933976D01*
X114801634Y-122951219D01*
X114812670Y-122969632D01*
X114821849Y-122989038D01*
X114829081Y-123009250D01*
X114834297Y-123030074D01*
X114837447Y-123051309D01*
X114838500Y-123072750D01*
X114838500Y-123510250D01*
X114837447Y-123531691D01*
X114834297Y-123552926D01*
X114829081Y-123573750D01*
X114821849Y-123593962D01*
X114812670Y-123613368D01*
X114801634Y-123631781D01*
X114788846Y-123649024D01*
X114774430Y-123664930D01*
X114758524Y-123679346D01*
X114741281Y-123692134D01*
X114722868Y-123703170D01*
X114703462Y-123712349D01*
X114683250Y-123719581D01*
X114662426Y-123724797D01*
X114641191Y-123727947D01*
X114619750Y-123729000D01*
X114107250Y-123729000D01*
X114085809Y-123727947D01*
X114064574Y-123724797D01*
X114043750Y-123719581D01*
X114023538Y-123712349D01*
X114004132Y-123703170D01*
X113985719Y-123692134D01*
X113968476Y-123679346D01*
X113952570Y-123664930D01*
X113938154Y-123649024D01*
X113925366Y-123631781D01*
X113914330Y-123613368D01*
X113905151Y-123593962D01*
X113897919Y-123573750D01*
X113892703Y-123552926D01*
X113889553Y-123531691D01*
X113888500Y-123510250D01*
X113888500Y-123072750D01*
X113889553Y-123051309D01*
X113892703Y-123030074D01*
X113897919Y-123009250D01*
X113905151Y-122989038D01*
X113914330Y-122969632D01*
X113925366Y-122951219D01*
X113938154Y-122933976D01*
X113952570Y-122918070D01*
X113968476Y-122903654D01*
X113985719Y-122890866D01*
X114004132Y-122879830D01*
X114023538Y-122870651D01*
X114043750Y-122863419D01*
X114064574Y-122858203D01*
X114085809Y-122855053D01*
X114107250Y-122854000D01*
X114619750Y-122854000D01*
X114641191Y-122855053D01*
X114641191Y-122855053D01*
G37*
D12*
X114363500Y-123291500D03*
D10*
G36*
X114641191Y-124430053D02*
X114662426Y-124433203D01*
X114683250Y-124438419D01*
X114703462Y-124445651D01*
X114722868Y-124454830D01*
X114741281Y-124465866D01*
X114758524Y-124478654D01*
X114774430Y-124493070D01*
X114788846Y-124508976D01*
X114801634Y-124526219D01*
X114812670Y-124544632D01*
X114821849Y-124564038D01*
X114829081Y-124584250D01*
X114834297Y-124605074D01*
X114837447Y-124626309D01*
X114838500Y-124647750D01*
X114838500Y-125085250D01*
X114837447Y-125106691D01*
X114834297Y-125127926D01*
X114829081Y-125148750D01*
X114821849Y-125168962D01*
X114812670Y-125188368D01*
X114801634Y-125206781D01*
X114788846Y-125224024D01*
X114774430Y-125239930D01*
X114758524Y-125254346D01*
X114741281Y-125267134D01*
X114722868Y-125278170D01*
X114703462Y-125287349D01*
X114683250Y-125294581D01*
X114662426Y-125299797D01*
X114641191Y-125302947D01*
X114619750Y-125304000D01*
X114107250Y-125304000D01*
X114085809Y-125302947D01*
X114064574Y-125299797D01*
X114043750Y-125294581D01*
X114023538Y-125287349D01*
X114004132Y-125278170D01*
X113985719Y-125267134D01*
X113968476Y-125254346D01*
X113952570Y-125239930D01*
X113938154Y-125224024D01*
X113925366Y-125206781D01*
X113914330Y-125188368D01*
X113905151Y-125168962D01*
X113897919Y-125148750D01*
X113892703Y-125127926D01*
X113889553Y-125106691D01*
X113888500Y-125085250D01*
X113888500Y-124647750D01*
X113889553Y-124626309D01*
X113892703Y-124605074D01*
X113897919Y-124584250D01*
X113905151Y-124564038D01*
X113914330Y-124544632D01*
X113925366Y-124526219D01*
X113938154Y-124508976D01*
X113952570Y-124493070D01*
X113968476Y-124478654D01*
X113985719Y-124465866D01*
X114004132Y-124454830D01*
X114023538Y-124445651D01*
X114043750Y-124438419D01*
X114064574Y-124433203D01*
X114085809Y-124430053D01*
X114107250Y-124429000D01*
X114619750Y-124429000D01*
X114641191Y-124430053D01*
X114641191Y-124430053D01*
G37*
D12*
X114363500Y-124866500D03*
G04 #@! TD*
D10*
G04 #@! TO.C,R2*
G36*
X138187691Y-99729053D02*
X138208926Y-99732203D01*
X138229750Y-99737419D01*
X138249962Y-99744651D01*
X138269368Y-99753830D01*
X138287781Y-99764866D01*
X138305024Y-99777654D01*
X138320930Y-99792070D01*
X138335346Y-99807976D01*
X138348134Y-99825219D01*
X138359170Y-99843632D01*
X138368349Y-99863038D01*
X138375581Y-99883250D01*
X138380797Y-99904074D01*
X138383947Y-99925309D01*
X138385000Y-99946750D01*
X138385000Y-100459250D01*
X138383947Y-100480691D01*
X138380797Y-100501926D01*
X138375581Y-100522750D01*
X138368349Y-100542962D01*
X138359170Y-100562368D01*
X138348134Y-100580781D01*
X138335346Y-100598024D01*
X138320930Y-100613930D01*
X138305024Y-100628346D01*
X138287781Y-100641134D01*
X138269368Y-100652170D01*
X138249962Y-100661349D01*
X138229750Y-100668581D01*
X138208926Y-100673797D01*
X138187691Y-100676947D01*
X138166250Y-100678000D01*
X137728750Y-100678000D01*
X137707309Y-100676947D01*
X137686074Y-100673797D01*
X137665250Y-100668581D01*
X137645038Y-100661349D01*
X137625632Y-100652170D01*
X137607219Y-100641134D01*
X137589976Y-100628346D01*
X137574070Y-100613930D01*
X137559654Y-100598024D01*
X137546866Y-100580781D01*
X137535830Y-100562368D01*
X137526651Y-100542962D01*
X137519419Y-100522750D01*
X137514203Y-100501926D01*
X137511053Y-100480691D01*
X137510000Y-100459250D01*
X137510000Y-99946750D01*
X137511053Y-99925309D01*
X137514203Y-99904074D01*
X137519419Y-99883250D01*
X137526651Y-99863038D01*
X137535830Y-99843632D01*
X137546866Y-99825219D01*
X137559654Y-99807976D01*
X137574070Y-99792070D01*
X137589976Y-99777654D01*
X137607219Y-99764866D01*
X137625632Y-99753830D01*
X137645038Y-99744651D01*
X137665250Y-99737419D01*
X137686074Y-99732203D01*
X137707309Y-99729053D01*
X137728750Y-99728000D01*
X138166250Y-99728000D01*
X138187691Y-99729053D01*
X138187691Y-99729053D01*
G37*
D12*
X137947500Y-100203000D03*
D10*
G36*
X136612691Y-99729053D02*
X136633926Y-99732203D01*
X136654750Y-99737419D01*
X136674962Y-99744651D01*
X136694368Y-99753830D01*
X136712781Y-99764866D01*
X136730024Y-99777654D01*
X136745930Y-99792070D01*
X136760346Y-99807976D01*
X136773134Y-99825219D01*
X136784170Y-99843632D01*
X136793349Y-99863038D01*
X136800581Y-99883250D01*
X136805797Y-99904074D01*
X136808947Y-99925309D01*
X136810000Y-99946750D01*
X136810000Y-100459250D01*
X136808947Y-100480691D01*
X136805797Y-100501926D01*
X136800581Y-100522750D01*
X136793349Y-100542962D01*
X136784170Y-100562368D01*
X136773134Y-100580781D01*
X136760346Y-100598024D01*
X136745930Y-100613930D01*
X136730024Y-100628346D01*
X136712781Y-100641134D01*
X136694368Y-100652170D01*
X136674962Y-100661349D01*
X136654750Y-100668581D01*
X136633926Y-100673797D01*
X136612691Y-100676947D01*
X136591250Y-100678000D01*
X136153750Y-100678000D01*
X136132309Y-100676947D01*
X136111074Y-100673797D01*
X136090250Y-100668581D01*
X136070038Y-100661349D01*
X136050632Y-100652170D01*
X136032219Y-100641134D01*
X136014976Y-100628346D01*
X135999070Y-100613930D01*
X135984654Y-100598024D01*
X135971866Y-100580781D01*
X135960830Y-100562368D01*
X135951651Y-100542962D01*
X135944419Y-100522750D01*
X135939203Y-100501926D01*
X135936053Y-100480691D01*
X135935000Y-100459250D01*
X135935000Y-99946750D01*
X135936053Y-99925309D01*
X135939203Y-99904074D01*
X135944419Y-99883250D01*
X135951651Y-99863038D01*
X135960830Y-99843632D01*
X135971866Y-99825219D01*
X135984654Y-99807976D01*
X135999070Y-99792070D01*
X136014976Y-99777654D01*
X136032219Y-99764866D01*
X136050632Y-99753830D01*
X136070038Y-99744651D01*
X136090250Y-99737419D01*
X136111074Y-99732203D01*
X136132309Y-99729053D01*
X136153750Y-99728000D01*
X136591250Y-99728000D01*
X136612691Y-99729053D01*
X136612691Y-99729053D01*
G37*
D12*
X136372500Y-100203000D03*
G04 #@! TD*
D10*
G04 #@! TO.C,C1*
G36*
X98194691Y-108859553D02*
X98215926Y-108862703D01*
X98236750Y-108867919D01*
X98256962Y-108875151D01*
X98276368Y-108884330D01*
X98294781Y-108895366D01*
X98312024Y-108908154D01*
X98327930Y-108922570D01*
X98342346Y-108938476D01*
X98355134Y-108955719D01*
X98366170Y-108974132D01*
X98375349Y-108993538D01*
X98382581Y-109013750D01*
X98387797Y-109034574D01*
X98390947Y-109055809D01*
X98392000Y-109077250D01*
X98392000Y-109514750D01*
X98390947Y-109536191D01*
X98387797Y-109557426D01*
X98382581Y-109578250D01*
X98375349Y-109598462D01*
X98366170Y-109617868D01*
X98355134Y-109636281D01*
X98342346Y-109653524D01*
X98327930Y-109669430D01*
X98312024Y-109683846D01*
X98294781Y-109696634D01*
X98276368Y-109707670D01*
X98256962Y-109716849D01*
X98236750Y-109724081D01*
X98215926Y-109729297D01*
X98194691Y-109732447D01*
X98173250Y-109733500D01*
X97660750Y-109733500D01*
X97639309Y-109732447D01*
X97618074Y-109729297D01*
X97597250Y-109724081D01*
X97577038Y-109716849D01*
X97557632Y-109707670D01*
X97539219Y-109696634D01*
X97521976Y-109683846D01*
X97506070Y-109669430D01*
X97491654Y-109653524D01*
X97478866Y-109636281D01*
X97467830Y-109617868D01*
X97458651Y-109598462D01*
X97451419Y-109578250D01*
X97446203Y-109557426D01*
X97443053Y-109536191D01*
X97442000Y-109514750D01*
X97442000Y-109077250D01*
X97443053Y-109055809D01*
X97446203Y-109034574D01*
X97451419Y-109013750D01*
X97458651Y-108993538D01*
X97467830Y-108974132D01*
X97478866Y-108955719D01*
X97491654Y-108938476D01*
X97506070Y-108922570D01*
X97521976Y-108908154D01*
X97539219Y-108895366D01*
X97557632Y-108884330D01*
X97577038Y-108875151D01*
X97597250Y-108867919D01*
X97618074Y-108862703D01*
X97639309Y-108859553D01*
X97660750Y-108858500D01*
X98173250Y-108858500D01*
X98194691Y-108859553D01*
X98194691Y-108859553D01*
G37*
D12*
X97917000Y-109296000D03*
D10*
G36*
X98194691Y-110434553D02*
X98215926Y-110437703D01*
X98236750Y-110442919D01*
X98256962Y-110450151D01*
X98276368Y-110459330D01*
X98294781Y-110470366D01*
X98312024Y-110483154D01*
X98327930Y-110497570D01*
X98342346Y-110513476D01*
X98355134Y-110530719D01*
X98366170Y-110549132D01*
X98375349Y-110568538D01*
X98382581Y-110588750D01*
X98387797Y-110609574D01*
X98390947Y-110630809D01*
X98392000Y-110652250D01*
X98392000Y-111089750D01*
X98390947Y-111111191D01*
X98387797Y-111132426D01*
X98382581Y-111153250D01*
X98375349Y-111173462D01*
X98366170Y-111192868D01*
X98355134Y-111211281D01*
X98342346Y-111228524D01*
X98327930Y-111244430D01*
X98312024Y-111258846D01*
X98294781Y-111271634D01*
X98276368Y-111282670D01*
X98256962Y-111291849D01*
X98236750Y-111299081D01*
X98215926Y-111304297D01*
X98194691Y-111307447D01*
X98173250Y-111308500D01*
X97660750Y-111308500D01*
X97639309Y-111307447D01*
X97618074Y-111304297D01*
X97597250Y-111299081D01*
X97577038Y-111291849D01*
X97557632Y-111282670D01*
X97539219Y-111271634D01*
X97521976Y-111258846D01*
X97506070Y-111244430D01*
X97491654Y-111228524D01*
X97478866Y-111211281D01*
X97467830Y-111192868D01*
X97458651Y-111173462D01*
X97451419Y-111153250D01*
X97446203Y-111132426D01*
X97443053Y-111111191D01*
X97442000Y-111089750D01*
X97442000Y-110652250D01*
X97443053Y-110630809D01*
X97446203Y-110609574D01*
X97451419Y-110588750D01*
X97458651Y-110568538D01*
X97467830Y-110549132D01*
X97478866Y-110530719D01*
X97491654Y-110513476D01*
X97506070Y-110497570D01*
X97521976Y-110483154D01*
X97539219Y-110470366D01*
X97557632Y-110459330D01*
X97577038Y-110450151D01*
X97597250Y-110442919D01*
X97618074Y-110437703D01*
X97639309Y-110434553D01*
X97660750Y-110433500D01*
X98173250Y-110433500D01*
X98194691Y-110434553D01*
X98194691Y-110434553D01*
G37*
D12*
X97917000Y-110871000D03*
G04 #@! TD*
D10*
G04 #@! TO.C,C2*
G36*
X99718691Y-108859553D02*
X99739926Y-108862703D01*
X99760750Y-108867919D01*
X99780962Y-108875151D01*
X99800368Y-108884330D01*
X99818781Y-108895366D01*
X99836024Y-108908154D01*
X99851930Y-108922570D01*
X99866346Y-108938476D01*
X99879134Y-108955719D01*
X99890170Y-108974132D01*
X99899349Y-108993538D01*
X99906581Y-109013750D01*
X99911797Y-109034574D01*
X99914947Y-109055809D01*
X99916000Y-109077250D01*
X99916000Y-109514750D01*
X99914947Y-109536191D01*
X99911797Y-109557426D01*
X99906581Y-109578250D01*
X99899349Y-109598462D01*
X99890170Y-109617868D01*
X99879134Y-109636281D01*
X99866346Y-109653524D01*
X99851930Y-109669430D01*
X99836024Y-109683846D01*
X99818781Y-109696634D01*
X99800368Y-109707670D01*
X99780962Y-109716849D01*
X99760750Y-109724081D01*
X99739926Y-109729297D01*
X99718691Y-109732447D01*
X99697250Y-109733500D01*
X99184750Y-109733500D01*
X99163309Y-109732447D01*
X99142074Y-109729297D01*
X99121250Y-109724081D01*
X99101038Y-109716849D01*
X99081632Y-109707670D01*
X99063219Y-109696634D01*
X99045976Y-109683846D01*
X99030070Y-109669430D01*
X99015654Y-109653524D01*
X99002866Y-109636281D01*
X98991830Y-109617868D01*
X98982651Y-109598462D01*
X98975419Y-109578250D01*
X98970203Y-109557426D01*
X98967053Y-109536191D01*
X98966000Y-109514750D01*
X98966000Y-109077250D01*
X98967053Y-109055809D01*
X98970203Y-109034574D01*
X98975419Y-109013750D01*
X98982651Y-108993538D01*
X98991830Y-108974132D01*
X99002866Y-108955719D01*
X99015654Y-108938476D01*
X99030070Y-108922570D01*
X99045976Y-108908154D01*
X99063219Y-108895366D01*
X99081632Y-108884330D01*
X99101038Y-108875151D01*
X99121250Y-108867919D01*
X99142074Y-108862703D01*
X99163309Y-108859553D01*
X99184750Y-108858500D01*
X99697250Y-108858500D01*
X99718691Y-108859553D01*
X99718691Y-108859553D01*
G37*
D12*
X99441000Y-109296000D03*
D10*
G36*
X99718691Y-110434553D02*
X99739926Y-110437703D01*
X99760750Y-110442919D01*
X99780962Y-110450151D01*
X99800368Y-110459330D01*
X99818781Y-110470366D01*
X99836024Y-110483154D01*
X99851930Y-110497570D01*
X99866346Y-110513476D01*
X99879134Y-110530719D01*
X99890170Y-110549132D01*
X99899349Y-110568538D01*
X99906581Y-110588750D01*
X99911797Y-110609574D01*
X99914947Y-110630809D01*
X99916000Y-110652250D01*
X99916000Y-111089750D01*
X99914947Y-111111191D01*
X99911797Y-111132426D01*
X99906581Y-111153250D01*
X99899349Y-111173462D01*
X99890170Y-111192868D01*
X99879134Y-111211281D01*
X99866346Y-111228524D01*
X99851930Y-111244430D01*
X99836024Y-111258846D01*
X99818781Y-111271634D01*
X99800368Y-111282670D01*
X99780962Y-111291849D01*
X99760750Y-111299081D01*
X99739926Y-111304297D01*
X99718691Y-111307447D01*
X99697250Y-111308500D01*
X99184750Y-111308500D01*
X99163309Y-111307447D01*
X99142074Y-111304297D01*
X99121250Y-111299081D01*
X99101038Y-111291849D01*
X99081632Y-111282670D01*
X99063219Y-111271634D01*
X99045976Y-111258846D01*
X99030070Y-111244430D01*
X99015654Y-111228524D01*
X99002866Y-111211281D01*
X98991830Y-111192868D01*
X98982651Y-111173462D01*
X98975419Y-111153250D01*
X98970203Y-111132426D01*
X98967053Y-111111191D01*
X98966000Y-111089750D01*
X98966000Y-110652250D01*
X98967053Y-110630809D01*
X98970203Y-110609574D01*
X98975419Y-110588750D01*
X98982651Y-110568538D01*
X98991830Y-110549132D01*
X99002866Y-110530719D01*
X99015654Y-110513476D01*
X99030070Y-110497570D01*
X99045976Y-110483154D01*
X99063219Y-110470366D01*
X99081632Y-110459330D01*
X99101038Y-110450151D01*
X99121250Y-110442919D01*
X99142074Y-110437703D01*
X99163309Y-110434553D01*
X99184750Y-110433500D01*
X99697250Y-110433500D01*
X99718691Y-110434553D01*
X99718691Y-110434553D01*
G37*
D12*
X99441000Y-110871000D03*
G04 #@! TD*
D10*
G04 #@! TO.C,C3*
G36*
X113117191Y-122855053D02*
X113138426Y-122858203D01*
X113159250Y-122863419D01*
X113179462Y-122870651D01*
X113198868Y-122879830D01*
X113217281Y-122890866D01*
X113234524Y-122903654D01*
X113250430Y-122918070D01*
X113264846Y-122933976D01*
X113277634Y-122951219D01*
X113288670Y-122969632D01*
X113297849Y-122989038D01*
X113305081Y-123009250D01*
X113310297Y-123030074D01*
X113313447Y-123051309D01*
X113314500Y-123072750D01*
X113314500Y-123510250D01*
X113313447Y-123531691D01*
X113310297Y-123552926D01*
X113305081Y-123573750D01*
X113297849Y-123593962D01*
X113288670Y-123613368D01*
X113277634Y-123631781D01*
X113264846Y-123649024D01*
X113250430Y-123664930D01*
X113234524Y-123679346D01*
X113217281Y-123692134D01*
X113198868Y-123703170D01*
X113179462Y-123712349D01*
X113159250Y-123719581D01*
X113138426Y-123724797D01*
X113117191Y-123727947D01*
X113095750Y-123729000D01*
X112583250Y-123729000D01*
X112561809Y-123727947D01*
X112540574Y-123724797D01*
X112519750Y-123719581D01*
X112499538Y-123712349D01*
X112480132Y-123703170D01*
X112461719Y-123692134D01*
X112444476Y-123679346D01*
X112428570Y-123664930D01*
X112414154Y-123649024D01*
X112401366Y-123631781D01*
X112390330Y-123613368D01*
X112381151Y-123593962D01*
X112373919Y-123573750D01*
X112368703Y-123552926D01*
X112365553Y-123531691D01*
X112364500Y-123510250D01*
X112364500Y-123072750D01*
X112365553Y-123051309D01*
X112368703Y-123030074D01*
X112373919Y-123009250D01*
X112381151Y-122989038D01*
X112390330Y-122969632D01*
X112401366Y-122951219D01*
X112414154Y-122933976D01*
X112428570Y-122918070D01*
X112444476Y-122903654D01*
X112461719Y-122890866D01*
X112480132Y-122879830D01*
X112499538Y-122870651D01*
X112519750Y-122863419D01*
X112540574Y-122858203D01*
X112561809Y-122855053D01*
X112583250Y-122854000D01*
X113095750Y-122854000D01*
X113117191Y-122855053D01*
X113117191Y-122855053D01*
G37*
D12*
X112839500Y-123291500D03*
D10*
G36*
X113117191Y-124430053D02*
X113138426Y-124433203D01*
X113159250Y-124438419D01*
X113179462Y-124445651D01*
X113198868Y-124454830D01*
X113217281Y-124465866D01*
X113234524Y-124478654D01*
X113250430Y-124493070D01*
X113264846Y-124508976D01*
X113277634Y-124526219D01*
X113288670Y-124544632D01*
X113297849Y-124564038D01*
X113305081Y-124584250D01*
X113310297Y-124605074D01*
X113313447Y-124626309D01*
X113314500Y-124647750D01*
X113314500Y-125085250D01*
X113313447Y-125106691D01*
X113310297Y-125127926D01*
X113305081Y-125148750D01*
X113297849Y-125168962D01*
X113288670Y-125188368D01*
X113277634Y-125206781D01*
X113264846Y-125224024D01*
X113250430Y-125239930D01*
X113234524Y-125254346D01*
X113217281Y-125267134D01*
X113198868Y-125278170D01*
X113179462Y-125287349D01*
X113159250Y-125294581D01*
X113138426Y-125299797D01*
X113117191Y-125302947D01*
X113095750Y-125304000D01*
X112583250Y-125304000D01*
X112561809Y-125302947D01*
X112540574Y-125299797D01*
X112519750Y-125294581D01*
X112499538Y-125287349D01*
X112480132Y-125278170D01*
X112461719Y-125267134D01*
X112444476Y-125254346D01*
X112428570Y-125239930D01*
X112414154Y-125224024D01*
X112401366Y-125206781D01*
X112390330Y-125188368D01*
X112381151Y-125168962D01*
X112373919Y-125148750D01*
X112368703Y-125127926D01*
X112365553Y-125106691D01*
X112364500Y-125085250D01*
X112364500Y-124647750D01*
X112365553Y-124626309D01*
X112368703Y-124605074D01*
X112373919Y-124584250D01*
X112381151Y-124564038D01*
X112390330Y-124544632D01*
X112401366Y-124526219D01*
X112414154Y-124508976D01*
X112428570Y-124493070D01*
X112444476Y-124478654D01*
X112461719Y-124465866D01*
X112480132Y-124454830D01*
X112499538Y-124445651D01*
X112519750Y-124438419D01*
X112540574Y-124433203D01*
X112561809Y-124430053D01*
X112583250Y-124429000D01*
X113095750Y-124429000D01*
X113117191Y-124430053D01*
X113117191Y-124430053D01*
G37*
D12*
X112839500Y-124866500D03*
G04 #@! TD*
D10*
G04 #@! TO.C,C4*
G36*
X131583691Y-128558053D02*
X131604926Y-128561203D01*
X131625750Y-128566419D01*
X131645962Y-128573651D01*
X131665368Y-128582830D01*
X131683781Y-128593866D01*
X131701024Y-128606654D01*
X131716930Y-128621070D01*
X131731346Y-128636976D01*
X131744134Y-128654219D01*
X131755170Y-128672632D01*
X131764349Y-128692038D01*
X131771581Y-128712250D01*
X131776797Y-128733074D01*
X131779947Y-128754309D01*
X131781000Y-128775750D01*
X131781000Y-129288250D01*
X131779947Y-129309691D01*
X131776797Y-129330926D01*
X131771581Y-129351750D01*
X131764349Y-129371962D01*
X131755170Y-129391368D01*
X131744134Y-129409781D01*
X131731346Y-129427024D01*
X131716930Y-129442930D01*
X131701024Y-129457346D01*
X131683781Y-129470134D01*
X131665368Y-129481170D01*
X131645962Y-129490349D01*
X131625750Y-129497581D01*
X131604926Y-129502797D01*
X131583691Y-129505947D01*
X131562250Y-129507000D01*
X131124750Y-129507000D01*
X131103309Y-129505947D01*
X131082074Y-129502797D01*
X131061250Y-129497581D01*
X131041038Y-129490349D01*
X131021632Y-129481170D01*
X131003219Y-129470134D01*
X130985976Y-129457346D01*
X130970070Y-129442930D01*
X130955654Y-129427024D01*
X130942866Y-129409781D01*
X130931830Y-129391368D01*
X130922651Y-129371962D01*
X130915419Y-129351750D01*
X130910203Y-129330926D01*
X130907053Y-129309691D01*
X130906000Y-129288250D01*
X130906000Y-128775750D01*
X130907053Y-128754309D01*
X130910203Y-128733074D01*
X130915419Y-128712250D01*
X130922651Y-128692038D01*
X130931830Y-128672632D01*
X130942866Y-128654219D01*
X130955654Y-128636976D01*
X130970070Y-128621070D01*
X130985976Y-128606654D01*
X131003219Y-128593866D01*
X131021632Y-128582830D01*
X131041038Y-128573651D01*
X131061250Y-128566419D01*
X131082074Y-128561203D01*
X131103309Y-128558053D01*
X131124750Y-128557000D01*
X131562250Y-128557000D01*
X131583691Y-128558053D01*
X131583691Y-128558053D01*
G37*
D12*
X131343500Y-129032000D03*
D10*
G36*
X130008691Y-128558053D02*
X130029926Y-128561203D01*
X130050750Y-128566419D01*
X130070962Y-128573651D01*
X130090368Y-128582830D01*
X130108781Y-128593866D01*
X130126024Y-128606654D01*
X130141930Y-128621070D01*
X130156346Y-128636976D01*
X130169134Y-128654219D01*
X130180170Y-128672632D01*
X130189349Y-128692038D01*
X130196581Y-128712250D01*
X130201797Y-128733074D01*
X130204947Y-128754309D01*
X130206000Y-128775750D01*
X130206000Y-129288250D01*
X130204947Y-129309691D01*
X130201797Y-129330926D01*
X130196581Y-129351750D01*
X130189349Y-129371962D01*
X130180170Y-129391368D01*
X130169134Y-129409781D01*
X130156346Y-129427024D01*
X130141930Y-129442930D01*
X130126024Y-129457346D01*
X130108781Y-129470134D01*
X130090368Y-129481170D01*
X130070962Y-129490349D01*
X130050750Y-129497581D01*
X130029926Y-129502797D01*
X130008691Y-129505947D01*
X129987250Y-129507000D01*
X129549750Y-129507000D01*
X129528309Y-129505947D01*
X129507074Y-129502797D01*
X129486250Y-129497581D01*
X129466038Y-129490349D01*
X129446632Y-129481170D01*
X129428219Y-129470134D01*
X129410976Y-129457346D01*
X129395070Y-129442930D01*
X129380654Y-129427024D01*
X129367866Y-129409781D01*
X129356830Y-129391368D01*
X129347651Y-129371962D01*
X129340419Y-129351750D01*
X129335203Y-129330926D01*
X129332053Y-129309691D01*
X129331000Y-129288250D01*
X129331000Y-128775750D01*
X129332053Y-128754309D01*
X129335203Y-128733074D01*
X129340419Y-128712250D01*
X129347651Y-128692038D01*
X129356830Y-128672632D01*
X129367866Y-128654219D01*
X129380654Y-128636976D01*
X129395070Y-128621070D01*
X129410976Y-128606654D01*
X129428219Y-128593866D01*
X129446632Y-128582830D01*
X129466038Y-128573651D01*
X129486250Y-128566419D01*
X129507074Y-128561203D01*
X129528309Y-128558053D01*
X129549750Y-128557000D01*
X129987250Y-128557000D01*
X130008691Y-128558053D01*
X130008691Y-128558053D01*
G37*
D12*
X129768500Y-129032000D03*
G04 #@! TD*
D10*
G04 #@! TO.C,C5*
G36*
X132865691Y-133624553D02*
X132886926Y-133627703D01*
X132907750Y-133632919D01*
X132927962Y-133640151D01*
X132947368Y-133649330D01*
X132965781Y-133660366D01*
X132983024Y-133673154D01*
X132998930Y-133687570D01*
X133013346Y-133703476D01*
X133026134Y-133720719D01*
X133037170Y-133739132D01*
X133046349Y-133758538D01*
X133053581Y-133778750D01*
X133058797Y-133799574D01*
X133061947Y-133820809D01*
X133063000Y-133842250D01*
X133063000Y-134279750D01*
X133061947Y-134301191D01*
X133058797Y-134322426D01*
X133053581Y-134343250D01*
X133046349Y-134363462D01*
X133037170Y-134382868D01*
X133026134Y-134401281D01*
X133013346Y-134418524D01*
X132998930Y-134434430D01*
X132983024Y-134448846D01*
X132965781Y-134461634D01*
X132947368Y-134472670D01*
X132927962Y-134481849D01*
X132907750Y-134489081D01*
X132886926Y-134494297D01*
X132865691Y-134497447D01*
X132844250Y-134498500D01*
X132331750Y-134498500D01*
X132310309Y-134497447D01*
X132289074Y-134494297D01*
X132268250Y-134489081D01*
X132248038Y-134481849D01*
X132228632Y-134472670D01*
X132210219Y-134461634D01*
X132192976Y-134448846D01*
X132177070Y-134434430D01*
X132162654Y-134418524D01*
X132149866Y-134401281D01*
X132138830Y-134382868D01*
X132129651Y-134363462D01*
X132122419Y-134343250D01*
X132117203Y-134322426D01*
X132114053Y-134301191D01*
X132113000Y-134279750D01*
X132113000Y-133842250D01*
X132114053Y-133820809D01*
X132117203Y-133799574D01*
X132122419Y-133778750D01*
X132129651Y-133758538D01*
X132138830Y-133739132D01*
X132149866Y-133720719D01*
X132162654Y-133703476D01*
X132177070Y-133687570D01*
X132192976Y-133673154D01*
X132210219Y-133660366D01*
X132228632Y-133649330D01*
X132248038Y-133640151D01*
X132268250Y-133632919D01*
X132289074Y-133627703D01*
X132310309Y-133624553D01*
X132331750Y-133623500D01*
X132844250Y-133623500D01*
X132865691Y-133624553D01*
X132865691Y-133624553D01*
G37*
D12*
X132588000Y-134061000D03*
D10*
G36*
X132865691Y-135199553D02*
X132886926Y-135202703D01*
X132907750Y-135207919D01*
X132927962Y-135215151D01*
X132947368Y-135224330D01*
X132965781Y-135235366D01*
X132983024Y-135248154D01*
X132998930Y-135262570D01*
X133013346Y-135278476D01*
X133026134Y-135295719D01*
X133037170Y-135314132D01*
X133046349Y-135333538D01*
X133053581Y-135353750D01*
X133058797Y-135374574D01*
X133061947Y-135395809D01*
X133063000Y-135417250D01*
X133063000Y-135854750D01*
X133061947Y-135876191D01*
X133058797Y-135897426D01*
X133053581Y-135918250D01*
X133046349Y-135938462D01*
X133037170Y-135957868D01*
X133026134Y-135976281D01*
X133013346Y-135993524D01*
X132998930Y-136009430D01*
X132983024Y-136023846D01*
X132965781Y-136036634D01*
X132947368Y-136047670D01*
X132927962Y-136056849D01*
X132907750Y-136064081D01*
X132886926Y-136069297D01*
X132865691Y-136072447D01*
X132844250Y-136073500D01*
X132331750Y-136073500D01*
X132310309Y-136072447D01*
X132289074Y-136069297D01*
X132268250Y-136064081D01*
X132248038Y-136056849D01*
X132228632Y-136047670D01*
X132210219Y-136036634D01*
X132192976Y-136023846D01*
X132177070Y-136009430D01*
X132162654Y-135993524D01*
X132149866Y-135976281D01*
X132138830Y-135957868D01*
X132129651Y-135938462D01*
X132122419Y-135918250D01*
X132117203Y-135897426D01*
X132114053Y-135876191D01*
X132113000Y-135854750D01*
X132113000Y-135417250D01*
X132114053Y-135395809D01*
X132117203Y-135374574D01*
X132122419Y-135353750D01*
X132129651Y-135333538D01*
X132138830Y-135314132D01*
X132149866Y-135295719D01*
X132162654Y-135278476D01*
X132177070Y-135262570D01*
X132192976Y-135248154D01*
X132210219Y-135235366D01*
X132228632Y-135224330D01*
X132248038Y-135215151D01*
X132268250Y-135207919D01*
X132289074Y-135202703D01*
X132310309Y-135199553D01*
X132331750Y-135198500D01*
X132844250Y-135198500D01*
X132865691Y-135199553D01*
X132865691Y-135199553D01*
G37*
D12*
X132588000Y-135636000D03*
G04 #@! TD*
D10*
G04 #@! TO.C,C6*
G36*
X130999191Y-99983053D02*
X131020426Y-99986203D01*
X131041250Y-99991419D01*
X131061462Y-99998651D01*
X131080868Y-100007830D01*
X131099281Y-100018866D01*
X131116524Y-100031654D01*
X131132430Y-100046070D01*
X131146846Y-100061976D01*
X131159634Y-100079219D01*
X131170670Y-100097632D01*
X131179849Y-100117038D01*
X131187081Y-100137250D01*
X131192297Y-100158074D01*
X131195447Y-100179309D01*
X131196500Y-100200750D01*
X131196500Y-100713250D01*
X131195447Y-100734691D01*
X131192297Y-100755926D01*
X131187081Y-100776750D01*
X131179849Y-100796962D01*
X131170670Y-100816368D01*
X131159634Y-100834781D01*
X131146846Y-100852024D01*
X131132430Y-100867930D01*
X131116524Y-100882346D01*
X131099281Y-100895134D01*
X131080868Y-100906170D01*
X131061462Y-100915349D01*
X131041250Y-100922581D01*
X131020426Y-100927797D01*
X130999191Y-100930947D01*
X130977750Y-100932000D01*
X130540250Y-100932000D01*
X130518809Y-100930947D01*
X130497574Y-100927797D01*
X130476750Y-100922581D01*
X130456538Y-100915349D01*
X130437132Y-100906170D01*
X130418719Y-100895134D01*
X130401476Y-100882346D01*
X130385570Y-100867930D01*
X130371154Y-100852024D01*
X130358366Y-100834781D01*
X130347330Y-100816368D01*
X130338151Y-100796962D01*
X130330919Y-100776750D01*
X130325703Y-100755926D01*
X130322553Y-100734691D01*
X130321500Y-100713250D01*
X130321500Y-100200750D01*
X130322553Y-100179309D01*
X130325703Y-100158074D01*
X130330919Y-100137250D01*
X130338151Y-100117038D01*
X130347330Y-100097632D01*
X130358366Y-100079219D01*
X130371154Y-100061976D01*
X130385570Y-100046070D01*
X130401476Y-100031654D01*
X130418719Y-100018866D01*
X130437132Y-100007830D01*
X130456538Y-99998651D01*
X130476750Y-99991419D01*
X130497574Y-99986203D01*
X130518809Y-99983053D01*
X130540250Y-99982000D01*
X130977750Y-99982000D01*
X130999191Y-99983053D01*
X130999191Y-99983053D01*
G37*
D12*
X130759000Y-100457000D03*
D10*
G36*
X132574191Y-99983053D02*
X132595426Y-99986203D01*
X132616250Y-99991419D01*
X132636462Y-99998651D01*
X132655868Y-100007830D01*
X132674281Y-100018866D01*
X132691524Y-100031654D01*
X132707430Y-100046070D01*
X132721846Y-100061976D01*
X132734634Y-100079219D01*
X132745670Y-100097632D01*
X132754849Y-100117038D01*
X132762081Y-100137250D01*
X132767297Y-100158074D01*
X132770447Y-100179309D01*
X132771500Y-100200750D01*
X132771500Y-100713250D01*
X132770447Y-100734691D01*
X132767297Y-100755926D01*
X132762081Y-100776750D01*
X132754849Y-100796962D01*
X132745670Y-100816368D01*
X132734634Y-100834781D01*
X132721846Y-100852024D01*
X132707430Y-100867930D01*
X132691524Y-100882346D01*
X132674281Y-100895134D01*
X132655868Y-100906170D01*
X132636462Y-100915349D01*
X132616250Y-100922581D01*
X132595426Y-100927797D01*
X132574191Y-100930947D01*
X132552750Y-100932000D01*
X132115250Y-100932000D01*
X132093809Y-100930947D01*
X132072574Y-100927797D01*
X132051750Y-100922581D01*
X132031538Y-100915349D01*
X132012132Y-100906170D01*
X131993719Y-100895134D01*
X131976476Y-100882346D01*
X131960570Y-100867930D01*
X131946154Y-100852024D01*
X131933366Y-100834781D01*
X131922330Y-100816368D01*
X131913151Y-100796962D01*
X131905919Y-100776750D01*
X131900703Y-100755926D01*
X131897553Y-100734691D01*
X131896500Y-100713250D01*
X131896500Y-100200750D01*
X131897553Y-100179309D01*
X131900703Y-100158074D01*
X131905919Y-100137250D01*
X131913151Y-100117038D01*
X131922330Y-100097632D01*
X131933366Y-100079219D01*
X131946154Y-100061976D01*
X131960570Y-100046070D01*
X131976476Y-100031654D01*
X131993719Y-100018866D01*
X132012132Y-100007830D01*
X132031538Y-99998651D01*
X132051750Y-99991419D01*
X132072574Y-99986203D01*
X132093809Y-99983053D01*
X132115250Y-99982000D01*
X132552750Y-99982000D01*
X132574191Y-99983053D01*
X132574191Y-99983053D01*
G37*
D12*
X132334000Y-100457000D03*
G04 #@! TD*
D10*
G04 #@! TO.C,C7*
G36*
X94511691Y-137638053D02*
X94532926Y-137641203D01*
X94553750Y-137646419D01*
X94573962Y-137653651D01*
X94593368Y-137662830D01*
X94611781Y-137673866D01*
X94629024Y-137686654D01*
X94644930Y-137701070D01*
X94659346Y-137716976D01*
X94672134Y-137734219D01*
X94683170Y-137752632D01*
X94692349Y-137772038D01*
X94699581Y-137792250D01*
X94704797Y-137813074D01*
X94707947Y-137834309D01*
X94709000Y-137855750D01*
X94709000Y-138293250D01*
X94707947Y-138314691D01*
X94704797Y-138335926D01*
X94699581Y-138356750D01*
X94692349Y-138376962D01*
X94683170Y-138396368D01*
X94672134Y-138414781D01*
X94659346Y-138432024D01*
X94644930Y-138447930D01*
X94629024Y-138462346D01*
X94611781Y-138475134D01*
X94593368Y-138486170D01*
X94573962Y-138495349D01*
X94553750Y-138502581D01*
X94532926Y-138507797D01*
X94511691Y-138510947D01*
X94490250Y-138512000D01*
X93977750Y-138512000D01*
X93956309Y-138510947D01*
X93935074Y-138507797D01*
X93914250Y-138502581D01*
X93894038Y-138495349D01*
X93874632Y-138486170D01*
X93856219Y-138475134D01*
X93838976Y-138462346D01*
X93823070Y-138447930D01*
X93808654Y-138432024D01*
X93795866Y-138414781D01*
X93784830Y-138396368D01*
X93775651Y-138376962D01*
X93768419Y-138356750D01*
X93763203Y-138335926D01*
X93760053Y-138314691D01*
X93759000Y-138293250D01*
X93759000Y-137855750D01*
X93760053Y-137834309D01*
X93763203Y-137813074D01*
X93768419Y-137792250D01*
X93775651Y-137772038D01*
X93784830Y-137752632D01*
X93795866Y-137734219D01*
X93808654Y-137716976D01*
X93823070Y-137701070D01*
X93838976Y-137686654D01*
X93856219Y-137673866D01*
X93874632Y-137662830D01*
X93894038Y-137653651D01*
X93914250Y-137646419D01*
X93935074Y-137641203D01*
X93956309Y-137638053D01*
X93977750Y-137637000D01*
X94490250Y-137637000D01*
X94511691Y-137638053D01*
X94511691Y-137638053D01*
G37*
D12*
X94234000Y-138074500D03*
D10*
G36*
X94511691Y-136063053D02*
X94532926Y-136066203D01*
X94553750Y-136071419D01*
X94573962Y-136078651D01*
X94593368Y-136087830D01*
X94611781Y-136098866D01*
X94629024Y-136111654D01*
X94644930Y-136126070D01*
X94659346Y-136141976D01*
X94672134Y-136159219D01*
X94683170Y-136177632D01*
X94692349Y-136197038D01*
X94699581Y-136217250D01*
X94704797Y-136238074D01*
X94707947Y-136259309D01*
X94709000Y-136280750D01*
X94709000Y-136718250D01*
X94707947Y-136739691D01*
X94704797Y-136760926D01*
X94699581Y-136781750D01*
X94692349Y-136801962D01*
X94683170Y-136821368D01*
X94672134Y-136839781D01*
X94659346Y-136857024D01*
X94644930Y-136872930D01*
X94629024Y-136887346D01*
X94611781Y-136900134D01*
X94593368Y-136911170D01*
X94573962Y-136920349D01*
X94553750Y-136927581D01*
X94532926Y-136932797D01*
X94511691Y-136935947D01*
X94490250Y-136937000D01*
X93977750Y-136937000D01*
X93956309Y-136935947D01*
X93935074Y-136932797D01*
X93914250Y-136927581D01*
X93894038Y-136920349D01*
X93874632Y-136911170D01*
X93856219Y-136900134D01*
X93838976Y-136887346D01*
X93823070Y-136872930D01*
X93808654Y-136857024D01*
X93795866Y-136839781D01*
X93784830Y-136821368D01*
X93775651Y-136801962D01*
X93768419Y-136781750D01*
X93763203Y-136760926D01*
X93760053Y-136739691D01*
X93759000Y-136718250D01*
X93759000Y-136280750D01*
X93760053Y-136259309D01*
X93763203Y-136238074D01*
X93768419Y-136217250D01*
X93775651Y-136197038D01*
X93784830Y-136177632D01*
X93795866Y-136159219D01*
X93808654Y-136141976D01*
X93823070Y-136126070D01*
X93838976Y-136111654D01*
X93856219Y-136098866D01*
X93874632Y-136087830D01*
X93894038Y-136078651D01*
X93914250Y-136071419D01*
X93935074Y-136066203D01*
X93956309Y-136063053D01*
X93977750Y-136062000D01*
X94490250Y-136062000D01*
X94511691Y-136063053D01*
X94511691Y-136063053D01*
G37*
D12*
X94234000Y-136499500D03*
G04 #@! TD*
D10*
G04 #@! TO.C,C8*
G36*
X92860691Y-136063053D02*
X92881926Y-136066203D01*
X92902750Y-136071419D01*
X92922962Y-136078651D01*
X92942368Y-136087830D01*
X92960781Y-136098866D01*
X92978024Y-136111654D01*
X92993930Y-136126070D01*
X93008346Y-136141976D01*
X93021134Y-136159219D01*
X93032170Y-136177632D01*
X93041349Y-136197038D01*
X93048581Y-136217250D01*
X93053797Y-136238074D01*
X93056947Y-136259309D01*
X93058000Y-136280750D01*
X93058000Y-136718250D01*
X93056947Y-136739691D01*
X93053797Y-136760926D01*
X93048581Y-136781750D01*
X93041349Y-136801962D01*
X93032170Y-136821368D01*
X93021134Y-136839781D01*
X93008346Y-136857024D01*
X92993930Y-136872930D01*
X92978024Y-136887346D01*
X92960781Y-136900134D01*
X92942368Y-136911170D01*
X92922962Y-136920349D01*
X92902750Y-136927581D01*
X92881926Y-136932797D01*
X92860691Y-136935947D01*
X92839250Y-136937000D01*
X92326750Y-136937000D01*
X92305309Y-136935947D01*
X92284074Y-136932797D01*
X92263250Y-136927581D01*
X92243038Y-136920349D01*
X92223632Y-136911170D01*
X92205219Y-136900134D01*
X92187976Y-136887346D01*
X92172070Y-136872930D01*
X92157654Y-136857024D01*
X92144866Y-136839781D01*
X92133830Y-136821368D01*
X92124651Y-136801962D01*
X92117419Y-136781750D01*
X92112203Y-136760926D01*
X92109053Y-136739691D01*
X92108000Y-136718250D01*
X92108000Y-136280750D01*
X92109053Y-136259309D01*
X92112203Y-136238074D01*
X92117419Y-136217250D01*
X92124651Y-136197038D01*
X92133830Y-136177632D01*
X92144866Y-136159219D01*
X92157654Y-136141976D01*
X92172070Y-136126070D01*
X92187976Y-136111654D01*
X92205219Y-136098866D01*
X92223632Y-136087830D01*
X92243038Y-136078651D01*
X92263250Y-136071419D01*
X92284074Y-136066203D01*
X92305309Y-136063053D01*
X92326750Y-136062000D01*
X92839250Y-136062000D01*
X92860691Y-136063053D01*
X92860691Y-136063053D01*
G37*
D12*
X92583000Y-136499500D03*
D10*
G36*
X92860691Y-137638053D02*
X92881926Y-137641203D01*
X92902750Y-137646419D01*
X92922962Y-137653651D01*
X92942368Y-137662830D01*
X92960781Y-137673866D01*
X92978024Y-137686654D01*
X92993930Y-137701070D01*
X93008346Y-137716976D01*
X93021134Y-137734219D01*
X93032170Y-137752632D01*
X93041349Y-137772038D01*
X93048581Y-137792250D01*
X93053797Y-137813074D01*
X93056947Y-137834309D01*
X93058000Y-137855750D01*
X93058000Y-138293250D01*
X93056947Y-138314691D01*
X93053797Y-138335926D01*
X93048581Y-138356750D01*
X93041349Y-138376962D01*
X93032170Y-138396368D01*
X93021134Y-138414781D01*
X93008346Y-138432024D01*
X92993930Y-138447930D01*
X92978024Y-138462346D01*
X92960781Y-138475134D01*
X92942368Y-138486170D01*
X92922962Y-138495349D01*
X92902750Y-138502581D01*
X92881926Y-138507797D01*
X92860691Y-138510947D01*
X92839250Y-138512000D01*
X92326750Y-138512000D01*
X92305309Y-138510947D01*
X92284074Y-138507797D01*
X92263250Y-138502581D01*
X92243038Y-138495349D01*
X92223632Y-138486170D01*
X92205219Y-138475134D01*
X92187976Y-138462346D01*
X92172070Y-138447930D01*
X92157654Y-138432024D01*
X92144866Y-138414781D01*
X92133830Y-138396368D01*
X92124651Y-138376962D01*
X92117419Y-138356750D01*
X92112203Y-138335926D01*
X92109053Y-138314691D01*
X92108000Y-138293250D01*
X92108000Y-137855750D01*
X92109053Y-137834309D01*
X92112203Y-137813074D01*
X92117419Y-137792250D01*
X92124651Y-137772038D01*
X92133830Y-137752632D01*
X92144866Y-137734219D01*
X92157654Y-137716976D01*
X92172070Y-137701070D01*
X92187976Y-137686654D01*
X92205219Y-137673866D01*
X92223632Y-137662830D01*
X92243038Y-137653651D01*
X92263250Y-137646419D01*
X92284074Y-137641203D01*
X92305309Y-137638053D01*
X92326750Y-137637000D01*
X92839250Y-137637000D01*
X92860691Y-137638053D01*
X92860691Y-137638053D01*
G37*
D12*
X92583000Y-138074500D03*
G04 #@! TD*
D13*
G04 #@! TO.C,D1*
X86252000Y-131953000D03*
X83928000Y-131953000D03*
G04 #@! TD*
D10*
G04 #@! TO.C,D2*
G36*
X138365142Y-96456174D02*
X138388803Y-96459684D01*
X138412007Y-96465496D01*
X138434529Y-96473554D01*
X138456153Y-96483782D01*
X138476670Y-96496079D01*
X138495883Y-96510329D01*
X138513607Y-96526393D01*
X138529671Y-96544117D01*
X138543921Y-96563330D01*
X138556218Y-96583847D01*
X138566446Y-96605471D01*
X138574504Y-96627993D01*
X138580316Y-96651197D01*
X138583826Y-96674858D01*
X138585000Y-96698750D01*
X138585000Y-97611250D01*
X138583826Y-97635142D01*
X138580316Y-97658803D01*
X138574504Y-97682007D01*
X138566446Y-97704529D01*
X138556218Y-97726153D01*
X138543921Y-97746670D01*
X138529671Y-97765883D01*
X138513607Y-97783607D01*
X138495883Y-97799671D01*
X138476670Y-97813921D01*
X138456153Y-97826218D01*
X138434529Y-97836446D01*
X138412007Y-97844504D01*
X138388803Y-97850316D01*
X138365142Y-97853826D01*
X138341250Y-97855000D01*
X137853750Y-97855000D01*
X137829858Y-97853826D01*
X137806197Y-97850316D01*
X137782993Y-97844504D01*
X137760471Y-97836446D01*
X137738847Y-97826218D01*
X137718330Y-97813921D01*
X137699117Y-97799671D01*
X137681393Y-97783607D01*
X137665329Y-97765883D01*
X137651079Y-97746670D01*
X137638782Y-97726153D01*
X137628554Y-97704529D01*
X137620496Y-97682007D01*
X137614684Y-97658803D01*
X137611174Y-97635142D01*
X137610000Y-97611250D01*
X137610000Y-96698750D01*
X137611174Y-96674858D01*
X137614684Y-96651197D01*
X137620496Y-96627993D01*
X137628554Y-96605471D01*
X137638782Y-96583847D01*
X137651079Y-96563330D01*
X137665329Y-96544117D01*
X137681393Y-96526393D01*
X137699117Y-96510329D01*
X137718330Y-96496079D01*
X137738847Y-96483782D01*
X137760471Y-96473554D01*
X137782993Y-96465496D01*
X137806197Y-96459684D01*
X137829858Y-96456174D01*
X137853750Y-96455000D01*
X138341250Y-96455000D01*
X138365142Y-96456174D01*
X138365142Y-96456174D01*
G37*
D11*
X138097500Y-97155000D03*
D10*
G36*
X136490142Y-96456174D02*
X136513803Y-96459684D01*
X136537007Y-96465496D01*
X136559529Y-96473554D01*
X136581153Y-96483782D01*
X136601670Y-96496079D01*
X136620883Y-96510329D01*
X136638607Y-96526393D01*
X136654671Y-96544117D01*
X136668921Y-96563330D01*
X136681218Y-96583847D01*
X136691446Y-96605471D01*
X136699504Y-96627993D01*
X136705316Y-96651197D01*
X136708826Y-96674858D01*
X136710000Y-96698750D01*
X136710000Y-97611250D01*
X136708826Y-97635142D01*
X136705316Y-97658803D01*
X136699504Y-97682007D01*
X136691446Y-97704529D01*
X136681218Y-97726153D01*
X136668921Y-97746670D01*
X136654671Y-97765883D01*
X136638607Y-97783607D01*
X136620883Y-97799671D01*
X136601670Y-97813921D01*
X136581153Y-97826218D01*
X136559529Y-97836446D01*
X136537007Y-97844504D01*
X136513803Y-97850316D01*
X136490142Y-97853826D01*
X136466250Y-97855000D01*
X135978750Y-97855000D01*
X135954858Y-97853826D01*
X135931197Y-97850316D01*
X135907993Y-97844504D01*
X135885471Y-97836446D01*
X135863847Y-97826218D01*
X135843330Y-97813921D01*
X135824117Y-97799671D01*
X135806393Y-97783607D01*
X135790329Y-97765883D01*
X135776079Y-97746670D01*
X135763782Y-97726153D01*
X135753554Y-97704529D01*
X135745496Y-97682007D01*
X135739684Y-97658803D01*
X135736174Y-97635142D01*
X135735000Y-97611250D01*
X135735000Y-96698750D01*
X135736174Y-96674858D01*
X135739684Y-96651197D01*
X135745496Y-96627993D01*
X135753554Y-96605471D01*
X135763782Y-96583847D01*
X135776079Y-96563330D01*
X135790329Y-96544117D01*
X135806393Y-96526393D01*
X135824117Y-96510329D01*
X135843330Y-96496079D01*
X135863847Y-96483782D01*
X135885471Y-96473554D01*
X135907993Y-96465496D01*
X135931197Y-96459684D01*
X135954858Y-96456174D01*
X135978750Y-96455000D01*
X136466250Y-96455000D01*
X136490142Y-96456174D01*
X136490142Y-96456174D01*
G37*
D11*
X136222500Y-97155000D03*
G04 #@! TD*
D14*
G04 #@! TO.C,D3*
X83859000Y-130048000D03*
X85559000Y-130048000D03*
G04 #@! TD*
D15*
G04 #@! TO.C,D4*
X86614000Y-135294000D03*
X86614000Y-136994000D03*
G04 #@! TD*
G04 #@! TO.C,D5*
X84582000Y-136955000D03*
X84582000Y-135255000D03*
G04 #@! TD*
D16*
G04 #@! TO.C,IC1*
X96710000Y-132612000D03*
X96710000Y-133112000D03*
X96710000Y-133612000D03*
X96710000Y-134112000D03*
X96710000Y-134612000D03*
X96710000Y-135112000D03*
X96710000Y-135612000D03*
D17*
X97560000Y-136462000D03*
X98060000Y-136462000D03*
X98560000Y-136462000D03*
X99060000Y-136462000D03*
X99560000Y-136462000D03*
X100060000Y-136462000D03*
X100560000Y-136462000D03*
D16*
X101410000Y-135612000D03*
X101410000Y-135112000D03*
X101410000Y-134612000D03*
X101410000Y-134112000D03*
X101410000Y-133612000D03*
X101410000Y-133112000D03*
X101410000Y-132612000D03*
D17*
X100560000Y-131762000D03*
X100060000Y-131762000D03*
X99560000Y-131762000D03*
X99060000Y-131762000D03*
X98560000Y-131762000D03*
X98060000Y-131762000D03*
X97560000Y-131762000D03*
D18*
X99060000Y-134112000D03*
G04 #@! TD*
D19*
G04 #@! TO.C,Q1*
X104868000Y-128209000D03*
X104868000Y-130109000D03*
X106968000Y-129159000D03*
G04 #@! TD*
G04 #@! TO.C,Q2*
X104868000Y-125188000D03*
X106968000Y-124238000D03*
X106968000Y-126138000D03*
G04 #@! TD*
D10*
G04 #@! TO.C,R3*
G36*
X127240191Y-108873053D02*
X127261426Y-108876203D01*
X127282250Y-108881419D01*
X127302462Y-108888651D01*
X127321868Y-108897830D01*
X127340281Y-108908866D01*
X127357524Y-108921654D01*
X127373430Y-108936070D01*
X127387846Y-108951976D01*
X127400634Y-108969219D01*
X127411670Y-108987632D01*
X127420849Y-109007038D01*
X127428081Y-109027250D01*
X127433297Y-109048074D01*
X127436447Y-109069309D01*
X127437500Y-109090750D01*
X127437500Y-109603250D01*
X127436447Y-109624691D01*
X127433297Y-109645926D01*
X127428081Y-109666750D01*
X127420849Y-109686962D01*
X127411670Y-109706368D01*
X127400634Y-109724781D01*
X127387846Y-109742024D01*
X127373430Y-109757930D01*
X127357524Y-109772346D01*
X127340281Y-109785134D01*
X127321868Y-109796170D01*
X127302462Y-109805349D01*
X127282250Y-109812581D01*
X127261426Y-109817797D01*
X127240191Y-109820947D01*
X127218750Y-109822000D01*
X126781250Y-109822000D01*
X126759809Y-109820947D01*
X126738574Y-109817797D01*
X126717750Y-109812581D01*
X126697538Y-109805349D01*
X126678132Y-109796170D01*
X126659719Y-109785134D01*
X126642476Y-109772346D01*
X126626570Y-109757930D01*
X126612154Y-109742024D01*
X126599366Y-109724781D01*
X126588330Y-109706368D01*
X126579151Y-109686962D01*
X126571919Y-109666750D01*
X126566703Y-109645926D01*
X126563553Y-109624691D01*
X126562500Y-109603250D01*
X126562500Y-109090750D01*
X126563553Y-109069309D01*
X126566703Y-109048074D01*
X126571919Y-109027250D01*
X126579151Y-109007038D01*
X126588330Y-108987632D01*
X126599366Y-108969219D01*
X126612154Y-108951976D01*
X126626570Y-108936070D01*
X126642476Y-108921654D01*
X126659719Y-108908866D01*
X126678132Y-108897830D01*
X126697538Y-108888651D01*
X126717750Y-108881419D01*
X126738574Y-108876203D01*
X126759809Y-108873053D01*
X126781250Y-108872000D01*
X127218750Y-108872000D01*
X127240191Y-108873053D01*
X127240191Y-108873053D01*
G37*
D12*
X127000000Y-109347000D03*
D10*
G36*
X125665191Y-108873053D02*
X125686426Y-108876203D01*
X125707250Y-108881419D01*
X125727462Y-108888651D01*
X125746868Y-108897830D01*
X125765281Y-108908866D01*
X125782524Y-108921654D01*
X125798430Y-108936070D01*
X125812846Y-108951976D01*
X125825634Y-108969219D01*
X125836670Y-108987632D01*
X125845849Y-109007038D01*
X125853081Y-109027250D01*
X125858297Y-109048074D01*
X125861447Y-109069309D01*
X125862500Y-109090750D01*
X125862500Y-109603250D01*
X125861447Y-109624691D01*
X125858297Y-109645926D01*
X125853081Y-109666750D01*
X125845849Y-109686962D01*
X125836670Y-109706368D01*
X125825634Y-109724781D01*
X125812846Y-109742024D01*
X125798430Y-109757930D01*
X125782524Y-109772346D01*
X125765281Y-109785134D01*
X125746868Y-109796170D01*
X125727462Y-109805349D01*
X125707250Y-109812581D01*
X125686426Y-109817797D01*
X125665191Y-109820947D01*
X125643750Y-109822000D01*
X125206250Y-109822000D01*
X125184809Y-109820947D01*
X125163574Y-109817797D01*
X125142750Y-109812581D01*
X125122538Y-109805349D01*
X125103132Y-109796170D01*
X125084719Y-109785134D01*
X125067476Y-109772346D01*
X125051570Y-109757930D01*
X125037154Y-109742024D01*
X125024366Y-109724781D01*
X125013330Y-109706368D01*
X125004151Y-109686962D01*
X124996919Y-109666750D01*
X124991703Y-109645926D01*
X124988553Y-109624691D01*
X124987500Y-109603250D01*
X124987500Y-109090750D01*
X124988553Y-109069309D01*
X124991703Y-109048074D01*
X124996919Y-109027250D01*
X125004151Y-109007038D01*
X125013330Y-108987632D01*
X125024366Y-108969219D01*
X125037154Y-108951976D01*
X125051570Y-108936070D01*
X125067476Y-108921654D01*
X125084719Y-108908866D01*
X125103132Y-108897830D01*
X125122538Y-108888651D01*
X125142750Y-108881419D01*
X125163574Y-108876203D01*
X125184809Y-108873053D01*
X125206250Y-108872000D01*
X125643750Y-108872000D01*
X125665191Y-108873053D01*
X125665191Y-108873053D01*
G37*
D12*
X125425000Y-109347000D03*
G04 #@! TD*
D10*
G04 #@! TO.C,R4*
G36*
X125665191Y-105063053D02*
X125686426Y-105066203D01*
X125707250Y-105071419D01*
X125727462Y-105078651D01*
X125746868Y-105087830D01*
X125765281Y-105098866D01*
X125782524Y-105111654D01*
X125798430Y-105126070D01*
X125812846Y-105141976D01*
X125825634Y-105159219D01*
X125836670Y-105177632D01*
X125845849Y-105197038D01*
X125853081Y-105217250D01*
X125858297Y-105238074D01*
X125861447Y-105259309D01*
X125862500Y-105280750D01*
X125862500Y-105793250D01*
X125861447Y-105814691D01*
X125858297Y-105835926D01*
X125853081Y-105856750D01*
X125845849Y-105876962D01*
X125836670Y-105896368D01*
X125825634Y-105914781D01*
X125812846Y-105932024D01*
X125798430Y-105947930D01*
X125782524Y-105962346D01*
X125765281Y-105975134D01*
X125746868Y-105986170D01*
X125727462Y-105995349D01*
X125707250Y-106002581D01*
X125686426Y-106007797D01*
X125665191Y-106010947D01*
X125643750Y-106012000D01*
X125206250Y-106012000D01*
X125184809Y-106010947D01*
X125163574Y-106007797D01*
X125142750Y-106002581D01*
X125122538Y-105995349D01*
X125103132Y-105986170D01*
X125084719Y-105975134D01*
X125067476Y-105962346D01*
X125051570Y-105947930D01*
X125037154Y-105932024D01*
X125024366Y-105914781D01*
X125013330Y-105896368D01*
X125004151Y-105876962D01*
X124996919Y-105856750D01*
X124991703Y-105835926D01*
X124988553Y-105814691D01*
X124987500Y-105793250D01*
X124987500Y-105280750D01*
X124988553Y-105259309D01*
X124991703Y-105238074D01*
X124996919Y-105217250D01*
X125004151Y-105197038D01*
X125013330Y-105177632D01*
X125024366Y-105159219D01*
X125037154Y-105141976D01*
X125051570Y-105126070D01*
X125067476Y-105111654D01*
X125084719Y-105098866D01*
X125103132Y-105087830D01*
X125122538Y-105078651D01*
X125142750Y-105071419D01*
X125163574Y-105066203D01*
X125184809Y-105063053D01*
X125206250Y-105062000D01*
X125643750Y-105062000D01*
X125665191Y-105063053D01*
X125665191Y-105063053D01*
G37*
D12*
X125425000Y-105537000D03*
D10*
G36*
X127240191Y-105063053D02*
X127261426Y-105066203D01*
X127282250Y-105071419D01*
X127302462Y-105078651D01*
X127321868Y-105087830D01*
X127340281Y-105098866D01*
X127357524Y-105111654D01*
X127373430Y-105126070D01*
X127387846Y-105141976D01*
X127400634Y-105159219D01*
X127411670Y-105177632D01*
X127420849Y-105197038D01*
X127428081Y-105217250D01*
X127433297Y-105238074D01*
X127436447Y-105259309D01*
X127437500Y-105280750D01*
X127437500Y-105793250D01*
X127436447Y-105814691D01*
X127433297Y-105835926D01*
X127428081Y-105856750D01*
X127420849Y-105876962D01*
X127411670Y-105896368D01*
X127400634Y-105914781D01*
X127387846Y-105932024D01*
X127373430Y-105947930D01*
X127357524Y-105962346D01*
X127340281Y-105975134D01*
X127321868Y-105986170D01*
X127302462Y-105995349D01*
X127282250Y-106002581D01*
X127261426Y-106007797D01*
X127240191Y-106010947D01*
X127218750Y-106012000D01*
X126781250Y-106012000D01*
X126759809Y-106010947D01*
X126738574Y-106007797D01*
X126717750Y-106002581D01*
X126697538Y-105995349D01*
X126678132Y-105986170D01*
X126659719Y-105975134D01*
X126642476Y-105962346D01*
X126626570Y-105947930D01*
X126612154Y-105932024D01*
X126599366Y-105914781D01*
X126588330Y-105896368D01*
X126579151Y-105876962D01*
X126571919Y-105856750D01*
X126566703Y-105835926D01*
X126563553Y-105814691D01*
X126562500Y-105793250D01*
X126562500Y-105280750D01*
X126563553Y-105259309D01*
X126566703Y-105238074D01*
X126571919Y-105217250D01*
X126579151Y-105197038D01*
X126588330Y-105177632D01*
X126599366Y-105159219D01*
X126612154Y-105141976D01*
X126626570Y-105126070D01*
X126642476Y-105111654D01*
X126659719Y-105098866D01*
X126678132Y-105087830D01*
X126697538Y-105078651D01*
X126717750Y-105071419D01*
X126738574Y-105066203D01*
X126759809Y-105063053D01*
X126781250Y-105062000D01*
X127218750Y-105062000D01*
X127240191Y-105063053D01*
X127240191Y-105063053D01*
G37*
D12*
X127000000Y-105537000D03*
G04 #@! TD*
D10*
G04 #@! TO.C,R5*
G36*
X96226691Y-139226053D02*
X96247926Y-139229203D01*
X96268750Y-139234419D01*
X96288962Y-139241651D01*
X96308368Y-139250830D01*
X96326781Y-139261866D01*
X96344024Y-139274654D01*
X96359930Y-139289070D01*
X96374346Y-139304976D01*
X96387134Y-139322219D01*
X96398170Y-139340632D01*
X96407349Y-139360038D01*
X96414581Y-139380250D01*
X96419797Y-139401074D01*
X96422947Y-139422309D01*
X96424000Y-139443750D01*
X96424000Y-139956250D01*
X96422947Y-139977691D01*
X96419797Y-139998926D01*
X96414581Y-140019750D01*
X96407349Y-140039962D01*
X96398170Y-140059368D01*
X96387134Y-140077781D01*
X96374346Y-140095024D01*
X96359930Y-140110930D01*
X96344024Y-140125346D01*
X96326781Y-140138134D01*
X96308368Y-140149170D01*
X96288962Y-140158349D01*
X96268750Y-140165581D01*
X96247926Y-140170797D01*
X96226691Y-140173947D01*
X96205250Y-140175000D01*
X95767750Y-140175000D01*
X95746309Y-140173947D01*
X95725074Y-140170797D01*
X95704250Y-140165581D01*
X95684038Y-140158349D01*
X95664632Y-140149170D01*
X95646219Y-140138134D01*
X95628976Y-140125346D01*
X95613070Y-140110930D01*
X95598654Y-140095024D01*
X95585866Y-140077781D01*
X95574830Y-140059368D01*
X95565651Y-140039962D01*
X95558419Y-140019750D01*
X95553203Y-139998926D01*
X95550053Y-139977691D01*
X95549000Y-139956250D01*
X95549000Y-139443750D01*
X95550053Y-139422309D01*
X95553203Y-139401074D01*
X95558419Y-139380250D01*
X95565651Y-139360038D01*
X95574830Y-139340632D01*
X95585866Y-139322219D01*
X95598654Y-139304976D01*
X95613070Y-139289070D01*
X95628976Y-139274654D01*
X95646219Y-139261866D01*
X95664632Y-139250830D01*
X95684038Y-139241651D01*
X95704250Y-139234419D01*
X95725074Y-139229203D01*
X95746309Y-139226053D01*
X95767750Y-139225000D01*
X96205250Y-139225000D01*
X96226691Y-139226053D01*
X96226691Y-139226053D01*
G37*
D12*
X95986500Y-139700000D03*
D10*
G36*
X97801691Y-139226053D02*
X97822926Y-139229203D01*
X97843750Y-139234419D01*
X97863962Y-139241651D01*
X97883368Y-139250830D01*
X97901781Y-139261866D01*
X97919024Y-139274654D01*
X97934930Y-139289070D01*
X97949346Y-139304976D01*
X97962134Y-139322219D01*
X97973170Y-139340632D01*
X97982349Y-139360038D01*
X97989581Y-139380250D01*
X97994797Y-139401074D01*
X97997947Y-139422309D01*
X97999000Y-139443750D01*
X97999000Y-139956250D01*
X97997947Y-139977691D01*
X97994797Y-139998926D01*
X97989581Y-140019750D01*
X97982349Y-140039962D01*
X97973170Y-140059368D01*
X97962134Y-140077781D01*
X97949346Y-140095024D01*
X97934930Y-140110930D01*
X97919024Y-140125346D01*
X97901781Y-140138134D01*
X97883368Y-140149170D01*
X97863962Y-140158349D01*
X97843750Y-140165581D01*
X97822926Y-140170797D01*
X97801691Y-140173947D01*
X97780250Y-140175000D01*
X97342750Y-140175000D01*
X97321309Y-140173947D01*
X97300074Y-140170797D01*
X97279250Y-140165581D01*
X97259038Y-140158349D01*
X97239632Y-140149170D01*
X97221219Y-140138134D01*
X97203976Y-140125346D01*
X97188070Y-140110930D01*
X97173654Y-140095024D01*
X97160866Y-140077781D01*
X97149830Y-140059368D01*
X97140651Y-140039962D01*
X97133419Y-140019750D01*
X97128203Y-139998926D01*
X97125053Y-139977691D01*
X97124000Y-139956250D01*
X97124000Y-139443750D01*
X97125053Y-139422309D01*
X97128203Y-139401074D01*
X97133419Y-139380250D01*
X97140651Y-139360038D01*
X97149830Y-139340632D01*
X97160866Y-139322219D01*
X97173654Y-139304976D01*
X97188070Y-139289070D01*
X97203976Y-139274654D01*
X97221219Y-139261866D01*
X97239632Y-139250830D01*
X97259038Y-139241651D01*
X97279250Y-139234419D01*
X97300074Y-139229203D01*
X97321309Y-139226053D01*
X97342750Y-139225000D01*
X97780250Y-139225000D01*
X97801691Y-139226053D01*
X97801691Y-139226053D01*
G37*
D12*
X97561500Y-139700000D03*
G04 #@! TD*
D10*
G04 #@! TO.C,R6*
G36*
X97801691Y-142274053D02*
X97822926Y-142277203D01*
X97843750Y-142282419D01*
X97863962Y-142289651D01*
X97883368Y-142298830D01*
X97901781Y-142309866D01*
X97919024Y-142322654D01*
X97934930Y-142337070D01*
X97949346Y-142352976D01*
X97962134Y-142370219D01*
X97973170Y-142388632D01*
X97982349Y-142408038D01*
X97989581Y-142428250D01*
X97994797Y-142449074D01*
X97997947Y-142470309D01*
X97999000Y-142491750D01*
X97999000Y-143004250D01*
X97997947Y-143025691D01*
X97994797Y-143046926D01*
X97989581Y-143067750D01*
X97982349Y-143087962D01*
X97973170Y-143107368D01*
X97962134Y-143125781D01*
X97949346Y-143143024D01*
X97934930Y-143158930D01*
X97919024Y-143173346D01*
X97901781Y-143186134D01*
X97883368Y-143197170D01*
X97863962Y-143206349D01*
X97843750Y-143213581D01*
X97822926Y-143218797D01*
X97801691Y-143221947D01*
X97780250Y-143223000D01*
X97342750Y-143223000D01*
X97321309Y-143221947D01*
X97300074Y-143218797D01*
X97279250Y-143213581D01*
X97259038Y-143206349D01*
X97239632Y-143197170D01*
X97221219Y-143186134D01*
X97203976Y-143173346D01*
X97188070Y-143158930D01*
X97173654Y-143143024D01*
X97160866Y-143125781D01*
X97149830Y-143107368D01*
X97140651Y-143087962D01*
X97133419Y-143067750D01*
X97128203Y-143046926D01*
X97125053Y-143025691D01*
X97124000Y-143004250D01*
X97124000Y-142491750D01*
X97125053Y-142470309D01*
X97128203Y-142449074D01*
X97133419Y-142428250D01*
X97140651Y-142408038D01*
X97149830Y-142388632D01*
X97160866Y-142370219D01*
X97173654Y-142352976D01*
X97188070Y-142337070D01*
X97203976Y-142322654D01*
X97221219Y-142309866D01*
X97239632Y-142298830D01*
X97259038Y-142289651D01*
X97279250Y-142282419D01*
X97300074Y-142277203D01*
X97321309Y-142274053D01*
X97342750Y-142273000D01*
X97780250Y-142273000D01*
X97801691Y-142274053D01*
X97801691Y-142274053D01*
G37*
D12*
X97561500Y-142748000D03*
D10*
G36*
X96226691Y-142274053D02*
X96247926Y-142277203D01*
X96268750Y-142282419D01*
X96288962Y-142289651D01*
X96308368Y-142298830D01*
X96326781Y-142309866D01*
X96344024Y-142322654D01*
X96359930Y-142337070D01*
X96374346Y-142352976D01*
X96387134Y-142370219D01*
X96398170Y-142388632D01*
X96407349Y-142408038D01*
X96414581Y-142428250D01*
X96419797Y-142449074D01*
X96422947Y-142470309D01*
X96424000Y-142491750D01*
X96424000Y-143004250D01*
X96422947Y-143025691D01*
X96419797Y-143046926D01*
X96414581Y-143067750D01*
X96407349Y-143087962D01*
X96398170Y-143107368D01*
X96387134Y-143125781D01*
X96374346Y-143143024D01*
X96359930Y-143158930D01*
X96344024Y-143173346D01*
X96326781Y-143186134D01*
X96308368Y-143197170D01*
X96288962Y-143206349D01*
X96268750Y-143213581D01*
X96247926Y-143218797D01*
X96226691Y-143221947D01*
X96205250Y-143223000D01*
X95767750Y-143223000D01*
X95746309Y-143221947D01*
X95725074Y-143218797D01*
X95704250Y-143213581D01*
X95684038Y-143206349D01*
X95664632Y-143197170D01*
X95646219Y-143186134D01*
X95628976Y-143173346D01*
X95613070Y-143158930D01*
X95598654Y-143143024D01*
X95585866Y-143125781D01*
X95574830Y-143107368D01*
X95565651Y-143087962D01*
X95558419Y-143067750D01*
X95553203Y-143046926D01*
X95550053Y-143025691D01*
X95549000Y-143004250D01*
X95549000Y-142491750D01*
X95550053Y-142470309D01*
X95553203Y-142449074D01*
X95558419Y-142428250D01*
X95565651Y-142408038D01*
X95574830Y-142388632D01*
X95585866Y-142370219D01*
X95598654Y-142352976D01*
X95613070Y-142337070D01*
X95628976Y-142322654D01*
X95646219Y-142309866D01*
X95664632Y-142298830D01*
X95684038Y-142289651D01*
X95704250Y-142282419D01*
X95725074Y-142277203D01*
X95746309Y-142274053D01*
X95767750Y-142273000D01*
X96205250Y-142273000D01*
X96226691Y-142274053D01*
X96226691Y-142274053D01*
G37*
D12*
X95986500Y-142748000D03*
G04 #@! TD*
D10*
G04 #@! TO.C,R7*
G36*
X96226691Y-140750053D02*
X96247926Y-140753203D01*
X96268750Y-140758419D01*
X96288962Y-140765651D01*
X96308368Y-140774830D01*
X96326781Y-140785866D01*
X96344024Y-140798654D01*
X96359930Y-140813070D01*
X96374346Y-140828976D01*
X96387134Y-140846219D01*
X96398170Y-140864632D01*
X96407349Y-140884038D01*
X96414581Y-140904250D01*
X96419797Y-140925074D01*
X96422947Y-140946309D01*
X96424000Y-140967750D01*
X96424000Y-141480250D01*
X96422947Y-141501691D01*
X96419797Y-141522926D01*
X96414581Y-141543750D01*
X96407349Y-141563962D01*
X96398170Y-141583368D01*
X96387134Y-141601781D01*
X96374346Y-141619024D01*
X96359930Y-141634930D01*
X96344024Y-141649346D01*
X96326781Y-141662134D01*
X96308368Y-141673170D01*
X96288962Y-141682349D01*
X96268750Y-141689581D01*
X96247926Y-141694797D01*
X96226691Y-141697947D01*
X96205250Y-141699000D01*
X95767750Y-141699000D01*
X95746309Y-141697947D01*
X95725074Y-141694797D01*
X95704250Y-141689581D01*
X95684038Y-141682349D01*
X95664632Y-141673170D01*
X95646219Y-141662134D01*
X95628976Y-141649346D01*
X95613070Y-141634930D01*
X95598654Y-141619024D01*
X95585866Y-141601781D01*
X95574830Y-141583368D01*
X95565651Y-141563962D01*
X95558419Y-141543750D01*
X95553203Y-141522926D01*
X95550053Y-141501691D01*
X95549000Y-141480250D01*
X95549000Y-140967750D01*
X95550053Y-140946309D01*
X95553203Y-140925074D01*
X95558419Y-140904250D01*
X95565651Y-140884038D01*
X95574830Y-140864632D01*
X95585866Y-140846219D01*
X95598654Y-140828976D01*
X95613070Y-140813070D01*
X95628976Y-140798654D01*
X95646219Y-140785866D01*
X95664632Y-140774830D01*
X95684038Y-140765651D01*
X95704250Y-140758419D01*
X95725074Y-140753203D01*
X95746309Y-140750053D01*
X95767750Y-140749000D01*
X96205250Y-140749000D01*
X96226691Y-140750053D01*
X96226691Y-140750053D01*
G37*
D12*
X95986500Y-141224000D03*
D10*
G36*
X97801691Y-140750053D02*
X97822926Y-140753203D01*
X97843750Y-140758419D01*
X97863962Y-140765651D01*
X97883368Y-140774830D01*
X97901781Y-140785866D01*
X97919024Y-140798654D01*
X97934930Y-140813070D01*
X97949346Y-140828976D01*
X97962134Y-140846219D01*
X97973170Y-140864632D01*
X97982349Y-140884038D01*
X97989581Y-140904250D01*
X97994797Y-140925074D01*
X97997947Y-140946309D01*
X97999000Y-140967750D01*
X97999000Y-141480250D01*
X97997947Y-141501691D01*
X97994797Y-141522926D01*
X97989581Y-141543750D01*
X97982349Y-141563962D01*
X97973170Y-141583368D01*
X97962134Y-141601781D01*
X97949346Y-141619024D01*
X97934930Y-141634930D01*
X97919024Y-141649346D01*
X97901781Y-141662134D01*
X97883368Y-141673170D01*
X97863962Y-141682349D01*
X97843750Y-141689581D01*
X97822926Y-141694797D01*
X97801691Y-141697947D01*
X97780250Y-141699000D01*
X97342750Y-141699000D01*
X97321309Y-141697947D01*
X97300074Y-141694797D01*
X97279250Y-141689581D01*
X97259038Y-141682349D01*
X97239632Y-141673170D01*
X97221219Y-141662134D01*
X97203976Y-141649346D01*
X97188070Y-141634930D01*
X97173654Y-141619024D01*
X97160866Y-141601781D01*
X97149830Y-141583368D01*
X97140651Y-141563962D01*
X97133419Y-141543750D01*
X97128203Y-141522926D01*
X97125053Y-141501691D01*
X97124000Y-141480250D01*
X97124000Y-140967750D01*
X97125053Y-140946309D01*
X97128203Y-140925074D01*
X97133419Y-140904250D01*
X97140651Y-140884038D01*
X97149830Y-140864632D01*
X97160866Y-140846219D01*
X97173654Y-140828976D01*
X97188070Y-140813070D01*
X97203976Y-140798654D01*
X97221219Y-140785866D01*
X97239632Y-140774830D01*
X97259038Y-140765651D01*
X97279250Y-140758419D01*
X97300074Y-140753203D01*
X97321309Y-140750053D01*
X97342750Y-140749000D01*
X97780250Y-140749000D01*
X97801691Y-140750053D01*
X97801691Y-140750053D01*
G37*
D12*
X97561500Y-141224000D03*
G04 #@! TD*
D10*
G04 #@! TO.C,R8*
G36*
X102094191Y-123922553D02*
X102115426Y-123925703D01*
X102136250Y-123930919D01*
X102156462Y-123938151D01*
X102175868Y-123947330D01*
X102194281Y-123958366D01*
X102211524Y-123971154D01*
X102227430Y-123985570D01*
X102241846Y-124001476D01*
X102254634Y-124018719D01*
X102265670Y-124037132D01*
X102274849Y-124056538D01*
X102282081Y-124076750D01*
X102287297Y-124097574D01*
X102290447Y-124118809D01*
X102291500Y-124140250D01*
X102291500Y-124652750D01*
X102290447Y-124674191D01*
X102287297Y-124695426D01*
X102282081Y-124716250D01*
X102274849Y-124736462D01*
X102265670Y-124755868D01*
X102254634Y-124774281D01*
X102241846Y-124791524D01*
X102227430Y-124807430D01*
X102211524Y-124821846D01*
X102194281Y-124834634D01*
X102175868Y-124845670D01*
X102156462Y-124854849D01*
X102136250Y-124862081D01*
X102115426Y-124867297D01*
X102094191Y-124870447D01*
X102072750Y-124871500D01*
X101635250Y-124871500D01*
X101613809Y-124870447D01*
X101592574Y-124867297D01*
X101571750Y-124862081D01*
X101551538Y-124854849D01*
X101532132Y-124845670D01*
X101513719Y-124834634D01*
X101496476Y-124821846D01*
X101480570Y-124807430D01*
X101466154Y-124791524D01*
X101453366Y-124774281D01*
X101442330Y-124755868D01*
X101433151Y-124736462D01*
X101425919Y-124716250D01*
X101420703Y-124695426D01*
X101417553Y-124674191D01*
X101416500Y-124652750D01*
X101416500Y-124140250D01*
X101417553Y-124118809D01*
X101420703Y-124097574D01*
X101425919Y-124076750D01*
X101433151Y-124056538D01*
X101442330Y-124037132D01*
X101453366Y-124018719D01*
X101466154Y-124001476D01*
X101480570Y-123985570D01*
X101496476Y-123971154D01*
X101513719Y-123958366D01*
X101532132Y-123947330D01*
X101551538Y-123938151D01*
X101571750Y-123930919D01*
X101592574Y-123925703D01*
X101613809Y-123922553D01*
X101635250Y-123921500D01*
X102072750Y-123921500D01*
X102094191Y-123922553D01*
X102094191Y-123922553D01*
G37*
D12*
X101854000Y-124396500D03*
D10*
G36*
X100519191Y-123922553D02*
X100540426Y-123925703D01*
X100561250Y-123930919D01*
X100581462Y-123938151D01*
X100600868Y-123947330D01*
X100619281Y-123958366D01*
X100636524Y-123971154D01*
X100652430Y-123985570D01*
X100666846Y-124001476D01*
X100679634Y-124018719D01*
X100690670Y-124037132D01*
X100699849Y-124056538D01*
X100707081Y-124076750D01*
X100712297Y-124097574D01*
X100715447Y-124118809D01*
X100716500Y-124140250D01*
X100716500Y-124652750D01*
X100715447Y-124674191D01*
X100712297Y-124695426D01*
X100707081Y-124716250D01*
X100699849Y-124736462D01*
X100690670Y-124755868D01*
X100679634Y-124774281D01*
X100666846Y-124791524D01*
X100652430Y-124807430D01*
X100636524Y-124821846D01*
X100619281Y-124834634D01*
X100600868Y-124845670D01*
X100581462Y-124854849D01*
X100561250Y-124862081D01*
X100540426Y-124867297D01*
X100519191Y-124870447D01*
X100497750Y-124871500D01*
X100060250Y-124871500D01*
X100038809Y-124870447D01*
X100017574Y-124867297D01*
X99996750Y-124862081D01*
X99976538Y-124854849D01*
X99957132Y-124845670D01*
X99938719Y-124834634D01*
X99921476Y-124821846D01*
X99905570Y-124807430D01*
X99891154Y-124791524D01*
X99878366Y-124774281D01*
X99867330Y-124755868D01*
X99858151Y-124736462D01*
X99850919Y-124716250D01*
X99845703Y-124695426D01*
X99842553Y-124674191D01*
X99841500Y-124652750D01*
X99841500Y-124140250D01*
X99842553Y-124118809D01*
X99845703Y-124097574D01*
X99850919Y-124076750D01*
X99858151Y-124056538D01*
X99867330Y-124037132D01*
X99878366Y-124018719D01*
X99891154Y-124001476D01*
X99905570Y-123985570D01*
X99921476Y-123971154D01*
X99938719Y-123958366D01*
X99957132Y-123947330D01*
X99976538Y-123938151D01*
X99996750Y-123930919D01*
X100017574Y-123925703D01*
X100038809Y-123922553D01*
X100060250Y-123921500D01*
X100497750Y-123921500D01*
X100519191Y-123922553D01*
X100519191Y-123922553D01*
G37*
D12*
X100279000Y-124396500D03*
G04 #@! TD*
D10*
G04 #@! TO.C,R9*
G36*
X100519191Y-125446553D02*
X100540426Y-125449703D01*
X100561250Y-125454919D01*
X100581462Y-125462151D01*
X100600868Y-125471330D01*
X100619281Y-125482366D01*
X100636524Y-125495154D01*
X100652430Y-125509570D01*
X100666846Y-125525476D01*
X100679634Y-125542719D01*
X100690670Y-125561132D01*
X100699849Y-125580538D01*
X100707081Y-125600750D01*
X100712297Y-125621574D01*
X100715447Y-125642809D01*
X100716500Y-125664250D01*
X100716500Y-126176750D01*
X100715447Y-126198191D01*
X100712297Y-126219426D01*
X100707081Y-126240250D01*
X100699849Y-126260462D01*
X100690670Y-126279868D01*
X100679634Y-126298281D01*
X100666846Y-126315524D01*
X100652430Y-126331430D01*
X100636524Y-126345846D01*
X100619281Y-126358634D01*
X100600868Y-126369670D01*
X100581462Y-126378849D01*
X100561250Y-126386081D01*
X100540426Y-126391297D01*
X100519191Y-126394447D01*
X100497750Y-126395500D01*
X100060250Y-126395500D01*
X100038809Y-126394447D01*
X100017574Y-126391297D01*
X99996750Y-126386081D01*
X99976538Y-126378849D01*
X99957132Y-126369670D01*
X99938719Y-126358634D01*
X99921476Y-126345846D01*
X99905570Y-126331430D01*
X99891154Y-126315524D01*
X99878366Y-126298281D01*
X99867330Y-126279868D01*
X99858151Y-126260462D01*
X99850919Y-126240250D01*
X99845703Y-126219426D01*
X99842553Y-126198191D01*
X99841500Y-126176750D01*
X99841500Y-125664250D01*
X99842553Y-125642809D01*
X99845703Y-125621574D01*
X99850919Y-125600750D01*
X99858151Y-125580538D01*
X99867330Y-125561132D01*
X99878366Y-125542719D01*
X99891154Y-125525476D01*
X99905570Y-125509570D01*
X99921476Y-125495154D01*
X99938719Y-125482366D01*
X99957132Y-125471330D01*
X99976538Y-125462151D01*
X99996750Y-125454919D01*
X100017574Y-125449703D01*
X100038809Y-125446553D01*
X100060250Y-125445500D01*
X100497750Y-125445500D01*
X100519191Y-125446553D01*
X100519191Y-125446553D01*
G37*
D12*
X100279000Y-125920500D03*
D10*
G36*
X102094191Y-125446553D02*
X102115426Y-125449703D01*
X102136250Y-125454919D01*
X102156462Y-125462151D01*
X102175868Y-125471330D01*
X102194281Y-125482366D01*
X102211524Y-125495154D01*
X102227430Y-125509570D01*
X102241846Y-125525476D01*
X102254634Y-125542719D01*
X102265670Y-125561132D01*
X102274849Y-125580538D01*
X102282081Y-125600750D01*
X102287297Y-125621574D01*
X102290447Y-125642809D01*
X102291500Y-125664250D01*
X102291500Y-126176750D01*
X102290447Y-126198191D01*
X102287297Y-126219426D01*
X102282081Y-126240250D01*
X102274849Y-126260462D01*
X102265670Y-126279868D01*
X102254634Y-126298281D01*
X102241846Y-126315524D01*
X102227430Y-126331430D01*
X102211524Y-126345846D01*
X102194281Y-126358634D01*
X102175868Y-126369670D01*
X102156462Y-126378849D01*
X102136250Y-126386081D01*
X102115426Y-126391297D01*
X102094191Y-126394447D01*
X102072750Y-126395500D01*
X101635250Y-126395500D01*
X101613809Y-126394447D01*
X101592574Y-126391297D01*
X101571750Y-126386081D01*
X101551538Y-126378849D01*
X101532132Y-126369670D01*
X101513719Y-126358634D01*
X101496476Y-126345846D01*
X101480570Y-126331430D01*
X101466154Y-126315524D01*
X101453366Y-126298281D01*
X101442330Y-126279868D01*
X101433151Y-126260462D01*
X101425919Y-126240250D01*
X101420703Y-126219426D01*
X101417553Y-126198191D01*
X101416500Y-126176750D01*
X101416500Y-125664250D01*
X101417553Y-125642809D01*
X101420703Y-125621574D01*
X101425919Y-125600750D01*
X101433151Y-125580538D01*
X101442330Y-125561132D01*
X101453366Y-125542719D01*
X101466154Y-125525476D01*
X101480570Y-125509570D01*
X101496476Y-125495154D01*
X101513719Y-125482366D01*
X101532132Y-125471330D01*
X101551538Y-125462151D01*
X101571750Y-125454919D01*
X101592574Y-125449703D01*
X101613809Y-125446553D01*
X101635250Y-125445500D01*
X102072750Y-125445500D01*
X102094191Y-125446553D01*
X102094191Y-125446553D01*
G37*
D12*
X101854000Y-125920500D03*
G04 #@! TD*
D20*
G04 #@! TO.C,SW1*
X130855000Y-97604000D03*
D21*
X132080000Y-97604000D03*
D20*
X133305000Y-97604000D03*
D22*
X133830000Y-95654000D03*
X130330000Y-95654000D03*
G04 #@! TD*
D23*
G04 #@! TO.C,U1*
X123342000Y-133604000D03*
D24*
X129642000Y-133604000D03*
X129642000Y-131304000D03*
X129642000Y-135904000D03*
G04 #@! TD*
D25*
G04 #@! TO.C,U2*
X113300000Y-110497000D03*
D26*
X105800000Y-102997000D03*
X105800000Y-104267000D03*
X105800000Y-105537000D03*
X105800000Y-106807000D03*
X105800000Y-108077000D03*
X105800000Y-109347000D03*
X105800000Y-110617000D03*
X105800000Y-111887000D03*
X105800000Y-113157000D03*
X105800000Y-114427000D03*
X105800000Y-115697000D03*
X105800000Y-116967000D03*
X105800000Y-118237000D03*
X105800000Y-119507000D03*
D27*
X108585000Y-120507000D03*
X109855000Y-120507000D03*
X111125000Y-120507000D03*
X112395000Y-120507000D03*
X113665000Y-120507000D03*
X114935000Y-120507000D03*
X116205000Y-120507000D03*
X117475000Y-120507000D03*
X118745000Y-120507000D03*
X120015000Y-120507000D03*
D26*
X122800000Y-119507000D03*
X122800000Y-118237000D03*
X122800000Y-116967000D03*
X122800000Y-115697000D03*
X122800000Y-114427000D03*
X122800000Y-113157000D03*
X122800000Y-111887000D03*
X122800000Y-110617000D03*
X122800000Y-109347000D03*
X122800000Y-108077000D03*
X122800000Y-106807000D03*
X122800000Y-105537000D03*
X122800000Y-104267000D03*
X122800000Y-102997000D03*
G04 #@! TD*
D10*
G04 #@! TO.C,C9*
G36*
X148994691Y-141321053D02*
X149015926Y-141324203D01*
X149036750Y-141329419D01*
X149056962Y-141336651D01*
X149076368Y-141345830D01*
X149094781Y-141356866D01*
X149112024Y-141369654D01*
X149127930Y-141384070D01*
X149142346Y-141399976D01*
X149155134Y-141417219D01*
X149166170Y-141435632D01*
X149175349Y-141455038D01*
X149182581Y-141475250D01*
X149187797Y-141496074D01*
X149190947Y-141517309D01*
X149192000Y-141538750D01*
X149192000Y-141976250D01*
X149190947Y-141997691D01*
X149187797Y-142018926D01*
X149182581Y-142039750D01*
X149175349Y-142059962D01*
X149166170Y-142079368D01*
X149155134Y-142097781D01*
X149142346Y-142115024D01*
X149127930Y-142130930D01*
X149112024Y-142145346D01*
X149094781Y-142158134D01*
X149076368Y-142169170D01*
X149056962Y-142178349D01*
X149036750Y-142185581D01*
X149015926Y-142190797D01*
X148994691Y-142193947D01*
X148973250Y-142195000D01*
X148460750Y-142195000D01*
X148439309Y-142193947D01*
X148418074Y-142190797D01*
X148397250Y-142185581D01*
X148377038Y-142178349D01*
X148357632Y-142169170D01*
X148339219Y-142158134D01*
X148321976Y-142145346D01*
X148306070Y-142130930D01*
X148291654Y-142115024D01*
X148278866Y-142097781D01*
X148267830Y-142079368D01*
X148258651Y-142059962D01*
X148251419Y-142039750D01*
X148246203Y-142018926D01*
X148243053Y-141997691D01*
X148242000Y-141976250D01*
X148242000Y-141538750D01*
X148243053Y-141517309D01*
X148246203Y-141496074D01*
X148251419Y-141475250D01*
X148258651Y-141455038D01*
X148267830Y-141435632D01*
X148278866Y-141417219D01*
X148291654Y-141399976D01*
X148306070Y-141384070D01*
X148321976Y-141369654D01*
X148339219Y-141356866D01*
X148357632Y-141345830D01*
X148377038Y-141336651D01*
X148397250Y-141329419D01*
X148418074Y-141324203D01*
X148439309Y-141321053D01*
X148460750Y-141320000D01*
X148973250Y-141320000D01*
X148994691Y-141321053D01*
X148994691Y-141321053D01*
G37*
D12*
X148717000Y-141757500D03*
D10*
G36*
X148994691Y-139746053D02*
X149015926Y-139749203D01*
X149036750Y-139754419D01*
X149056962Y-139761651D01*
X149076368Y-139770830D01*
X149094781Y-139781866D01*
X149112024Y-139794654D01*
X149127930Y-139809070D01*
X149142346Y-139824976D01*
X149155134Y-139842219D01*
X149166170Y-139860632D01*
X149175349Y-139880038D01*
X149182581Y-139900250D01*
X149187797Y-139921074D01*
X149190947Y-139942309D01*
X149192000Y-139963750D01*
X149192000Y-140401250D01*
X149190947Y-140422691D01*
X149187797Y-140443926D01*
X149182581Y-140464750D01*
X149175349Y-140484962D01*
X149166170Y-140504368D01*
X149155134Y-140522781D01*
X149142346Y-140540024D01*
X149127930Y-140555930D01*
X149112024Y-140570346D01*
X149094781Y-140583134D01*
X149076368Y-140594170D01*
X149056962Y-140603349D01*
X149036750Y-140610581D01*
X149015926Y-140615797D01*
X148994691Y-140618947D01*
X148973250Y-140620000D01*
X148460750Y-140620000D01*
X148439309Y-140618947D01*
X148418074Y-140615797D01*
X148397250Y-140610581D01*
X148377038Y-140603349D01*
X148357632Y-140594170D01*
X148339219Y-140583134D01*
X148321976Y-140570346D01*
X148306070Y-140555930D01*
X148291654Y-140540024D01*
X148278866Y-140522781D01*
X148267830Y-140504368D01*
X148258651Y-140484962D01*
X148251419Y-140464750D01*
X148246203Y-140443926D01*
X148243053Y-140422691D01*
X148242000Y-140401250D01*
X148242000Y-139963750D01*
X148243053Y-139942309D01*
X148246203Y-139921074D01*
X148251419Y-139900250D01*
X148258651Y-139880038D01*
X148267830Y-139860632D01*
X148278866Y-139842219D01*
X148291654Y-139824976D01*
X148306070Y-139809070D01*
X148321976Y-139794654D01*
X148339219Y-139781866D01*
X148357632Y-139770830D01*
X148377038Y-139761651D01*
X148397250Y-139754419D01*
X148418074Y-139749203D01*
X148439309Y-139746053D01*
X148460750Y-139745000D01*
X148973250Y-139745000D01*
X148994691Y-139746053D01*
X148994691Y-139746053D01*
G37*
D12*
X148717000Y-140182500D03*
G04 #@! TD*
D10*
G04 #@! TO.C,J4*
G36*
X156154504Y-136645204D02*
X156178773Y-136648804D01*
X156202571Y-136654765D01*
X156225671Y-136663030D01*
X156247849Y-136673520D01*
X156268893Y-136686133D01*
X156288598Y-136700747D01*
X156306777Y-136717223D01*
X156323253Y-136735402D01*
X156337867Y-136755107D01*
X156350480Y-136776151D01*
X156360970Y-136798329D01*
X156369235Y-136821429D01*
X156375196Y-136845227D01*
X156378796Y-136869496D01*
X156380000Y-136894000D01*
X156380000Y-137394000D01*
X156378796Y-137418504D01*
X156375196Y-137442773D01*
X156369235Y-137466571D01*
X156360970Y-137489671D01*
X156350480Y-137511849D01*
X156337867Y-137532893D01*
X156323253Y-137552598D01*
X156306777Y-137570777D01*
X156288598Y-137587253D01*
X156268893Y-137601867D01*
X156247849Y-137614480D01*
X156225671Y-137624970D01*
X156202571Y-137633235D01*
X156178773Y-137639196D01*
X156154504Y-137642796D01*
X156130000Y-137644000D01*
X153130000Y-137644000D01*
X153105496Y-137642796D01*
X153081227Y-137639196D01*
X153057429Y-137633235D01*
X153034329Y-137624970D01*
X153012151Y-137614480D01*
X152991107Y-137601867D01*
X152971402Y-137587253D01*
X152953223Y-137570777D01*
X152936747Y-137552598D01*
X152922133Y-137532893D01*
X152909520Y-137511849D01*
X152899030Y-137489671D01*
X152890765Y-137466571D01*
X152884804Y-137442773D01*
X152881204Y-137418504D01*
X152880000Y-137394000D01*
X152880000Y-136894000D01*
X152881204Y-136869496D01*
X152884804Y-136845227D01*
X152890765Y-136821429D01*
X152899030Y-136798329D01*
X152909520Y-136776151D01*
X152922133Y-136755107D01*
X152936747Y-136735402D01*
X152953223Y-136717223D01*
X152971402Y-136700747D01*
X152991107Y-136686133D01*
X153012151Y-136673520D01*
X153034329Y-136663030D01*
X153057429Y-136654765D01*
X153081227Y-136648804D01*
X153105496Y-136645204D01*
X153130000Y-136644000D01*
X156130000Y-136644000D01*
X156154504Y-136645204D01*
X156154504Y-136645204D01*
G37*
D28*
X154630000Y-137144000D03*
D10*
G36*
X156154504Y-134645204D02*
X156178773Y-134648804D01*
X156202571Y-134654765D01*
X156225671Y-134663030D01*
X156247849Y-134673520D01*
X156268893Y-134686133D01*
X156288598Y-134700747D01*
X156306777Y-134717223D01*
X156323253Y-134735402D01*
X156337867Y-134755107D01*
X156350480Y-134776151D01*
X156360970Y-134798329D01*
X156369235Y-134821429D01*
X156375196Y-134845227D01*
X156378796Y-134869496D01*
X156380000Y-134894000D01*
X156380000Y-135394000D01*
X156378796Y-135418504D01*
X156375196Y-135442773D01*
X156369235Y-135466571D01*
X156360970Y-135489671D01*
X156350480Y-135511849D01*
X156337867Y-135532893D01*
X156323253Y-135552598D01*
X156306777Y-135570777D01*
X156288598Y-135587253D01*
X156268893Y-135601867D01*
X156247849Y-135614480D01*
X156225671Y-135624970D01*
X156202571Y-135633235D01*
X156178773Y-135639196D01*
X156154504Y-135642796D01*
X156130000Y-135644000D01*
X153130000Y-135644000D01*
X153105496Y-135642796D01*
X153081227Y-135639196D01*
X153057429Y-135633235D01*
X153034329Y-135624970D01*
X153012151Y-135614480D01*
X152991107Y-135601867D01*
X152971402Y-135587253D01*
X152953223Y-135570777D01*
X152936747Y-135552598D01*
X152922133Y-135532893D01*
X152909520Y-135511849D01*
X152899030Y-135489671D01*
X152890765Y-135466571D01*
X152884804Y-135442773D01*
X152881204Y-135418504D01*
X152880000Y-135394000D01*
X152880000Y-134894000D01*
X152881204Y-134869496D01*
X152884804Y-134845227D01*
X152890765Y-134821429D01*
X152899030Y-134798329D01*
X152909520Y-134776151D01*
X152922133Y-134755107D01*
X152936747Y-134735402D01*
X152953223Y-134717223D01*
X152971402Y-134700747D01*
X152991107Y-134686133D01*
X153012151Y-134673520D01*
X153034329Y-134663030D01*
X153057429Y-134654765D01*
X153081227Y-134648804D01*
X153105496Y-134645204D01*
X153130000Y-134644000D01*
X156130000Y-134644000D01*
X156154504Y-134645204D01*
X156154504Y-134645204D01*
G37*
D28*
X154630000Y-135144000D03*
D10*
G36*
X161854504Y-138745204D02*
X161878773Y-138748804D01*
X161902571Y-138754765D01*
X161925671Y-138763030D01*
X161947849Y-138773520D01*
X161968893Y-138786133D01*
X161988598Y-138800747D01*
X162006777Y-138817223D01*
X162023253Y-138835402D01*
X162037867Y-138855107D01*
X162050480Y-138876151D01*
X162060970Y-138898329D01*
X162069235Y-138921429D01*
X162075196Y-138945227D01*
X162078796Y-138969496D01*
X162080000Y-138994000D01*
X162080000Y-139994000D01*
X162078796Y-140018504D01*
X162075196Y-140042773D01*
X162069235Y-140066571D01*
X162060970Y-140089671D01*
X162050480Y-140111849D01*
X162037867Y-140132893D01*
X162023253Y-140152598D01*
X162006777Y-140170777D01*
X161988598Y-140187253D01*
X161968893Y-140201867D01*
X161947849Y-140214480D01*
X161925671Y-140224970D01*
X161902571Y-140233235D01*
X161878773Y-140239196D01*
X161854504Y-140242796D01*
X161830000Y-140244000D01*
X158930000Y-140244000D01*
X158905496Y-140242796D01*
X158881227Y-140239196D01*
X158857429Y-140233235D01*
X158834329Y-140224970D01*
X158812151Y-140214480D01*
X158791107Y-140201867D01*
X158771402Y-140187253D01*
X158753223Y-140170777D01*
X158736747Y-140152598D01*
X158722133Y-140132893D01*
X158709520Y-140111849D01*
X158699030Y-140089671D01*
X158690765Y-140066571D01*
X158684804Y-140042773D01*
X158681204Y-140018504D01*
X158680000Y-139994000D01*
X158680000Y-138994000D01*
X158681204Y-138969496D01*
X158684804Y-138945227D01*
X158690765Y-138921429D01*
X158699030Y-138898329D01*
X158709520Y-138876151D01*
X158722133Y-138855107D01*
X158736747Y-138835402D01*
X158753223Y-138817223D01*
X158771402Y-138800747D01*
X158791107Y-138786133D01*
X158812151Y-138773520D01*
X158834329Y-138763030D01*
X158857429Y-138754765D01*
X158881227Y-138748804D01*
X158905496Y-138745204D01*
X158930000Y-138744000D01*
X161830000Y-138744000D01*
X161854504Y-138745204D01*
X161854504Y-138745204D01*
G37*
D29*
X160380000Y-139494000D03*
D10*
G36*
X161854504Y-132045204D02*
X161878773Y-132048804D01*
X161902571Y-132054765D01*
X161925671Y-132063030D01*
X161947849Y-132073520D01*
X161968893Y-132086133D01*
X161988598Y-132100747D01*
X162006777Y-132117223D01*
X162023253Y-132135402D01*
X162037867Y-132155107D01*
X162050480Y-132176151D01*
X162060970Y-132198329D01*
X162069235Y-132221429D01*
X162075196Y-132245227D01*
X162078796Y-132269496D01*
X162080000Y-132294000D01*
X162080000Y-133294000D01*
X162078796Y-133318504D01*
X162075196Y-133342773D01*
X162069235Y-133366571D01*
X162060970Y-133389671D01*
X162050480Y-133411849D01*
X162037867Y-133432893D01*
X162023253Y-133452598D01*
X162006777Y-133470777D01*
X161988598Y-133487253D01*
X161968893Y-133501867D01*
X161947849Y-133514480D01*
X161925671Y-133524970D01*
X161902571Y-133533235D01*
X161878773Y-133539196D01*
X161854504Y-133542796D01*
X161830000Y-133544000D01*
X158930000Y-133544000D01*
X158905496Y-133542796D01*
X158881227Y-133539196D01*
X158857429Y-133533235D01*
X158834329Y-133524970D01*
X158812151Y-133514480D01*
X158791107Y-133501867D01*
X158771402Y-133487253D01*
X158753223Y-133470777D01*
X158736747Y-133452598D01*
X158722133Y-133432893D01*
X158709520Y-133411849D01*
X158699030Y-133389671D01*
X158690765Y-133366571D01*
X158684804Y-133342773D01*
X158681204Y-133318504D01*
X158680000Y-133294000D01*
X158680000Y-132294000D01*
X158681204Y-132269496D01*
X158684804Y-132245227D01*
X158690765Y-132221429D01*
X158699030Y-132198329D01*
X158709520Y-132176151D01*
X158722133Y-132155107D01*
X158736747Y-132135402D01*
X158753223Y-132117223D01*
X158771402Y-132100747D01*
X158791107Y-132086133D01*
X158812151Y-132073520D01*
X158834329Y-132063030D01*
X158857429Y-132054765D01*
X158881227Y-132048804D01*
X158905496Y-132045204D01*
X158930000Y-132044000D01*
X161830000Y-132044000D01*
X161854504Y-132045204D01*
X161854504Y-132045204D01*
G37*
D29*
X160380000Y-132794000D03*
G04 #@! TD*
D10*
G04 #@! TO.C,R11*
G36*
X148994691Y-138273053D02*
X149015926Y-138276203D01*
X149036750Y-138281419D01*
X149056962Y-138288651D01*
X149076368Y-138297830D01*
X149094781Y-138308866D01*
X149112024Y-138321654D01*
X149127930Y-138336070D01*
X149142346Y-138351976D01*
X149155134Y-138369219D01*
X149166170Y-138387632D01*
X149175349Y-138407038D01*
X149182581Y-138427250D01*
X149187797Y-138448074D01*
X149190947Y-138469309D01*
X149192000Y-138490750D01*
X149192000Y-138928250D01*
X149190947Y-138949691D01*
X149187797Y-138970926D01*
X149182581Y-138991750D01*
X149175349Y-139011962D01*
X149166170Y-139031368D01*
X149155134Y-139049781D01*
X149142346Y-139067024D01*
X149127930Y-139082930D01*
X149112024Y-139097346D01*
X149094781Y-139110134D01*
X149076368Y-139121170D01*
X149056962Y-139130349D01*
X149036750Y-139137581D01*
X149015926Y-139142797D01*
X148994691Y-139145947D01*
X148973250Y-139147000D01*
X148460750Y-139147000D01*
X148439309Y-139145947D01*
X148418074Y-139142797D01*
X148397250Y-139137581D01*
X148377038Y-139130349D01*
X148357632Y-139121170D01*
X148339219Y-139110134D01*
X148321976Y-139097346D01*
X148306070Y-139082930D01*
X148291654Y-139067024D01*
X148278866Y-139049781D01*
X148267830Y-139031368D01*
X148258651Y-139011962D01*
X148251419Y-138991750D01*
X148246203Y-138970926D01*
X148243053Y-138949691D01*
X148242000Y-138928250D01*
X148242000Y-138490750D01*
X148243053Y-138469309D01*
X148246203Y-138448074D01*
X148251419Y-138427250D01*
X148258651Y-138407038D01*
X148267830Y-138387632D01*
X148278866Y-138369219D01*
X148291654Y-138351976D01*
X148306070Y-138336070D01*
X148321976Y-138321654D01*
X148339219Y-138308866D01*
X148357632Y-138297830D01*
X148377038Y-138288651D01*
X148397250Y-138281419D01*
X148418074Y-138276203D01*
X148439309Y-138273053D01*
X148460750Y-138272000D01*
X148973250Y-138272000D01*
X148994691Y-138273053D01*
X148994691Y-138273053D01*
G37*
D12*
X148717000Y-138709500D03*
D10*
G36*
X148994691Y-136698053D02*
X149015926Y-136701203D01*
X149036750Y-136706419D01*
X149056962Y-136713651D01*
X149076368Y-136722830D01*
X149094781Y-136733866D01*
X149112024Y-136746654D01*
X149127930Y-136761070D01*
X149142346Y-136776976D01*
X149155134Y-136794219D01*
X149166170Y-136812632D01*
X149175349Y-136832038D01*
X149182581Y-136852250D01*
X149187797Y-136873074D01*
X149190947Y-136894309D01*
X149192000Y-136915750D01*
X149192000Y-137353250D01*
X149190947Y-137374691D01*
X149187797Y-137395926D01*
X149182581Y-137416750D01*
X149175349Y-137436962D01*
X149166170Y-137456368D01*
X149155134Y-137474781D01*
X149142346Y-137492024D01*
X149127930Y-137507930D01*
X149112024Y-137522346D01*
X149094781Y-137535134D01*
X149076368Y-137546170D01*
X149056962Y-137555349D01*
X149036750Y-137562581D01*
X149015926Y-137567797D01*
X148994691Y-137570947D01*
X148973250Y-137572000D01*
X148460750Y-137572000D01*
X148439309Y-137570947D01*
X148418074Y-137567797D01*
X148397250Y-137562581D01*
X148377038Y-137555349D01*
X148357632Y-137546170D01*
X148339219Y-137535134D01*
X148321976Y-137522346D01*
X148306070Y-137507930D01*
X148291654Y-137492024D01*
X148278866Y-137474781D01*
X148267830Y-137456368D01*
X148258651Y-137436962D01*
X148251419Y-137416750D01*
X148246203Y-137395926D01*
X148243053Y-137374691D01*
X148242000Y-137353250D01*
X148242000Y-136915750D01*
X148243053Y-136894309D01*
X148246203Y-136873074D01*
X148251419Y-136852250D01*
X148258651Y-136832038D01*
X148267830Y-136812632D01*
X148278866Y-136794219D01*
X148291654Y-136776976D01*
X148306070Y-136761070D01*
X148321976Y-136746654D01*
X148339219Y-136733866D01*
X148357632Y-136722830D01*
X148377038Y-136713651D01*
X148397250Y-136706419D01*
X148418074Y-136701203D01*
X148439309Y-136698053D01*
X148460750Y-136697000D01*
X148973250Y-136697000D01*
X148994691Y-136698053D01*
X148994691Y-136698053D01*
G37*
D12*
X148717000Y-137134500D03*
G04 #@! TD*
D30*
G04 #@! TO.C,U4*
X144823000Y-138115000D03*
X144823000Y-139065000D03*
X144823000Y-140015000D03*
X147023000Y-140015000D03*
X147023000Y-138115000D03*
G04 #@! TD*
D10*
G04 #@! TO.C,R12*
G36*
X102766691Y-108859553D02*
X102787926Y-108862703D01*
X102808750Y-108867919D01*
X102828962Y-108875151D01*
X102848368Y-108884330D01*
X102866781Y-108895366D01*
X102884024Y-108908154D01*
X102899930Y-108922570D01*
X102914346Y-108938476D01*
X102927134Y-108955719D01*
X102938170Y-108974132D01*
X102947349Y-108993538D01*
X102954581Y-109013750D01*
X102959797Y-109034574D01*
X102962947Y-109055809D01*
X102964000Y-109077250D01*
X102964000Y-109514750D01*
X102962947Y-109536191D01*
X102959797Y-109557426D01*
X102954581Y-109578250D01*
X102947349Y-109598462D01*
X102938170Y-109617868D01*
X102927134Y-109636281D01*
X102914346Y-109653524D01*
X102899930Y-109669430D01*
X102884024Y-109683846D01*
X102866781Y-109696634D01*
X102848368Y-109707670D01*
X102828962Y-109716849D01*
X102808750Y-109724081D01*
X102787926Y-109729297D01*
X102766691Y-109732447D01*
X102745250Y-109733500D01*
X102232750Y-109733500D01*
X102211309Y-109732447D01*
X102190074Y-109729297D01*
X102169250Y-109724081D01*
X102149038Y-109716849D01*
X102129632Y-109707670D01*
X102111219Y-109696634D01*
X102093976Y-109683846D01*
X102078070Y-109669430D01*
X102063654Y-109653524D01*
X102050866Y-109636281D01*
X102039830Y-109617868D01*
X102030651Y-109598462D01*
X102023419Y-109578250D01*
X102018203Y-109557426D01*
X102015053Y-109536191D01*
X102014000Y-109514750D01*
X102014000Y-109077250D01*
X102015053Y-109055809D01*
X102018203Y-109034574D01*
X102023419Y-109013750D01*
X102030651Y-108993538D01*
X102039830Y-108974132D01*
X102050866Y-108955719D01*
X102063654Y-108938476D01*
X102078070Y-108922570D01*
X102093976Y-108908154D01*
X102111219Y-108895366D01*
X102129632Y-108884330D01*
X102149038Y-108875151D01*
X102169250Y-108867919D01*
X102190074Y-108862703D01*
X102211309Y-108859553D01*
X102232750Y-108858500D01*
X102745250Y-108858500D01*
X102766691Y-108859553D01*
X102766691Y-108859553D01*
G37*
D12*
X102489000Y-109296000D03*
D10*
G36*
X102766691Y-110434553D02*
X102787926Y-110437703D01*
X102808750Y-110442919D01*
X102828962Y-110450151D01*
X102848368Y-110459330D01*
X102866781Y-110470366D01*
X102884024Y-110483154D01*
X102899930Y-110497570D01*
X102914346Y-110513476D01*
X102927134Y-110530719D01*
X102938170Y-110549132D01*
X102947349Y-110568538D01*
X102954581Y-110588750D01*
X102959797Y-110609574D01*
X102962947Y-110630809D01*
X102964000Y-110652250D01*
X102964000Y-111089750D01*
X102962947Y-111111191D01*
X102959797Y-111132426D01*
X102954581Y-111153250D01*
X102947349Y-111173462D01*
X102938170Y-111192868D01*
X102927134Y-111211281D01*
X102914346Y-111228524D01*
X102899930Y-111244430D01*
X102884024Y-111258846D01*
X102866781Y-111271634D01*
X102848368Y-111282670D01*
X102828962Y-111291849D01*
X102808750Y-111299081D01*
X102787926Y-111304297D01*
X102766691Y-111307447D01*
X102745250Y-111308500D01*
X102232750Y-111308500D01*
X102211309Y-111307447D01*
X102190074Y-111304297D01*
X102169250Y-111299081D01*
X102149038Y-111291849D01*
X102129632Y-111282670D01*
X102111219Y-111271634D01*
X102093976Y-111258846D01*
X102078070Y-111244430D01*
X102063654Y-111228524D01*
X102050866Y-111211281D01*
X102039830Y-111192868D01*
X102030651Y-111173462D01*
X102023419Y-111153250D01*
X102018203Y-111132426D01*
X102015053Y-111111191D01*
X102014000Y-111089750D01*
X102014000Y-110652250D01*
X102015053Y-110630809D01*
X102018203Y-110609574D01*
X102023419Y-110588750D01*
X102030651Y-110568538D01*
X102039830Y-110549132D01*
X102050866Y-110530719D01*
X102063654Y-110513476D01*
X102078070Y-110497570D01*
X102093976Y-110483154D01*
X102111219Y-110470366D01*
X102129632Y-110459330D01*
X102149038Y-110450151D01*
X102169250Y-110442919D01*
X102190074Y-110437703D01*
X102211309Y-110434553D01*
X102232750Y-110433500D01*
X102745250Y-110433500D01*
X102766691Y-110434553D01*
X102766691Y-110434553D01*
G37*
D12*
X102489000Y-110871000D03*
G04 #@! TD*
D10*
G04 #@! TO.C,R13*
G36*
X101242691Y-108859553D02*
X101263926Y-108862703D01*
X101284750Y-108867919D01*
X101304962Y-108875151D01*
X101324368Y-108884330D01*
X101342781Y-108895366D01*
X101360024Y-108908154D01*
X101375930Y-108922570D01*
X101390346Y-108938476D01*
X101403134Y-108955719D01*
X101414170Y-108974132D01*
X101423349Y-108993538D01*
X101430581Y-109013750D01*
X101435797Y-109034574D01*
X101438947Y-109055809D01*
X101440000Y-109077250D01*
X101440000Y-109514750D01*
X101438947Y-109536191D01*
X101435797Y-109557426D01*
X101430581Y-109578250D01*
X101423349Y-109598462D01*
X101414170Y-109617868D01*
X101403134Y-109636281D01*
X101390346Y-109653524D01*
X101375930Y-109669430D01*
X101360024Y-109683846D01*
X101342781Y-109696634D01*
X101324368Y-109707670D01*
X101304962Y-109716849D01*
X101284750Y-109724081D01*
X101263926Y-109729297D01*
X101242691Y-109732447D01*
X101221250Y-109733500D01*
X100708750Y-109733500D01*
X100687309Y-109732447D01*
X100666074Y-109729297D01*
X100645250Y-109724081D01*
X100625038Y-109716849D01*
X100605632Y-109707670D01*
X100587219Y-109696634D01*
X100569976Y-109683846D01*
X100554070Y-109669430D01*
X100539654Y-109653524D01*
X100526866Y-109636281D01*
X100515830Y-109617868D01*
X100506651Y-109598462D01*
X100499419Y-109578250D01*
X100494203Y-109557426D01*
X100491053Y-109536191D01*
X100490000Y-109514750D01*
X100490000Y-109077250D01*
X100491053Y-109055809D01*
X100494203Y-109034574D01*
X100499419Y-109013750D01*
X100506651Y-108993538D01*
X100515830Y-108974132D01*
X100526866Y-108955719D01*
X100539654Y-108938476D01*
X100554070Y-108922570D01*
X100569976Y-108908154D01*
X100587219Y-108895366D01*
X100605632Y-108884330D01*
X100625038Y-108875151D01*
X100645250Y-108867919D01*
X100666074Y-108862703D01*
X100687309Y-108859553D01*
X100708750Y-108858500D01*
X101221250Y-108858500D01*
X101242691Y-108859553D01*
X101242691Y-108859553D01*
G37*
D12*
X100965000Y-109296000D03*
D10*
G36*
X101242691Y-110434553D02*
X101263926Y-110437703D01*
X101284750Y-110442919D01*
X101304962Y-110450151D01*
X101324368Y-110459330D01*
X101342781Y-110470366D01*
X101360024Y-110483154D01*
X101375930Y-110497570D01*
X101390346Y-110513476D01*
X101403134Y-110530719D01*
X101414170Y-110549132D01*
X101423349Y-110568538D01*
X101430581Y-110588750D01*
X101435797Y-110609574D01*
X101438947Y-110630809D01*
X101440000Y-110652250D01*
X101440000Y-111089750D01*
X101438947Y-111111191D01*
X101435797Y-111132426D01*
X101430581Y-111153250D01*
X101423349Y-111173462D01*
X101414170Y-111192868D01*
X101403134Y-111211281D01*
X101390346Y-111228524D01*
X101375930Y-111244430D01*
X101360024Y-111258846D01*
X101342781Y-111271634D01*
X101324368Y-111282670D01*
X101304962Y-111291849D01*
X101284750Y-111299081D01*
X101263926Y-111304297D01*
X101242691Y-111307447D01*
X101221250Y-111308500D01*
X100708750Y-111308500D01*
X100687309Y-111307447D01*
X100666074Y-111304297D01*
X100645250Y-111299081D01*
X100625038Y-111291849D01*
X100605632Y-111282670D01*
X100587219Y-111271634D01*
X100569976Y-111258846D01*
X100554070Y-111244430D01*
X100539654Y-111228524D01*
X100526866Y-111211281D01*
X100515830Y-111192868D01*
X100506651Y-111173462D01*
X100499419Y-111153250D01*
X100494203Y-111132426D01*
X100491053Y-111111191D01*
X100490000Y-111089750D01*
X100490000Y-110652250D01*
X100491053Y-110630809D01*
X100494203Y-110609574D01*
X100499419Y-110588750D01*
X100506651Y-110568538D01*
X100515830Y-110549132D01*
X100526866Y-110530719D01*
X100539654Y-110513476D01*
X100554070Y-110497570D01*
X100569976Y-110483154D01*
X100587219Y-110470366D01*
X100605632Y-110459330D01*
X100625038Y-110450151D01*
X100645250Y-110442919D01*
X100666074Y-110437703D01*
X100687309Y-110434553D01*
X100708750Y-110433500D01*
X101221250Y-110433500D01*
X101242691Y-110434553D01*
X101242691Y-110434553D01*
G37*
D12*
X100965000Y-110871000D03*
G04 #@! TD*
D31*
G04 #@! TO.C,Q3*
X146923000Y-144333000D03*
X146923000Y-142433000D03*
X144923000Y-143383000D03*
G04 #@! TD*
D10*
G04 #@! TO.C,R10*
G36*
X156271815Y-127571174D02*
X156295476Y-127574684D01*
X156318680Y-127580496D01*
X156341202Y-127588554D01*
X156362826Y-127598782D01*
X156383343Y-127611079D01*
X156402556Y-127625329D01*
X156420280Y-127641393D01*
X156436344Y-127659117D01*
X156450594Y-127678330D01*
X156462891Y-127698847D01*
X156473119Y-127720471D01*
X156481177Y-127742993D01*
X156486989Y-127766197D01*
X156490499Y-127789858D01*
X156491673Y-127813750D01*
X156491673Y-128726250D01*
X156490499Y-128750142D01*
X156486989Y-128773803D01*
X156481177Y-128797007D01*
X156473119Y-128819529D01*
X156462891Y-128841153D01*
X156450594Y-128861670D01*
X156436344Y-128880883D01*
X156420280Y-128898607D01*
X156402556Y-128914671D01*
X156383343Y-128928921D01*
X156362826Y-128941218D01*
X156341202Y-128951446D01*
X156318680Y-128959504D01*
X156295476Y-128965316D01*
X156271815Y-128968826D01*
X156247923Y-128970000D01*
X155760423Y-128970000D01*
X155736531Y-128968826D01*
X155712870Y-128965316D01*
X155689666Y-128959504D01*
X155667144Y-128951446D01*
X155645520Y-128941218D01*
X155625003Y-128928921D01*
X155605790Y-128914671D01*
X155588066Y-128898607D01*
X155572002Y-128880883D01*
X155557752Y-128861670D01*
X155545455Y-128841153D01*
X155535227Y-128819529D01*
X155527169Y-128797007D01*
X155521357Y-128773803D01*
X155517847Y-128750142D01*
X155516673Y-128726250D01*
X155516673Y-127813750D01*
X155517847Y-127789858D01*
X155521357Y-127766197D01*
X155527169Y-127742993D01*
X155535227Y-127720471D01*
X155545455Y-127698847D01*
X155557752Y-127678330D01*
X155572002Y-127659117D01*
X155588066Y-127641393D01*
X155605790Y-127625329D01*
X155625003Y-127611079D01*
X155645520Y-127598782D01*
X155667144Y-127588554D01*
X155689666Y-127580496D01*
X155712870Y-127574684D01*
X155736531Y-127571174D01*
X155760423Y-127570000D01*
X156247923Y-127570000D01*
X156271815Y-127571174D01*
X156271815Y-127571174D01*
G37*
D11*
X156004173Y-128270000D03*
D10*
G36*
X154396815Y-127571174D02*
X154420476Y-127574684D01*
X154443680Y-127580496D01*
X154466202Y-127588554D01*
X154487826Y-127598782D01*
X154508343Y-127611079D01*
X154527556Y-127625329D01*
X154545280Y-127641393D01*
X154561344Y-127659117D01*
X154575594Y-127678330D01*
X154587891Y-127698847D01*
X154598119Y-127720471D01*
X154606177Y-127742993D01*
X154611989Y-127766197D01*
X154615499Y-127789858D01*
X154616673Y-127813750D01*
X154616673Y-128726250D01*
X154615499Y-128750142D01*
X154611989Y-128773803D01*
X154606177Y-128797007D01*
X154598119Y-128819529D01*
X154587891Y-128841153D01*
X154575594Y-128861670D01*
X154561344Y-128880883D01*
X154545280Y-128898607D01*
X154527556Y-128914671D01*
X154508343Y-128928921D01*
X154487826Y-128941218D01*
X154466202Y-128951446D01*
X154443680Y-128959504D01*
X154420476Y-128965316D01*
X154396815Y-128968826D01*
X154372923Y-128970000D01*
X153885423Y-128970000D01*
X153861531Y-128968826D01*
X153837870Y-128965316D01*
X153814666Y-128959504D01*
X153792144Y-128951446D01*
X153770520Y-128941218D01*
X153750003Y-128928921D01*
X153730790Y-128914671D01*
X153713066Y-128898607D01*
X153697002Y-128880883D01*
X153682752Y-128861670D01*
X153670455Y-128841153D01*
X153660227Y-128819529D01*
X153652169Y-128797007D01*
X153646357Y-128773803D01*
X153642847Y-128750142D01*
X153641673Y-128726250D01*
X153641673Y-127813750D01*
X153642847Y-127789858D01*
X153646357Y-127766197D01*
X153652169Y-127742993D01*
X153660227Y-127720471D01*
X153670455Y-127698847D01*
X153682752Y-127678330D01*
X153697002Y-127659117D01*
X153713066Y-127641393D01*
X153730790Y-127625329D01*
X153750003Y-127611079D01*
X153770520Y-127598782D01*
X153792144Y-127588554D01*
X153814666Y-127580496D01*
X153837870Y-127574684D01*
X153861531Y-127571174D01*
X153885423Y-127570000D01*
X154372923Y-127570000D01*
X154396815Y-127571174D01*
X154396815Y-127571174D01*
G37*
D11*
X154129173Y-128270000D03*
G04 #@! TD*
D32*
G04 #@! TO.C,USB1*
X81710500Y-134717000D03*
X81710500Y-135367000D03*
X81710500Y-136017000D03*
X81710500Y-136667000D03*
X81710500Y-137317000D03*
D33*
X81010500Y-132767000D03*
X81010500Y-139267000D03*
X78310500Y-131967000D03*
X78310500Y-140067000D03*
D34*
X77110500Y-134517000D03*
X77110500Y-137542000D03*
G04 #@! TD*
M02*
