G04 #@! TF.GenerationSoftware,KiCad,Pcbnew,(5.0.2)-1*
G04 #@! TF.CreationDate,2019-10-04T12:36:52+03:00*
G04 #@! TF.ProjectId,esp32d,65737033-3264-42e6-9b69-6361645f7063,rev?*
G04 #@! TF.SameCoordinates,Original*
G04 #@! TF.FileFunction,Legend,Top*
G04 #@! TF.FilePolarity,Positive*
%FSLAX46Y46*%
G04 Gerber Fmt 4.6, Leading zero omitted, Abs format (unit mm)*
G04 Created by KiCad (PCBNEW (5.0.2)-1) date 04.10.2019 12:36:52*
%MOMM*%
%LPD*%
G01*
G04 APERTURE LIST*
%ADD10C,0.120000*%
%ADD11C,0.200000*%
%ADD12C,0.150000*%
%ADD13C,0.254000*%
%ADD14C,0.100000*%
G04 APERTURE END LIST*
D10*
G04 #@! TO.C,D6*
X157750000Y-129230000D02*
X160435000Y-129230000D01*
X160435000Y-129230000D02*
X160435000Y-127310000D01*
X160435000Y-127310000D02*
X157750000Y-127310000D01*
G04 #@! TO.C,R1*
X114873500Y-124241779D02*
X114873500Y-123916221D01*
X113853500Y-124241779D02*
X113853500Y-123916221D01*
G04 #@! TO.C,R2*
X137322779Y-100713000D02*
X136997221Y-100713000D01*
X137322779Y-99693000D02*
X136997221Y-99693000D01*
G04 #@! TO.C,C1*
X98427000Y-110246279D02*
X98427000Y-109920721D01*
X97407000Y-110246279D02*
X97407000Y-109920721D01*
G04 #@! TO.C,C2*
X99951000Y-109920721D02*
X99951000Y-110246279D01*
X98931000Y-109920721D02*
X98931000Y-110246279D01*
G04 #@! TO.C,C3*
X113349500Y-124241779D02*
X113349500Y-123916221D01*
X112329500Y-124241779D02*
X112329500Y-123916221D01*
G04 #@! TO.C,C4*
X130393221Y-129542000D02*
X130718779Y-129542000D01*
X130393221Y-128522000D02*
X130718779Y-128522000D01*
G04 #@! TO.C,C5*
X133098000Y-134685721D02*
X133098000Y-135011279D01*
X132078000Y-134685721D02*
X132078000Y-135011279D01*
G04 #@! TO.C,C6*
X131383721Y-99947000D02*
X131709279Y-99947000D01*
X131383721Y-100967000D02*
X131709279Y-100967000D01*
G04 #@! TO.C,C7*
X93724000Y-137449779D02*
X93724000Y-137124221D01*
X94744000Y-137449779D02*
X94744000Y-137124221D01*
G04 #@! TO.C,C8*
X93093000Y-137449779D02*
X93093000Y-137124221D01*
X92073000Y-137449779D02*
X92073000Y-137124221D01*
D11*
G04 #@! TO.C,D1*
X86790000Y-132603000D02*
X84240000Y-132603000D01*
X85940000Y-131303000D02*
X84240000Y-131303000D01*
D10*
G04 #@! TO.C,D2*
X136160000Y-98115000D02*
X138845000Y-98115000D01*
X138845000Y-98115000D02*
X138845000Y-96195000D01*
X138845000Y-96195000D02*
X136160000Y-96195000D01*
D12*
G04 #@! TO.C,D3*
X84909000Y-130048000D02*
X84709000Y-130048000D01*
X84609000Y-130048000D02*
X84909000Y-130248000D01*
X84909000Y-129848000D02*
X84609000Y-130048000D01*
X84509000Y-130048000D02*
X84909000Y-129648000D01*
X84909000Y-130448000D02*
X84509000Y-130048000D01*
X84909000Y-129648000D02*
X84909000Y-130448000D01*
G04 #@! TO.C,D4*
X86614000Y-136344000D02*
X86614000Y-136144000D01*
X86614000Y-136044000D02*
X86414000Y-136344000D01*
X86814000Y-136344000D02*
X86614000Y-136044000D01*
X86614000Y-135944000D02*
X87014000Y-136344000D01*
X86214000Y-136344000D02*
X86614000Y-135944000D01*
X87014000Y-136344000D02*
X86214000Y-136344000D01*
G04 #@! TO.C,D5*
X84982000Y-136305000D02*
X84182000Y-136305000D01*
X84182000Y-136305000D02*
X84582000Y-135905000D01*
X84582000Y-135905000D02*
X84982000Y-136305000D01*
X84782000Y-136305000D02*
X84582000Y-136005000D01*
X84582000Y-136005000D02*
X84382000Y-136305000D01*
X84582000Y-136305000D02*
X84582000Y-136105000D01*
D13*
G04 #@! TO.C,IC1*
X96335000Y-131862000D02*
G75*
G03X96335000Y-131862000I-125000J0D01*
G01*
D14*
G04 #@! TO.C,Q1*
X106743000Y-127509000D02*
X106743000Y-127809000D01*
X106368000Y-127509000D02*
X106743000Y-127509000D01*
X106743000Y-130809000D02*
X106293000Y-130809000D01*
X106743000Y-130509000D02*
X106743000Y-130809000D01*
X106743000Y-130584000D02*
X106743000Y-130459000D01*
X105093000Y-130809000D02*
X105093000Y-130459000D01*
X105568000Y-130809000D02*
X105093000Y-130809000D01*
X105093000Y-127834000D02*
X104318000Y-127834000D01*
X105093000Y-127784000D02*
X105093000Y-127834000D01*
X105468000Y-127509000D02*
X105093000Y-127784000D01*
X105743000Y-127509000D02*
X105468000Y-127509000D01*
G04 #@! TO.C,Q2*
X106093000Y-126838000D02*
X106368000Y-126838000D01*
X106368000Y-126838000D02*
X106743000Y-126563000D01*
X106743000Y-126563000D02*
X106743000Y-126513000D01*
X106743000Y-126513000D02*
X107518000Y-126513000D01*
X106268000Y-123538000D02*
X106743000Y-123538000D01*
X106743000Y-123538000D02*
X106743000Y-123888000D01*
X105093000Y-123763000D02*
X105093000Y-123888000D01*
X105093000Y-123838000D02*
X105093000Y-123538000D01*
X105093000Y-123538000D02*
X105543000Y-123538000D01*
X105468000Y-126838000D02*
X105093000Y-126838000D01*
X105093000Y-126838000D02*
X105093000Y-126538000D01*
D10*
G04 #@! TO.C,R3*
X126049721Y-109857000D02*
X126375279Y-109857000D01*
X126049721Y-108837000D02*
X126375279Y-108837000D01*
G04 #@! TO.C,R4*
X126049721Y-105027000D02*
X126375279Y-105027000D01*
X126049721Y-106047000D02*
X126375279Y-106047000D01*
G04 #@! TO.C,R5*
X96936779Y-139190000D02*
X96611221Y-139190000D01*
X96936779Y-140210000D02*
X96611221Y-140210000D01*
G04 #@! TO.C,R6*
X96936779Y-143258000D02*
X96611221Y-143258000D01*
X96936779Y-142238000D02*
X96611221Y-142238000D01*
G04 #@! TO.C,R7*
X96611221Y-140714000D02*
X96936779Y-140714000D01*
X96611221Y-141734000D02*
X96936779Y-141734000D01*
G04 #@! TO.C,R8*
X100903721Y-124906500D02*
X101229279Y-124906500D01*
X100903721Y-123886500D02*
X101229279Y-123886500D01*
G04 #@! TO.C,R9*
X100903721Y-125410500D02*
X101229279Y-125410500D01*
X100903721Y-126430500D02*
X101229279Y-126430500D01*
D11*
G04 #@! TO.C,SW1*
X133080000Y-95079000D02*
X133080000Y-94654000D01*
X133080000Y-94654000D02*
X131080000Y-94654000D01*
X131080000Y-94654000D02*
X131080000Y-95079000D01*
X129830000Y-98054000D02*
X129830000Y-97431000D01*
X134330000Y-98054000D02*
X134330000Y-97431000D01*
X134330000Y-98054000D02*
X133994000Y-98054000D01*
X129830000Y-98054000D02*
X130166000Y-98054000D01*
D13*
X130932000Y-98837000D02*
G75*
G03X130932000Y-98837000I-41000J0D01*
G01*
D10*
G04 #@! TO.C,U1*
X124582000Y-130194000D02*
X124582000Y-131454000D01*
X124582000Y-137014000D02*
X124582000Y-135754000D01*
X128342000Y-130194000D02*
X124582000Y-130194000D01*
X130592000Y-137014000D02*
X124582000Y-137014000D01*
G04 #@! TO.C,U2*
X105180000Y-120352000D02*
X105180000Y-121132000D01*
X105180000Y-121132000D02*
X106180000Y-121132000D01*
X123420000Y-120352000D02*
X123420000Y-121132000D01*
X123420000Y-121132000D02*
X122420000Y-121132000D01*
X105180000Y-95387000D02*
X123420000Y-95387000D01*
X123420000Y-95387000D02*
X123420000Y-101807000D01*
X105180000Y-95387000D02*
X105180000Y-101807000D01*
X105180000Y-101807000D02*
X104800000Y-101807000D01*
G04 #@! TO.C,C9*
X148207000Y-141132779D02*
X148207000Y-140807221D01*
X149227000Y-141132779D02*
X149227000Y-140807221D01*
G04 #@! TO.C,J4*
X158420000Y-140204000D02*
X154170000Y-140204000D01*
X154170000Y-140204000D02*
X154170000Y-139184000D01*
X154170000Y-139184000D02*
X155770000Y-139184000D01*
X155770000Y-139184000D02*
X155770000Y-137904000D01*
X155770000Y-137904000D02*
X152880000Y-137904000D01*
X158420000Y-132084000D02*
X154170000Y-132084000D01*
X154170000Y-132084000D02*
X154170000Y-133104000D01*
X154170000Y-133104000D02*
X155770000Y-133104000D01*
X155770000Y-133104000D02*
X155770000Y-134384000D01*
X161990000Y-138484000D02*
X161990000Y-133804000D01*
G04 #@! TO.C,R11*
X148207000Y-138084779D02*
X148207000Y-137759221D01*
X149227000Y-138084779D02*
X149227000Y-137759221D01*
G04 #@! TO.C,U4*
X145023000Y-140675000D02*
X146823000Y-140675000D01*
X146823000Y-137455000D02*
X144373000Y-137455000D01*
G04 #@! TO.C,R12*
X102999000Y-110246279D02*
X102999000Y-109920721D01*
X101979000Y-110246279D02*
X101979000Y-109920721D01*
G04 #@! TO.C,R13*
X101475000Y-109920721D02*
X101475000Y-110246279D01*
X100455000Y-109920721D02*
X100455000Y-110246279D01*
G04 #@! TO.C,Q3*
X145163000Y-141803000D02*
X145163000Y-142733000D01*
X145163000Y-144963000D02*
X145163000Y-144033000D01*
X145163000Y-144963000D02*
X147323000Y-144963000D01*
X145163000Y-141803000D02*
X146623000Y-141803000D01*
G04 #@! TO.C,R10*
X155325251Y-128980000D02*
X154808095Y-128980000D01*
X155325251Y-127560000D02*
X154808095Y-127560000D01*
D12*
G04 #@! TO.C,USB1*
X76160500Y-130617000D02*
X76160500Y-141417000D01*
X76160500Y-130617000D02*
X82735500Y-130617000D01*
X82735500Y-130617000D02*
X82735500Y-141417000D01*
X82735500Y-141417000D02*
X76160500Y-141417000D01*
D10*
G04 #@! TO.C,J2*
X142180000Y-126425000D02*
X147380000Y-126425000D01*
X142180000Y-108585000D02*
X142180000Y-126425000D01*
X147380000Y-105985000D02*
X147380000Y-126425000D01*
X142180000Y-108585000D02*
X144780000Y-108585000D01*
X144780000Y-108585000D02*
X144780000Y-105985000D01*
X144780000Y-105985000D02*
X147380000Y-105985000D01*
X142180000Y-107315000D02*
X142180000Y-105985000D01*
X142180000Y-105985000D02*
X143510000Y-105985000D01*
G04 #@! TO.C,J1*
X91380000Y-126425000D02*
X96580000Y-126425000D01*
X91380000Y-108585000D02*
X91380000Y-126425000D01*
X96580000Y-105985000D02*
X96580000Y-126425000D01*
X91380000Y-108585000D02*
X93980000Y-108585000D01*
X93980000Y-108585000D02*
X93980000Y-105985000D01*
X93980000Y-105985000D02*
X96580000Y-105985000D01*
X91380000Y-107315000D02*
X91380000Y-105985000D01*
X91380000Y-105985000D02*
X92710000Y-105985000D01*
G04 #@! TO.C,D6*
D12*
X158011904Y-126944380D02*
X158011904Y-125944380D01*
X158250000Y-125944380D01*
X158392857Y-125992000D01*
X158488095Y-126087238D01*
X158535714Y-126182476D01*
X158583333Y-126372952D01*
X158583333Y-126515809D01*
X158535714Y-126706285D01*
X158488095Y-126801523D01*
X158392857Y-126896761D01*
X158250000Y-126944380D01*
X158011904Y-126944380D01*
X159440476Y-125944380D02*
X159250000Y-125944380D01*
X159154761Y-125992000D01*
X159107142Y-126039619D01*
X159011904Y-126182476D01*
X158964285Y-126372952D01*
X158964285Y-126753904D01*
X159011904Y-126849142D01*
X159059523Y-126896761D01*
X159154761Y-126944380D01*
X159345238Y-126944380D01*
X159440476Y-126896761D01*
X159488095Y-126849142D01*
X159535714Y-126753904D01*
X159535714Y-126515809D01*
X159488095Y-126420571D01*
X159440476Y-126372952D01*
X159345238Y-126325333D01*
X159154761Y-126325333D01*
X159059523Y-126372952D01*
X159011904Y-126420571D01*
X158964285Y-126515809D01*
G04 #@! TO.C,R1*
X114815880Y-126912666D02*
X114339690Y-127246000D01*
X114815880Y-127484095D02*
X113815880Y-127484095D01*
X113815880Y-127103142D01*
X113863500Y-127007904D01*
X113911119Y-126960285D01*
X114006357Y-126912666D01*
X114149214Y-126912666D01*
X114244452Y-126960285D01*
X114292071Y-127007904D01*
X114339690Y-127103142D01*
X114339690Y-127484095D01*
X114815880Y-125960285D02*
X114815880Y-126531714D01*
X114815880Y-126246000D02*
X113815880Y-126246000D01*
X113958738Y-126341238D01*
X114053976Y-126436476D01*
X114101595Y-126531714D01*
G04 #@! TO.C,R2*
X136993333Y-99258380D02*
X136660000Y-98782190D01*
X136421904Y-99258380D02*
X136421904Y-98258380D01*
X136802857Y-98258380D01*
X136898095Y-98306000D01*
X136945714Y-98353619D01*
X136993333Y-98448857D01*
X136993333Y-98591714D01*
X136945714Y-98686952D01*
X136898095Y-98734571D01*
X136802857Y-98782190D01*
X136421904Y-98782190D01*
X137374285Y-98353619D02*
X137421904Y-98306000D01*
X137517142Y-98258380D01*
X137755238Y-98258380D01*
X137850476Y-98306000D01*
X137898095Y-98353619D01*
X137945714Y-98448857D01*
X137945714Y-98544095D01*
X137898095Y-98686952D01*
X137326666Y-99258380D01*
X137945714Y-99258380D01*
G04 #@! TO.C,C1*
X98274142Y-112815666D02*
X98321761Y-112863285D01*
X98369380Y-113006142D01*
X98369380Y-113101380D01*
X98321761Y-113244238D01*
X98226523Y-113339476D01*
X98131285Y-113387095D01*
X97940809Y-113434714D01*
X97797952Y-113434714D01*
X97607476Y-113387095D01*
X97512238Y-113339476D01*
X97417000Y-113244238D01*
X97369380Y-113101380D01*
X97369380Y-113006142D01*
X97417000Y-112863285D01*
X97464619Y-112815666D01*
X98369380Y-111863285D02*
X98369380Y-112434714D01*
X98369380Y-112149000D02*
X97369380Y-112149000D01*
X97512238Y-112244238D01*
X97607476Y-112339476D01*
X97655095Y-112434714D01*
G04 #@! TO.C,C2*
X99798142Y-112790166D02*
X99845761Y-112837785D01*
X99893380Y-112980642D01*
X99893380Y-113075880D01*
X99845761Y-113218738D01*
X99750523Y-113313976D01*
X99655285Y-113361595D01*
X99464809Y-113409214D01*
X99321952Y-113409214D01*
X99131476Y-113361595D01*
X99036238Y-113313976D01*
X98941000Y-113218738D01*
X98893380Y-113075880D01*
X98893380Y-112980642D01*
X98941000Y-112837785D01*
X98988619Y-112790166D01*
X98988619Y-112409214D02*
X98941000Y-112361595D01*
X98893380Y-112266357D01*
X98893380Y-112028261D01*
X98941000Y-111933023D01*
X98988619Y-111885404D01*
X99083857Y-111837785D01*
X99179095Y-111837785D01*
X99321952Y-111885404D01*
X99893380Y-112456833D01*
X99893380Y-111837785D01*
G04 #@! TO.C,C3*
X113196642Y-127141166D02*
X113244261Y-127188785D01*
X113291880Y-127331642D01*
X113291880Y-127426880D01*
X113244261Y-127569738D01*
X113149023Y-127664976D01*
X113053785Y-127712595D01*
X112863309Y-127760214D01*
X112720452Y-127760214D01*
X112529976Y-127712595D01*
X112434738Y-127664976D01*
X112339500Y-127569738D01*
X112291880Y-127426880D01*
X112291880Y-127331642D01*
X112339500Y-127188785D01*
X112387119Y-127141166D01*
X112291880Y-126807833D02*
X112291880Y-126188785D01*
X112672833Y-126522119D01*
X112672833Y-126379261D01*
X112720452Y-126284023D01*
X112768071Y-126236404D01*
X112863309Y-126188785D01*
X113101404Y-126188785D01*
X113196642Y-126236404D01*
X113244261Y-126284023D01*
X113291880Y-126379261D01*
X113291880Y-126664976D01*
X113244261Y-126760214D01*
X113196642Y-126807833D01*
G04 #@! TO.C,C4*
X128103333Y-129389142D02*
X128055714Y-129436761D01*
X127912857Y-129484380D01*
X127817619Y-129484380D01*
X127674761Y-129436761D01*
X127579523Y-129341523D01*
X127531904Y-129246285D01*
X127484285Y-129055809D01*
X127484285Y-128912952D01*
X127531904Y-128722476D01*
X127579523Y-128627238D01*
X127674761Y-128532000D01*
X127817619Y-128484380D01*
X127912857Y-128484380D01*
X128055714Y-128532000D01*
X128103333Y-128579619D01*
X128960476Y-128817714D02*
X128960476Y-129484380D01*
X128722380Y-128436761D02*
X128484285Y-129151047D01*
X129103333Y-129151047D01*
G04 #@! TO.C,C5*
X134375142Y-134913666D02*
X134422761Y-134961285D01*
X134470380Y-135104142D01*
X134470380Y-135199380D01*
X134422761Y-135342238D01*
X134327523Y-135437476D01*
X134232285Y-135485095D01*
X134041809Y-135532714D01*
X133898952Y-135532714D01*
X133708476Y-135485095D01*
X133613238Y-135437476D01*
X133518000Y-135342238D01*
X133470380Y-135199380D01*
X133470380Y-135104142D01*
X133518000Y-134961285D01*
X133565619Y-134913666D01*
X133470380Y-134008904D02*
X133470380Y-134485095D01*
X133946571Y-134532714D01*
X133898952Y-134485095D01*
X133851333Y-134389857D01*
X133851333Y-134151761D01*
X133898952Y-134056523D01*
X133946571Y-134008904D01*
X134041809Y-133961285D01*
X134279904Y-133961285D01*
X134375142Y-134008904D01*
X134422761Y-134056523D01*
X134470380Y-134151761D01*
X134470380Y-134389857D01*
X134422761Y-134485095D01*
X134375142Y-134532714D01*
G04 #@! TO.C,C6*
X130135333Y-102211142D02*
X130087714Y-102258761D01*
X129944857Y-102306380D01*
X129849619Y-102306380D01*
X129706761Y-102258761D01*
X129611523Y-102163523D01*
X129563904Y-102068285D01*
X129516285Y-101877809D01*
X129516285Y-101734952D01*
X129563904Y-101544476D01*
X129611523Y-101449238D01*
X129706761Y-101354000D01*
X129849619Y-101306380D01*
X129944857Y-101306380D01*
X130087714Y-101354000D01*
X130135333Y-101401619D01*
X130992476Y-101306380D02*
X130802000Y-101306380D01*
X130706761Y-101354000D01*
X130659142Y-101401619D01*
X130563904Y-101544476D01*
X130516285Y-101734952D01*
X130516285Y-102115904D01*
X130563904Y-102211142D01*
X130611523Y-102258761D01*
X130706761Y-102306380D01*
X130897238Y-102306380D01*
X130992476Y-102258761D01*
X131040095Y-102211142D01*
X131087714Y-102115904D01*
X131087714Y-101877809D01*
X131040095Y-101782571D01*
X130992476Y-101734952D01*
X130897238Y-101687333D01*
X130706761Y-101687333D01*
X130611523Y-101734952D01*
X130563904Y-101782571D01*
X130516285Y-101877809D01*
G04 #@! TO.C,C7*
X94591142Y-139993666D02*
X94638761Y-140041285D01*
X94686380Y-140184142D01*
X94686380Y-140279380D01*
X94638761Y-140422238D01*
X94543523Y-140517476D01*
X94448285Y-140565095D01*
X94257809Y-140612714D01*
X94114952Y-140612714D01*
X93924476Y-140565095D01*
X93829238Y-140517476D01*
X93734000Y-140422238D01*
X93686380Y-140279380D01*
X93686380Y-140184142D01*
X93734000Y-140041285D01*
X93781619Y-139993666D01*
X93686380Y-139660333D02*
X93686380Y-138993666D01*
X94686380Y-139422238D01*
G04 #@! TO.C,C8*
X92940142Y-139993666D02*
X92987761Y-140041285D01*
X93035380Y-140184142D01*
X93035380Y-140279380D01*
X92987761Y-140422238D01*
X92892523Y-140517476D01*
X92797285Y-140565095D01*
X92606809Y-140612714D01*
X92463952Y-140612714D01*
X92273476Y-140565095D01*
X92178238Y-140517476D01*
X92083000Y-140422238D01*
X92035380Y-140279380D01*
X92035380Y-140184142D01*
X92083000Y-140041285D01*
X92130619Y-139993666D01*
X92463952Y-139422238D02*
X92416333Y-139517476D01*
X92368714Y-139565095D01*
X92273476Y-139612714D01*
X92225857Y-139612714D01*
X92130619Y-139565095D01*
X92083000Y-139517476D01*
X92035380Y-139422238D01*
X92035380Y-139231761D01*
X92083000Y-139136523D01*
X92130619Y-139088904D01*
X92225857Y-139041285D01*
X92273476Y-139041285D01*
X92368714Y-139088904D01*
X92416333Y-139136523D01*
X92463952Y-139231761D01*
X92463952Y-139422238D01*
X92511571Y-139517476D01*
X92559190Y-139565095D01*
X92654428Y-139612714D01*
X92844904Y-139612714D01*
X92940142Y-139565095D01*
X92987761Y-139517476D01*
X93035380Y-139422238D01*
X93035380Y-139231761D01*
X92987761Y-139136523D01*
X92940142Y-139088904D01*
X92844904Y-139041285D01*
X92654428Y-139041285D01*
X92559190Y-139088904D01*
X92511571Y-139136523D01*
X92463952Y-139231761D01*
G04 #@! TO.C,D1*
D13*
X87581619Y-132654523D02*
X87581619Y-131384523D01*
X87884000Y-131384523D01*
X88065428Y-131445000D01*
X88186380Y-131565952D01*
X88246857Y-131686904D01*
X88307333Y-131928809D01*
X88307333Y-132110238D01*
X88246857Y-132352142D01*
X88186380Y-132473095D01*
X88065428Y-132594047D01*
X87884000Y-132654523D01*
X87581619Y-132654523D01*
X89516857Y-132654523D02*
X88791142Y-132654523D01*
X89154000Y-132654523D02*
X89154000Y-131384523D01*
X89033047Y-131565952D01*
X88912095Y-131686904D01*
X88791142Y-131747380D01*
G04 #@! TO.C,D2*
D12*
X136421904Y-95956380D02*
X136421904Y-94956380D01*
X136660000Y-94956380D01*
X136802857Y-95004000D01*
X136898095Y-95099238D01*
X136945714Y-95194476D01*
X136993333Y-95384952D01*
X136993333Y-95527809D01*
X136945714Y-95718285D01*
X136898095Y-95813523D01*
X136802857Y-95908761D01*
X136660000Y-95956380D01*
X136421904Y-95956380D01*
X137374285Y-95051619D02*
X137421904Y-95004000D01*
X137517142Y-94956380D01*
X137755238Y-94956380D01*
X137850476Y-95004000D01*
X137898095Y-95051619D01*
X137945714Y-95146857D01*
X137945714Y-95242095D01*
X137898095Y-95384952D01*
X137326666Y-95956380D01*
X137945714Y-95956380D01*
G04 #@! TO.C,D3*
X84118523Y-129139904D02*
X84118523Y-128339904D01*
X84309000Y-128339904D01*
X84423285Y-128378000D01*
X84499476Y-128454190D01*
X84537571Y-128530380D01*
X84575666Y-128682761D01*
X84575666Y-128797047D01*
X84537571Y-128949428D01*
X84499476Y-129025619D01*
X84423285Y-129101809D01*
X84309000Y-129139904D01*
X84118523Y-129139904D01*
X84842333Y-128339904D02*
X85337571Y-128339904D01*
X85070904Y-128644666D01*
X85185190Y-128644666D01*
X85261380Y-128682761D01*
X85299476Y-128720857D01*
X85337571Y-128797047D01*
X85337571Y-128987523D01*
X85299476Y-129063714D01*
X85261380Y-129101809D01*
X85185190Y-129139904D01*
X84956619Y-129139904D01*
X84880428Y-129101809D01*
X84842333Y-129063714D01*
G04 #@! TO.C,D4*
X86975904Y-136734476D02*
X86175904Y-136734476D01*
X86175904Y-136544000D01*
X86214000Y-136429714D01*
X86290190Y-136353523D01*
X86366380Y-136315428D01*
X86518761Y-136277333D01*
X86633047Y-136277333D01*
X86785428Y-136315428D01*
X86861619Y-136353523D01*
X86937809Y-136429714D01*
X86975904Y-136544000D01*
X86975904Y-136734476D01*
X86442571Y-135591619D02*
X86975904Y-135591619D01*
X86137809Y-135782095D02*
X86709238Y-135972571D01*
X86709238Y-135477333D01*
G04 #@! TO.C,D5*
X84943904Y-136695476D02*
X84143904Y-136695476D01*
X84143904Y-136505000D01*
X84182000Y-136390714D01*
X84258190Y-136314523D01*
X84334380Y-136276428D01*
X84486761Y-136238333D01*
X84601047Y-136238333D01*
X84753428Y-136276428D01*
X84829619Y-136314523D01*
X84905809Y-136390714D01*
X84943904Y-136505000D01*
X84943904Y-136695476D01*
X84143904Y-135514523D02*
X84143904Y-135895476D01*
X84524857Y-135933571D01*
X84486761Y-135895476D01*
X84448666Y-135819285D01*
X84448666Y-135628809D01*
X84486761Y-135552619D01*
X84524857Y-135514523D01*
X84601047Y-135476428D01*
X84791523Y-135476428D01*
X84867714Y-135514523D01*
X84905809Y-135552619D01*
X84943904Y-135628809D01*
X84943904Y-135819285D01*
X84905809Y-135895476D01*
X84867714Y-135933571D01*
G04 #@! TO.C,FID1*
X85629857Y-142182857D02*
X85363190Y-142182857D01*
X85363190Y-142601904D02*
X85363190Y-141801904D01*
X85744142Y-141801904D01*
X86048904Y-142601904D02*
X86048904Y-141801904D01*
X86429857Y-142601904D02*
X86429857Y-141801904D01*
X86620333Y-141801904D01*
X86734619Y-141840000D01*
X86810809Y-141916190D01*
X86848904Y-141992380D01*
X86887000Y-142144761D01*
X86887000Y-142259047D01*
X86848904Y-142411428D01*
X86810809Y-142487619D01*
X86734619Y-142563809D01*
X86620333Y-142601904D01*
X86429857Y-142601904D01*
X87648904Y-142601904D02*
X87191761Y-142601904D01*
X87420333Y-142601904D02*
X87420333Y-141801904D01*
X87344142Y-141916190D01*
X87267952Y-141992380D01*
X87191761Y-142030476D01*
G04 #@! TO.C,FID2*
X131984857Y-104971857D02*
X131718190Y-104971857D01*
X131718190Y-105390904D02*
X131718190Y-104590904D01*
X132099142Y-104590904D01*
X132403904Y-105390904D02*
X132403904Y-104590904D01*
X132784857Y-105390904D02*
X132784857Y-104590904D01*
X132975333Y-104590904D01*
X133089619Y-104629000D01*
X133165809Y-104705190D01*
X133203904Y-104781380D01*
X133242000Y-104933761D01*
X133242000Y-105048047D01*
X133203904Y-105200428D01*
X133165809Y-105276619D01*
X133089619Y-105352809D01*
X132975333Y-105390904D01*
X132784857Y-105390904D01*
X133546761Y-104667095D02*
X133584857Y-104629000D01*
X133661047Y-104590904D01*
X133851523Y-104590904D01*
X133927714Y-104629000D01*
X133965809Y-104667095D01*
X134003904Y-104743285D01*
X134003904Y-104819476D01*
X133965809Y-104933761D01*
X133508666Y-105390904D01*
X134003904Y-105390904D01*
G04 #@! TO.C,H1*
X100838095Y-107894380D02*
X100838095Y-106894380D01*
X100838095Y-107370571D02*
X101409523Y-107370571D01*
X101409523Y-107894380D02*
X101409523Y-106894380D01*
X102409523Y-107894380D02*
X101838095Y-107894380D01*
X102123809Y-107894380D02*
X102123809Y-106894380D01*
X102028571Y-107037238D01*
X101933333Y-107132476D01*
X101838095Y-107180095D01*
G04 #@! TO.C,H2*
X136398095Y-108508379D02*
X136398095Y-107508379D01*
X136398095Y-107984570D02*
X136969523Y-107984570D01*
X136969523Y-108508379D02*
X136969523Y-107508379D01*
X137398095Y-107603618D02*
X137445714Y-107555999D01*
X137540952Y-107508379D01*
X137779047Y-107508379D01*
X137874285Y-107555999D01*
X137921904Y-107603618D01*
X137969523Y-107698856D01*
X137969523Y-107794094D01*
X137921904Y-107936951D01*
X137350476Y-108508379D01*
X137969523Y-108508379D01*
G04 #@! TO.C,H3*
X121941096Y-144216380D02*
X121941096Y-143216380D01*
X121941096Y-143692571D02*
X122512524Y-143692571D01*
X122512524Y-144216380D02*
X122512524Y-143216380D01*
X122893477Y-143216380D02*
X123512524Y-143216380D01*
X123179191Y-143597333D01*
X123322048Y-143597333D01*
X123417286Y-143644952D01*
X123464905Y-143692571D01*
X123512524Y-143787809D01*
X123512524Y-144025904D01*
X123464905Y-144121142D01*
X123417286Y-144168761D01*
X123322048Y-144216380D01*
X123036334Y-144216380D01*
X122941096Y-144168761D01*
X122893477Y-144121142D01*
G04 #@! TO.C,IC1*
D13*
X103571523Y-135097761D02*
X102301523Y-135097761D01*
X103450571Y-133767285D02*
X103511047Y-133827761D01*
X103571523Y-134009190D01*
X103571523Y-134130142D01*
X103511047Y-134311571D01*
X103390095Y-134432523D01*
X103269142Y-134493000D01*
X103027238Y-134553476D01*
X102845809Y-134553476D01*
X102603904Y-134493000D01*
X102482952Y-134432523D01*
X102362000Y-134311571D01*
X102301523Y-134130142D01*
X102301523Y-134009190D01*
X102362000Y-133827761D01*
X102422476Y-133767285D01*
X103571523Y-132557761D02*
X103571523Y-133283476D01*
X103571523Y-132920619D02*
X102301523Y-132920619D01*
X102482952Y-133041571D01*
X102603904Y-133162523D01*
X102664380Y-133283476D01*
G04 #@! TO.C,Q1*
D12*
X108616761Y-129706619D02*
X108521523Y-129659000D01*
X108426285Y-129563761D01*
X108283428Y-129420904D01*
X108188190Y-129373285D01*
X108092952Y-129373285D01*
X108140571Y-129611380D02*
X108045333Y-129563761D01*
X107950095Y-129468523D01*
X107902476Y-129278047D01*
X107902476Y-128944714D01*
X107950095Y-128754238D01*
X108045333Y-128659000D01*
X108140571Y-128611380D01*
X108331047Y-128611380D01*
X108426285Y-128659000D01*
X108521523Y-128754238D01*
X108569142Y-128944714D01*
X108569142Y-129278047D01*
X108521523Y-129468523D01*
X108426285Y-129563761D01*
X108331047Y-129611380D01*
X108140571Y-129611380D01*
X109521523Y-129611380D02*
X108950095Y-129611380D01*
X109235809Y-129611380D02*
X109235809Y-128611380D01*
X109140571Y-128754238D01*
X109045333Y-128849476D01*
X108950095Y-128897095D01*
G04 #@! TO.C,Q2*
X102901761Y-125769619D02*
X102806523Y-125722000D01*
X102711285Y-125626761D01*
X102568428Y-125483904D01*
X102473190Y-125436285D01*
X102377952Y-125436285D01*
X102425571Y-125674380D02*
X102330333Y-125626761D01*
X102235095Y-125531523D01*
X102187476Y-125341047D01*
X102187476Y-125007714D01*
X102235095Y-124817238D01*
X102330333Y-124722000D01*
X102425571Y-124674380D01*
X102616047Y-124674380D01*
X102711285Y-124722000D01*
X102806523Y-124817238D01*
X102854142Y-125007714D01*
X102854142Y-125341047D01*
X102806523Y-125531523D01*
X102711285Y-125626761D01*
X102616047Y-125674380D01*
X102425571Y-125674380D01*
X103235095Y-124769619D02*
X103282714Y-124722000D01*
X103377952Y-124674380D01*
X103616047Y-124674380D01*
X103711285Y-124722000D01*
X103758904Y-124769619D01*
X103806523Y-124864857D01*
X103806523Y-124960095D01*
X103758904Y-125102952D01*
X103187476Y-125674380D01*
X103806523Y-125674380D01*
G04 #@! TO.C,R3*
X126045833Y-108369380D02*
X125712500Y-107893190D01*
X125474404Y-108369380D02*
X125474404Y-107369380D01*
X125855357Y-107369380D01*
X125950595Y-107417000D01*
X125998214Y-107464619D01*
X126045833Y-107559857D01*
X126045833Y-107702714D01*
X125998214Y-107797952D01*
X125950595Y-107845571D01*
X125855357Y-107893190D01*
X125474404Y-107893190D01*
X126379166Y-107369380D02*
X126998214Y-107369380D01*
X126664880Y-107750333D01*
X126807738Y-107750333D01*
X126902976Y-107797952D01*
X126950595Y-107845571D01*
X126998214Y-107940809D01*
X126998214Y-108178904D01*
X126950595Y-108274142D01*
X126902976Y-108321761D01*
X126807738Y-108369380D01*
X126522023Y-108369380D01*
X126426785Y-108321761D01*
X126379166Y-108274142D01*
G04 #@! TO.C,R4*
X126045833Y-104559380D02*
X125712500Y-104083190D01*
X125474404Y-104559380D02*
X125474404Y-103559380D01*
X125855357Y-103559380D01*
X125950595Y-103607000D01*
X125998214Y-103654619D01*
X126045833Y-103749857D01*
X126045833Y-103892714D01*
X125998214Y-103987952D01*
X125950595Y-104035571D01*
X125855357Y-104083190D01*
X125474404Y-104083190D01*
X126902976Y-103892714D02*
X126902976Y-104559380D01*
X126664880Y-103511761D02*
X126426785Y-104226047D01*
X127045833Y-104226047D01*
G04 #@! TO.C,R5*
X99147333Y-140152380D02*
X98814000Y-139676190D01*
X98575904Y-140152380D02*
X98575904Y-139152380D01*
X98956857Y-139152380D01*
X99052095Y-139200000D01*
X99099714Y-139247619D01*
X99147333Y-139342857D01*
X99147333Y-139485714D01*
X99099714Y-139580952D01*
X99052095Y-139628571D01*
X98956857Y-139676190D01*
X98575904Y-139676190D01*
X100052095Y-139152380D02*
X99575904Y-139152380D01*
X99528285Y-139628571D01*
X99575904Y-139580952D01*
X99671142Y-139533333D01*
X99909238Y-139533333D01*
X100004476Y-139580952D01*
X100052095Y-139628571D01*
X100099714Y-139723809D01*
X100099714Y-139961904D01*
X100052095Y-140057142D01*
X100004476Y-140104761D01*
X99909238Y-140152380D01*
X99671142Y-140152380D01*
X99575904Y-140104761D01*
X99528285Y-140057142D01*
G04 #@! TO.C,R6*
X96607333Y-144597380D02*
X96274000Y-144121190D01*
X96035904Y-144597380D02*
X96035904Y-143597380D01*
X96416857Y-143597380D01*
X96512095Y-143645000D01*
X96559714Y-143692619D01*
X96607333Y-143787857D01*
X96607333Y-143930714D01*
X96559714Y-144025952D01*
X96512095Y-144073571D01*
X96416857Y-144121190D01*
X96035904Y-144121190D01*
X97464476Y-143597380D02*
X97274000Y-143597380D01*
X97178761Y-143645000D01*
X97131142Y-143692619D01*
X97035904Y-143835476D01*
X96988285Y-144025952D01*
X96988285Y-144406904D01*
X97035904Y-144502142D01*
X97083523Y-144549761D01*
X97178761Y-144597380D01*
X97369238Y-144597380D01*
X97464476Y-144549761D01*
X97512095Y-144502142D01*
X97559714Y-144406904D01*
X97559714Y-144168809D01*
X97512095Y-144073571D01*
X97464476Y-144025952D01*
X97369238Y-143978333D01*
X97178761Y-143978333D01*
X97083523Y-144025952D01*
X97035904Y-144073571D01*
X96988285Y-144168809D01*
G04 #@! TO.C,R7*
X99274333Y-141676380D02*
X98941000Y-141200190D01*
X98702904Y-141676380D02*
X98702904Y-140676380D01*
X99083857Y-140676380D01*
X99179095Y-140724000D01*
X99226714Y-140771619D01*
X99274333Y-140866857D01*
X99274333Y-141009714D01*
X99226714Y-141104952D01*
X99179095Y-141152571D01*
X99083857Y-141200190D01*
X98702904Y-141200190D01*
X99607666Y-140676380D02*
X100274333Y-140676380D01*
X99845761Y-141676380D01*
G04 #@! TO.C,R8*
X103338233Y-124848880D02*
X103004900Y-124372690D01*
X102766804Y-124848880D02*
X102766804Y-123848880D01*
X103147757Y-123848880D01*
X103242995Y-123896500D01*
X103290614Y-123944119D01*
X103338233Y-124039357D01*
X103338233Y-124182214D01*
X103290614Y-124277452D01*
X103242995Y-124325071D01*
X103147757Y-124372690D01*
X102766804Y-124372690D01*
X103909661Y-124277452D02*
X103814423Y-124229833D01*
X103766804Y-124182214D01*
X103719185Y-124086976D01*
X103719185Y-124039357D01*
X103766804Y-123944119D01*
X103814423Y-123896500D01*
X103909661Y-123848880D01*
X104100138Y-123848880D01*
X104195376Y-123896500D01*
X104242995Y-123944119D01*
X104290614Y-124039357D01*
X104290614Y-124086976D01*
X104242995Y-124182214D01*
X104195376Y-124229833D01*
X104100138Y-124277452D01*
X103909661Y-124277452D01*
X103814423Y-124325071D01*
X103766804Y-124372690D01*
X103719185Y-124467928D01*
X103719185Y-124658404D01*
X103766804Y-124753642D01*
X103814423Y-124801261D01*
X103909661Y-124848880D01*
X104100138Y-124848880D01*
X104195376Y-124801261D01*
X104242995Y-124753642D01*
X104290614Y-124658404D01*
X104290614Y-124467928D01*
X104242995Y-124372690D01*
X104195376Y-124325071D01*
X104100138Y-124277452D01*
G04 #@! TO.C,R9*
X103490633Y-126372880D02*
X103157300Y-125896690D01*
X102919204Y-126372880D02*
X102919204Y-125372880D01*
X103300157Y-125372880D01*
X103395395Y-125420500D01*
X103443014Y-125468119D01*
X103490633Y-125563357D01*
X103490633Y-125706214D01*
X103443014Y-125801452D01*
X103395395Y-125849071D01*
X103300157Y-125896690D01*
X102919204Y-125896690D01*
X103966823Y-126372880D02*
X104157300Y-126372880D01*
X104252538Y-126325261D01*
X104300157Y-126277642D01*
X104395395Y-126134785D01*
X104443014Y-125944309D01*
X104443014Y-125563357D01*
X104395395Y-125468119D01*
X104347776Y-125420500D01*
X104252538Y-125372880D01*
X104062061Y-125372880D01*
X103966823Y-125420500D01*
X103919204Y-125468119D01*
X103871585Y-125563357D01*
X103871585Y-125801452D01*
X103919204Y-125896690D01*
X103966823Y-125944309D01*
X104062061Y-125991928D01*
X104252538Y-125991928D01*
X104347776Y-125944309D01*
X104395395Y-125896690D01*
X104443014Y-125801452D01*
G04 #@! TO.C,SW1*
D13*
X130386666Y-100082047D02*
X130568095Y-100142523D01*
X130870476Y-100142523D01*
X130991428Y-100082047D01*
X131051904Y-100021571D01*
X131112380Y-99900619D01*
X131112380Y-99779666D01*
X131051904Y-99658714D01*
X130991428Y-99598238D01*
X130870476Y-99537761D01*
X130628571Y-99477285D01*
X130507619Y-99416809D01*
X130447142Y-99356333D01*
X130386666Y-99235380D01*
X130386666Y-99114428D01*
X130447142Y-98993476D01*
X130507619Y-98933000D01*
X130628571Y-98872523D01*
X130930952Y-98872523D01*
X131112380Y-98933000D01*
X131535714Y-98872523D02*
X131838095Y-100142523D01*
X132080000Y-99235380D01*
X132321904Y-100142523D01*
X132624285Y-98872523D01*
X133773333Y-100142523D02*
X133047619Y-100142523D01*
X133410476Y-100142523D02*
X133410476Y-98872523D01*
X133289523Y-99053952D01*
X133168571Y-99174904D01*
X133047619Y-99235380D01*
G04 #@! TO.C,U1*
D12*
X120382095Y-133056380D02*
X120382095Y-133865904D01*
X120429714Y-133961142D01*
X120477333Y-134008761D01*
X120572571Y-134056380D01*
X120763047Y-134056380D01*
X120858285Y-134008761D01*
X120905904Y-133961142D01*
X120953523Y-133865904D01*
X120953523Y-133056380D01*
X121953523Y-134056380D02*
X121382095Y-134056380D01*
X121667809Y-134056380D02*
X121667809Y-133056380D01*
X121572571Y-133199238D01*
X121477333Y-133294476D01*
X121382095Y-133342095D01*
G04 #@! TO.C,U2*
X103142380Y-120443904D02*
X103951904Y-120443904D01*
X104047142Y-120396285D01*
X104094761Y-120348666D01*
X104142380Y-120253428D01*
X104142380Y-120062952D01*
X104094761Y-119967714D01*
X104047142Y-119920095D01*
X103951904Y-119872476D01*
X103142380Y-119872476D01*
X103237619Y-119443904D02*
X103190000Y-119396285D01*
X103142380Y-119301047D01*
X103142380Y-119062952D01*
X103190000Y-118967714D01*
X103237619Y-118920095D01*
X103332857Y-118872476D01*
X103428095Y-118872476D01*
X103570952Y-118920095D01*
X104142380Y-119491523D01*
X104142380Y-118872476D01*
G04 #@! TO.C,C9*
X150344142Y-141136666D02*
X150391761Y-141184285D01*
X150439380Y-141327142D01*
X150439380Y-141422380D01*
X150391761Y-141565238D01*
X150296523Y-141660476D01*
X150201285Y-141708095D01*
X150010809Y-141755714D01*
X149867952Y-141755714D01*
X149677476Y-141708095D01*
X149582238Y-141660476D01*
X149487000Y-141565238D01*
X149439380Y-141422380D01*
X149439380Y-141327142D01*
X149487000Y-141184285D01*
X149534619Y-141136666D01*
X150439380Y-140660476D02*
X150439380Y-140470000D01*
X150391761Y-140374761D01*
X150344142Y-140327142D01*
X150201285Y-140231904D01*
X150010809Y-140184285D01*
X149629857Y-140184285D01*
X149534619Y-140231904D01*
X149487000Y-140279523D01*
X149439380Y-140374761D01*
X149439380Y-140565238D01*
X149487000Y-140660476D01*
X149534619Y-140708095D01*
X149629857Y-140755714D01*
X149867952Y-140755714D01*
X149963190Y-140708095D01*
X150010809Y-140660476D01*
X150058428Y-140565238D01*
X150058428Y-140374761D01*
X150010809Y-140279523D01*
X149963190Y-140231904D01*
X149867952Y-140184285D01*
G04 #@! TO.C,J4*
X157146666Y-140422380D02*
X157146666Y-141136666D01*
X157099047Y-141279523D01*
X157003809Y-141374761D01*
X156860952Y-141422380D01*
X156765714Y-141422380D01*
X158051428Y-140755714D02*
X158051428Y-141422380D01*
X157813333Y-140374761D02*
X157575238Y-141089047D01*
X158194285Y-141089047D01*
G04 #@! TO.C,R11*
X150566380Y-138437857D02*
X150090190Y-138771190D01*
X150566380Y-139009285D02*
X149566380Y-139009285D01*
X149566380Y-138628333D01*
X149614000Y-138533095D01*
X149661619Y-138485476D01*
X149756857Y-138437857D01*
X149899714Y-138437857D01*
X149994952Y-138485476D01*
X150042571Y-138533095D01*
X150090190Y-138628333D01*
X150090190Y-139009285D01*
X150566380Y-137485476D02*
X150566380Y-138056904D01*
X150566380Y-137771190D02*
X149566380Y-137771190D01*
X149709238Y-137866428D01*
X149804476Y-137961666D01*
X149852095Y-138056904D01*
X150566380Y-136533095D02*
X150566380Y-137104523D01*
X150566380Y-136818809D02*
X149566380Y-136818809D01*
X149709238Y-136914047D01*
X149804476Y-137009285D01*
X149852095Y-137104523D01*
G04 #@! TO.C,U4*
X145161095Y-135617380D02*
X145161095Y-136426904D01*
X145208714Y-136522142D01*
X145256333Y-136569761D01*
X145351571Y-136617380D01*
X145542047Y-136617380D01*
X145637285Y-136569761D01*
X145684904Y-136522142D01*
X145732523Y-136426904D01*
X145732523Y-135617380D01*
X146637285Y-135950714D02*
X146637285Y-136617380D01*
X146399190Y-135569761D02*
X146161095Y-136284047D01*
X146780142Y-136284047D01*
G04 #@! TO.C,R12*
X102941380Y-113672857D02*
X102465190Y-114006190D01*
X102941380Y-114244285D02*
X101941380Y-114244285D01*
X101941380Y-113863333D01*
X101989000Y-113768095D01*
X102036619Y-113720476D01*
X102131857Y-113672857D01*
X102274714Y-113672857D01*
X102369952Y-113720476D01*
X102417571Y-113768095D01*
X102465190Y-113863333D01*
X102465190Y-114244285D01*
X102941380Y-112720476D02*
X102941380Y-113291904D01*
X102941380Y-113006190D02*
X101941380Y-113006190D01*
X102084238Y-113101428D01*
X102179476Y-113196666D01*
X102227095Y-113291904D01*
X102036619Y-112339523D02*
X101989000Y-112291904D01*
X101941380Y-112196666D01*
X101941380Y-111958571D01*
X101989000Y-111863333D01*
X102036619Y-111815714D01*
X102131857Y-111768095D01*
X102227095Y-111768095D01*
X102369952Y-111815714D01*
X102941380Y-112387142D01*
X102941380Y-111768095D01*
G04 #@! TO.C,R13*
X101417380Y-113672857D02*
X100941190Y-114006190D01*
X101417380Y-114244285D02*
X100417380Y-114244285D01*
X100417380Y-113863333D01*
X100465000Y-113768095D01*
X100512619Y-113720476D01*
X100607857Y-113672857D01*
X100750714Y-113672857D01*
X100845952Y-113720476D01*
X100893571Y-113768095D01*
X100941190Y-113863333D01*
X100941190Y-114244285D01*
X101417380Y-112720476D02*
X101417380Y-113291904D01*
X101417380Y-113006190D02*
X100417380Y-113006190D01*
X100560238Y-113101428D01*
X100655476Y-113196666D01*
X100703095Y-113291904D01*
X100417380Y-112387142D02*
X100417380Y-111768095D01*
X100798333Y-112101428D01*
X100798333Y-111958571D01*
X100845952Y-111863333D01*
X100893571Y-111815714D01*
X100988809Y-111768095D01*
X101226904Y-111768095D01*
X101322142Y-111815714D01*
X101369761Y-111863333D01*
X101417380Y-111958571D01*
X101417380Y-112244285D01*
X101369761Y-112339523D01*
X101322142Y-112387142D01*
G04 #@! TO.C,Q3*
X148621761Y-143930619D02*
X148526523Y-143883000D01*
X148431285Y-143787761D01*
X148288428Y-143644904D01*
X148193190Y-143597285D01*
X148097952Y-143597285D01*
X148145571Y-143835380D02*
X148050333Y-143787761D01*
X147955095Y-143692523D01*
X147907476Y-143502047D01*
X147907476Y-143168714D01*
X147955095Y-142978238D01*
X148050333Y-142883000D01*
X148145571Y-142835380D01*
X148336047Y-142835380D01*
X148431285Y-142883000D01*
X148526523Y-142978238D01*
X148574142Y-143168714D01*
X148574142Y-143502047D01*
X148526523Y-143692523D01*
X148431285Y-143787761D01*
X148336047Y-143835380D01*
X148145571Y-143835380D01*
X148907476Y-142835380D02*
X149526523Y-142835380D01*
X149193190Y-143216333D01*
X149336047Y-143216333D01*
X149431285Y-143263952D01*
X149478904Y-143311571D01*
X149526523Y-143406809D01*
X149526523Y-143644904D01*
X149478904Y-143740142D01*
X149431285Y-143787761D01*
X149336047Y-143835380D01*
X149050333Y-143835380D01*
X148955095Y-143787761D01*
X148907476Y-143740142D01*
G04 #@! TO.C,R10*
X154423815Y-127149880D02*
X154090482Y-126673690D01*
X153852387Y-127149880D02*
X153852387Y-126149880D01*
X154233339Y-126149880D01*
X154328577Y-126197500D01*
X154376196Y-126245119D01*
X154423815Y-126340357D01*
X154423815Y-126483214D01*
X154376196Y-126578452D01*
X154328577Y-126626071D01*
X154233339Y-126673690D01*
X153852387Y-126673690D01*
X155376196Y-127149880D02*
X154804768Y-127149880D01*
X155090482Y-127149880D02*
X155090482Y-126149880D01*
X154995244Y-126292738D01*
X154900006Y-126387976D01*
X154804768Y-126435595D01*
X155995244Y-126149880D02*
X156090482Y-126149880D01*
X156185720Y-126197500D01*
X156233339Y-126245119D01*
X156280958Y-126340357D01*
X156328577Y-126530833D01*
X156328577Y-126768928D01*
X156280958Y-126959404D01*
X156233339Y-127054642D01*
X156185720Y-127102261D01*
X156090482Y-127149880D01*
X155995244Y-127149880D01*
X155900006Y-127102261D01*
X155852387Y-127054642D01*
X155804768Y-126959404D01*
X155757149Y-126768928D01*
X155757149Y-126530833D01*
X155804768Y-126340357D01*
X155852387Y-126245119D01*
X155900006Y-126197500D01*
X155995244Y-126149880D01*
G04 #@! TO.C,U5*
X75436896Y-146771181D02*
X75436896Y-147580705D01*
X75484515Y-147675943D01*
X75532134Y-147723562D01*
X75627372Y-147771181D01*
X75817848Y-147771181D01*
X75913086Y-147723562D01*
X75960705Y-147675943D01*
X76008324Y-147580705D01*
X76008324Y-146771181D01*
X76960705Y-146771181D02*
X76484515Y-146771181D01*
X76436896Y-147247372D01*
X76484515Y-147199753D01*
X76579753Y-147152134D01*
X76817848Y-147152134D01*
X76913086Y-147199753D01*
X76960705Y-147247372D01*
X77008324Y-147342610D01*
X77008324Y-147580705D01*
X76960705Y-147675943D01*
X76913086Y-147723562D01*
X76817848Y-147771181D01*
X76579753Y-147771181D01*
X76484515Y-147723562D01*
X76436896Y-147675943D01*
G04 #@! TO.C,USB1*
X82962880Y-137755095D02*
X83772404Y-137755095D01*
X83867642Y-137707476D01*
X83915261Y-137659857D01*
X83962880Y-137564619D01*
X83962880Y-137374142D01*
X83915261Y-137278904D01*
X83867642Y-137231285D01*
X83772404Y-137183666D01*
X82962880Y-137183666D01*
X83915261Y-136755095D02*
X83962880Y-136612238D01*
X83962880Y-136374142D01*
X83915261Y-136278904D01*
X83867642Y-136231285D01*
X83772404Y-136183666D01*
X83677166Y-136183666D01*
X83581928Y-136231285D01*
X83534309Y-136278904D01*
X83486690Y-136374142D01*
X83439071Y-136564619D01*
X83391452Y-136659857D01*
X83343833Y-136707476D01*
X83248595Y-136755095D01*
X83153357Y-136755095D01*
X83058119Y-136707476D01*
X83010500Y-136659857D01*
X82962880Y-136564619D01*
X82962880Y-136326523D01*
X83010500Y-136183666D01*
X83439071Y-135421761D02*
X83486690Y-135278904D01*
X83534309Y-135231285D01*
X83629547Y-135183666D01*
X83772404Y-135183666D01*
X83867642Y-135231285D01*
X83915261Y-135278904D01*
X83962880Y-135374142D01*
X83962880Y-135755095D01*
X82962880Y-135755095D01*
X82962880Y-135421761D01*
X83010500Y-135326523D01*
X83058119Y-135278904D01*
X83153357Y-135231285D01*
X83248595Y-135231285D01*
X83343833Y-135278904D01*
X83391452Y-135326523D01*
X83439071Y-135421761D01*
X83439071Y-135755095D01*
X83962880Y-134231285D02*
X83962880Y-134802714D01*
X83962880Y-134517000D02*
X82962880Y-134517000D01*
X83105738Y-134612238D01*
X83200976Y-134707476D01*
X83248595Y-134802714D01*
G04 #@! TO.C,J2*
X144446666Y-104437380D02*
X144446666Y-105151666D01*
X144399047Y-105294523D01*
X144303809Y-105389761D01*
X144160952Y-105437380D01*
X144065714Y-105437380D01*
X144875238Y-104532619D02*
X144922857Y-104485000D01*
X145018095Y-104437380D01*
X145256190Y-104437380D01*
X145351428Y-104485000D01*
X145399047Y-104532619D01*
X145446666Y-104627857D01*
X145446666Y-104723095D01*
X145399047Y-104865952D01*
X144827619Y-105437380D01*
X145446666Y-105437380D01*
G04 #@! TO.C,J1*
X93646666Y-104437380D02*
X93646666Y-105151666D01*
X93599047Y-105294523D01*
X93503809Y-105389761D01*
X93360952Y-105437380D01*
X93265714Y-105437380D01*
X94646666Y-105437380D02*
X94075238Y-105437380D01*
X94360952Y-105437380D02*
X94360952Y-104437380D01*
X94265714Y-104580238D01*
X94170476Y-104675476D01*
X94075238Y-104723095D01*
G04 #@! TD*
M02*
