M48
;DRILL file {KiCad (5.0.2)-1} date 19.12.2019 13:51:59
;FORMAT={-:-/ absolute / metric / decimal}
FMAT,2
METRIC,TZ
T1C0.400
T2C0.750
T3C0.990
T4C1.000
T5C1.300
T6C2.200
%
G90
G05
T1
X3.924Y14.592
X17.894Y8.369
X20.561Y27.165
X20.815Y9.385
X22.085Y10.401
X22.593Y38.83
X23.355Y14.465
X23.736Y12.433
X25.133Y16.37
X25.514Y14.465
X26.911Y23.609
X27.185Y12.814
X27.419Y9.258
X28.586Y30.254
X28.689Y27.927
X28.842Y33.045
X28.943Y39.23
X29.451Y37.96
X29.604Y26.441
X29.647Y28.943
X30.121Y31.93
X30.366Y34.061
X32.011Y29.129
X32.372Y25.768
X32.499Y23.482
X32.753Y39.649
X32.88Y19.037
X33.668Y26.187
X34.176Y38.887
X35.039Y23.482
X35.42Y33.769
X35.674Y37.198
X36.035Y20.582
X37.071Y35.674
X37.559Y20.582
X37.579Y17.513
X37.833Y34.023
X38.214Y37.198
X39.23Y43.675
X41.899Y42.933
X42.532Y12.433
X43.294Y29.997
X43.675Y31.185
X43.802Y25.53
X48.755Y42.913
X50.305Y42.913
X50.686Y36.601
X50.687Y40.425
X53.391Y42.72
X57.024Y27.459
X58.291Y14.632
X58.56Y18.313
X59.576Y17.297
X60.312Y11.544
X61.455Y8.75
X61.735Y27.459
X64.173Y6.375
X64.249Y8.242
X64.402Y19.075
X64.656Y28.473
X65.672Y12.979
X67.704Y15.119
X68.974Y9.677
X70.244Y16.027
X72.276Y18.618
X74.054Y20.193
X77.584Y16.751
X78.6Y19.545
X79.616Y16.37
X84.199Y15.467
X84.199Y7.367
T2
X74.054Y18.417
X74.054Y16.417
X74.054Y14.417
X74.054Y12.417
X74.054Y10.417
X74.054Y8.417
X74.054Y6.417
X74.054Y4.417
X76.054Y18.417
X76.054Y16.417
X76.054Y14.417
X76.054Y12.417
X76.054Y10.417
X76.054Y8.417
X76.054Y6.417
X76.054Y4.417
X10.205Y18.417
X10.205Y16.417
X10.205Y14.417
X10.205Y12.417
X10.205Y10.417
X10.205Y8.417
X10.205Y6.417
X10.205Y4.417
X12.205Y18.417
X12.205Y16.417
X12.205Y14.417
X12.205Y12.417
X12.205Y10.417
X12.205Y8.417
X12.205Y6.417
X12.205Y4.417
T3
X56.312Y48.628
X60.812Y48.628
T4
X36.69Y42.278
X40.475Y20.942
X45.961Y8.153
X46.355Y23.482
X67.297Y38.722
X67.297Y36.182
X67.297Y33.642
X67.297Y31.102
X67.297Y28.562
X67.297Y26.022
X67.297Y23.482
X67.297Y20.942
X69.837Y38.722
X69.837Y36.182
X69.837Y33.642
X69.837Y31.102
X69.837Y28.562
X69.837Y26.022
X69.837Y23.482
X69.837Y20.942
X16.497Y38.722
X16.497Y36.182
X16.497Y33.642
X16.497Y31.102
X16.497Y28.562
X16.497Y26.022
X16.497Y23.482
X16.497Y20.942
X19.037Y38.722
X19.037Y36.182
X19.037Y33.642
X19.037Y31.102
X19.037Y28.562
X19.037Y26.022
X19.037Y23.482
X19.037Y20.942
T5
X55.062Y46.138
X62.072Y46.138
T6
X60.947Y41.262
X25.387Y41.262
X43.167Y2.527
T0
M30
