M48
;DRILL file {KiCad (5.0.2)-1} date 04.10.2019 12:36:49
;FORMAT={-:-/ absolute / metric / decimal}
FMAT,2
METRIC,TZ
T1C0.400
T2C0.900
T3C1.000
T4C2.200
%
G90
G05
T1
X83.928Y-131.953
X86.36Y-131.953
X87.656Y-135.376
X89.408Y-133.604
X91.059Y-130.175
X94.234Y-136.499
X96.012Y-139.7
X96.012Y-141.224
X96.52Y-135.319
X97.917Y-132.969
X99.036Y-128.193
X99.06Y-134.112
X99.377Y-129.667
X99.441Y-109.347
X99.949Y-133.35
X100.076Y-135.128
X100.095Y-118.415
X100.965Y-110.871
X102.489Y-110.871
X103.231Y-135.275
X105.791Y-104.267
X108.458Y-107.188
X108.585Y-104.648
X108.585Y-120.523
X110.363Y-125.031
X111.379Y-108.585
X111.379Y-110.236
X111.379Y-112.268
X112.522Y-104.648
X112.84Y-123.317
X112.84Y-124.892
X113.284Y-110.236
X113.348Y-133.985
X114.363Y-124.866
X115.062Y-108.585
X115.062Y-110.236
X115.062Y-112.268
X115.697Y-105.537
X116.84Y-114.173
X120.142Y-105.918
X120.269Y-108.077
X122.8Y-106.807
X122.809Y-119.507
X127.Y-105.537
X127.Y-109.347
X128.195Y-137.847
X128.778Y-103.759
X130.759Y-100.457
X131.318Y-129.032
X133.096Y-135.636
X134.363Y-126.104
X138.049Y-97.155
X146.558Y-129.667
X146.923Y-142.433
X146.939Y-144.399
X147.089Y-140.081
X148.082Y-135.128
X154.129Y-128.382
X154.559Y-137.16
X159.893Y-135.89
T2
X129.955Y-96.704
X134.205Y-96.704
T3
X113.665Y-131.191
X123.444Y-133.985
X126.873Y-126.619
X129.54Y-131.318
X135.89Y-133.604
X143.51Y-107.315
X143.51Y-109.855
X143.51Y-112.395
X143.51Y-114.935
X143.51Y-117.475
X143.51Y-120.015
X143.51Y-122.555
X143.51Y-125.095
X146.05Y-107.315
X146.05Y-109.855
X146.05Y-112.395
X146.05Y-114.935
X146.05Y-117.475
X146.05Y-120.015
X146.05Y-122.555
X146.05Y-125.095
X92.71Y-107.315
X92.71Y-109.855
X92.71Y-112.395
X92.71Y-114.935
X92.71Y-117.475
X92.71Y-120.015
X92.71Y-122.555
X92.71Y-125.095
X95.25Y-107.315
X95.25Y-109.855
X95.25Y-112.395
X95.25Y-114.935
X95.25Y-117.475
X95.25Y-120.015
X95.25Y-122.555
X95.25Y-125.095
T4
X119.38Y-143.51
X137.16Y-104.775
X101.6Y-104.775
T0
M30
