G04 #@! TF.GenerationSoftware,KiCad,Pcbnew,(5.0.2)-1*
G04 #@! TF.CreationDate,2019-10-04T12:36:52+03:00*
G04 #@! TF.ProjectId,esp32d,65737033-3264-42e6-9b69-6361645f7063,rev?*
G04 #@! TF.SameCoordinates,Original*
G04 #@! TF.FileFunction,Soldermask,Top*
G04 #@! TF.FilePolarity,Negative*
%FSLAX46Y46*%
G04 Gerber Fmt 4.6, Leading zero omitted, Abs format (unit mm)*
G04 Created by KiCad (PCBNEW (5.0.2)-1) date 04.10.2019 12:36:52*
%MOMM*%
%LPD*%
G01*
G04 APERTURE LIST*
%ADD10C,0.100000*%
G04 APERTURE END LIST*
D10*
G36*
X119949083Y-141633975D02*
X119949085Y-141633976D01*
X119949086Y-141633976D01*
X120304145Y-141781046D01*
X120304146Y-141781047D01*
X120623693Y-141994561D01*
X120895439Y-142266307D01*
X120895441Y-142266310D01*
X121108954Y-142585855D01*
X121256024Y-142940914D01*
X121256025Y-142940917D01*
X121331000Y-143317842D01*
X121331000Y-143702158D01*
X121273745Y-143990000D01*
X121256024Y-144079086D01*
X121108954Y-144434145D01*
X121108953Y-144434146D01*
X120895439Y-144753693D01*
X120623693Y-145025439D01*
X120623690Y-145025441D01*
X120304145Y-145238954D01*
X119949086Y-145386024D01*
X119949085Y-145386024D01*
X119949083Y-145386025D01*
X119572158Y-145461000D01*
X119187842Y-145461000D01*
X118810917Y-145386025D01*
X118810915Y-145386024D01*
X118810914Y-145386024D01*
X118455855Y-145238954D01*
X118136310Y-145025441D01*
X118136307Y-145025439D01*
X117864561Y-144753693D01*
X117651047Y-144434146D01*
X117651046Y-144434145D01*
X117503976Y-144079086D01*
X117486256Y-143990000D01*
X117429000Y-143702158D01*
X117429000Y-143317842D01*
X117503975Y-142940917D01*
X117503976Y-142940914D01*
X117651046Y-142585855D01*
X117864559Y-142266310D01*
X117864561Y-142266307D01*
X118136307Y-141994561D01*
X118455854Y-141781047D01*
X118455855Y-141781046D01*
X118810914Y-141633976D01*
X118810915Y-141633976D01*
X118810917Y-141633975D01*
X119187842Y-141559000D01*
X119572158Y-141559000D01*
X119949083Y-141633975D01*
X119949083Y-141633975D01*
G37*
G36*
X147424000Y-144784000D02*
X146422000Y-144784000D01*
X146422000Y-143882000D01*
X147424000Y-143882000D01*
X147424000Y-144784000D01*
X147424000Y-144784000D01*
G37*
G36*
X86997456Y-140557251D02*
X87315936Y-140689170D01*
X87602560Y-140880686D01*
X87846314Y-141124440D01*
X88037830Y-141411064D01*
X88169749Y-141729544D01*
X88237000Y-142067640D01*
X88237000Y-142412360D01*
X88169749Y-142750456D01*
X88037830Y-143068936D01*
X87846314Y-143355560D01*
X87602560Y-143599314D01*
X87315936Y-143790830D01*
X86997456Y-143922749D01*
X86659360Y-143990000D01*
X86314640Y-143990000D01*
X85976544Y-143922749D01*
X85658064Y-143790830D01*
X85371440Y-143599314D01*
X85127686Y-143355560D01*
X84936170Y-143068936D01*
X84804251Y-142750456D01*
X84737000Y-142412360D01*
X84737000Y-142067640D01*
X84804251Y-141729544D01*
X84936170Y-141411064D01*
X85127686Y-141124440D01*
X85371440Y-140880686D01*
X85658064Y-140689170D01*
X85976544Y-140557251D01*
X86314640Y-140490000D01*
X86659360Y-140490000D01*
X86997456Y-140557251D01*
X86997456Y-140557251D01*
G37*
G36*
X145424000Y-143834000D02*
X144422000Y-143834000D01*
X144422000Y-142932000D01*
X145424000Y-142932000D01*
X145424000Y-143834000D01*
X145424000Y-143834000D01*
G37*
G36*
X97903591Y-142226085D02*
X97937569Y-142236393D01*
X97968887Y-142253133D01*
X97996339Y-142275661D01*
X98018867Y-142303113D01*
X98035607Y-142334431D01*
X98045915Y-142368409D01*
X98050000Y-142409890D01*
X98050000Y-143086110D01*
X98045915Y-143127591D01*
X98035607Y-143161569D01*
X98018867Y-143192887D01*
X97996339Y-143220339D01*
X97968887Y-143242867D01*
X97937569Y-143259607D01*
X97903591Y-143269915D01*
X97862110Y-143274000D01*
X97260890Y-143274000D01*
X97219409Y-143269915D01*
X97185431Y-143259607D01*
X97154113Y-143242867D01*
X97126661Y-143220339D01*
X97104133Y-143192887D01*
X97087393Y-143161569D01*
X97077085Y-143127591D01*
X97073000Y-143086110D01*
X97073000Y-142409890D01*
X97077085Y-142368409D01*
X97087393Y-142334431D01*
X97104133Y-142303113D01*
X97126661Y-142275661D01*
X97154113Y-142253133D01*
X97185431Y-142236393D01*
X97219409Y-142226085D01*
X97260890Y-142222000D01*
X97862110Y-142222000D01*
X97903591Y-142226085D01*
X97903591Y-142226085D01*
G37*
G36*
X96328591Y-142226085D02*
X96362569Y-142236393D01*
X96393887Y-142253133D01*
X96421339Y-142275661D01*
X96443867Y-142303113D01*
X96460607Y-142334431D01*
X96470915Y-142368409D01*
X96475000Y-142409890D01*
X96475000Y-143086110D01*
X96470915Y-143127591D01*
X96460607Y-143161569D01*
X96443867Y-143192887D01*
X96421339Y-143220339D01*
X96393887Y-143242867D01*
X96362569Y-143259607D01*
X96328591Y-143269915D01*
X96287110Y-143274000D01*
X95685890Y-143274000D01*
X95644409Y-143269915D01*
X95610431Y-143259607D01*
X95579113Y-143242867D01*
X95551661Y-143220339D01*
X95529133Y-143192887D01*
X95512393Y-143161569D01*
X95502085Y-143127591D01*
X95498000Y-143086110D01*
X95498000Y-142409890D01*
X95502085Y-142368409D01*
X95512393Y-142334431D01*
X95529133Y-142303113D01*
X95551661Y-142275661D01*
X95579113Y-142253133D01*
X95610431Y-142236393D01*
X95644409Y-142226085D01*
X95685890Y-142222000D01*
X96287110Y-142222000D01*
X96328591Y-142226085D01*
X96328591Y-142226085D01*
G37*
G36*
X147424000Y-142884000D02*
X146422000Y-142884000D01*
X146422000Y-141982000D01*
X147424000Y-141982000D01*
X147424000Y-142884000D01*
X147424000Y-142884000D01*
G37*
G36*
X149096591Y-141273085D02*
X149130569Y-141283393D01*
X149161887Y-141300133D01*
X149189339Y-141322661D01*
X149211867Y-141350113D01*
X149228607Y-141381431D01*
X149238915Y-141415409D01*
X149243000Y-141456890D01*
X149243000Y-142058110D01*
X149238915Y-142099591D01*
X149228607Y-142133569D01*
X149211867Y-142164887D01*
X149189339Y-142192339D01*
X149161887Y-142214867D01*
X149130569Y-142231607D01*
X149096591Y-142241915D01*
X149055110Y-142246000D01*
X148378890Y-142246000D01*
X148337409Y-142241915D01*
X148303431Y-142231607D01*
X148272113Y-142214867D01*
X148244661Y-142192339D01*
X148222133Y-142164887D01*
X148205393Y-142133569D01*
X148195085Y-142099591D01*
X148191000Y-142058110D01*
X148191000Y-141456890D01*
X148195085Y-141415409D01*
X148205393Y-141381431D01*
X148222133Y-141350113D01*
X148244661Y-141322661D01*
X148272113Y-141300133D01*
X148303431Y-141283393D01*
X148337409Y-141273085D01*
X148378890Y-141269000D01*
X149055110Y-141269000D01*
X149096591Y-141273085D01*
X149096591Y-141273085D01*
G37*
G36*
X97903591Y-140702085D02*
X97937569Y-140712393D01*
X97968887Y-140729133D01*
X97996339Y-140751661D01*
X98018867Y-140779113D01*
X98035607Y-140810431D01*
X98045915Y-140844409D01*
X98050000Y-140885890D01*
X98050000Y-141562110D01*
X98045915Y-141603591D01*
X98035607Y-141637569D01*
X98018867Y-141668887D01*
X97996339Y-141696339D01*
X97968887Y-141718867D01*
X97937569Y-141735607D01*
X97903591Y-141745915D01*
X97862110Y-141750000D01*
X97260890Y-141750000D01*
X97219409Y-141745915D01*
X97185431Y-141735607D01*
X97154113Y-141718867D01*
X97126661Y-141696339D01*
X97104133Y-141668887D01*
X97087393Y-141637569D01*
X97077085Y-141603591D01*
X97073000Y-141562110D01*
X97073000Y-140885890D01*
X97077085Y-140844409D01*
X97087393Y-140810431D01*
X97104133Y-140779113D01*
X97126661Y-140751661D01*
X97154113Y-140729133D01*
X97185431Y-140712393D01*
X97219409Y-140702085D01*
X97260890Y-140698000D01*
X97862110Y-140698000D01*
X97903591Y-140702085D01*
X97903591Y-140702085D01*
G37*
G36*
X96328591Y-140702085D02*
X96362569Y-140712393D01*
X96393887Y-140729133D01*
X96421339Y-140751661D01*
X96443867Y-140779113D01*
X96460607Y-140810431D01*
X96470915Y-140844409D01*
X96475000Y-140885890D01*
X96475000Y-141562110D01*
X96470915Y-141603591D01*
X96460607Y-141637569D01*
X96443867Y-141668887D01*
X96421339Y-141696339D01*
X96393887Y-141718867D01*
X96362569Y-141735607D01*
X96328591Y-141745915D01*
X96287110Y-141750000D01*
X95685890Y-141750000D01*
X95644409Y-141745915D01*
X95610431Y-141735607D01*
X95579113Y-141718867D01*
X95551661Y-141696339D01*
X95529133Y-141668887D01*
X95512393Y-141637569D01*
X95502085Y-141603591D01*
X95498000Y-141562110D01*
X95498000Y-140885890D01*
X95502085Y-140844409D01*
X95512393Y-140810431D01*
X95529133Y-140779113D01*
X95551661Y-140751661D01*
X95579113Y-140729133D01*
X95610431Y-140712393D01*
X95644409Y-140702085D01*
X95685890Y-140698000D01*
X96287110Y-140698000D01*
X96328591Y-140702085D01*
X96328591Y-140702085D01*
G37*
G36*
X79061500Y-140818000D02*
X77559500Y-140818000D01*
X77559500Y-139316000D01*
X79061500Y-139316000D01*
X79061500Y-140818000D01*
X79061500Y-140818000D01*
G37*
G36*
X149096591Y-139698085D02*
X149130569Y-139708393D01*
X149161887Y-139725133D01*
X149189339Y-139747661D01*
X149211867Y-139775113D01*
X149228607Y-139806431D01*
X149238915Y-139840409D01*
X149243000Y-139881890D01*
X149243000Y-140483110D01*
X149238915Y-140524591D01*
X149228607Y-140558569D01*
X149211867Y-140589887D01*
X149189339Y-140617339D01*
X149161887Y-140639867D01*
X149130569Y-140656607D01*
X149096591Y-140666915D01*
X149055110Y-140671000D01*
X148378890Y-140671000D01*
X148337409Y-140666915D01*
X148303431Y-140656607D01*
X148272113Y-140639867D01*
X148244661Y-140617339D01*
X148222133Y-140589887D01*
X148205393Y-140558569D01*
X148195085Y-140524591D01*
X148191000Y-140483110D01*
X148191000Y-139881890D01*
X148195085Y-139840409D01*
X148205393Y-139806431D01*
X148222133Y-139775113D01*
X148244661Y-139747661D01*
X148272113Y-139725133D01*
X148303431Y-139708393D01*
X148337409Y-139698085D01*
X148378890Y-139694000D01*
X149055110Y-139694000D01*
X149096591Y-139698085D01*
X149096591Y-139698085D01*
G37*
G36*
X147604000Y-140391000D02*
X146442000Y-140391000D01*
X146442000Y-139639000D01*
X147604000Y-139639000D01*
X147604000Y-140391000D01*
X147604000Y-140391000D01*
G37*
G36*
X145404000Y-140391000D02*
X144242000Y-140391000D01*
X144242000Y-137739000D01*
X145404000Y-137739000D01*
X145404000Y-140391000D01*
X145404000Y-140391000D01*
G37*
G36*
X161983043Y-138697122D02*
X162017390Y-138707541D01*
X162049035Y-138724456D01*
X162076777Y-138747223D01*
X162099544Y-138774965D01*
X162116459Y-138806610D01*
X162126878Y-138840957D01*
X162131000Y-138882807D01*
X162131000Y-140105193D01*
X162126878Y-140147043D01*
X162116459Y-140181390D01*
X162099544Y-140213035D01*
X162076777Y-140240777D01*
X162049035Y-140263544D01*
X162017390Y-140280459D01*
X161983043Y-140290878D01*
X161941193Y-140295000D01*
X158818807Y-140295000D01*
X158776957Y-140290878D01*
X158742610Y-140280459D01*
X158710965Y-140263544D01*
X158683223Y-140240777D01*
X158660456Y-140213035D01*
X158643541Y-140181390D01*
X158633122Y-140147043D01*
X158629000Y-140105193D01*
X158629000Y-138882807D01*
X158633122Y-138840957D01*
X158643541Y-138806610D01*
X158660456Y-138774965D01*
X158683223Y-138747223D01*
X158710965Y-138724456D01*
X158742610Y-138707541D01*
X158776957Y-138697122D01*
X158818807Y-138693000D01*
X161941193Y-138693000D01*
X161983043Y-138697122D01*
X161983043Y-138697122D01*
G37*
G36*
X96328591Y-139178085D02*
X96362569Y-139188393D01*
X96393887Y-139205133D01*
X96421339Y-139227661D01*
X96443867Y-139255113D01*
X96460607Y-139286431D01*
X96470915Y-139320409D01*
X96475000Y-139361890D01*
X96475000Y-140038110D01*
X96470915Y-140079591D01*
X96460607Y-140113569D01*
X96443867Y-140144887D01*
X96421339Y-140172339D01*
X96393887Y-140194867D01*
X96362569Y-140211607D01*
X96328591Y-140221915D01*
X96287110Y-140226000D01*
X95685890Y-140226000D01*
X95644409Y-140221915D01*
X95610431Y-140211607D01*
X95579113Y-140194867D01*
X95551661Y-140172339D01*
X95529133Y-140144887D01*
X95512393Y-140113569D01*
X95502085Y-140079591D01*
X95498000Y-140038110D01*
X95498000Y-139361890D01*
X95502085Y-139320409D01*
X95512393Y-139286431D01*
X95529133Y-139255113D01*
X95551661Y-139227661D01*
X95579113Y-139205133D01*
X95610431Y-139188393D01*
X95644409Y-139178085D01*
X95685890Y-139174000D01*
X96287110Y-139174000D01*
X96328591Y-139178085D01*
X96328591Y-139178085D01*
G37*
G36*
X97903591Y-139178085D02*
X97937569Y-139188393D01*
X97968887Y-139205133D01*
X97996339Y-139227661D01*
X98018867Y-139255113D01*
X98035607Y-139286431D01*
X98045915Y-139320409D01*
X98050000Y-139361890D01*
X98050000Y-140038110D01*
X98045915Y-140079591D01*
X98035607Y-140113569D01*
X98018867Y-140144887D01*
X97996339Y-140172339D01*
X97968887Y-140194867D01*
X97937569Y-140211607D01*
X97903591Y-140221915D01*
X97862110Y-140226000D01*
X97260890Y-140226000D01*
X97219409Y-140221915D01*
X97185431Y-140211607D01*
X97154113Y-140194867D01*
X97126661Y-140172339D01*
X97104133Y-140144887D01*
X97087393Y-140113569D01*
X97077085Y-140079591D01*
X97073000Y-140038110D01*
X97073000Y-139361890D01*
X97077085Y-139320409D01*
X97087393Y-139286431D01*
X97104133Y-139255113D01*
X97126661Y-139227661D01*
X97154113Y-139205133D01*
X97185431Y-139188393D01*
X97219409Y-139178085D01*
X97260890Y-139174000D01*
X97862110Y-139174000D01*
X97903591Y-139178085D01*
X97903591Y-139178085D01*
G37*
G36*
X80562883Y-137679489D02*
X80626761Y-137705948D01*
X80684250Y-137744361D01*
X80696112Y-137756223D01*
X80709933Y-137767567D01*
X80721277Y-137781388D01*
X80733139Y-137793250D01*
X80771552Y-137850739D01*
X80798011Y-137914617D01*
X80811500Y-137982430D01*
X80811500Y-138051570D01*
X80798011Y-138119383D01*
X80771552Y-138183261D01*
X80733139Y-138240750D01*
X80680977Y-138292912D01*
X80669158Y-138302612D01*
X80653612Y-138321554D01*
X80642061Y-138343165D01*
X80634948Y-138366614D01*
X80632546Y-138391000D01*
X80634948Y-138415386D01*
X80642061Y-138438836D01*
X80653612Y-138460446D01*
X80669158Y-138479388D01*
X80688100Y-138494934D01*
X80709711Y-138506485D01*
X80733160Y-138513598D01*
X80757546Y-138516000D01*
X81761500Y-138516000D01*
X81761500Y-140018000D01*
X80259500Y-140018000D01*
X80259500Y-138470057D01*
X80267388Y-138460446D01*
X80278939Y-138438835D01*
X80286052Y-138415386D01*
X80288454Y-138391000D01*
X80286052Y-138366614D01*
X80278939Y-138343165D01*
X80267388Y-138321554D01*
X80251842Y-138302612D01*
X80240023Y-138292912D01*
X80187861Y-138240750D01*
X80149448Y-138183261D01*
X80122989Y-138119383D01*
X80109500Y-138051570D01*
X80109500Y-137982430D01*
X80122989Y-137914617D01*
X80149448Y-137850739D01*
X80187861Y-137793250D01*
X80236750Y-137744361D01*
X80294239Y-137705948D01*
X80358117Y-137679489D01*
X80425930Y-137666000D01*
X80495070Y-137666000D01*
X80562883Y-137679489D01*
X80562883Y-137679489D01*
G37*
G36*
X149096591Y-138225085D02*
X149130569Y-138235393D01*
X149161887Y-138252133D01*
X149189339Y-138274661D01*
X149211867Y-138302113D01*
X149228607Y-138333431D01*
X149238915Y-138367409D01*
X149243000Y-138408890D01*
X149243000Y-139010110D01*
X149238915Y-139051591D01*
X149228607Y-139085569D01*
X149211867Y-139116887D01*
X149189339Y-139144339D01*
X149161887Y-139166867D01*
X149130569Y-139183607D01*
X149096591Y-139193915D01*
X149055110Y-139198000D01*
X148378890Y-139198000D01*
X148337409Y-139193915D01*
X148303431Y-139183607D01*
X148272113Y-139166867D01*
X148244661Y-139144339D01*
X148222133Y-139116887D01*
X148205393Y-139085569D01*
X148195085Y-139051591D01*
X148191000Y-139010110D01*
X148191000Y-138408890D01*
X148195085Y-138367409D01*
X148205393Y-138333431D01*
X148222133Y-138302113D01*
X148244661Y-138274661D01*
X148272113Y-138252133D01*
X148303431Y-138235393D01*
X148337409Y-138225085D01*
X148378890Y-138221000D01*
X149055110Y-138221000D01*
X149096591Y-138225085D01*
X149096591Y-138225085D01*
G37*
G36*
X92962591Y-137590085D02*
X92996569Y-137600393D01*
X93027887Y-137617133D01*
X93055339Y-137639661D01*
X93077867Y-137667113D01*
X93094607Y-137698431D01*
X93104915Y-137732409D01*
X93109000Y-137773890D01*
X93109000Y-138375110D01*
X93104915Y-138416591D01*
X93094607Y-138450569D01*
X93077867Y-138481887D01*
X93055339Y-138509339D01*
X93027887Y-138531867D01*
X92996569Y-138548607D01*
X92962591Y-138558915D01*
X92921110Y-138563000D01*
X92244890Y-138563000D01*
X92203409Y-138558915D01*
X92169431Y-138548607D01*
X92138113Y-138531867D01*
X92110661Y-138509339D01*
X92088133Y-138481887D01*
X92071393Y-138450569D01*
X92061085Y-138416591D01*
X92057000Y-138375110D01*
X92057000Y-137773890D01*
X92061085Y-137732409D01*
X92071393Y-137698431D01*
X92088133Y-137667113D01*
X92110661Y-137639661D01*
X92138113Y-137617133D01*
X92169431Y-137600393D01*
X92203409Y-137590085D01*
X92244890Y-137586000D01*
X92921110Y-137586000D01*
X92962591Y-137590085D01*
X92962591Y-137590085D01*
G37*
G36*
X94613591Y-137590085D02*
X94647569Y-137600393D01*
X94678887Y-137617133D01*
X94706339Y-137639661D01*
X94728867Y-137667113D01*
X94745607Y-137698431D01*
X94755915Y-137732409D01*
X94760000Y-137773890D01*
X94760000Y-138375110D01*
X94755915Y-138416591D01*
X94745607Y-138450569D01*
X94728867Y-138481887D01*
X94706339Y-138509339D01*
X94678887Y-138531867D01*
X94647569Y-138548607D01*
X94613591Y-138558915D01*
X94572110Y-138563000D01*
X93895890Y-138563000D01*
X93854409Y-138558915D01*
X93820431Y-138548607D01*
X93789113Y-138531867D01*
X93761661Y-138509339D01*
X93739133Y-138481887D01*
X93722393Y-138450569D01*
X93712085Y-138416591D01*
X93708000Y-138375110D01*
X93708000Y-137773890D01*
X93712085Y-137732409D01*
X93722393Y-137698431D01*
X93739133Y-137667113D01*
X93761661Y-137639661D01*
X93789113Y-137617133D01*
X93820431Y-137600393D01*
X93854409Y-137590085D01*
X93895890Y-137586000D01*
X94572110Y-137586000D01*
X94613591Y-137590085D01*
X94613591Y-137590085D01*
G37*
G36*
X147604000Y-138491000D02*
X146442000Y-138491000D01*
X146442000Y-137739000D01*
X147604000Y-137739000D01*
X147604000Y-138491000D01*
X147604000Y-138491000D01*
G37*
G36*
X77661500Y-138093000D02*
X76559500Y-138093000D01*
X76559500Y-136991000D01*
X77661500Y-136991000D01*
X77661500Y-138093000D01*
X77661500Y-138093000D01*
G37*
G36*
X156259433Y-136597686D02*
X156299281Y-136609774D01*
X156336001Y-136629401D01*
X156368186Y-136655814D01*
X156394599Y-136687999D01*
X156414226Y-136724719D01*
X156426314Y-136764567D01*
X156431000Y-136812141D01*
X156431000Y-137475859D01*
X156426314Y-137523433D01*
X156414226Y-137563281D01*
X156394599Y-137600001D01*
X156368186Y-137632186D01*
X156336001Y-137658599D01*
X156299281Y-137678226D01*
X156259433Y-137690314D01*
X156211859Y-137695000D01*
X153048141Y-137695000D01*
X153000567Y-137690314D01*
X152960719Y-137678226D01*
X152923999Y-137658599D01*
X152891814Y-137632186D01*
X152865401Y-137600001D01*
X152845774Y-137563281D01*
X152833686Y-137523433D01*
X152829000Y-137475859D01*
X152829000Y-136812141D01*
X152833686Y-136764567D01*
X152845774Y-136724719D01*
X152865401Y-136687999D01*
X152891814Y-136655814D01*
X152923999Y-136629401D01*
X152960719Y-136609774D01*
X153000567Y-136597686D01*
X153048141Y-136593000D01*
X156211859Y-136593000D01*
X156259433Y-136597686D01*
X156259433Y-136597686D01*
G37*
G36*
X149096591Y-136650085D02*
X149130569Y-136660393D01*
X149161887Y-136677133D01*
X149189339Y-136699661D01*
X149211867Y-136727113D01*
X149228607Y-136758431D01*
X149238915Y-136792409D01*
X149243000Y-136833890D01*
X149243000Y-137435110D01*
X149238915Y-137476591D01*
X149228607Y-137510569D01*
X149211867Y-137541887D01*
X149189339Y-137569339D01*
X149161887Y-137591867D01*
X149130569Y-137608607D01*
X149096591Y-137618915D01*
X149055110Y-137623000D01*
X148378890Y-137623000D01*
X148337409Y-137618915D01*
X148303431Y-137608607D01*
X148272113Y-137591867D01*
X148244661Y-137569339D01*
X148222133Y-137541887D01*
X148205393Y-137510569D01*
X148195085Y-137476591D01*
X148191000Y-137435110D01*
X148191000Y-136833890D01*
X148195085Y-136792409D01*
X148205393Y-136758431D01*
X148222133Y-136727113D01*
X148244661Y-136699661D01*
X148272113Y-136677133D01*
X148303431Y-136660393D01*
X148337409Y-136650085D01*
X148378890Y-136646000D01*
X149055110Y-136646000D01*
X149096591Y-136650085D01*
X149096591Y-136650085D01*
G37*
G36*
X82511500Y-137568000D02*
X80909500Y-137568000D01*
X80909500Y-134466000D01*
X82511500Y-134466000D01*
X82511500Y-137568000D01*
X82511500Y-137568000D01*
G37*
G36*
X87065000Y-137345000D02*
X86163000Y-137345000D01*
X86163000Y-136643000D01*
X87065000Y-136643000D01*
X87065000Y-137345000D01*
X87065000Y-137345000D01*
G37*
G36*
X85033000Y-137306000D02*
X84131000Y-137306000D01*
X84131000Y-136604000D01*
X85033000Y-136604000D01*
X85033000Y-137306000D01*
X85033000Y-137306000D01*
G37*
G36*
X100761000Y-132261000D02*
X100763402Y-132285386D01*
X100770515Y-132308835D01*
X100782066Y-132330446D01*
X100797612Y-132349388D01*
X100811343Y-132360657D01*
X100822612Y-132374388D01*
X100841554Y-132389934D01*
X100863165Y-132401485D01*
X100886614Y-132408598D01*
X100911000Y-132411000D01*
X101961000Y-132411000D01*
X101961000Y-135813000D01*
X100911000Y-135813000D01*
X100886614Y-135815402D01*
X100863165Y-135822515D01*
X100841554Y-135834066D01*
X100822612Y-135849612D01*
X100811343Y-135863343D01*
X100797612Y-135874612D01*
X100782066Y-135893554D01*
X100770515Y-135915165D01*
X100763402Y-135938614D01*
X100761000Y-135963000D01*
X100761000Y-137013000D01*
X97359000Y-137013000D01*
X97359000Y-135963000D01*
X97356598Y-135938614D01*
X97349485Y-135915165D01*
X97337934Y-135893554D01*
X97322388Y-135874612D01*
X97308657Y-135863343D01*
X97297388Y-135849612D01*
X97278446Y-135834066D01*
X97256835Y-135822515D01*
X97233386Y-135815402D01*
X97209000Y-135813000D01*
X96159000Y-135813000D01*
X96159000Y-132411000D01*
X97209000Y-132411000D01*
X97233386Y-132408598D01*
X97256835Y-132401485D01*
X97278446Y-132389934D01*
X97297388Y-132374388D01*
X97308657Y-132360657D01*
X97322388Y-132349388D01*
X97337934Y-132330446D01*
X97349485Y-132308835D01*
X97356598Y-132285386D01*
X97359000Y-132261000D01*
X97359000Y-131211000D01*
X100761000Y-131211000D01*
X100761000Y-132261000D01*
X100761000Y-132261000D01*
G37*
G36*
X92962591Y-136015085D02*
X92996569Y-136025393D01*
X93027887Y-136042133D01*
X93055339Y-136064661D01*
X93077867Y-136092113D01*
X93094607Y-136123431D01*
X93104915Y-136157409D01*
X93109000Y-136198890D01*
X93109000Y-136800110D01*
X93104915Y-136841591D01*
X93094607Y-136875569D01*
X93077867Y-136906887D01*
X93055339Y-136934339D01*
X93027887Y-136956867D01*
X92996569Y-136973607D01*
X92962591Y-136983915D01*
X92921110Y-136988000D01*
X92244890Y-136988000D01*
X92203409Y-136983915D01*
X92169431Y-136973607D01*
X92138113Y-136956867D01*
X92110661Y-136934339D01*
X92088133Y-136906887D01*
X92071393Y-136875569D01*
X92061085Y-136841591D01*
X92057000Y-136800110D01*
X92057000Y-136198890D01*
X92061085Y-136157409D01*
X92071393Y-136123431D01*
X92088133Y-136092113D01*
X92110661Y-136064661D01*
X92138113Y-136042133D01*
X92169431Y-136025393D01*
X92203409Y-136015085D01*
X92244890Y-136011000D01*
X92921110Y-136011000D01*
X92962591Y-136015085D01*
X92962591Y-136015085D01*
G37*
G36*
X94613591Y-136015085D02*
X94647569Y-136025393D01*
X94678887Y-136042133D01*
X94706339Y-136064661D01*
X94728867Y-136092113D01*
X94745607Y-136123431D01*
X94755915Y-136157409D01*
X94760000Y-136198890D01*
X94760000Y-136800110D01*
X94755915Y-136841591D01*
X94745607Y-136875569D01*
X94728867Y-136906887D01*
X94706339Y-136934339D01*
X94678887Y-136956867D01*
X94647569Y-136973607D01*
X94613591Y-136983915D01*
X94572110Y-136988000D01*
X93895890Y-136988000D01*
X93854409Y-136983915D01*
X93820431Y-136973607D01*
X93789113Y-136956867D01*
X93761661Y-136934339D01*
X93739133Y-136906887D01*
X93722393Y-136875569D01*
X93712085Y-136841591D01*
X93708000Y-136800110D01*
X93708000Y-136198890D01*
X93712085Y-136157409D01*
X93722393Y-136123431D01*
X93739133Y-136092113D01*
X93761661Y-136064661D01*
X93789113Y-136042133D01*
X93820431Y-136025393D01*
X93854409Y-136015085D01*
X93895890Y-136011000D01*
X94572110Y-136011000D01*
X94613591Y-136015085D01*
X94613591Y-136015085D01*
G37*
G36*
X130693000Y-136705000D02*
X128591000Y-136705000D01*
X128591000Y-135103000D01*
X130693000Y-135103000D01*
X130693000Y-136705000D01*
X130693000Y-136705000D01*
G37*
G36*
X132967591Y-135151585D02*
X133001569Y-135161893D01*
X133032887Y-135178633D01*
X133060339Y-135201161D01*
X133082867Y-135228613D01*
X133099607Y-135259931D01*
X133109915Y-135293909D01*
X133114000Y-135335390D01*
X133114000Y-135936610D01*
X133109915Y-135978091D01*
X133099607Y-136012069D01*
X133082867Y-136043387D01*
X133060339Y-136070839D01*
X133032887Y-136093367D01*
X133001569Y-136110107D01*
X132967591Y-136120415D01*
X132926110Y-136124500D01*
X132249890Y-136124500D01*
X132208409Y-136120415D01*
X132174431Y-136110107D01*
X132143113Y-136093367D01*
X132115661Y-136070839D01*
X132093133Y-136043387D01*
X132076393Y-136012069D01*
X132066085Y-135978091D01*
X132062000Y-135936610D01*
X132062000Y-135335390D01*
X132066085Y-135293909D01*
X132076393Y-135259931D01*
X132093133Y-135228613D01*
X132115661Y-135201161D01*
X132143113Y-135178633D01*
X132174431Y-135161893D01*
X132208409Y-135151585D01*
X132249890Y-135147500D01*
X132926110Y-135147500D01*
X132967591Y-135151585D01*
X132967591Y-135151585D01*
G37*
G36*
X156259433Y-134597686D02*
X156299281Y-134609774D01*
X156336001Y-134629401D01*
X156368186Y-134655814D01*
X156394599Y-134687999D01*
X156414226Y-134724719D01*
X156426314Y-134764567D01*
X156431000Y-134812141D01*
X156431000Y-135475859D01*
X156426314Y-135523433D01*
X156414226Y-135563281D01*
X156394599Y-135600001D01*
X156368186Y-135632186D01*
X156336001Y-135658599D01*
X156299281Y-135678226D01*
X156259433Y-135690314D01*
X156211859Y-135695000D01*
X153048141Y-135695000D01*
X153000567Y-135690314D01*
X152960719Y-135678226D01*
X152923999Y-135658599D01*
X152891814Y-135632186D01*
X152865401Y-135600001D01*
X152845774Y-135563281D01*
X152833686Y-135523433D01*
X152829000Y-135475859D01*
X152829000Y-134812141D01*
X152833686Y-134764567D01*
X152845774Y-134724719D01*
X152865401Y-134687999D01*
X152891814Y-134655814D01*
X152923999Y-134629401D01*
X152960719Y-134609774D01*
X153000567Y-134597686D01*
X153048141Y-134593000D01*
X156211859Y-134593000D01*
X156259433Y-134597686D01*
X156259433Y-134597686D01*
G37*
G36*
X87065000Y-135645000D02*
X86163000Y-135645000D01*
X86163000Y-134943000D01*
X87065000Y-134943000D01*
X87065000Y-135645000D01*
X87065000Y-135645000D01*
G37*
G36*
X85033000Y-135606000D02*
X84131000Y-135606000D01*
X84131000Y-134904000D01*
X85033000Y-134904000D01*
X85033000Y-135606000D01*
X85033000Y-135606000D01*
G37*
G36*
X124393000Y-135555000D02*
X122291000Y-135555000D01*
X122291000Y-131653000D01*
X124393000Y-131653000D01*
X124393000Y-135555000D01*
X124393000Y-135555000D01*
G37*
G36*
X77661500Y-135068000D02*
X76559500Y-135068000D01*
X76559500Y-133966000D01*
X77661500Y-133966000D01*
X77661500Y-135068000D01*
X77661500Y-135068000D01*
G37*
G36*
X132967591Y-133576585D02*
X133001569Y-133586893D01*
X133032887Y-133603633D01*
X133060339Y-133626161D01*
X133082867Y-133653613D01*
X133099607Y-133684931D01*
X133109915Y-133718909D01*
X133114000Y-133760390D01*
X133114000Y-134361610D01*
X133109915Y-134403091D01*
X133099607Y-134437069D01*
X133082867Y-134468387D01*
X133060339Y-134495839D01*
X133032887Y-134518367D01*
X133001569Y-134535107D01*
X132967591Y-134545415D01*
X132926110Y-134549500D01*
X132249890Y-134549500D01*
X132208409Y-134545415D01*
X132174431Y-134535107D01*
X132143113Y-134518367D01*
X132115661Y-134495839D01*
X132093133Y-134468387D01*
X132076393Y-134437069D01*
X132066085Y-134403091D01*
X132062000Y-134361610D01*
X132062000Y-133760390D01*
X132066085Y-133718909D01*
X132076393Y-133684931D01*
X132093133Y-133653613D01*
X132115661Y-133626161D01*
X132143113Y-133603633D01*
X132174431Y-133586893D01*
X132208409Y-133576585D01*
X132249890Y-133572500D01*
X132926110Y-133572500D01*
X132967591Y-133576585D01*
X132967591Y-133576585D01*
G37*
G36*
X130693000Y-134405000D02*
X128591000Y-134405000D01*
X128591000Y-132803000D01*
X130693000Y-132803000D01*
X130693000Y-134405000D01*
X130693000Y-134405000D01*
G37*
G36*
X81761500Y-133518000D02*
X80757546Y-133518000D01*
X80733160Y-133520402D01*
X80709711Y-133527515D01*
X80688100Y-133539066D01*
X80669158Y-133554612D01*
X80653612Y-133573554D01*
X80642061Y-133595165D01*
X80634948Y-133618614D01*
X80632546Y-133643000D01*
X80634948Y-133667386D01*
X80642061Y-133690835D01*
X80653612Y-133712446D01*
X80669158Y-133731388D01*
X80680977Y-133741088D01*
X80733139Y-133793250D01*
X80771552Y-133850739D01*
X80798011Y-133914617D01*
X80811500Y-133982430D01*
X80811500Y-134051570D01*
X80798011Y-134119383D01*
X80771552Y-134183261D01*
X80733139Y-134240750D01*
X80721277Y-134252612D01*
X80709933Y-134266433D01*
X80696112Y-134277777D01*
X80684250Y-134289639D01*
X80626761Y-134328052D01*
X80562883Y-134354511D01*
X80495070Y-134368000D01*
X80425930Y-134368000D01*
X80358117Y-134354511D01*
X80294239Y-134328052D01*
X80236750Y-134289639D01*
X80187861Y-134240750D01*
X80149448Y-134183261D01*
X80122989Y-134119383D01*
X80109500Y-134051570D01*
X80109500Y-133982430D01*
X80122989Y-133914617D01*
X80149448Y-133850739D01*
X80187861Y-133793250D01*
X80240023Y-133741088D01*
X80251842Y-133731388D01*
X80267388Y-133712446D01*
X80278939Y-133690835D01*
X80286052Y-133667386D01*
X80288454Y-133643000D01*
X80286052Y-133618614D01*
X80278939Y-133595164D01*
X80267388Y-133573554D01*
X80259500Y-133563943D01*
X80259500Y-132016000D01*
X81761500Y-132016000D01*
X81761500Y-133518000D01*
X81761500Y-133518000D01*
G37*
G36*
X161983043Y-131997122D02*
X162017390Y-132007541D01*
X162049035Y-132024456D01*
X162076777Y-132047223D01*
X162099544Y-132074965D01*
X162116459Y-132106610D01*
X162126878Y-132140957D01*
X162131000Y-132182807D01*
X162131000Y-133405193D01*
X162126878Y-133447043D01*
X162116459Y-133481390D01*
X162099544Y-133513035D01*
X162076777Y-133540777D01*
X162049035Y-133563544D01*
X162017390Y-133580459D01*
X161983043Y-133590878D01*
X161941193Y-133595000D01*
X158818807Y-133595000D01*
X158776957Y-133590878D01*
X158742610Y-133580459D01*
X158710965Y-133563544D01*
X158683223Y-133540777D01*
X158660456Y-133513035D01*
X158643541Y-133481390D01*
X158633122Y-133447043D01*
X158629000Y-133405193D01*
X158629000Y-132182807D01*
X158633122Y-132140957D01*
X158643541Y-132106610D01*
X158660456Y-132074965D01*
X158683223Y-132047223D01*
X158710965Y-132024456D01*
X158742610Y-132007541D01*
X158776957Y-131997122D01*
X158818807Y-131993000D01*
X161941193Y-131993000D01*
X161983043Y-131997122D01*
X161983043Y-131997122D01*
G37*
G36*
X79061500Y-132718000D02*
X77559500Y-132718000D01*
X77559500Y-131216000D01*
X79061500Y-131216000D01*
X79061500Y-132718000D01*
X79061500Y-132718000D01*
G37*
G36*
X86840500Y-132254000D02*
X85663500Y-132254000D01*
X85663500Y-131652000D01*
X86840500Y-131652000D01*
X86840500Y-132254000D01*
X86840500Y-132254000D01*
G37*
G36*
X84516500Y-132254000D02*
X83339500Y-132254000D01*
X83339500Y-131652000D01*
X84516500Y-131652000D01*
X84516500Y-132254000D01*
X84516500Y-132254000D01*
G37*
G36*
X130693000Y-132105000D02*
X128591000Y-132105000D01*
X128591000Y-130503000D01*
X130693000Y-130503000D01*
X130693000Y-132105000D01*
X130693000Y-132105000D01*
G37*
G36*
X85910000Y-130499000D02*
X85208000Y-130499000D01*
X85208000Y-129597000D01*
X85910000Y-129597000D01*
X85910000Y-130499000D01*
X85910000Y-130499000D01*
G37*
G36*
X84210000Y-130499000D02*
X83508000Y-130499000D01*
X83508000Y-129597000D01*
X84210000Y-129597000D01*
X84210000Y-130499000D01*
X84210000Y-130499000D01*
G37*
G36*
X105588000Y-130479000D02*
X104148000Y-130479000D01*
X104148000Y-129739000D01*
X105588000Y-129739000D01*
X105588000Y-130479000D01*
X105588000Y-130479000D01*
G37*
G36*
X130110591Y-128510085D02*
X130144569Y-128520393D01*
X130175887Y-128537133D01*
X130203339Y-128559661D01*
X130225867Y-128587113D01*
X130242607Y-128618431D01*
X130252915Y-128652409D01*
X130257000Y-128693890D01*
X130257000Y-129370110D01*
X130252915Y-129411591D01*
X130242607Y-129445569D01*
X130225867Y-129476887D01*
X130203339Y-129504339D01*
X130175887Y-129526867D01*
X130144569Y-129543607D01*
X130110591Y-129553915D01*
X130069110Y-129558000D01*
X129467890Y-129558000D01*
X129426409Y-129553915D01*
X129392431Y-129543607D01*
X129361113Y-129526867D01*
X129333661Y-129504339D01*
X129311133Y-129476887D01*
X129294393Y-129445569D01*
X129284085Y-129411591D01*
X129280000Y-129370110D01*
X129280000Y-128693890D01*
X129284085Y-128652409D01*
X129294393Y-128618431D01*
X129311133Y-128587113D01*
X129333661Y-128559661D01*
X129361113Y-128537133D01*
X129392431Y-128520393D01*
X129426409Y-128510085D01*
X129467890Y-128506000D01*
X130069110Y-128506000D01*
X130110591Y-128510085D01*
X130110591Y-128510085D01*
G37*
G36*
X131685591Y-128510085D02*
X131719569Y-128520393D01*
X131750887Y-128537133D01*
X131778339Y-128559661D01*
X131800867Y-128587113D01*
X131817607Y-128618431D01*
X131827915Y-128652409D01*
X131832000Y-128693890D01*
X131832000Y-129370110D01*
X131827915Y-129411591D01*
X131817607Y-129445569D01*
X131800867Y-129476887D01*
X131778339Y-129504339D01*
X131750887Y-129526867D01*
X131719569Y-129543607D01*
X131685591Y-129553915D01*
X131644110Y-129558000D01*
X131042890Y-129558000D01*
X131001409Y-129553915D01*
X130967431Y-129543607D01*
X130936113Y-129526867D01*
X130908661Y-129504339D01*
X130886133Y-129476887D01*
X130869393Y-129445569D01*
X130859085Y-129411591D01*
X130855000Y-129370110D01*
X130855000Y-128693890D01*
X130859085Y-128652409D01*
X130869393Y-128618431D01*
X130886133Y-128587113D01*
X130908661Y-128559661D01*
X130936113Y-128537133D01*
X130967431Y-128520393D01*
X131001409Y-128510085D01*
X131042890Y-128506000D01*
X131644110Y-128506000D01*
X131685591Y-128510085D01*
X131685591Y-128510085D01*
G37*
G36*
X107688000Y-129529000D02*
X106248000Y-129529000D01*
X106248000Y-128789000D01*
X107688000Y-128789000D01*
X107688000Y-129529000D01*
X107688000Y-129529000D01*
G37*
G36*
X160059466Y-127523565D02*
X160098137Y-127535296D01*
X160133779Y-127554348D01*
X160165017Y-127579983D01*
X160190652Y-127611221D01*
X160209704Y-127646863D01*
X160221435Y-127685534D01*
X160226000Y-127731888D01*
X160226000Y-128808112D01*
X160221435Y-128854466D01*
X160209704Y-128893137D01*
X160190652Y-128928779D01*
X160165017Y-128960017D01*
X160133779Y-128985652D01*
X160098137Y-129004704D01*
X160059466Y-129016435D01*
X160013112Y-129021000D01*
X159361888Y-129021000D01*
X159315534Y-129016435D01*
X159276863Y-129004704D01*
X159241221Y-128985652D01*
X159209983Y-128960017D01*
X159184348Y-128928779D01*
X159165296Y-128893137D01*
X159153565Y-128854466D01*
X159149000Y-128808112D01*
X159149000Y-127731888D01*
X159153565Y-127685534D01*
X159165296Y-127646863D01*
X159184348Y-127611221D01*
X159209983Y-127579983D01*
X159241221Y-127554348D01*
X159276863Y-127535296D01*
X159315534Y-127523565D01*
X159361888Y-127519000D01*
X160013112Y-127519000D01*
X160059466Y-127523565D01*
X160059466Y-127523565D01*
G37*
G36*
X154501139Y-127523565D02*
X154539810Y-127535296D01*
X154575452Y-127554348D01*
X154606690Y-127579983D01*
X154632325Y-127611221D01*
X154651377Y-127646863D01*
X154663108Y-127685534D01*
X154667673Y-127731888D01*
X154667673Y-128808112D01*
X154663108Y-128854466D01*
X154651377Y-128893137D01*
X154632325Y-128928779D01*
X154606690Y-128960017D01*
X154575452Y-128985652D01*
X154539810Y-129004704D01*
X154501139Y-129016435D01*
X154454785Y-129021000D01*
X153803561Y-129021000D01*
X153757207Y-129016435D01*
X153718536Y-129004704D01*
X153682894Y-128985652D01*
X153651656Y-128960017D01*
X153626021Y-128928779D01*
X153606969Y-128893137D01*
X153595238Y-128854466D01*
X153590673Y-128808112D01*
X153590673Y-127731888D01*
X153595238Y-127685534D01*
X153606969Y-127646863D01*
X153626021Y-127611221D01*
X153651656Y-127579983D01*
X153682894Y-127554348D01*
X153718536Y-127535296D01*
X153757207Y-127523565D01*
X153803561Y-127519000D01*
X154454785Y-127519000D01*
X154501139Y-127523565D01*
X154501139Y-127523565D01*
G37*
G36*
X156376139Y-127523565D02*
X156414810Y-127535296D01*
X156450452Y-127554348D01*
X156481690Y-127579983D01*
X156507325Y-127611221D01*
X156526377Y-127646863D01*
X156538108Y-127685534D01*
X156542673Y-127731888D01*
X156542673Y-128808112D01*
X156538108Y-128854466D01*
X156526377Y-128893137D01*
X156507325Y-128928779D01*
X156481690Y-128960017D01*
X156450452Y-128985652D01*
X156414810Y-129004704D01*
X156376139Y-129016435D01*
X156329785Y-129021000D01*
X155678561Y-129021000D01*
X155632207Y-129016435D01*
X155593536Y-129004704D01*
X155557894Y-128985652D01*
X155526656Y-128960017D01*
X155501021Y-128928779D01*
X155481969Y-128893137D01*
X155470238Y-128854466D01*
X155465673Y-128808112D01*
X155465673Y-127731888D01*
X155470238Y-127685534D01*
X155481969Y-127646863D01*
X155501021Y-127611221D01*
X155526656Y-127579983D01*
X155557894Y-127554348D01*
X155593536Y-127535296D01*
X155632207Y-127523565D01*
X155678561Y-127519000D01*
X156329785Y-127519000D01*
X156376139Y-127523565D01*
X156376139Y-127523565D01*
G37*
G36*
X158184466Y-127523565D02*
X158223137Y-127535296D01*
X158258779Y-127554348D01*
X158290017Y-127579983D01*
X158315652Y-127611221D01*
X158334704Y-127646863D01*
X158346435Y-127685534D01*
X158351000Y-127731888D01*
X158351000Y-128808112D01*
X158346435Y-128854466D01*
X158334704Y-128893137D01*
X158315652Y-128928779D01*
X158290017Y-128960017D01*
X158258779Y-128985652D01*
X158223137Y-129004704D01*
X158184466Y-129016435D01*
X158138112Y-129021000D01*
X157486888Y-129021000D01*
X157440534Y-129016435D01*
X157401863Y-129004704D01*
X157366221Y-128985652D01*
X157334983Y-128960017D01*
X157309348Y-128928779D01*
X157290296Y-128893137D01*
X157278565Y-128854466D01*
X157274000Y-128808112D01*
X157274000Y-127731888D01*
X157278565Y-127685534D01*
X157290296Y-127646863D01*
X157309348Y-127611221D01*
X157334983Y-127579983D01*
X157366221Y-127554348D01*
X157401863Y-127535296D01*
X157440534Y-127523565D01*
X157486888Y-127519000D01*
X158138112Y-127519000D01*
X158184466Y-127523565D01*
X158184466Y-127523565D01*
G37*
G36*
X105588000Y-128579000D02*
X104148000Y-128579000D01*
X104148000Y-127839000D01*
X105588000Y-127839000D01*
X105588000Y-128579000D01*
X105588000Y-128579000D01*
G37*
G36*
X107688000Y-126508000D02*
X106248000Y-126508000D01*
X106248000Y-125768000D01*
X107688000Y-125768000D01*
X107688000Y-126508000D01*
X107688000Y-126508000D01*
G37*
G36*
X102196091Y-125398585D02*
X102230069Y-125408893D01*
X102261387Y-125425633D01*
X102288839Y-125448161D01*
X102311367Y-125475613D01*
X102328107Y-125506931D01*
X102338415Y-125540909D01*
X102342500Y-125582390D01*
X102342500Y-126258610D01*
X102338415Y-126300091D01*
X102328107Y-126334069D01*
X102311367Y-126365387D01*
X102288839Y-126392839D01*
X102261387Y-126415367D01*
X102230069Y-126432107D01*
X102196091Y-126442415D01*
X102154610Y-126446500D01*
X101553390Y-126446500D01*
X101511909Y-126442415D01*
X101477931Y-126432107D01*
X101446613Y-126415367D01*
X101419161Y-126392839D01*
X101396633Y-126365387D01*
X101379893Y-126334069D01*
X101369585Y-126300091D01*
X101365500Y-126258610D01*
X101365500Y-125582390D01*
X101369585Y-125540909D01*
X101379893Y-125506931D01*
X101396633Y-125475613D01*
X101419161Y-125448161D01*
X101446613Y-125425633D01*
X101477931Y-125408893D01*
X101511909Y-125398585D01*
X101553390Y-125394500D01*
X102154610Y-125394500D01*
X102196091Y-125398585D01*
X102196091Y-125398585D01*
G37*
G36*
X100621091Y-125398585D02*
X100655069Y-125408893D01*
X100686387Y-125425633D01*
X100713839Y-125448161D01*
X100736367Y-125475613D01*
X100753107Y-125506931D01*
X100763415Y-125540909D01*
X100767500Y-125582390D01*
X100767500Y-126258610D01*
X100763415Y-126300091D01*
X100753107Y-126334069D01*
X100736367Y-126365387D01*
X100713839Y-126392839D01*
X100686387Y-126415367D01*
X100655069Y-126432107D01*
X100621091Y-126442415D01*
X100579610Y-126446500D01*
X99978390Y-126446500D01*
X99936909Y-126442415D01*
X99902931Y-126432107D01*
X99871613Y-126415367D01*
X99844161Y-126392839D01*
X99821633Y-126365387D01*
X99804893Y-126334069D01*
X99794585Y-126300091D01*
X99790500Y-126258610D01*
X99790500Y-125582390D01*
X99794585Y-125540909D01*
X99804893Y-125506931D01*
X99821633Y-125475613D01*
X99844161Y-125448161D01*
X99871613Y-125425633D01*
X99902931Y-125408893D01*
X99936909Y-125398585D01*
X99978390Y-125394500D01*
X100579610Y-125394500D01*
X100621091Y-125398585D01*
X100621091Y-125398585D01*
G37*
G36*
X146160442Y-124200518D02*
X146226627Y-124207037D01*
X146339853Y-124241384D01*
X146396467Y-124258557D01*
X146535087Y-124332652D01*
X146552991Y-124342222D01*
X146588729Y-124371552D01*
X146690186Y-124454814D01*
X146747300Y-124524409D01*
X146802778Y-124592009D01*
X146802779Y-124592011D01*
X146886443Y-124748533D01*
X146894802Y-124776091D01*
X146937963Y-124918373D01*
X146955359Y-125095000D01*
X146937963Y-125271627D01*
X146937277Y-125273887D01*
X146886443Y-125441467D01*
X146851451Y-125506931D01*
X146802778Y-125597991D01*
X146773448Y-125633729D01*
X146690186Y-125735186D01*
X146588729Y-125818448D01*
X146552991Y-125847778D01*
X146552989Y-125847779D01*
X146396467Y-125931443D01*
X146339853Y-125948616D01*
X146226627Y-125982963D01*
X146160442Y-125989482D01*
X146094260Y-125996000D01*
X146005740Y-125996000D01*
X145939558Y-125989482D01*
X145873373Y-125982963D01*
X145760147Y-125948616D01*
X145703533Y-125931443D01*
X145547011Y-125847779D01*
X145547009Y-125847778D01*
X145511271Y-125818448D01*
X145409814Y-125735186D01*
X145326552Y-125633729D01*
X145297222Y-125597991D01*
X145248549Y-125506931D01*
X145213557Y-125441467D01*
X145162723Y-125273887D01*
X145162037Y-125271627D01*
X145144641Y-125095000D01*
X145162037Y-124918373D01*
X145205198Y-124776091D01*
X145213557Y-124748533D01*
X145297221Y-124592011D01*
X145297222Y-124592009D01*
X145352700Y-124524409D01*
X145409814Y-124454814D01*
X145511271Y-124371552D01*
X145547009Y-124342222D01*
X145564913Y-124332652D01*
X145703533Y-124258557D01*
X145760147Y-124241384D01*
X145873373Y-124207037D01*
X145939558Y-124200518D01*
X146005740Y-124194000D01*
X146094260Y-124194000D01*
X146160442Y-124200518D01*
X146160442Y-124200518D01*
G37*
G36*
X143620442Y-124200518D02*
X143686627Y-124207037D01*
X143799853Y-124241384D01*
X143856467Y-124258557D01*
X143995087Y-124332652D01*
X144012991Y-124342222D01*
X144048729Y-124371552D01*
X144150186Y-124454814D01*
X144207300Y-124524409D01*
X144262778Y-124592009D01*
X144262779Y-124592011D01*
X144346443Y-124748533D01*
X144354802Y-124776091D01*
X144397963Y-124918373D01*
X144415359Y-125095000D01*
X144397963Y-125271627D01*
X144397277Y-125273887D01*
X144346443Y-125441467D01*
X144311451Y-125506931D01*
X144262778Y-125597991D01*
X144233448Y-125633729D01*
X144150186Y-125735186D01*
X144048729Y-125818448D01*
X144012991Y-125847778D01*
X144012989Y-125847779D01*
X143856467Y-125931443D01*
X143799853Y-125948616D01*
X143686627Y-125982963D01*
X143620442Y-125989482D01*
X143554260Y-125996000D01*
X143465740Y-125996000D01*
X143399558Y-125989482D01*
X143333373Y-125982963D01*
X143220147Y-125948616D01*
X143163533Y-125931443D01*
X143007011Y-125847779D01*
X143007009Y-125847778D01*
X142971271Y-125818448D01*
X142869814Y-125735186D01*
X142786552Y-125633729D01*
X142757222Y-125597991D01*
X142708549Y-125506931D01*
X142673557Y-125441467D01*
X142622723Y-125273887D01*
X142622037Y-125271627D01*
X142604641Y-125095000D01*
X142622037Y-124918373D01*
X142665198Y-124776091D01*
X142673557Y-124748533D01*
X142757221Y-124592011D01*
X142757222Y-124592009D01*
X142812700Y-124524409D01*
X142869814Y-124454814D01*
X142971271Y-124371552D01*
X143007009Y-124342222D01*
X143024913Y-124332652D01*
X143163533Y-124258557D01*
X143220147Y-124241384D01*
X143333373Y-124207037D01*
X143399558Y-124200518D01*
X143465740Y-124194000D01*
X143554260Y-124194000D01*
X143620442Y-124200518D01*
X143620442Y-124200518D01*
G37*
G36*
X95360442Y-124200518D02*
X95426627Y-124207037D01*
X95539853Y-124241384D01*
X95596467Y-124258557D01*
X95735087Y-124332652D01*
X95752991Y-124342222D01*
X95788729Y-124371552D01*
X95890186Y-124454814D01*
X95947300Y-124524409D01*
X96002778Y-124592009D01*
X96002779Y-124592011D01*
X96086443Y-124748533D01*
X96094802Y-124776091D01*
X96137963Y-124918373D01*
X96155359Y-125095000D01*
X96137963Y-125271627D01*
X96137277Y-125273887D01*
X96086443Y-125441467D01*
X96051451Y-125506931D01*
X96002778Y-125597991D01*
X95973448Y-125633729D01*
X95890186Y-125735186D01*
X95788729Y-125818448D01*
X95752991Y-125847778D01*
X95752989Y-125847779D01*
X95596467Y-125931443D01*
X95539853Y-125948616D01*
X95426627Y-125982963D01*
X95360442Y-125989482D01*
X95294260Y-125996000D01*
X95205740Y-125996000D01*
X95139558Y-125989482D01*
X95073373Y-125982963D01*
X94960147Y-125948616D01*
X94903533Y-125931443D01*
X94747011Y-125847779D01*
X94747009Y-125847778D01*
X94711271Y-125818448D01*
X94609814Y-125735186D01*
X94526552Y-125633729D01*
X94497222Y-125597991D01*
X94448549Y-125506931D01*
X94413557Y-125441467D01*
X94362723Y-125273887D01*
X94362037Y-125271627D01*
X94344641Y-125095000D01*
X94362037Y-124918373D01*
X94405198Y-124776091D01*
X94413557Y-124748533D01*
X94497221Y-124592011D01*
X94497222Y-124592009D01*
X94552700Y-124524409D01*
X94609814Y-124454814D01*
X94711271Y-124371552D01*
X94747009Y-124342222D01*
X94764913Y-124332652D01*
X94903533Y-124258557D01*
X94960147Y-124241384D01*
X95073373Y-124207037D01*
X95139558Y-124200518D01*
X95205740Y-124194000D01*
X95294260Y-124194000D01*
X95360442Y-124200518D01*
X95360442Y-124200518D01*
G37*
G36*
X92820442Y-124200518D02*
X92886627Y-124207037D01*
X92999853Y-124241384D01*
X93056467Y-124258557D01*
X93195087Y-124332652D01*
X93212991Y-124342222D01*
X93248729Y-124371552D01*
X93350186Y-124454814D01*
X93407300Y-124524409D01*
X93462778Y-124592009D01*
X93462779Y-124592011D01*
X93546443Y-124748533D01*
X93554802Y-124776091D01*
X93597963Y-124918373D01*
X93615359Y-125095000D01*
X93597963Y-125271627D01*
X93597277Y-125273887D01*
X93546443Y-125441467D01*
X93511451Y-125506931D01*
X93462778Y-125597991D01*
X93433448Y-125633729D01*
X93350186Y-125735186D01*
X93248729Y-125818448D01*
X93212991Y-125847778D01*
X93212989Y-125847779D01*
X93056467Y-125931443D01*
X92999853Y-125948616D01*
X92886627Y-125982963D01*
X92820442Y-125989482D01*
X92754260Y-125996000D01*
X92665740Y-125996000D01*
X92599558Y-125989482D01*
X92533373Y-125982963D01*
X92420147Y-125948616D01*
X92363533Y-125931443D01*
X92207011Y-125847779D01*
X92207009Y-125847778D01*
X92171271Y-125818448D01*
X92069814Y-125735186D01*
X91986552Y-125633729D01*
X91957222Y-125597991D01*
X91908549Y-125506931D01*
X91873557Y-125441467D01*
X91822723Y-125273887D01*
X91822037Y-125271627D01*
X91804641Y-125095000D01*
X91822037Y-124918373D01*
X91865198Y-124776091D01*
X91873557Y-124748533D01*
X91957221Y-124592011D01*
X91957222Y-124592009D01*
X92012700Y-124524409D01*
X92069814Y-124454814D01*
X92171271Y-124371552D01*
X92207009Y-124342222D01*
X92224913Y-124332652D01*
X92363533Y-124258557D01*
X92420147Y-124241384D01*
X92533373Y-124207037D01*
X92599558Y-124200518D01*
X92665740Y-124194000D01*
X92754260Y-124194000D01*
X92820442Y-124200518D01*
X92820442Y-124200518D01*
G37*
G36*
X105588000Y-125558000D02*
X104148000Y-125558000D01*
X104148000Y-124818000D01*
X105588000Y-124818000D01*
X105588000Y-125558000D01*
X105588000Y-125558000D01*
G37*
G36*
X114743091Y-124382085D02*
X114777069Y-124392393D01*
X114808387Y-124409133D01*
X114835839Y-124431661D01*
X114858367Y-124459113D01*
X114875107Y-124490431D01*
X114885415Y-124524409D01*
X114889500Y-124565890D01*
X114889500Y-125167110D01*
X114885415Y-125208591D01*
X114875107Y-125242569D01*
X114858367Y-125273887D01*
X114835839Y-125301339D01*
X114808387Y-125323867D01*
X114777069Y-125340607D01*
X114743091Y-125350915D01*
X114701610Y-125355000D01*
X114025390Y-125355000D01*
X113983909Y-125350915D01*
X113949931Y-125340607D01*
X113918613Y-125323867D01*
X113891161Y-125301339D01*
X113868633Y-125273887D01*
X113851893Y-125242569D01*
X113841585Y-125208591D01*
X113837500Y-125167110D01*
X113837500Y-124565890D01*
X113841585Y-124524409D01*
X113851893Y-124490431D01*
X113868633Y-124459113D01*
X113891161Y-124431661D01*
X113918613Y-124409133D01*
X113949931Y-124392393D01*
X113983909Y-124382085D01*
X114025390Y-124378000D01*
X114701610Y-124378000D01*
X114743091Y-124382085D01*
X114743091Y-124382085D01*
G37*
G36*
X113219091Y-124382085D02*
X113253069Y-124392393D01*
X113284387Y-124409133D01*
X113311839Y-124431661D01*
X113334367Y-124459113D01*
X113351107Y-124490431D01*
X113361415Y-124524409D01*
X113365500Y-124565890D01*
X113365500Y-125167110D01*
X113361415Y-125208591D01*
X113351107Y-125242569D01*
X113334367Y-125273887D01*
X113311839Y-125301339D01*
X113284387Y-125323867D01*
X113253069Y-125340607D01*
X113219091Y-125350915D01*
X113177610Y-125355000D01*
X112501390Y-125355000D01*
X112459909Y-125350915D01*
X112425931Y-125340607D01*
X112394613Y-125323867D01*
X112367161Y-125301339D01*
X112344633Y-125273887D01*
X112327893Y-125242569D01*
X112317585Y-125208591D01*
X112313500Y-125167110D01*
X112313500Y-124565890D01*
X112317585Y-124524409D01*
X112327893Y-124490431D01*
X112344633Y-124459113D01*
X112367161Y-124431661D01*
X112394613Y-124409133D01*
X112425931Y-124392393D01*
X112459909Y-124382085D01*
X112501390Y-124378000D01*
X113177610Y-124378000D01*
X113219091Y-124382085D01*
X113219091Y-124382085D01*
G37*
G36*
X102196091Y-123874585D02*
X102230069Y-123884893D01*
X102261387Y-123901633D01*
X102288839Y-123924161D01*
X102311367Y-123951613D01*
X102328107Y-123982931D01*
X102338415Y-124016909D01*
X102342500Y-124058390D01*
X102342500Y-124734610D01*
X102338415Y-124776091D01*
X102328107Y-124810069D01*
X102311367Y-124841387D01*
X102288839Y-124868839D01*
X102261387Y-124891367D01*
X102230069Y-124908107D01*
X102196091Y-124918415D01*
X102154610Y-124922500D01*
X101553390Y-124922500D01*
X101511909Y-124918415D01*
X101477931Y-124908107D01*
X101446613Y-124891367D01*
X101419161Y-124868839D01*
X101396633Y-124841387D01*
X101379893Y-124810069D01*
X101369585Y-124776091D01*
X101365500Y-124734610D01*
X101365500Y-124058390D01*
X101369585Y-124016909D01*
X101379893Y-123982931D01*
X101396633Y-123951613D01*
X101419161Y-123924161D01*
X101446613Y-123901633D01*
X101477931Y-123884893D01*
X101511909Y-123874585D01*
X101553390Y-123870500D01*
X102154610Y-123870500D01*
X102196091Y-123874585D01*
X102196091Y-123874585D01*
G37*
G36*
X100621091Y-123874585D02*
X100655069Y-123884893D01*
X100686387Y-123901633D01*
X100713839Y-123924161D01*
X100736367Y-123951613D01*
X100753107Y-123982931D01*
X100763415Y-124016909D01*
X100767500Y-124058390D01*
X100767500Y-124734610D01*
X100763415Y-124776091D01*
X100753107Y-124810069D01*
X100736367Y-124841387D01*
X100713839Y-124868839D01*
X100686387Y-124891367D01*
X100655069Y-124908107D01*
X100621091Y-124918415D01*
X100579610Y-124922500D01*
X99978390Y-124922500D01*
X99936909Y-124918415D01*
X99902931Y-124908107D01*
X99871613Y-124891367D01*
X99844161Y-124868839D01*
X99821633Y-124841387D01*
X99804893Y-124810069D01*
X99794585Y-124776091D01*
X99790500Y-124734610D01*
X99790500Y-124058390D01*
X99794585Y-124016909D01*
X99804893Y-123982931D01*
X99821633Y-123951613D01*
X99844161Y-123924161D01*
X99871613Y-123901633D01*
X99902931Y-123884893D01*
X99936909Y-123874585D01*
X99978390Y-123870500D01*
X100579610Y-123870500D01*
X100621091Y-123874585D01*
X100621091Y-123874585D01*
G37*
G36*
X107688000Y-124608000D02*
X106248000Y-124608000D01*
X106248000Y-123868000D01*
X107688000Y-123868000D01*
X107688000Y-124608000D01*
X107688000Y-124608000D01*
G37*
G36*
X113219091Y-122807085D02*
X113253069Y-122817393D01*
X113284387Y-122834133D01*
X113311839Y-122856661D01*
X113334367Y-122884113D01*
X113351107Y-122915431D01*
X113361415Y-122949409D01*
X113365500Y-122990890D01*
X113365500Y-123592110D01*
X113361415Y-123633591D01*
X113351107Y-123667569D01*
X113334367Y-123698887D01*
X113311839Y-123726339D01*
X113284387Y-123748867D01*
X113253069Y-123765607D01*
X113219091Y-123775915D01*
X113177610Y-123780000D01*
X112501390Y-123780000D01*
X112459909Y-123775915D01*
X112425931Y-123765607D01*
X112394613Y-123748867D01*
X112367161Y-123726339D01*
X112344633Y-123698887D01*
X112327893Y-123667569D01*
X112317585Y-123633591D01*
X112313500Y-123592110D01*
X112313500Y-122990890D01*
X112317585Y-122949409D01*
X112327893Y-122915431D01*
X112344633Y-122884113D01*
X112367161Y-122856661D01*
X112394613Y-122834133D01*
X112425931Y-122817393D01*
X112459909Y-122807085D01*
X112501390Y-122803000D01*
X113177610Y-122803000D01*
X113219091Y-122807085D01*
X113219091Y-122807085D01*
G37*
G36*
X114743091Y-122807085D02*
X114777069Y-122817393D01*
X114808387Y-122834133D01*
X114835839Y-122856661D01*
X114858367Y-122884113D01*
X114875107Y-122915431D01*
X114885415Y-122949409D01*
X114889500Y-122990890D01*
X114889500Y-123592110D01*
X114885415Y-123633591D01*
X114875107Y-123667569D01*
X114858367Y-123698887D01*
X114835839Y-123726339D01*
X114808387Y-123748867D01*
X114777069Y-123765607D01*
X114743091Y-123775915D01*
X114701610Y-123780000D01*
X114025390Y-123780000D01*
X113983909Y-123775915D01*
X113949931Y-123765607D01*
X113918613Y-123748867D01*
X113891161Y-123726339D01*
X113868633Y-123698887D01*
X113851893Y-123667569D01*
X113841585Y-123633591D01*
X113837500Y-123592110D01*
X113837500Y-122990890D01*
X113841585Y-122949409D01*
X113851893Y-122915431D01*
X113868633Y-122884113D01*
X113891161Y-122856661D01*
X113918613Y-122834133D01*
X113949931Y-122817393D01*
X113983909Y-122807085D01*
X114025390Y-122803000D01*
X114701610Y-122803000D01*
X114743091Y-122807085D01*
X114743091Y-122807085D01*
G37*
G36*
X143620442Y-121660518D02*
X143686627Y-121667037D01*
X143799853Y-121701384D01*
X143856467Y-121718557D01*
X143995087Y-121792652D01*
X144012991Y-121802222D01*
X144048729Y-121831552D01*
X144150186Y-121914814D01*
X144233448Y-122016271D01*
X144262778Y-122052009D01*
X144262779Y-122052011D01*
X144346443Y-122208533D01*
X144346443Y-122208534D01*
X144397963Y-122378373D01*
X144415359Y-122555000D01*
X144397963Y-122731627D01*
X144371946Y-122817393D01*
X144346443Y-122901467D01*
X144272348Y-123040087D01*
X144262778Y-123057991D01*
X144233448Y-123093729D01*
X144150186Y-123195186D01*
X144048729Y-123278448D01*
X144012991Y-123307778D01*
X144012989Y-123307779D01*
X143856467Y-123391443D01*
X143799853Y-123408616D01*
X143686627Y-123442963D01*
X143620442Y-123449482D01*
X143554260Y-123456000D01*
X143465740Y-123456000D01*
X143399558Y-123449482D01*
X143333373Y-123442963D01*
X143220147Y-123408616D01*
X143163533Y-123391443D01*
X143007011Y-123307779D01*
X143007009Y-123307778D01*
X142971271Y-123278448D01*
X142869814Y-123195186D01*
X142786552Y-123093729D01*
X142757222Y-123057991D01*
X142747652Y-123040087D01*
X142673557Y-122901467D01*
X142648054Y-122817393D01*
X142622037Y-122731627D01*
X142604641Y-122555000D01*
X142622037Y-122378373D01*
X142673557Y-122208534D01*
X142673557Y-122208533D01*
X142757221Y-122052011D01*
X142757222Y-122052009D01*
X142786552Y-122016271D01*
X142869814Y-121914814D01*
X142971271Y-121831552D01*
X143007009Y-121802222D01*
X143024913Y-121792652D01*
X143163533Y-121718557D01*
X143220147Y-121701384D01*
X143333373Y-121667037D01*
X143399558Y-121660518D01*
X143465740Y-121654000D01*
X143554260Y-121654000D01*
X143620442Y-121660518D01*
X143620442Y-121660518D01*
G37*
G36*
X146160442Y-121660518D02*
X146226627Y-121667037D01*
X146339853Y-121701384D01*
X146396467Y-121718557D01*
X146535087Y-121792652D01*
X146552991Y-121802222D01*
X146588729Y-121831552D01*
X146690186Y-121914814D01*
X146773448Y-122016271D01*
X146802778Y-122052009D01*
X146802779Y-122052011D01*
X146886443Y-122208533D01*
X146886443Y-122208534D01*
X146937963Y-122378373D01*
X146955359Y-122555000D01*
X146937963Y-122731627D01*
X146911946Y-122817393D01*
X146886443Y-122901467D01*
X146812348Y-123040087D01*
X146802778Y-123057991D01*
X146773448Y-123093729D01*
X146690186Y-123195186D01*
X146588729Y-123278448D01*
X146552991Y-123307778D01*
X146552989Y-123307779D01*
X146396467Y-123391443D01*
X146339853Y-123408616D01*
X146226627Y-123442963D01*
X146160442Y-123449482D01*
X146094260Y-123456000D01*
X146005740Y-123456000D01*
X145939558Y-123449482D01*
X145873373Y-123442963D01*
X145760147Y-123408616D01*
X145703533Y-123391443D01*
X145547011Y-123307779D01*
X145547009Y-123307778D01*
X145511271Y-123278448D01*
X145409814Y-123195186D01*
X145326552Y-123093729D01*
X145297222Y-123057991D01*
X145287652Y-123040087D01*
X145213557Y-122901467D01*
X145188054Y-122817393D01*
X145162037Y-122731627D01*
X145144641Y-122555000D01*
X145162037Y-122378373D01*
X145213557Y-122208534D01*
X145213557Y-122208533D01*
X145297221Y-122052011D01*
X145297222Y-122052009D01*
X145326552Y-122016271D01*
X145409814Y-121914814D01*
X145511271Y-121831552D01*
X145547009Y-121802222D01*
X145564913Y-121792652D01*
X145703533Y-121718557D01*
X145760147Y-121701384D01*
X145873373Y-121667037D01*
X145939558Y-121660518D01*
X146005740Y-121654000D01*
X146094260Y-121654000D01*
X146160442Y-121660518D01*
X146160442Y-121660518D01*
G37*
G36*
X95360442Y-121660518D02*
X95426627Y-121667037D01*
X95539853Y-121701384D01*
X95596467Y-121718557D01*
X95735087Y-121792652D01*
X95752991Y-121802222D01*
X95788729Y-121831552D01*
X95890186Y-121914814D01*
X95973448Y-122016271D01*
X96002778Y-122052009D01*
X96002779Y-122052011D01*
X96086443Y-122208533D01*
X96086443Y-122208534D01*
X96137963Y-122378373D01*
X96155359Y-122555000D01*
X96137963Y-122731627D01*
X96111946Y-122817393D01*
X96086443Y-122901467D01*
X96012348Y-123040087D01*
X96002778Y-123057991D01*
X95973448Y-123093729D01*
X95890186Y-123195186D01*
X95788729Y-123278448D01*
X95752991Y-123307778D01*
X95752989Y-123307779D01*
X95596467Y-123391443D01*
X95539853Y-123408616D01*
X95426627Y-123442963D01*
X95360442Y-123449482D01*
X95294260Y-123456000D01*
X95205740Y-123456000D01*
X95139558Y-123449482D01*
X95073373Y-123442963D01*
X94960147Y-123408616D01*
X94903533Y-123391443D01*
X94747011Y-123307779D01*
X94747009Y-123307778D01*
X94711271Y-123278448D01*
X94609814Y-123195186D01*
X94526552Y-123093729D01*
X94497222Y-123057991D01*
X94487652Y-123040087D01*
X94413557Y-122901467D01*
X94388054Y-122817393D01*
X94362037Y-122731627D01*
X94344641Y-122555000D01*
X94362037Y-122378373D01*
X94413557Y-122208534D01*
X94413557Y-122208533D01*
X94497221Y-122052011D01*
X94497222Y-122052009D01*
X94526552Y-122016271D01*
X94609814Y-121914814D01*
X94711271Y-121831552D01*
X94747009Y-121802222D01*
X94764913Y-121792652D01*
X94903533Y-121718557D01*
X94960147Y-121701384D01*
X95073373Y-121667037D01*
X95139558Y-121660518D01*
X95205740Y-121654000D01*
X95294260Y-121654000D01*
X95360442Y-121660518D01*
X95360442Y-121660518D01*
G37*
G36*
X92820442Y-121660518D02*
X92886627Y-121667037D01*
X92999853Y-121701384D01*
X93056467Y-121718557D01*
X93195087Y-121792652D01*
X93212991Y-121802222D01*
X93248729Y-121831552D01*
X93350186Y-121914814D01*
X93433448Y-122016271D01*
X93462778Y-122052009D01*
X93462779Y-122052011D01*
X93546443Y-122208533D01*
X93546443Y-122208534D01*
X93597963Y-122378373D01*
X93615359Y-122555000D01*
X93597963Y-122731627D01*
X93571946Y-122817393D01*
X93546443Y-122901467D01*
X93472348Y-123040087D01*
X93462778Y-123057991D01*
X93433448Y-123093729D01*
X93350186Y-123195186D01*
X93248729Y-123278448D01*
X93212991Y-123307778D01*
X93212989Y-123307779D01*
X93056467Y-123391443D01*
X92999853Y-123408616D01*
X92886627Y-123442963D01*
X92820442Y-123449482D01*
X92754260Y-123456000D01*
X92665740Y-123456000D01*
X92599558Y-123449482D01*
X92533373Y-123442963D01*
X92420147Y-123408616D01*
X92363533Y-123391443D01*
X92207011Y-123307779D01*
X92207009Y-123307778D01*
X92171271Y-123278448D01*
X92069814Y-123195186D01*
X91986552Y-123093729D01*
X91957222Y-123057991D01*
X91947652Y-123040087D01*
X91873557Y-122901467D01*
X91848054Y-122817393D01*
X91822037Y-122731627D01*
X91804641Y-122555000D01*
X91822037Y-122378373D01*
X91873557Y-122208534D01*
X91873557Y-122208533D01*
X91957221Y-122052011D01*
X91957222Y-122052009D01*
X91986552Y-122016271D01*
X92069814Y-121914814D01*
X92171271Y-121831552D01*
X92207009Y-121802222D01*
X92224913Y-121792652D01*
X92363533Y-121718557D01*
X92420147Y-121701384D01*
X92533373Y-121667037D01*
X92599558Y-121660518D01*
X92665740Y-121654000D01*
X92754260Y-121654000D01*
X92820442Y-121660518D01*
X92820442Y-121660518D01*
G37*
G36*
X115436000Y-121558000D02*
X114434000Y-121558000D01*
X114434000Y-119456000D01*
X115436000Y-119456000D01*
X115436000Y-121558000D01*
X115436000Y-121558000D01*
G37*
G36*
X117976000Y-121558000D02*
X116974000Y-121558000D01*
X116974000Y-119456000D01*
X117976000Y-119456000D01*
X117976000Y-121558000D01*
X117976000Y-121558000D01*
G37*
G36*
X116706000Y-121558000D02*
X115704000Y-121558000D01*
X115704000Y-119456000D01*
X116706000Y-119456000D01*
X116706000Y-121558000D01*
X116706000Y-121558000D01*
G37*
G36*
X109086000Y-121558000D02*
X108084000Y-121558000D01*
X108084000Y-119456000D01*
X109086000Y-119456000D01*
X109086000Y-121558000D01*
X109086000Y-121558000D01*
G37*
G36*
X110356000Y-121558000D02*
X109354000Y-121558000D01*
X109354000Y-119456000D01*
X110356000Y-119456000D01*
X110356000Y-121558000D01*
X110356000Y-121558000D01*
G37*
G36*
X112896000Y-121558000D02*
X111894000Y-121558000D01*
X111894000Y-119456000D01*
X112896000Y-119456000D01*
X112896000Y-121558000D01*
X112896000Y-121558000D01*
G37*
G36*
X111626000Y-121558000D02*
X110624000Y-121558000D01*
X110624000Y-119456000D01*
X111626000Y-119456000D01*
X111626000Y-121558000D01*
X111626000Y-121558000D01*
G37*
G36*
X114166000Y-121558000D02*
X113164000Y-121558000D01*
X113164000Y-119456000D01*
X114166000Y-119456000D01*
X114166000Y-121558000D01*
X114166000Y-121558000D01*
G37*
G36*
X120516000Y-121558000D02*
X119514000Y-121558000D01*
X119514000Y-119456000D01*
X120516000Y-119456000D01*
X120516000Y-121558000D01*
X120516000Y-121558000D01*
G37*
G36*
X119246000Y-121558000D02*
X118244000Y-121558000D01*
X118244000Y-119456000D01*
X119246000Y-119456000D01*
X119246000Y-121558000D01*
X119246000Y-121558000D01*
G37*
G36*
X92820443Y-119120519D02*
X92886627Y-119127037D01*
X92999853Y-119161384D01*
X93056467Y-119178557D01*
X93195087Y-119252652D01*
X93212991Y-119262222D01*
X93248729Y-119291552D01*
X93350186Y-119374814D01*
X93433448Y-119476271D01*
X93462778Y-119512009D01*
X93462779Y-119512011D01*
X93546443Y-119668533D01*
X93546443Y-119668534D01*
X93597963Y-119838373D01*
X93615359Y-120015000D01*
X93597963Y-120191627D01*
X93563616Y-120304853D01*
X93546443Y-120361467D01*
X93472348Y-120500087D01*
X93462778Y-120517991D01*
X93433448Y-120553729D01*
X93350186Y-120655186D01*
X93248729Y-120738448D01*
X93212991Y-120767778D01*
X93212989Y-120767779D01*
X93056467Y-120851443D01*
X92999853Y-120868616D01*
X92886627Y-120902963D01*
X92820442Y-120909482D01*
X92754260Y-120916000D01*
X92665740Y-120916000D01*
X92599558Y-120909482D01*
X92533373Y-120902963D01*
X92420147Y-120868616D01*
X92363533Y-120851443D01*
X92207011Y-120767779D01*
X92207009Y-120767778D01*
X92171271Y-120738448D01*
X92069814Y-120655186D01*
X91986552Y-120553729D01*
X91957222Y-120517991D01*
X91947652Y-120500087D01*
X91873557Y-120361467D01*
X91856384Y-120304853D01*
X91822037Y-120191627D01*
X91804641Y-120015000D01*
X91822037Y-119838373D01*
X91873557Y-119668534D01*
X91873557Y-119668533D01*
X91957221Y-119512011D01*
X91957222Y-119512009D01*
X91986552Y-119476271D01*
X92069814Y-119374814D01*
X92171271Y-119291552D01*
X92207009Y-119262222D01*
X92224913Y-119252652D01*
X92363533Y-119178557D01*
X92420147Y-119161384D01*
X92533373Y-119127037D01*
X92599557Y-119120519D01*
X92665740Y-119114000D01*
X92754260Y-119114000D01*
X92820443Y-119120519D01*
X92820443Y-119120519D01*
G37*
G36*
X146160443Y-119120519D02*
X146226627Y-119127037D01*
X146339853Y-119161384D01*
X146396467Y-119178557D01*
X146535087Y-119252652D01*
X146552991Y-119262222D01*
X146588729Y-119291552D01*
X146690186Y-119374814D01*
X146773448Y-119476271D01*
X146802778Y-119512009D01*
X146802779Y-119512011D01*
X146886443Y-119668533D01*
X146886443Y-119668534D01*
X146937963Y-119838373D01*
X146955359Y-120015000D01*
X146937963Y-120191627D01*
X146903616Y-120304853D01*
X146886443Y-120361467D01*
X146812348Y-120500087D01*
X146802778Y-120517991D01*
X146773448Y-120553729D01*
X146690186Y-120655186D01*
X146588729Y-120738448D01*
X146552991Y-120767778D01*
X146552989Y-120767779D01*
X146396467Y-120851443D01*
X146339853Y-120868616D01*
X146226627Y-120902963D01*
X146160442Y-120909482D01*
X146094260Y-120916000D01*
X146005740Y-120916000D01*
X145939558Y-120909482D01*
X145873373Y-120902963D01*
X145760147Y-120868616D01*
X145703533Y-120851443D01*
X145547011Y-120767779D01*
X145547009Y-120767778D01*
X145511271Y-120738448D01*
X145409814Y-120655186D01*
X145326552Y-120553729D01*
X145297222Y-120517991D01*
X145287652Y-120500087D01*
X145213557Y-120361467D01*
X145196384Y-120304853D01*
X145162037Y-120191627D01*
X145144641Y-120015000D01*
X145162037Y-119838373D01*
X145213557Y-119668534D01*
X145213557Y-119668533D01*
X145297221Y-119512011D01*
X145297222Y-119512009D01*
X145326552Y-119476271D01*
X145409814Y-119374814D01*
X145511271Y-119291552D01*
X145547009Y-119262222D01*
X145564913Y-119252652D01*
X145703533Y-119178557D01*
X145760147Y-119161384D01*
X145873373Y-119127037D01*
X145939557Y-119120519D01*
X146005740Y-119114000D01*
X146094260Y-119114000D01*
X146160443Y-119120519D01*
X146160443Y-119120519D01*
G37*
G36*
X143620443Y-119120519D02*
X143686627Y-119127037D01*
X143799853Y-119161384D01*
X143856467Y-119178557D01*
X143995087Y-119252652D01*
X144012991Y-119262222D01*
X144048729Y-119291552D01*
X144150186Y-119374814D01*
X144233448Y-119476271D01*
X144262778Y-119512009D01*
X144262779Y-119512011D01*
X144346443Y-119668533D01*
X144346443Y-119668534D01*
X144397963Y-119838373D01*
X144415359Y-120015000D01*
X144397963Y-120191627D01*
X144363616Y-120304853D01*
X144346443Y-120361467D01*
X144272348Y-120500087D01*
X144262778Y-120517991D01*
X144233448Y-120553729D01*
X144150186Y-120655186D01*
X144048729Y-120738448D01*
X144012991Y-120767778D01*
X144012989Y-120767779D01*
X143856467Y-120851443D01*
X143799853Y-120868616D01*
X143686627Y-120902963D01*
X143620442Y-120909482D01*
X143554260Y-120916000D01*
X143465740Y-120916000D01*
X143399558Y-120909482D01*
X143333373Y-120902963D01*
X143220147Y-120868616D01*
X143163533Y-120851443D01*
X143007011Y-120767779D01*
X143007009Y-120767778D01*
X142971271Y-120738448D01*
X142869814Y-120655186D01*
X142786552Y-120553729D01*
X142757222Y-120517991D01*
X142747652Y-120500087D01*
X142673557Y-120361467D01*
X142656384Y-120304853D01*
X142622037Y-120191627D01*
X142604641Y-120015000D01*
X142622037Y-119838373D01*
X142673557Y-119668534D01*
X142673557Y-119668533D01*
X142757221Y-119512011D01*
X142757222Y-119512009D01*
X142786552Y-119476271D01*
X142869814Y-119374814D01*
X142971271Y-119291552D01*
X143007009Y-119262222D01*
X143024913Y-119252652D01*
X143163533Y-119178557D01*
X143220147Y-119161384D01*
X143333373Y-119127037D01*
X143399557Y-119120519D01*
X143465740Y-119114000D01*
X143554260Y-119114000D01*
X143620443Y-119120519D01*
X143620443Y-119120519D01*
G37*
G36*
X95360443Y-119120519D02*
X95426627Y-119127037D01*
X95539853Y-119161384D01*
X95596467Y-119178557D01*
X95735087Y-119252652D01*
X95752991Y-119262222D01*
X95788729Y-119291552D01*
X95890186Y-119374814D01*
X95973448Y-119476271D01*
X96002778Y-119512009D01*
X96002779Y-119512011D01*
X96086443Y-119668533D01*
X96086443Y-119668534D01*
X96137963Y-119838373D01*
X96155359Y-120015000D01*
X96137963Y-120191627D01*
X96103616Y-120304853D01*
X96086443Y-120361467D01*
X96012348Y-120500087D01*
X96002778Y-120517991D01*
X95973448Y-120553729D01*
X95890186Y-120655186D01*
X95788729Y-120738448D01*
X95752991Y-120767778D01*
X95752989Y-120767779D01*
X95596467Y-120851443D01*
X95539853Y-120868616D01*
X95426627Y-120902963D01*
X95360442Y-120909482D01*
X95294260Y-120916000D01*
X95205740Y-120916000D01*
X95139558Y-120909482D01*
X95073373Y-120902963D01*
X94960147Y-120868616D01*
X94903533Y-120851443D01*
X94747011Y-120767779D01*
X94747009Y-120767778D01*
X94711271Y-120738448D01*
X94609814Y-120655186D01*
X94526552Y-120553729D01*
X94497222Y-120517991D01*
X94487652Y-120500087D01*
X94413557Y-120361467D01*
X94396384Y-120304853D01*
X94362037Y-120191627D01*
X94344641Y-120015000D01*
X94362037Y-119838373D01*
X94413557Y-119668534D01*
X94413557Y-119668533D01*
X94497221Y-119512011D01*
X94497222Y-119512009D01*
X94526552Y-119476271D01*
X94609814Y-119374814D01*
X94711271Y-119291552D01*
X94747009Y-119262222D01*
X94764913Y-119252652D01*
X94903533Y-119178557D01*
X94960147Y-119161384D01*
X95073373Y-119127037D01*
X95139557Y-119120519D01*
X95205740Y-119114000D01*
X95294260Y-119114000D01*
X95360443Y-119120519D01*
X95360443Y-119120519D01*
G37*
G36*
X123851000Y-120008000D02*
X121749000Y-120008000D01*
X121749000Y-119006000D01*
X123851000Y-119006000D01*
X123851000Y-120008000D01*
X123851000Y-120008000D01*
G37*
G36*
X106851000Y-120008000D02*
X104749000Y-120008000D01*
X104749000Y-119006000D01*
X106851000Y-119006000D01*
X106851000Y-120008000D01*
X106851000Y-120008000D01*
G37*
G36*
X123851000Y-118738000D02*
X121749000Y-118738000D01*
X121749000Y-117736000D01*
X123851000Y-117736000D01*
X123851000Y-118738000D01*
X123851000Y-118738000D01*
G37*
G36*
X106851000Y-118738000D02*
X104749000Y-118738000D01*
X104749000Y-117736000D01*
X106851000Y-117736000D01*
X106851000Y-118738000D01*
X106851000Y-118738000D01*
G37*
G36*
X143620443Y-116580519D02*
X143686627Y-116587037D01*
X143799853Y-116621384D01*
X143856467Y-116638557D01*
X143995087Y-116712652D01*
X144012991Y-116722222D01*
X144048729Y-116751552D01*
X144150186Y-116834814D01*
X144233448Y-116936271D01*
X144262778Y-116972009D01*
X144262779Y-116972011D01*
X144346443Y-117128533D01*
X144346443Y-117128534D01*
X144397963Y-117298373D01*
X144415359Y-117475000D01*
X144397963Y-117651627D01*
X144372369Y-117736000D01*
X144346443Y-117821467D01*
X144272348Y-117960087D01*
X144262778Y-117977991D01*
X144233448Y-118013729D01*
X144150186Y-118115186D01*
X144048729Y-118198448D01*
X144012991Y-118227778D01*
X144012989Y-118227779D01*
X143856467Y-118311443D01*
X143799853Y-118328616D01*
X143686627Y-118362963D01*
X143620442Y-118369482D01*
X143554260Y-118376000D01*
X143465740Y-118376000D01*
X143399558Y-118369482D01*
X143333373Y-118362963D01*
X143220147Y-118328616D01*
X143163533Y-118311443D01*
X143007011Y-118227779D01*
X143007009Y-118227778D01*
X142971271Y-118198448D01*
X142869814Y-118115186D01*
X142786552Y-118013729D01*
X142757222Y-117977991D01*
X142747652Y-117960087D01*
X142673557Y-117821467D01*
X142647631Y-117736000D01*
X142622037Y-117651627D01*
X142604641Y-117475000D01*
X142622037Y-117298373D01*
X142673557Y-117128534D01*
X142673557Y-117128533D01*
X142757221Y-116972011D01*
X142757222Y-116972009D01*
X142786552Y-116936271D01*
X142869814Y-116834814D01*
X142971271Y-116751552D01*
X143007009Y-116722222D01*
X143024913Y-116712652D01*
X143163533Y-116638557D01*
X143220147Y-116621384D01*
X143333373Y-116587037D01*
X143399557Y-116580519D01*
X143465740Y-116574000D01*
X143554260Y-116574000D01*
X143620443Y-116580519D01*
X143620443Y-116580519D01*
G37*
G36*
X92820443Y-116580519D02*
X92886627Y-116587037D01*
X92999853Y-116621384D01*
X93056467Y-116638557D01*
X93195087Y-116712652D01*
X93212991Y-116722222D01*
X93248729Y-116751552D01*
X93350186Y-116834814D01*
X93433448Y-116936271D01*
X93462778Y-116972009D01*
X93462779Y-116972011D01*
X93546443Y-117128533D01*
X93546443Y-117128534D01*
X93597963Y-117298373D01*
X93615359Y-117475000D01*
X93597963Y-117651627D01*
X93572369Y-117736000D01*
X93546443Y-117821467D01*
X93472348Y-117960087D01*
X93462778Y-117977991D01*
X93433448Y-118013729D01*
X93350186Y-118115186D01*
X93248729Y-118198448D01*
X93212991Y-118227778D01*
X93212989Y-118227779D01*
X93056467Y-118311443D01*
X92999853Y-118328616D01*
X92886627Y-118362963D01*
X92820442Y-118369482D01*
X92754260Y-118376000D01*
X92665740Y-118376000D01*
X92599558Y-118369482D01*
X92533373Y-118362963D01*
X92420147Y-118328616D01*
X92363533Y-118311443D01*
X92207011Y-118227779D01*
X92207009Y-118227778D01*
X92171271Y-118198448D01*
X92069814Y-118115186D01*
X91986552Y-118013729D01*
X91957222Y-117977991D01*
X91947652Y-117960087D01*
X91873557Y-117821467D01*
X91847631Y-117736000D01*
X91822037Y-117651627D01*
X91804641Y-117475000D01*
X91822037Y-117298373D01*
X91873557Y-117128534D01*
X91873557Y-117128533D01*
X91957221Y-116972011D01*
X91957222Y-116972009D01*
X91986552Y-116936271D01*
X92069814Y-116834814D01*
X92171271Y-116751552D01*
X92207009Y-116722222D01*
X92224913Y-116712652D01*
X92363533Y-116638557D01*
X92420147Y-116621384D01*
X92533373Y-116587037D01*
X92599557Y-116580519D01*
X92665740Y-116574000D01*
X92754260Y-116574000D01*
X92820443Y-116580519D01*
X92820443Y-116580519D01*
G37*
G36*
X95360443Y-116580519D02*
X95426627Y-116587037D01*
X95539853Y-116621384D01*
X95596467Y-116638557D01*
X95735087Y-116712652D01*
X95752991Y-116722222D01*
X95788729Y-116751552D01*
X95890186Y-116834814D01*
X95973448Y-116936271D01*
X96002778Y-116972009D01*
X96002779Y-116972011D01*
X96086443Y-117128533D01*
X96086443Y-117128534D01*
X96137963Y-117298373D01*
X96155359Y-117475000D01*
X96137963Y-117651627D01*
X96112369Y-117736000D01*
X96086443Y-117821467D01*
X96012348Y-117960087D01*
X96002778Y-117977991D01*
X95973448Y-118013729D01*
X95890186Y-118115186D01*
X95788729Y-118198448D01*
X95752991Y-118227778D01*
X95752989Y-118227779D01*
X95596467Y-118311443D01*
X95539853Y-118328616D01*
X95426627Y-118362963D01*
X95360442Y-118369482D01*
X95294260Y-118376000D01*
X95205740Y-118376000D01*
X95139558Y-118369482D01*
X95073373Y-118362963D01*
X94960147Y-118328616D01*
X94903533Y-118311443D01*
X94747011Y-118227779D01*
X94747009Y-118227778D01*
X94711271Y-118198448D01*
X94609814Y-118115186D01*
X94526552Y-118013729D01*
X94497222Y-117977991D01*
X94487652Y-117960087D01*
X94413557Y-117821467D01*
X94387631Y-117736000D01*
X94362037Y-117651627D01*
X94344641Y-117475000D01*
X94362037Y-117298373D01*
X94413557Y-117128534D01*
X94413557Y-117128533D01*
X94497221Y-116972011D01*
X94497222Y-116972009D01*
X94526552Y-116936271D01*
X94609814Y-116834814D01*
X94711271Y-116751552D01*
X94747009Y-116722222D01*
X94764913Y-116712652D01*
X94903533Y-116638557D01*
X94960147Y-116621384D01*
X95073373Y-116587037D01*
X95139557Y-116580519D01*
X95205740Y-116574000D01*
X95294260Y-116574000D01*
X95360443Y-116580519D01*
X95360443Y-116580519D01*
G37*
G36*
X146160443Y-116580519D02*
X146226627Y-116587037D01*
X146339853Y-116621384D01*
X146396467Y-116638557D01*
X146535087Y-116712652D01*
X146552991Y-116722222D01*
X146588729Y-116751552D01*
X146690186Y-116834814D01*
X146773448Y-116936271D01*
X146802778Y-116972009D01*
X146802779Y-116972011D01*
X146886443Y-117128533D01*
X146886443Y-117128534D01*
X146937963Y-117298373D01*
X146955359Y-117475000D01*
X146937963Y-117651627D01*
X146912369Y-117736000D01*
X146886443Y-117821467D01*
X146812348Y-117960087D01*
X146802778Y-117977991D01*
X146773448Y-118013729D01*
X146690186Y-118115186D01*
X146588729Y-118198448D01*
X146552991Y-118227778D01*
X146552989Y-118227779D01*
X146396467Y-118311443D01*
X146339853Y-118328616D01*
X146226627Y-118362963D01*
X146160442Y-118369482D01*
X146094260Y-118376000D01*
X146005740Y-118376000D01*
X145939558Y-118369482D01*
X145873373Y-118362963D01*
X145760147Y-118328616D01*
X145703533Y-118311443D01*
X145547011Y-118227779D01*
X145547009Y-118227778D01*
X145511271Y-118198448D01*
X145409814Y-118115186D01*
X145326552Y-118013729D01*
X145297222Y-117977991D01*
X145287652Y-117960087D01*
X145213557Y-117821467D01*
X145187631Y-117736000D01*
X145162037Y-117651627D01*
X145144641Y-117475000D01*
X145162037Y-117298373D01*
X145213557Y-117128534D01*
X145213557Y-117128533D01*
X145297221Y-116972011D01*
X145297222Y-116972009D01*
X145326552Y-116936271D01*
X145409814Y-116834814D01*
X145511271Y-116751552D01*
X145547009Y-116722222D01*
X145564913Y-116712652D01*
X145703533Y-116638557D01*
X145760147Y-116621384D01*
X145873373Y-116587037D01*
X145939557Y-116580519D01*
X146005740Y-116574000D01*
X146094260Y-116574000D01*
X146160443Y-116580519D01*
X146160443Y-116580519D01*
G37*
G36*
X123851000Y-117468000D02*
X121749000Y-117468000D01*
X121749000Y-116466000D01*
X123851000Y-116466000D01*
X123851000Y-117468000D01*
X123851000Y-117468000D01*
G37*
G36*
X106851000Y-117468000D02*
X104749000Y-117468000D01*
X104749000Y-116466000D01*
X106851000Y-116466000D01*
X106851000Y-117468000D01*
X106851000Y-117468000D01*
G37*
G36*
X123851000Y-116198000D02*
X121749000Y-116198000D01*
X121749000Y-115196000D01*
X123851000Y-115196000D01*
X123851000Y-116198000D01*
X123851000Y-116198000D01*
G37*
G36*
X106851000Y-116198000D02*
X104749000Y-116198000D01*
X104749000Y-115196000D01*
X106851000Y-115196000D01*
X106851000Y-116198000D01*
X106851000Y-116198000D01*
G37*
G36*
X143620442Y-114040518D02*
X143686627Y-114047037D01*
X143799853Y-114081384D01*
X143856467Y-114098557D01*
X143995087Y-114172652D01*
X144012991Y-114182222D01*
X144048729Y-114211552D01*
X144150186Y-114294814D01*
X144233448Y-114396271D01*
X144262778Y-114432009D01*
X144262779Y-114432011D01*
X144346443Y-114588533D01*
X144346443Y-114588534D01*
X144397963Y-114758373D01*
X144415359Y-114935000D01*
X144397963Y-115111627D01*
X144372369Y-115196000D01*
X144346443Y-115281467D01*
X144272348Y-115420087D01*
X144262778Y-115437991D01*
X144233448Y-115473729D01*
X144150186Y-115575186D01*
X144048729Y-115658448D01*
X144012991Y-115687778D01*
X144012989Y-115687779D01*
X143856467Y-115771443D01*
X143799853Y-115788616D01*
X143686627Y-115822963D01*
X143620443Y-115829481D01*
X143554260Y-115836000D01*
X143465740Y-115836000D01*
X143399557Y-115829481D01*
X143333373Y-115822963D01*
X143220147Y-115788616D01*
X143163533Y-115771443D01*
X143007011Y-115687779D01*
X143007009Y-115687778D01*
X142971271Y-115658448D01*
X142869814Y-115575186D01*
X142786552Y-115473729D01*
X142757222Y-115437991D01*
X142747652Y-115420087D01*
X142673557Y-115281467D01*
X142647631Y-115196000D01*
X142622037Y-115111627D01*
X142604641Y-114935000D01*
X142622037Y-114758373D01*
X142673557Y-114588534D01*
X142673557Y-114588533D01*
X142757221Y-114432011D01*
X142757222Y-114432009D01*
X142786552Y-114396271D01*
X142869814Y-114294814D01*
X142971271Y-114211552D01*
X143007009Y-114182222D01*
X143024913Y-114172652D01*
X143163533Y-114098557D01*
X143220147Y-114081384D01*
X143333373Y-114047037D01*
X143399558Y-114040518D01*
X143465740Y-114034000D01*
X143554260Y-114034000D01*
X143620442Y-114040518D01*
X143620442Y-114040518D01*
G37*
G36*
X92820442Y-114040518D02*
X92886627Y-114047037D01*
X92999853Y-114081384D01*
X93056467Y-114098557D01*
X93195087Y-114172652D01*
X93212991Y-114182222D01*
X93248729Y-114211552D01*
X93350186Y-114294814D01*
X93433448Y-114396271D01*
X93462778Y-114432009D01*
X93462779Y-114432011D01*
X93546443Y-114588533D01*
X93546443Y-114588534D01*
X93597963Y-114758373D01*
X93615359Y-114935000D01*
X93597963Y-115111627D01*
X93572369Y-115196000D01*
X93546443Y-115281467D01*
X93472348Y-115420087D01*
X93462778Y-115437991D01*
X93433448Y-115473729D01*
X93350186Y-115575186D01*
X93248729Y-115658448D01*
X93212991Y-115687778D01*
X93212989Y-115687779D01*
X93056467Y-115771443D01*
X92999853Y-115788616D01*
X92886627Y-115822963D01*
X92820443Y-115829481D01*
X92754260Y-115836000D01*
X92665740Y-115836000D01*
X92599557Y-115829481D01*
X92533373Y-115822963D01*
X92420147Y-115788616D01*
X92363533Y-115771443D01*
X92207011Y-115687779D01*
X92207009Y-115687778D01*
X92171271Y-115658448D01*
X92069814Y-115575186D01*
X91986552Y-115473729D01*
X91957222Y-115437991D01*
X91947652Y-115420087D01*
X91873557Y-115281467D01*
X91847631Y-115196000D01*
X91822037Y-115111627D01*
X91804641Y-114935000D01*
X91822037Y-114758373D01*
X91873557Y-114588534D01*
X91873557Y-114588533D01*
X91957221Y-114432011D01*
X91957222Y-114432009D01*
X91986552Y-114396271D01*
X92069814Y-114294814D01*
X92171271Y-114211552D01*
X92207009Y-114182222D01*
X92224913Y-114172652D01*
X92363533Y-114098557D01*
X92420147Y-114081384D01*
X92533373Y-114047037D01*
X92599558Y-114040518D01*
X92665740Y-114034000D01*
X92754260Y-114034000D01*
X92820442Y-114040518D01*
X92820442Y-114040518D01*
G37*
G36*
X146160442Y-114040518D02*
X146226627Y-114047037D01*
X146339853Y-114081384D01*
X146396467Y-114098557D01*
X146535087Y-114172652D01*
X146552991Y-114182222D01*
X146588729Y-114211552D01*
X146690186Y-114294814D01*
X146773448Y-114396271D01*
X146802778Y-114432009D01*
X146802779Y-114432011D01*
X146886443Y-114588533D01*
X146886443Y-114588534D01*
X146937963Y-114758373D01*
X146955359Y-114935000D01*
X146937963Y-115111627D01*
X146912369Y-115196000D01*
X146886443Y-115281467D01*
X146812348Y-115420087D01*
X146802778Y-115437991D01*
X146773448Y-115473729D01*
X146690186Y-115575186D01*
X146588729Y-115658448D01*
X146552991Y-115687778D01*
X146552989Y-115687779D01*
X146396467Y-115771443D01*
X146339853Y-115788616D01*
X146226627Y-115822963D01*
X146160443Y-115829481D01*
X146094260Y-115836000D01*
X146005740Y-115836000D01*
X145939557Y-115829481D01*
X145873373Y-115822963D01*
X145760147Y-115788616D01*
X145703533Y-115771443D01*
X145547011Y-115687779D01*
X145547009Y-115687778D01*
X145511271Y-115658448D01*
X145409814Y-115575186D01*
X145326552Y-115473729D01*
X145297222Y-115437991D01*
X145287652Y-115420087D01*
X145213557Y-115281467D01*
X145187631Y-115196000D01*
X145162037Y-115111627D01*
X145144641Y-114935000D01*
X145162037Y-114758373D01*
X145213557Y-114588534D01*
X145213557Y-114588533D01*
X145297221Y-114432011D01*
X145297222Y-114432009D01*
X145326552Y-114396271D01*
X145409814Y-114294814D01*
X145511271Y-114211552D01*
X145547009Y-114182222D01*
X145564913Y-114172652D01*
X145703533Y-114098557D01*
X145760147Y-114081384D01*
X145873373Y-114047037D01*
X145939558Y-114040518D01*
X146005740Y-114034000D01*
X146094260Y-114034000D01*
X146160442Y-114040518D01*
X146160442Y-114040518D01*
G37*
G36*
X95360442Y-114040518D02*
X95426627Y-114047037D01*
X95539853Y-114081384D01*
X95596467Y-114098557D01*
X95735087Y-114172652D01*
X95752991Y-114182222D01*
X95788729Y-114211552D01*
X95890186Y-114294814D01*
X95973448Y-114396271D01*
X96002778Y-114432009D01*
X96002779Y-114432011D01*
X96086443Y-114588533D01*
X96086443Y-114588534D01*
X96137963Y-114758373D01*
X96155359Y-114935000D01*
X96137963Y-115111627D01*
X96112369Y-115196000D01*
X96086443Y-115281467D01*
X96012348Y-115420087D01*
X96002778Y-115437991D01*
X95973448Y-115473729D01*
X95890186Y-115575186D01*
X95788729Y-115658448D01*
X95752991Y-115687778D01*
X95752989Y-115687779D01*
X95596467Y-115771443D01*
X95539853Y-115788616D01*
X95426627Y-115822963D01*
X95360443Y-115829481D01*
X95294260Y-115836000D01*
X95205740Y-115836000D01*
X95139557Y-115829481D01*
X95073373Y-115822963D01*
X94960147Y-115788616D01*
X94903533Y-115771443D01*
X94747011Y-115687779D01*
X94747009Y-115687778D01*
X94711271Y-115658448D01*
X94609814Y-115575186D01*
X94526552Y-115473729D01*
X94497222Y-115437991D01*
X94487652Y-115420087D01*
X94413557Y-115281467D01*
X94387631Y-115196000D01*
X94362037Y-115111627D01*
X94344641Y-114935000D01*
X94362037Y-114758373D01*
X94413557Y-114588534D01*
X94413557Y-114588533D01*
X94497221Y-114432011D01*
X94497222Y-114432009D01*
X94526552Y-114396271D01*
X94609814Y-114294814D01*
X94711271Y-114211552D01*
X94747009Y-114182222D01*
X94764913Y-114172652D01*
X94903533Y-114098557D01*
X94960147Y-114081384D01*
X95073373Y-114047037D01*
X95139558Y-114040518D01*
X95205740Y-114034000D01*
X95294260Y-114034000D01*
X95360442Y-114040518D01*
X95360442Y-114040518D01*
G37*
G36*
X106851000Y-114928000D02*
X104749000Y-114928000D01*
X104749000Y-113926000D01*
X106851000Y-113926000D01*
X106851000Y-114928000D01*
X106851000Y-114928000D01*
G37*
G36*
X123851000Y-114928000D02*
X121749000Y-114928000D01*
X121749000Y-113926000D01*
X123851000Y-113926000D01*
X123851000Y-114928000D01*
X123851000Y-114928000D01*
G37*
G36*
X123851000Y-113658000D02*
X121749000Y-113658000D01*
X121749000Y-112656000D01*
X123851000Y-112656000D01*
X123851000Y-113658000D01*
X123851000Y-113658000D01*
G37*
G36*
X106851000Y-113658000D02*
X104749000Y-113658000D01*
X104749000Y-112656000D01*
X106851000Y-112656000D01*
X106851000Y-113658000D01*
X106851000Y-113658000D01*
G37*
G36*
X146160443Y-111500519D02*
X146226627Y-111507037D01*
X146339853Y-111541384D01*
X146396467Y-111558557D01*
X146535087Y-111632652D01*
X146552991Y-111642222D01*
X146588729Y-111671552D01*
X146690186Y-111754814D01*
X146773448Y-111856271D01*
X146802778Y-111892009D01*
X146802779Y-111892011D01*
X146886443Y-112048533D01*
X146886443Y-112048534D01*
X146937963Y-112218373D01*
X146955359Y-112395000D01*
X146937963Y-112571627D01*
X146912369Y-112656000D01*
X146886443Y-112741467D01*
X146812348Y-112880087D01*
X146802778Y-112897991D01*
X146773448Y-112933729D01*
X146690186Y-113035186D01*
X146588729Y-113118448D01*
X146552991Y-113147778D01*
X146552989Y-113147779D01*
X146396467Y-113231443D01*
X146339853Y-113248616D01*
X146226627Y-113282963D01*
X146160443Y-113289481D01*
X146094260Y-113296000D01*
X146005740Y-113296000D01*
X145939557Y-113289481D01*
X145873373Y-113282963D01*
X145760147Y-113248616D01*
X145703533Y-113231443D01*
X145547011Y-113147779D01*
X145547009Y-113147778D01*
X145511271Y-113118448D01*
X145409814Y-113035186D01*
X145326552Y-112933729D01*
X145297222Y-112897991D01*
X145287652Y-112880087D01*
X145213557Y-112741467D01*
X145187631Y-112656000D01*
X145162037Y-112571627D01*
X145144641Y-112395000D01*
X145162037Y-112218373D01*
X145213557Y-112048534D01*
X145213557Y-112048533D01*
X145297221Y-111892011D01*
X145297222Y-111892009D01*
X145326552Y-111856271D01*
X145409814Y-111754814D01*
X145511271Y-111671552D01*
X145547009Y-111642222D01*
X145564913Y-111632652D01*
X145703533Y-111558557D01*
X145760147Y-111541384D01*
X145873373Y-111507037D01*
X145939557Y-111500519D01*
X146005740Y-111494000D01*
X146094260Y-111494000D01*
X146160443Y-111500519D01*
X146160443Y-111500519D01*
G37*
G36*
X143620443Y-111500519D02*
X143686627Y-111507037D01*
X143799853Y-111541384D01*
X143856467Y-111558557D01*
X143995087Y-111632652D01*
X144012991Y-111642222D01*
X144048729Y-111671552D01*
X144150186Y-111754814D01*
X144233448Y-111856271D01*
X144262778Y-111892009D01*
X144262779Y-111892011D01*
X144346443Y-112048533D01*
X144346443Y-112048534D01*
X144397963Y-112218373D01*
X144415359Y-112395000D01*
X144397963Y-112571627D01*
X144372369Y-112656000D01*
X144346443Y-112741467D01*
X144272348Y-112880087D01*
X144262778Y-112897991D01*
X144233448Y-112933729D01*
X144150186Y-113035186D01*
X144048729Y-113118448D01*
X144012991Y-113147778D01*
X144012989Y-113147779D01*
X143856467Y-113231443D01*
X143799853Y-113248616D01*
X143686627Y-113282963D01*
X143620443Y-113289481D01*
X143554260Y-113296000D01*
X143465740Y-113296000D01*
X143399557Y-113289481D01*
X143333373Y-113282963D01*
X143220147Y-113248616D01*
X143163533Y-113231443D01*
X143007011Y-113147779D01*
X143007009Y-113147778D01*
X142971271Y-113118448D01*
X142869814Y-113035186D01*
X142786552Y-112933729D01*
X142757222Y-112897991D01*
X142747652Y-112880087D01*
X142673557Y-112741467D01*
X142647631Y-112656000D01*
X142622037Y-112571627D01*
X142604641Y-112395000D01*
X142622037Y-112218373D01*
X142673557Y-112048534D01*
X142673557Y-112048533D01*
X142757221Y-111892011D01*
X142757222Y-111892009D01*
X142786552Y-111856271D01*
X142869814Y-111754814D01*
X142971271Y-111671552D01*
X143007009Y-111642222D01*
X143024913Y-111632652D01*
X143163533Y-111558557D01*
X143220147Y-111541384D01*
X143333373Y-111507037D01*
X143399557Y-111500519D01*
X143465740Y-111494000D01*
X143554260Y-111494000D01*
X143620443Y-111500519D01*
X143620443Y-111500519D01*
G37*
G36*
X92820443Y-111500519D02*
X92886627Y-111507037D01*
X92999853Y-111541384D01*
X93056467Y-111558557D01*
X93195087Y-111632652D01*
X93212991Y-111642222D01*
X93248729Y-111671552D01*
X93350186Y-111754814D01*
X93433448Y-111856271D01*
X93462778Y-111892009D01*
X93462779Y-111892011D01*
X93546443Y-112048533D01*
X93546443Y-112048534D01*
X93597963Y-112218373D01*
X93615359Y-112395000D01*
X93597963Y-112571627D01*
X93572369Y-112656000D01*
X93546443Y-112741467D01*
X93472348Y-112880087D01*
X93462778Y-112897991D01*
X93433448Y-112933729D01*
X93350186Y-113035186D01*
X93248729Y-113118448D01*
X93212991Y-113147778D01*
X93212989Y-113147779D01*
X93056467Y-113231443D01*
X92999853Y-113248616D01*
X92886627Y-113282963D01*
X92820443Y-113289481D01*
X92754260Y-113296000D01*
X92665740Y-113296000D01*
X92599557Y-113289481D01*
X92533373Y-113282963D01*
X92420147Y-113248616D01*
X92363533Y-113231443D01*
X92207011Y-113147779D01*
X92207009Y-113147778D01*
X92171271Y-113118448D01*
X92069814Y-113035186D01*
X91986552Y-112933729D01*
X91957222Y-112897991D01*
X91947652Y-112880087D01*
X91873557Y-112741467D01*
X91847631Y-112656000D01*
X91822037Y-112571627D01*
X91804641Y-112395000D01*
X91822037Y-112218373D01*
X91873557Y-112048534D01*
X91873557Y-112048533D01*
X91957221Y-111892011D01*
X91957222Y-111892009D01*
X91986552Y-111856271D01*
X92069814Y-111754814D01*
X92171271Y-111671552D01*
X92207009Y-111642222D01*
X92224913Y-111632652D01*
X92363533Y-111558557D01*
X92420147Y-111541384D01*
X92533373Y-111507037D01*
X92599557Y-111500519D01*
X92665740Y-111494000D01*
X92754260Y-111494000D01*
X92820443Y-111500519D01*
X92820443Y-111500519D01*
G37*
G36*
X95360443Y-111500519D02*
X95426627Y-111507037D01*
X95539853Y-111541384D01*
X95596467Y-111558557D01*
X95735087Y-111632652D01*
X95752991Y-111642222D01*
X95788729Y-111671552D01*
X95890186Y-111754814D01*
X95973448Y-111856271D01*
X96002778Y-111892009D01*
X96002779Y-111892011D01*
X96086443Y-112048533D01*
X96086443Y-112048534D01*
X96137963Y-112218373D01*
X96155359Y-112395000D01*
X96137963Y-112571627D01*
X96112369Y-112656000D01*
X96086443Y-112741467D01*
X96012348Y-112880087D01*
X96002778Y-112897991D01*
X95973448Y-112933729D01*
X95890186Y-113035186D01*
X95788729Y-113118448D01*
X95752991Y-113147778D01*
X95752989Y-113147779D01*
X95596467Y-113231443D01*
X95539853Y-113248616D01*
X95426627Y-113282963D01*
X95360443Y-113289481D01*
X95294260Y-113296000D01*
X95205740Y-113296000D01*
X95139557Y-113289481D01*
X95073373Y-113282963D01*
X94960147Y-113248616D01*
X94903533Y-113231443D01*
X94747011Y-113147779D01*
X94747009Y-113147778D01*
X94711271Y-113118448D01*
X94609814Y-113035186D01*
X94526552Y-112933729D01*
X94497222Y-112897991D01*
X94487652Y-112880087D01*
X94413557Y-112741467D01*
X94387631Y-112656000D01*
X94362037Y-112571627D01*
X94344641Y-112395000D01*
X94362037Y-112218373D01*
X94413557Y-112048534D01*
X94413557Y-112048533D01*
X94497221Y-111892011D01*
X94497222Y-111892009D01*
X94526552Y-111856271D01*
X94609814Y-111754814D01*
X94711271Y-111671552D01*
X94747009Y-111642222D01*
X94764913Y-111632652D01*
X94903533Y-111558557D01*
X94960147Y-111541384D01*
X95073373Y-111507037D01*
X95139557Y-111500519D01*
X95205740Y-111494000D01*
X95294260Y-111494000D01*
X95360443Y-111500519D01*
X95360443Y-111500519D01*
G37*
G36*
X115851000Y-113048000D02*
X110749000Y-113048000D01*
X110749000Y-107946000D01*
X115851000Y-107946000D01*
X115851000Y-113048000D01*
X115851000Y-113048000D01*
G37*
G36*
X106851000Y-112388000D02*
X104749000Y-112388000D01*
X104749000Y-111386000D01*
X106851000Y-111386000D01*
X106851000Y-112388000D01*
X106851000Y-112388000D01*
G37*
G36*
X123851000Y-112388000D02*
X121749000Y-112388000D01*
X121749000Y-111386000D01*
X123851000Y-111386000D01*
X123851000Y-112388000D01*
X123851000Y-112388000D01*
G37*
G36*
X101344591Y-110386585D02*
X101378569Y-110396893D01*
X101409887Y-110413633D01*
X101437339Y-110436161D01*
X101459867Y-110463613D01*
X101476607Y-110494931D01*
X101486915Y-110528909D01*
X101491000Y-110570390D01*
X101491000Y-111171610D01*
X101486915Y-111213091D01*
X101476607Y-111247069D01*
X101459867Y-111278387D01*
X101437339Y-111305839D01*
X101409887Y-111328367D01*
X101378569Y-111345107D01*
X101344591Y-111355415D01*
X101303110Y-111359500D01*
X100626890Y-111359500D01*
X100585409Y-111355415D01*
X100551431Y-111345107D01*
X100520113Y-111328367D01*
X100492661Y-111305839D01*
X100470133Y-111278387D01*
X100453393Y-111247069D01*
X100443085Y-111213091D01*
X100439000Y-111171610D01*
X100439000Y-110570390D01*
X100443085Y-110528909D01*
X100453393Y-110494931D01*
X100470133Y-110463613D01*
X100492661Y-110436161D01*
X100520113Y-110413633D01*
X100551431Y-110396893D01*
X100585409Y-110386585D01*
X100626890Y-110382500D01*
X101303110Y-110382500D01*
X101344591Y-110386585D01*
X101344591Y-110386585D01*
G37*
G36*
X102868591Y-110386585D02*
X102902569Y-110396893D01*
X102933887Y-110413633D01*
X102961339Y-110436161D01*
X102983867Y-110463613D01*
X103000607Y-110494931D01*
X103010915Y-110528909D01*
X103015000Y-110570390D01*
X103015000Y-111171610D01*
X103010915Y-111213091D01*
X103000607Y-111247069D01*
X102983867Y-111278387D01*
X102961339Y-111305839D01*
X102933887Y-111328367D01*
X102902569Y-111345107D01*
X102868591Y-111355415D01*
X102827110Y-111359500D01*
X102150890Y-111359500D01*
X102109409Y-111355415D01*
X102075431Y-111345107D01*
X102044113Y-111328367D01*
X102016661Y-111305839D01*
X101994133Y-111278387D01*
X101977393Y-111247069D01*
X101967085Y-111213091D01*
X101963000Y-111171610D01*
X101963000Y-110570390D01*
X101967085Y-110528909D01*
X101977393Y-110494931D01*
X101994133Y-110463613D01*
X102016661Y-110436161D01*
X102044113Y-110413633D01*
X102075431Y-110396893D01*
X102109409Y-110386585D01*
X102150890Y-110382500D01*
X102827110Y-110382500D01*
X102868591Y-110386585D01*
X102868591Y-110386585D01*
G37*
G36*
X99820591Y-110386585D02*
X99854569Y-110396893D01*
X99885887Y-110413633D01*
X99913339Y-110436161D01*
X99935867Y-110463613D01*
X99952607Y-110494931D01*
X99962915Y-110528909D01*
X99967000Y-110570390D01*
X99967000Y-111171610D01*
X99962915Y-111213091D01*
X99952607Y-111247069D01*
X99935867Y-111278387D01*
X99913339Y-111305839D01*
X99885887Y-111328367D01*
X99854569Y-111345107D01*
X99820591Y-111355415D01*
X99779110Y-111359500D01*
X99102890Y-111359500D01*
X99061409Y-111355415D01*
X99027431Y-111345107D01*
X98996113Y-111328367D01*
X98968661Y-111305839D01*
X98946133Y-111278387D01*
X98929393Y-111247069D01*
X98919085Y-111213091D01*
X98915000Y-111171610D01*
X98915000Y-110570390D01*
X98919085Y-110528909D01*
X98929393Y-110494931D01*
X98946133Y-110463613D01*
X98968661Y-110436161D01*
X98996113Y-110413633D01*
X99027431Y-110396893D01*
X99061409Y-110386585D01*
X99102890Y-110382500D01*
X99779110Y-110382500D01*
X99820591Y-110386585D01*
X99820591Y-110386585D01*
G37*
G36*
X98296591Y-110386585D02*
X98330569Y-110396893D01*
X98361887Y-110413633D01*
X98389339Y-110436161D01*
X98411867Y-110463613D01*
X98428607Y-110494931D01*
X98438915Y-110528909D01*
X98443000Y-110570390D01*
X98443000Y-111171610D01*
X98438915Y-111213091D01*
X98428607Y-111247069D01*
X98411867Y-111278387D01*
X98389339Y-111305839D01*
X98361887Y-111328367D01*
X98330569Y-111345107D01*
X98296591Y-111355415D01*
X98255110Y-111359500D01*
X97578890Y-111359500D01*
X97537409Y-111355415D01*
X97503431Y-111345107D01*
X97472113Y-111328367D01*
X97444661Y-111305839D01*
X97422133Y-111278387D01*
X97405393Y-111247069D01*
X97395085Y-111213091D01*
X97391000Y-111171610D01*
X97391000Y-110570390D01*
X97395085Y-110528909D01*
X97405393Y-110494931D01*
X97422133Y-110463613D01*
X97444661Y-110436161D01*
X97472113Y-110413633D01*
X97503431Y-110396893D01*
X97537409Y-110386585D01*
X97578890Y-110382500D01*
X98255110Y-110382500D01*
X98296591Y-110386585D01*
X98296591Y-110386585D01*
G37*
G36*
X123851000Y-111118000D02*
X121749000Y-111118000D01*
X121749000Y-110116000D01*
X123851000Y-110116000D01*
X123851000Y-111118000D01*
X123851000Y-111118000D01*
G37*
G36*
X106851000Y-111118000D02*
X104749000Y-111118000D01*
X104749000Y-110116000D01*
X106851000Y-110116000D01*
X106851000Y-111118000D01*
X106851000Y-111118000D01*
G37*
G36*
X146160443Y-108960519D02*
X146226627Y-108967037D01*
X146320094Y-108995390D01*
X146396467Y-109018557D01*
X146483822Y-109065250D01*
X146552991Y-109102222D01*
X146588729Y-109131552D01*
X146690186Y-109214814D01*
X146773448Y-109316271D01*
X146802778Y-109352009D01*
X146802779Y-109352011D01*
X146886443Y-109508533D01*
X146886443Y-109508534D01*
X146937963Y-109678373D01*
X146955359Y-109855000D01*
X146937963Y-110031627D01*
X146912369Y-110116000D01*
X146886443Y-110201467D01*
X146812348Y-110340087D01*
X146802778Y-110357991D01*
X146782664Y-110382500D01*
X146690186Y-110495186D01*
X146598548Y-110570390D01*
X146552991Y-110607778D01*
X146552989Y-110607779D01*
X146396467Y-110691443D01*
X146339853Y-110708616D01*
X146226627Y-110742963D01*
X146160442Y-110749482D01*
X146094260Y-110756000D01*
X146005740Y-110756000D01*
X145939558Y-110749482D01*
X145873373Y-110742963D01*
X145760147Y-110708616D01*
X145703533Y-110691443D01*
X145547011Y-110607779D01*
X145547009Y-110607778D01*
X145501452Y-110570390D01*
X145409814Y-110495186D01*
X145317336Y-110382500D01*
X145297222Y-110357991D01*
X145287652Y-110340087D01*
X145213557Y-110201467D01*
X145187631Y-110116000D01*
X145162037Y-110031627D01*
X145144641Y-109855000D01*
X145162037Y-109678373D01*
X145213557Y-109508534D01*
X145213557Y-109508533D01*
X145297221Y-109352011D01*
X145297222Y-109352009D01*
X145326552Y-109316271D01*
X145409814Y-109214814D01*
X145511271Y-109131552D01*
X145547009Y-109102222D01*
X145616178Y-109065250D01*
X145703533Y-109018557D01*
X145779906Y-108995390D01*
X145873373Y-108967037D01*
X145939557Y-108960519D01*
X146005740Y-108954000D01*
X146094260Y-108954000D01*
X146160443Y-108960519D01*
X146160443Y-108960519D01*
G37*
G36*
X95360443Y-108960519D02*
X95426627Y-108967037D01*
X95520094Y-108995390D01*
X95596467Y-109018557D01*
X95683822Y-109065250D01*
X95752991Y-109102222D01*
X95788729Y-109131552D01*
X95890186Y-109214814D01*
X95973448Y-109316271D01*
X96002778Y-109352009D01*
X96002779Y-109352011D01*
X96086443Y-109508533D01*
X96086443Y-109508534D01*
X96137963Y-109678373D01*
X96155359Y-109855000D01*
X96137963Y-110031627D01*
X96112369Y-110116000D01*
X96086443Y-110201467D01*
X96012348Y-110340087D01*
X96002778Y-110357991D01*
X95982664Y-110382500D01*
X95890186Y-110495186D01*
X95798548Y-110570390D01*
X95752991Y-110607778D01*
X95752989Y-110607779D01*
X95596467Y-110691443D01*
X95539853Y-110708616D01*
X95426627Y-110742963D01*
X95360442Y-110749482D01*
X95294260Y-110756000D01*
X95205740Y-110756000D01*
X95139558Y-110749482D01*
X95073373Y-110742963D01*
X94960147Y-110708616D01*
X94903533Y-110691443D01*
X94747011Y-110607779D01*
X94747009Y-110607778D01*
X94701452Y-110570390D01*
X94609814Y-110495186D01*
X94517336Y-110382500D01*
X94497222Y-110357991D01*
X94487652Y-110340087D01*
X94413557Y-110201467D01*
X94387631Y-110116000D01*
X94362037Y-110031627D01*
X94344641Y-109855000D01*
X94362037Y-109678373D01*
X94413557Y-109508534D01*
X94413557Y-109508533D01*
X94497221Y-109352011D01*
X94497222Y-109352009D01*
X94526552Y-109316271D01*
X94609814Y-109214814D01*
X94711271Y-109131552D01*
X94747009Y-109102222D01*
X94816178Y-109065250D01*
X94903533Y-109018557D01*
X94979906Y-108995390D01*
X95073373Y-108967037D01*
X95139557Y-108960519D01*
X95205740Y-108954000D01*
X95294260Y-108954000D01*
X95360443Y-108960519D01*
X95360443Y-108960519D01*
G37*
G36*
X92820443Y-108960519D02*
X92886627Y-108967037D01*
X92980094Y-108995390D01*
X93056467Y-109018557D01*
X93143822Y-109065250D01*
X93212991Y-109102222D01*
X93248729Y-109131552D01*
X93350186Y-109214814D01*
X93433448Y-109316271D01*
X93462778Y-109352009D01*
X93462779Y-109352011D01*
X93546443Y-109508533D01*
X93546443Y-109508534D01*
X93597963Y-109678373D01*
X93615359Y-109855000D01*
X93597963Y-110031627D01*
X93572369Y-110116000D01*
X93546443Y-110201467D01*
X93472348Y-110340087D01*
X93462778Y-110357991D01*
X93442664Y-110382500D01*
X93350186Y-110495186D01*
X93258548Y-110570390D01*
X93212991Y-110607778D01*
X93212989Y-110607779D01*
X93056467Y-110691443D01*
X92999853Y-110708616D01*
X92886627Y-110742963D01*
X92820442Y-110749482D01*
X92754260Y-110756000D01*
X92665740Y-110756000D01*
X92599558Y-110749482D01*
X92533373Y-110742963D01*
X92420147Y-110708616D01*
X92363533Y-110691443D01*
X92207011Y-110607779D01*
X92207009Y-110607778D01*
X92161452Y-110570390D01*
X92069814Y-110495186D01*
X91977336Y-110382500D01*
X91957222Y-110357991D01*
X91947652Y-110340087D01*
X91873557Y-110201467D01*
X91847631Y-110116000D01*
X91822037Y-110031627D01*
X91804641Y-109855000D01*
X91822037Y-109678373D01*
X91873557Y-109508534D01*
X91873557Y-109508533D01*
X91957221Y-109352011D01*
X91957222Y-109352009D01*
X91986552Y-109316271D01*
X92069814Y-109214814D01*
X92171271Y-109131552D01*
X92207009Y-109102222D01*
X92276178Y-109065250D01*
X92363533Y-109018557D01*
X92439906Y-108995390D01*
X92533373Y-108967037D01*
X92599557Y-108960519D01*
X92665740Y-108954000D01*
X92754260Y-108954000D01*
X92820443Y-108960519D01*
X92820443Y-108960519D01*
G37*
G36*
X143620443Y-108960519D02*
X143686627Y-108967037D01*
X143780094Y-108995390D01*
X143856467Y-109018557D01*
X143943822Y-109065250D01*
X144012991Y-109102222D01*
X144048729Y-109131552D01*
X144150186Y-109214814D01*
X144233448Y-109316271D01*
X144262778Y-109352009D01*
X144262779Y-109352011D01*
X144346443Y-109508533D01*
X144346443Y-109508534D01*
X144397963Y-109678373D01*
X144415359Y-109855000D01*
X144397963Y-110031627D01*
X144372369Y-110116000D01*
X144346443Y-110201467D01*
X144272348Y-110340087D01*
X144262778Y-110357991D01*
X144242664Y-110382500D01*
X144150186Y-110495186D01*
X144058548Y-110570390D01*
X144012991Y-110607778D01*
X144012989Y-110607779D01*
X143856467Y-110691443D01*
X143799853Y-110708616D01*
X143686627Y-110742963D01*
X143620442Y-110749482D01*
X143554260Y-110756000D01*
X143465740Y-110756000D01*
X143399558Y-110749482D01*
X143333373Y-110742963D01*
X143220147Y-110708616D01*
X143163533Y-110691443D01*
X143007011Y-110607779D01*
X143007009Y-110607778D01*
X142961452Y-110570390D01*
X142869814Y-110495186D01*
X142777336Y-110382500D01*
X142757222Y-110357991D01*
X142747652Y-110340087D01*
X142673557Y-110201467D01*
X142647631Y-110116000D01*
X142622037Y-110031627D01*
X142604641Y-109855000D01*
X142622037Y-109678373D01*
X142673557Y-109508534D01*
X142673557Y-109508533D01*
X142757221Y-109352011D01*
X142757222Y-109352009D01*
X142786552Y-109316271D01*
X142869814Y-109214814D01*
X142971271Y-109131552D01*
X143007009Y-109102222D01*
X143076178Y-109065250D01*
X143163533Y-109018557D01*
X143239906Y-108995390D01*
X143333373Y-108967037D01*
X143399557Y-108960519D01*
X143465740Y-108954000D01*
X143554260Y-108954000D01*
X143620443Y-108960519D01*
X143620443Y-108960519D01*
G37*
G36*
X125767091Y-108825085D02*
X125801069Y-108835393D01*
X125832387Y-108852133D01*
X125859839Y-108874661D01*
X125882367Y-108902113D01*
X125899107Y-108933431D01*
X125909415Y-108967409D01*
X125913500Y-109008890D01*
X125913500Y-109685110D01*
X125909415Y-109726591D01*
X125899107Y-109760569D01*
X125882367Y-109791887D01*
X125859839Y-109819339D01*
X125832387Y-109841867D01*
X125801069Y-109858607D01*
X125767091Y-109868915D01*
X125725610Y-109873000D01*
X125124390Y-109873000D01*
X125082909Y-109868915D01*
X125048931Y-109858607D01*
X125017613Y-109841867D01*
X124990161Y-109819339D01*
X124967633Y-109791887D01*
X124950893Y-109760569D01*
X124940585Y-109726591D01*
X124936500Y-109685110D01*
X124936500Y-109008890D01*
X124940585Y-108967409D01*
X124950893Y-108933431D01*
X124967633Y-108902113D01*
X124990161Y-108874661D01*
X125017613Y-108852133D01*
X125048931Y-108835393D01*
X125082909Y-108825085D01*
X125124390Y-108821000D01*
X125725610Y-108821000D01*
X125767091Y-108825085D01*
X125767091Y-108825085D01*
G37*
G36*
X127342091Y-108825085D02*
X127376069Y-108835393D01*
X127407387Y-108852133D01*
X127434839Y-108874661D01*
X127457367Y-108902113D01*
X127474107Y-108933431D01*
X127484415Y-108967409D01*
X127488500Y-109008890D01*
X127488500Y-109685110D01*
X127484415Y-109726591D01*
X127474107Y-109760569D01*
X127457367Y-109791887D01*
X127434839Y-109819339D01*
X127407387Y-109841867D01*
X127376069Y-109858607D01*
X127342091Y-109868915D01*
X127300610Y-109873000D01*
X126699390Y-109873000D01*
X126657909Y-109868915D01*
X126623931Y-109858607D01*
X126592613Y-109841867D01*
X126565161Y-109819339D01*
X126542633Y-109791887D01*
X126525893Y-109760569D01*
X126515585Y-109726591D01*
X126511500Y-109685110D01*
X126511500Y-109008890D01*
X126515585Y-108967409D01*
X126525893Y-108933431D01*
X126542633Y-108902113D01*
X126565161Y-108874661D01*
X126592613Y-108852133D01*
X126623931Y-108835393D01*
X126657909Y-108825085D01*
X126699390Y-108821000D01*
X127300610Y-108821000D01*
X127342091Y-108825085D01*
X127342091Y-108825085D01*
G37*
G36*
X106851000Y-109848000D02*
X104749000Y-109848000D01*
X104749000Y-108846000D01*
X106851000Y-108846000D01*
X106851000Y-109848000D01*
X106851000Y-109848000D01*
G37*
G36*
X123851000Y-109848000D02*
X121749000Y-109848000D01*
X121749000Y-108846000D01*
X123851000Y-108846000D01*
X123851000Y-109848000D01*
X123851000Y-109848000D01*
G37*
G36*
X99820591Y-108811585D02*
X99854569Y-108821893D01*
X99885887Y-108838633D01*
X99913339Y-108861161D01*
X99935867Y-108888613D01*
X99952607Y-108919931D01*
X99962915Y-108953909D01*
X99967000Y-108995390D01*
X99967000Y-109596610D01*
X99962915Y-109638091D01*
X99952607Y-109672069D01*
X99935867Y-109703387D01*
X99913339Y-109730839D01*
X99885887Y-109753367D01*
X99854569Y-109770107D01*
X99820591Y-109780415D01*
X99779110Y-109784500D01*
X99102890Y-109784500D01*
X99061409Y-109780415D01*
X99027431Y-109770107D01*
X98996113Y-109753367D01*
X98968661Y-109730839D01*
X98946133Y-109703387D01*
X98929393Y-109672069D01*
X98919085Y-109638091D01*
X98915000Y-109596610D01*
X98915000Y-108995390D01*
X98919085Y-108953909D01*
X98929393Y-108919931D01*
X98946133Y-108888613D01*
X98968661Y-108861161D01*
X98996113Y-108838633D01*
X99027431Y-108821893D01*
X99061409Y-108811585D01*
X99102890Y-108807500D01*
X99779110Y-108807500D01*
X99820591Y-108811585D01*
X99820591Y-108811585D01*
G37*
G36*
X101344591Y-108811585D02*
X101378569Y-108821893D01*
X101409887Y-108838633D01*
X101437339Y-108861161D01*
X101459867Y-108888613D01*
X101476607Y-108919931D01*
X101486915Y-108953909D01*
X101491000Y-108995390D01*
X101491000Y-109596610D01*
X101486915Y-109638091D01*
X101476607Y-109672069D01*
X101459867Y-109703387D01*
X101437339Y-109730839D01*
X101409887Y-109753367D01*
X101378569Y-109770107D01*
X101344591Y-109780415D01*
X101303110Y-109784500D01*
X100626890Y-109784500D01*
X100585409Y-109780415D01*
X100551431Y-109770107D01*
X100520113Y-109753367D01*
X100492661Y-109730839D01*
X100470133Y-109703387D01*
X100453393Y-109672069D01*
X100443085Y-109638091D01*
X100439000Y-109596610D01*
X100439000Y-108995390D01*
X100443085Y-108953909D01*
X100453393Y-108919931D01*
X100470133Y-108888613D01*
X100492661Y-108861161D01*
X100520113Y-108838633D01*
X100551431Y-108821893D01*
X100585409Y-108811585D01*
X100626890Y-108807500D01*
X101303110Y-108807500D01*
X101344591Y-108811585D01*
X101344591Y-108811585D01*
G37*
G36*
X98296591Y-108811585D02*
X98330569Y-108821893D01*
X98361887Y-108838633D01*
X98389339Y-108861161D01*
X98411867Y-108888613D01*
X98428607Y-108919931D01*
X98438915Y-108953909D01*
X98443000Y-108995390D01*
X98443000Y-109596610D01*
X98438915Y-109638091D01*
X98428607Y-109672069D01*
X98411867Y-109703387D01*
X98389339Y-109730839D01*
X98361887Y-109753367D01*
X98330569Y-109770107D01*
X98296591Y-109780415D01*
X98255110Y-109784500D01*
X97578890Y-109784500D01*
X97537409Y-109780415D01*
X97503431Y-109770107D01*
X97472113Y-109753367D01*
X97444661Y-109730839D01*
X97422133Y-109703387D01*
X97405393Y-109672069D01*
X97395085Y-109638091D01*
X97391000Y-109596610D01*
X97391000Y-108995390D01*
X97395085Y-108953909D01*
X97405393Y-108919931D01*
X97422133Y-108888613D01*
X97444661Y-108861161D01*
X97472113Y-108838633D01*
X97503431Y-108821893D01*
X97537409Y-108811585D01*
X97578890Y-108807500D01*
X98255110Y-108807500D01*
X98296591Y-108811585D01*
X98296591Y-108811585D01*
G37*
G36*
X102868591Y-108811585D02*
X102902569Y-108821893D01*
X102933887Y-108838633D01*
X102961339Y-108861161D01*
X102983867Y-108888613D01*
X103000607Y-108919931D01*
X103010915Y-108953909D01*
X103015000Y-108995390D01*
X103015000Y-109596610D01*
X103010915Y-109638091D01*
X103000607Y-109672069D01*
X102983867Y-109703387D01*
X102961339Y-109730839D01*
X102933887Y-109753367D01*
X102902569Y-109770107D01*
X102868591Y-109780415D01*
X102827110Y-109784500D01*
X102150890Y-109784500D01*
X102109409Y-109780415D01*
X102075431Y-109770107D01*
X102044113Y-109753367D01*
X102016661Y-109730839D01*
X101994133Y-109703387D01*
X101977393Y-109672069D01*
X101967085Y-109638091D01*
X101963000Y-109596610D01*
X101963000Y-108995390D01*
X101967085Y-108953909D01*
X101977393Y-108919931D01*
X101994133Y-108888613D01*
X102016661Y-108861161D01*
X102044113Y-108838633D01*
X102075431Y-108821893D01*
X102109409Y-108811585D01*
X102150890Y-108807500D01*
X102827110Y-108807500D01*
X102868591Y-108811585D01*
X102868591Y-108811585D01*
G37*
G36*
X123851000Y-108578000D02*
X121749000Y-108578000D01*
X121749000Y-107576000D01*
X123851000Y-107576000D01*
X123851000Y-108578000D01*
X123851000Y-108578000D01*
G37*
G36*
X106851000Y-108578000D02*
X104749000Y-108578000D01*
X104749000Y-107576000D01*
X106851000Y-107576000D01*
X106851000Y-108578000D01*
X106851000Y-108578000D01*
G37*
G36*
X146160443Y-106420519D02*
X146226627Y-106427037D01*
X146339853Y-106461384D01*
X146396467Y-106478557D01*
X146535087Y-106552652D01*
X146552991Y-106562222D01*
X146574446Y-106579830D01*
X146690186Y-106674814D01*
X146773448Y-106776271D01*
X146802778Y-106812009D01*
X146802779Y-106812011D01*
X146886443Y-106968533D01*
X146886443Y-106968534D01*
X146937963Y-107138373D01*
X146955359Y-107315000D01*
X146937963Y-107491627D01*
X146912369Y-107576000D01*
X146886443Y-107661467D01*
X146812348Y-107800087D01*
X146802778Y-107817991D01*
X146773448Y-107853729D01*
X146690186Y-107955186D01*
X146588729Y-108038448D01*
X146552991Y-108067778D01*
X146552989Y-108067779D01*
X146396467Y-108151443D01*
X146339853Y-108168616D01*
X146226627Y-108202963D01*
X146160443Y-108209481D01*
X146094260Y-108216000D01*
X146005740Y-108216000D01*
X145939557Y-108209481D01*
X145873373Y-108202963D01*
X145760147Y-108168616D01*
X145703533Y-108151443D01*
X145547011Y-108067779D01*
X145547009Y-108067778D01*
X145511271Y-108038448D01*
X145409814Y-107955186D01*
X145326552Y-107853729D01*
X145297222Y-107817991D01*
X145287652Y-107800087D01*
X145213557Y-107661467D01*
X145187631Y-107576000D01*
X145162037Y-107491627D01*
X145144641Y-107315000D01*
X145162037Y-107138373D01*
X145213557Y-106968534D01*
X145213557Y-106968533D01*
X145297221Y-106812011D01*
X145297222Y-106812009D01*
X145326552Y-106776271D01*
X145409814Y-106674814D01*
X145525554Y-106579830D01*
X145547009Y-106562222D01*
X145564913Y-106552652D01*
X145703533Y-106478557D01*
X145760147Y-106461384D01*
X145873373Y-106427037D01*
X145939557Y-106420519D01*
X146005740Y-106414000D01*
X146094260Y-106414000D01*
X146160443Y-106420519D01*
X146160443Y-106420519D01*
G37*
G36*
X95360443Y-106420519D02*
X95426627Y-106427037D01*
X95539853Y-106461384D01*
X95596467Y-106478557D01*
X95735087Y-106552652D01*
X95752991Y-106562222D01*
X95774446Y-106579830D01*
X95890186Y-106674814D01*
X95973448Y-106776271D01*
X96002778Y-106812009D01*
X96002779Y-106812011D01*
X96086443Y-106968533D01*
X96086443Y-106968534D01*
X96137963Y-107138373D01*
X96155359Y-107315000D01*
X96137963Y-107491627D01*
X96112369Y-107576000D01*
X96086443Y-107661467D01*
X96012348Y-107800087D01*
X96002778Y-107817991D01*
X95973448Y-107853729D01*
X95890186Y-107955186D01*
X95788729Y-108038448D01*
X95752991Y-108067778D01*
X95752989Y-108067779D01*
X95596467Y-108151443D01*
X95539853Y-108168616D01*
X95426627Y-108202963D01*
X95360443Y-108209481D01*
X95294260Y-108216000D01*
X95205740Y-108216000D01*
X95139557Y-108209481D01*
X95073373Y-108202963D01*
X94960147Y-108168616D01*
X94903533Y-108151443D01*
X94747011Y-108067779D01*
X94747009Y-108067778D01*
X94711271Y-108038448D01*
X94609814Y-107955186D01*
X94526552Y-107853729D01*
X94497222Y-107817991D01*
X94487652Y-107800087D01*
X94413557Y-107661467D01*
X94387631Y-107576000D01*
X94362037Y-107491627D01*
X94344641Y-107315000D01*
X94362037Y-107138373D01*
X94413557Y-106968534D01*
X94413557Y-106968533D01*
X94497221Y-106812011D01*
X94497222Y-106812009D01*
X94526552Y-106776271D01*
X94609814Y-106674814D01*
X94725554Y-106579830D01*
X94747009Y-106562222D01*
X94764913Y-106552652D01*
X94903533Y-106478557D01*
X94960147Y-106461384D01*
X95073373Y-106427037D01*
X95139557Y-106420519D01*
X95205740Y-106414000D01*
X95294260Y-106414000D01*
X95360443Y-106420519D01*
X95360443Y-106420519D01*
G37*
G36*
X93611000Y-108216000D02*
X91809000Y-108216000D01*
X91809000Y-106414000D01*
X93611000Y-106414000D01*
X93611000Y-108216000D01*
X93611000Y-108216000D01*
G37*
G36*
X144411000Y-108216000D02*
X142609000Y-108216000D01*
X142609000Y-106414000D01*
X144411000Y-106414000D01*
X144411000Y-108216000D01*
X144411000Y-108216000D01*
G37*
G36*
X106851000Y-107308000D02*
X104749000Y-107308000D01*
X104749000Y-106306000D01*
X106851000Y-106306000D01*
X106851000Y-107308000D01*
X106851000Y-107308000D01*
G37*
G36*
X123851000Y-107308000D02*
X121749000Y-107308000D01*
X121749000Y-106306000D01*
X123851000Y-106306000D01*
X123851000Y-107308000D01*
X123851000Y-107308000D01*
G37*
G36*
X133352456Y-103346251D02*
X133670936Y-103478170D01*
X133957560Y-103669686D01*
X134201314Y-103913440D01*
X134392830Y-104200064D01*
X134524749Y-104518544D01*
X134592000Y-104856640D01*
X134592000Y-105201360D01*
X134524749Y-105539456D01*
X134392830Y-105857936D01*
X134201314Y-106144560D01*
X133957560Y-106388314D01*
X133670936Y-106579830D01*
X133352456Y-106711749D01*
X133014360Y-106779000D01*
X132669640Y-106779000D01*
X132331544Y-106711749D01*
X132013064Y-106579830D01*
X131726440Y-106388314D01*
X131482686Y-106144560D01*
X131291170Y-105857936D01*
X131159251Y-105539456D01*
X131092000Y-105201360D01*
X131092000Y-104856640D01*
X131159251Y-104518544D01*
X131291170Y-104200064D01*
X131482686Y-103913440D01*
X131726440Y-103669686D01*
X132013064Y-103478170D01*
X132331544Y-103346251D01*
X132669640Y-103279000D01*
X133014360Y-103279000D01*
X133352456Y-103346251D01*
X133352456Y-103346251D01*
G37*
G36*
X102169083Y-102898975D02*
X102169085Y-102898976D01*
X102169086Y-102898976D01*
X102524145Y-103046046D01*
X102524146Y-103046047D01*
X102843693Y-103259561D01*
X103115439Y-103531307D01*
X103115441Y-103531310D01*
X103328954Y-103850855D01*
X103476024Y-104205914D01*
X103476025Y-104205917D01*
X103551000Y-104582842D01*
X103551000Y-104967158D01*
X103504906Y-105198890D01*
X103476024Y-105344086D01*
X103328954Y-105699145D01*
X103222853Y-105857936D01*
X103115439Y-106018693D01*
X102843693Y-106290439D01*
X102843690Y-106290441D01*
X102524145Y-106503954D01*
X102169086Y-106651024D01*
X102169085Y-106651024D01*
X102169083Y-106651025D01*
X101792158Y-106726000D01*
X101407842Y-106726000D01*
X101030917Y-106651025D01*
X101030915Y-106651024D01*
X101030914Y-106651024D01*
X100675855Y-106503954D01*
X100356310Y-106290441D01*
X100356307Y-106290439D01*
X100084561Y-106018693D01*
X99977147Y-105857936D01*
X99871046Y-105699145D01*
X99723976Y-105344086D01*
X99695095Y-105198890D01*
X99649000Y-104967158D01*
X99649000Y-104582842D01*
X99723975Y-104205917D01*
X99723976Y-104205914D01*
X99871046Y-103850855D01*
X100084559Y-103531310D01*
X100084561Y-103531307D01*
X100356307Y-103259561D01*
X100675854Y-103046047D01*
X100675855Y-103046046D01*
X101030914Y-102898976D01*
X101030915Y-102898976D01*
X101030917Y-102898975D01*
X101407842Y-102824000D01*
X101792158Y-102824000D01*
X102169083Y-102898975D01*
X102169083Y-102898975D01*
G37*
G36*
X137729083Y-102898975D02*
X137729085Y-102898976D01*
X137729086Y-102898976D01*
X138084145Y-103046046D01*
X138084146Y-103046047D01*
X138403693Y-103259561D01*
X138675439Y-103531307D01*
X138675441Y-103531310D01*
X138888954Y-103850855D01*
X139036024Y-104205914D01*
X139036025Y-104205917D01*
X139111000Y-104582842D01*
X139111000Y-104967158D01*
X139064906Y-105198890D01*
X139036024Y-105344086D01*
X138888954Y-105699145D01*
X138782853Y-105857936D01*
X138675439Y-106018693D01*
X138403693Y-106290439D01*
X138403690Y-106290441D01*
X138084145Y-106503954D01*
X137729086Y-106651024D01*
X137729085Y-106651024D01*
X137729083Y-106651025D01*
X137352158Y-106726000D01*
X136967842Y-106726000D01*
X136590917Y-106651025D01*
X136590915Y-106651024D01*
X136590914Y-106651024D01*
X136235855Y-106503954D01*
X135916310Y-106290441D01*
X135916307Y-106290439D01*
X135644561Y-106018693D01*
X135537147Y-105857936D01*
X135431046Y-105699145D01*
X135283976Y-105344086D01*
X135255095Y-105198890D01*
X135209000Y-104967158D01*
X135209000Y-104582842D01*
X135283975Y-104205917D01*
X135283976Y-104205914D01*
X135431046Y-103850855D01*
X135644559Y-103531310D01*
X135644561Y-103531307D01*
X135916307Y-103259561D01*
X136235854Y-103046047D01*
X136235855Y-103046046D01*
X136590914Y-102898976D01*
X136590915Y-102898976D01*
X136590917Y-102898975D01*
X136967842Y-102824000D01*
X137352158Y-102824000D01*
X137729083Y-102898975D01*
X137729083Y-102898975D01*
G37*
G36*
X127342091Y-105015085D02*
X127376069Y-105025393D01*
X127407387Y-105042133D01*
X127434839Y-105064661D01*
X127457367Y-105092113D01*
X127474107Y-105123431D01*
X127484415Y-105157409D01*
X127488500Y-105198890D01*
X127488500Y-105875110D01*
X127484415Y-105916591D01*
X127474107Y-105950569D01*
X127457367Y-105981887D01*
X127434839Y-106009339D01*
X127407387Y-106031867D01*
X127376069Y-106048607D01*
X127342091Y-106058915D01*
X127300610Y-106063000D01*
X126699390Y-106063000D01*
X126657909Y-106058915D01*
X126623931Y-106048607D01*
X126592613Y-106031867D01*
X126565161Y-106009339D01*
X126542633Y-105981887D01*
X126525893Y-105950569D01*
X126515585Y-105916591D01*
X126511500Y-105875110D01*
X126511500Y-105198890D01*
X126515585Y-105157409D01*
X126525893Y-105123431D01*
X126542633Y-105092113D01*
X126565161Y-105064661D01*
X126592613Y-105042133D01*
X126623931Y-105025393D01*
X126657909Y-105015085D01*
X126699390Y-105011000D01*
X127300610Y-105011000D01*
X127342091Y-105015085D01*
X127342091Y-105015085D01*
G37*
G36*
X125767091Y-105015085D02*
X125801069Y-105025393D01*
X125832387Y-105042133D01*
X125859839Y-105064661D01*
X125882367Y-105092113D01*
X125899107Y-105123431D01*
X125909415Y-105157409D01*
X125913500Y-105198890D01*
X125913500Y-105875110D01*
X125909415Y-105916591D01*
X125899107Y-105950569D01*
X125882367Y-105981887D01*
X125859839Y-106009339D01*
X125832387Y-106031867D01*
X125801069Y-106048607D01*
X125767091Y-106058915D01*
X125725610Y-106063000D01*
X125124390Y-106063000D01*
X125082909Y-106058915D01*
X125048931Y-106048607D01*
X125017613Y-106031867D01*
X124990161Y-106009339D01*
X124967633Y-105981887D01*
X124950893Y-105950569D01*
X124940585Y-105916591D01*
X124936500Y-105875110D01*
X124936500Y-105198890D01*
X124940585Y-105157409D01*
X124950893Y-105123431D01*
X124967633Y-105092113D01*
X124990161Y-105064661D01*
X125017613Y-105042133D01*
X125048931Y-105025393D01*
X125082909Y-105015085D01*
X125124390Y-105011000D01*
X125725610Y-105011000D01*
X125767091Y-105015085D01*
X125767091Y-105015085D01*
G37*
G36*
X123851000Y-106038000D02*
X121749000Y-106038000D01*
X121749000Y-105036000D01*
X123851000Y-105036000D01*
X123851000Y-106038000D01*
X123851000Y-106038000D01*
G37*
G36*
X106851000Y-106038000D02*
X104749000Y-106038000D01*
X104749000Y-105036000D01*
X106851000Y-105036000D01*
X106851000Y-106038000D01*
X106851000Y-106038000D01*
G37*
G36*
X123851000Y-104768000D02*
X121749000Y-104768000D01*
X121749000Y-103766000D01*
X123851000Y-103766000D01*
X123851000Y-104768000D01*
X123851000Y-104768000D01*
G37*
G36*
X106851000Y-104768000D02*
X104749000Y-104768000D01*
X104749000Y-103766000D01*
X106851000Y-103766000D01*
X106851000Y-104768000D01*
X106851000Y-104768000D01*
G37*
G36*
X106851000Y-103498000D02*
X104749000Y-103498000D01*
X104749000Y-102496000D01*
X106851000Y-102496000D01*
X106851000Y-103498000D01*
X106851000Y-103498000D01*
G37*
G36*
X123851000Y-103498000D02*
X121749000Y-103498000D01*
X121749000Y-102496000D01*
X123851000Y-102496000D01*
X123851000Y-103498000D01*
X123851000Y-103498000D01*
G37*
G36*
X131101091Y-99935085D02*
X131135069Y-99945393D01*
X131166387Y-99962133D01*
X131193839Y-99984661D01*
X131216367Y-100012113D01*
X131233107Y-100043431D01*
X131243415Y-100077409D01*
X131247500Y-100118890D01*
X131247500Y-100795110D01*
X131243415Y-100836591D01*
X131233107Y-100870569D01*
X131216367Y-100901887D01*
X131193839Y-100929339D01*
X131166387Y-100951867D01*
X131135069Y-100968607D01*
X131101091Y-100978915D01*
X131059610Y-100983000D01*
X130458390Y-100983000D01*
X130416909Y-100978915D01*
X130382931Y-100968607D01*
X130351613Y-100951867D01*
X130324161Y-100929339D01*
X130301633Y-100901887D01*
X130284893Y-100870569D01*
X130274585Y-100836591D01*
X130270500Y-100795110D01*
X130270500Y-100118890D01*
X130274585Y-100077409D01*
X130284893Y-100043431D01*
X130301633Y-100012113D01*
X130324161Y-99984661D01*
X130351613Y-99962133D01*
X130382931Y-99945393D01*
X130416909Y-99935085D01*
X130458390Y-99931000D01*
X131059610Y-99931000D01*
X131101091Y-99935085D01*
X131101091Y-99935085D01*
G37*
G36*
X132676091Y-99935085D02*
X132710069Y-99945393D01*
X132741387Y-99962133D01*
X132768839Y-99984661D01*
X132791367Y-100012113D01*
X132808107Y-100043431D01*
X132818415Y-100077409D01*
X132822500Y-100118890D01*
X132822500Y-100795110D01*
X132818415Y-100836591D01*
X132808107Y-100870569D01*
X132791367Y-100901887D01*
X132768839Y-100929339D01*
X132741387Y-100951867D01*
X132710069Y-100968607D01*
X132676091Y-100978915D01*
X132634610Y-100983000D01*
X132033390Y-100983000D01*
X131991909Y-100978915D01*
X131957931Y-100968607D01*
X131926613Y-100951867D01*
X131899161Y-100929339D01*
X131876633Y-100901887D01*
X131859893Y-100870569D01*
X131849585Y-100836591D01*
X131845500Y-100795110D01*
X131845500Y-100118890D01*
X131849585Y-100077409D01*
X131859893Y-100043431D01*
X131876633Y-100012113D01*
X131899161Y-99984661D01*
X131926613Y-99962133D01*
X131957931Y-99945393D01*
X131991909Y-99935085D01*
X132033390Y-99931000D01*
X132634610Y-99931000D01*
X132676091Y-99935085D01*
X132676091Y-99935085D01*
G37*
G36*
X136714591Y-99681085D02*
X136748569Y-99691393D01*
X136779887Y-99708133D01*
X136807339Y-99730661D01*
X136829867Y-99758113D01*
X136846607Y-99789431D01*
X136856915Y-99823409D01*
X136861000Y-99864890D01*
X136861000Y-100541110D01*
X136856915Y-100582591D01*
X136846607Y-100616569D01*
X136829867Y-100647887D01*
X136807339Y-100675339D01*
X136779887Y-100697867D01*
X136748569Y-100714607D01*
X136714591Y-100724915D01*
X136673110Y-100729000D01*
X136071890Y-100729000D01*
X136030409Y-100724915D01*
X135996431Y-100714607D01*
X135965113Y-100697867D01*
X135937661Y-100675339D01*
X135915133Y-100647887D01*
X135898393Y-100616569D01*
X135888085Y-100582591D01*
X135884000Y-100541110D01*
X135884000Y-99864890D01*
X135888085Y-99823409D01*
X135898393Y-99789431D01*
X135915133Y-99758113D01*
X135937661Y-99730661D01*
X135965113Y-99708133D01*
X135996431Y-99691393D01*
X136030409Y-99681085D01*
X136071890Y-99677000D01*
X136673110Y-99677000D01*
X136714591Y-99681085D01*
X136714591Y-99681085D01*
G37*
G36*
X138289591Y-99681085D02*
X138323569Y-99691393D01*
X138354887Y-99708133D01*
X138382339Y-99730661D01*
X138404867Y-99758113D01*
X138421607Y-99789431D01*
X138431915Y-99823409D01*
X138436000Y-99864890D01*
X138436000Y-100541110D01*
X138431915Y-100582591D01*
X138421607Y-100616569D01*
X138404867Y-100647887D01*
X138382339Y-100675339D01*
X138354887Y-100697867D01*
X138323569Y-100714607D01*
X138289591Y-100724915D01*
X138248110Y-100729000D01*
X137646890Y-100729000D01*
X137605409Y-100724915D01*
X137571431Y-100714607D01*
X137540113Y-100697867D01*
X137512661Y-100675339D01*
X137490133Y-100647887D01*
X137473393Y-100616569D01*
X137463085Y-100582591D01*
X137459000Y-100541110D01*
X137459000Y-99864890D01*
X137463085Y-99823409D01*
X137473393Y-99789431D01*
X137490133Y-99758113D01*
X137512661Y-99730661D01*
X137540113Y-99708133D01*
X137571431Y-99691393D01*
X137605409Y-99681085D01*
X137646890Y-99677000D01*
X138248110Y-99677000D01*
X138289591Y-99681085D01*
X138289591Y-99681085D01*
G37*
G36*
X132431000Y-98555000D02*
X131729000Y-98555000D01*
X131729000Y-96653000D01*
X132431000Y-96653000D01*
X132431000Y-98555000D01*
X132431000Y-98555000D01*
G37*
G36*
X133731000Y-98555000D02*
X132879000Y-98555000D01*
X132879000Y-96653000D01*
X133731000Y-96653000D01*
X133731000Y-98555000D01*
X133731000Y-98555000D01*
G37*
G36*
X131281000Y-98555000D02*
X130429000Y-98555000D01*
X130429000Y-96653000D01*
X131281000Y-96653000D01*
X131281000Y-98555000D01*
X131281000Y-98555000D01*
G37*
G36*
X136594466Y-96408565D02*
X136633137Y-96420296D01*
X136668779Y-96439348D01*
X136700017Y-96464983D01*
X136725652Y-96496221D01*
X136744704Y-96531863D01*
X136756435Y-96570534D01*
X136761000Y-96616888D01*
X136761000Y-97693112D01*
X136756435Y-97739466D01*
X136744704Y-97778137D01*
X136725652Y-97813779D01*
X136700017Y-97845017D01*
X136668779Y-97870652D01*
X136633137Y-97889704D01*
X136594466Y-97901435D01*
X136548112Y-97906000D01*
X135896888Y-97906000D01*
X135850534Y-97901435D01*
X135811863Y-97889704D01*
X135776221Y-97870652D01*
X135744983Y-97845017D01*
X135719348Y-97813779D01*
X135700296Y-97778137D01*
X135688565Y-97739466D01*
X135684000Y-97693112D01*
X135684000Y-96616888D01*
X135688565Y-96570534D01*
X135700296Y-96531863D01*
X135719348Y-96496221D01*
X135744983Y-96464983D01*
X135776221Y-96439348D01*
X135811863Y-96420296D01*
X135850534Y-96408565D01*
X135896888Y-96404000D01*
X136548112Y-96404000D01*
X136594466Y-96408565D01*
X136594466Y-96408565D01*
G37*
G36*
X138469466Y-96408565D02*
X138508137Y-96420296D01*
X138543779Y-96439348D01*
X138575017Y-96464983D01*
X138600652Y-96496221D01*
X138619704Y-96531863D01*
X138631435Y-96570534D01*
X138636000Y-96616888D01*
X138636000Y-97693112D01*
X138631435Y-97739466D01*
X138619704Y-97778137D01*
X138600652Y-97813779D01*
X138575017Y-97845017D01*
X138543779Y-97870652D01*
X138508137Y-97889704D01*
X138469466Y-97901435D01*
X138423112Y-97906000D01*
X137771888Y-97906000D01*
X137725534Y-97901435D01*
X137686863Y-97889704D01*
X137651221Y-97870652D01*
X137619983Y-97845017D01*
X137594348Y-97813779D01*
X137575296Y-97778137D01*
X137563565Y-97739466D01*
X137559000Y-97693112D01*
X137559000Y-96616888D01*
X137563565Y-96570534D01*
X137575296Y-96531863D01*
X137594348Y-96496221D01*
X137619983Y-96464983D01*
X137651221Y-96439348D01*
X137686863Y-96420296D01*
X137725534Y-96408565D01*
X137771888Y-96404000D01*
X138423112Y-96404000D01*
X138469466Y-96408565D01*
X138469466Y-96408565D01*
G37*
G36*
X130006337Y-96534763D02*
X130038367Y-96548030D01*
X130067194Y-96567292D01*
X130091708Y-96591806D01*
X130110970Y-96620633D01*
X130124237Y-96652663D01*
X130131000Y-96686665D01*
X130131000Y-96721335D01*
X130124237Y-96755337D01*
X130110970Y-96787367D01*
X130091708Y-96816194D01*
X130067194Y-96840708D01*
X130038367Y-96859970D01*
X130006337Y-96873237D01*
X129972335Y-96880000D01*
X129937665Y-96880000D01*
X129903663Y-96873237D01*
X129871633Y-96859970D01*
X129842806Y-96840708D01*
X129818292Y-96816194D01*
X129799030Y-96787367D01*
X129785763Y-96755337D01*
X129779000Y-96721335D01*
X129779000Y-96686665D01*
X129785763Y-96652663D01*
X129799030Y-96620633D01*
X129818292Y-96591806D01*
X129842806Y-96567292D01*
X129871633Y-96548030D01*
X129903663Y-96534763D01*
X129937665Y-96528000D01*
X129972335Y-96528000D01*
X130006337Y-96534763D01*
X130006337Y-96534763D01*
G37*
G36*
X134256337Y-96534763D02*
X134288367Y-96548030D01*
X134317194Y-96567292D01*
X134341708Y-96591806D01*
X134360970Y-96620633D01*
X134374237Y-96652663D01*
X134381000Y-96686665D01*
X134381000Y-96721335D01*
X134374237Y-96755337D01*
X134360970Y-96787367D01*
X134341708Y-96816194D01*
X134317194Y-96840708D01*
X134288367Y-96859970D01*
X134256337Y-96873237D01*
X134222335Y-96880000D01*
X134187665Y-96880000D01*
X134153663Y-96873237D01*
X134121633Y-96859970D01*
X134092806Y-96840708D01*
X134068292Y-96816194D01*
X134049030Y-96787367D01*
X134035763Y-96755337D01*
X134029000Y-96721335D01*
X134029000Y-96686665D01*
X134035763Y-96652663D01*
X134049030Y-96620633D01*
X134068292Y-96591806D01*
X134092806Y-96567292D01*
X134121633Y-96548030D01*
X134153663Y-96534763D01*
X134187665Y-96528000D01*
X134222335Y-96528000D01*
X134256337Y-96534763D01*
X134256337Y-96534763D01*
G37*
G36*
X134631000Y-96155000D02*
X133029000Y-96155000D01*
X133029000Y-95153000D01*
X134631000Y-95153000D01*
X134631000Y-96155000D01*
X134631000Y-96155000D01*
G37*
G36*
X131131000Y-96155000D02*
X129529000Y-96155000D01*
X129529000Y-95153000D01*
X131131000Y-95153000D01*
X131131000Y-96155000D01*
X131131000Y-96155000D01*
G37*
M02*
