G04 #@! TF.GenerationSoftware,KiCad,Pcbnew,(5.0.2)-1*
G04 #@! TF.CreationDate,2019-10-04T12:36:52+03:00*
G04 #@! TF.ProjectId,esp32d,65737033-3264-42e6-9b69-6361645f7063,rev?*
G04 #@! TF.SameCoordinates,Original*
G04 #@! TF.FileFunction,Soldermask,Bot*
G04 #@! TF.FilePolarity,Negative*
%FSLAX46Y46*%
G04 Gerber Fmt 4.6, Leading zero omitted, Abs format (unit mm)*
G04 Created by KiCad (PCBNEW (5.0.2)-1) date 04.10.2019 12:36:52*
%MOMM*%
%LPD*%
G01*
G04 APERTURE LIST*
%ADD10C,0.100000*%
G04 APERTURE END LIST*
D10*
G36*
X119949083Y-141633975D02*
X119949085Y-141633976D01*
X119949086Y-141633976D01*
X120304145Y-141781046D01*
X120304146Y-141781047D01*
X120623693Y-141994561D01*
X120895439Y-142266307D01*
X120895441Y-142266310D01*
X121108954Y-142585855D01*
X121256024Y-142940914D01*
X121331000Y-143317843D01*
X121331000Y-143702157D01*
X121256024Y-144079086D01*
X121108954Y-144434145D01*
X121108953Y-144434146D01*
X120895439Y-144753693D01*
X120623693Y-145025439D01*
X120623690Y-145025441D01*
X120304145Y-145238954D01*
X119949086Y-145386024D01*
X119949085Y-145386024D01*
X119949083Y-145386025D01*
X119572158Y-145461000D01*
X119187842Y-145461000D01*
X118810917Y-145386025D01*
X118810915Y-145386024D01*
X118810914Y-145386024D01*
X118455855Y-145238954D01*
X118136310Y-145025441D01*
X118136307Y-145025439D01*
X117864561Y-144753693D01*
X117651047Y-144434146D01*
X117651046Y-144434145D01*
X117503976Y-144079086D01*
X117429000Y-143702157D01*
X117429000Y-143317843D01*
X117503976Y-142940914D01*
X117651046Y-142585855D01*
X117864559Y-142266310D01*
X117864561Y-142266307D01*
X118136307Y-141994561D01*
X118455854Y-141781047D01*
X118455855Y-141781046D01*
X118810914Y-141633976D01*
X118810915Y-141633976D01*
X118810917Y-141633975D01*
X119187842Y-141559000D01*
X119572158Y-141559000D01*
X119949083Y-141633975D01*
X119949083Y-141633975D01*
G37*
G36*
X80562883Y-137679489D02*
X80626761Y-137705948D01*
X80684250Y-137744361D01*
X80733139Y-137793250D01*
X80771552Y-137850739D01*
X80798011Y-137914617D01*
X80811500Y-137982430D01*
X80811500Y-138051570D01*
X80798011Y-138119383D01*
X80771552Y-138183261D01*
X80733139Y-138240750D01*
X80684250Y-138289639D01*
X80626761Y-138328052D01*
X80562883Y-138354511D01*
X80495070Y-138368000D01*
X80425930Y-138368000D01*
X80358117Y-138354511D01*
X80294239Y-138328052D01*
X80236750Y-138289639D01*
X80187861Y-138240750D01*
X80149448Y-138183261D01*
X80122989Y-138119383D01*
X80109500Y-138051570D01*
X80109500Y-137982430D01*
X80122989Y-137914617D01*
X80149448Y-137850739D01*
X80187861Y-137793250D01*
X80236750Y-137744361D01*
X80294239Y-137705948D01*
X80358117Y-137679489D01*
X80425930Y-137666000D01*
X80495070Y-137666000D01*
X80562883Y-137679489D01*
X80562883Y-137679489D01*
G37*
G36*
X80562883Y-133679489D02*
X80626761Y-133705948D01*
X80684250Y-133744361D01*
X80733139Y-133793250D01*
X80771552Y-133850739D01*
X80798011Y-133914617D01*
X80811500Y-133982430D01*
X80811500Y-134051570D01*
X80798011Y-134119383D01*
X80771552Y-134183261D01*
X80733139Y-134240750D01*
X80684250Y-134289639D01*
X80626761Y-134328052D01*
X80562883Y-134354511D01*
X80495070Y-134368000D01*
X80425930Y-134368000D01*
X80358117Y-134354511D01*
X80294239Y-134328052D01*
X80236750Y-134289639D01*
X80187861Y-134240750D01*
X80149448Y-134183261D01*
X80122989Y-134119383D01*
X80109500Y-134051570D01*
X80109500Y-133982430D01*
X80122989Y-133914617D01*
X80149448Y-133850739D01*
X80187861Y-133793250D01*
X80236750Y-133744361D01*
X80294239Y-133705948D01*
X80358117Y-133679489D01*
X80425930Y-133666000D01*
X80495070Y-133666000D01*
X80562883Y-133679489D01*
X80562883Y-133679489D01*
G37*
G36*
X95360442Y-124200518D02*
X95426627Y-124207037D01*
X95539853Y-124241384D01*
X95596467Y-124258557D01*
X95735087Y-124332652D01*
X95752991Y-124342222D01*
X95788729Y-124371552D01*
X95890186Y-124454814D01*
X95973448Y-124556271D01*
X96002778Y-124592009D01*
X96002779Y-124592011D01*
X96086443Y-124748533D01*
X96086443Y-124748534D01*
X96137963Y-124918373D01*
X96155359Y-125095000D01*
X96137963Y-125271627D01*
X96103616Y-125384853D01*
X96086443Y-125441467D01*
X96012348Y-125580087D01*
X96002778Y-125597991D01*
X95973448Y-125633729D01*
X95890186Y-125735186D01*
X95788729Y-125818448D01*
X95752991Y-125847778D01*
X95752989Y-125847779D01*
X95596467Y-125931443D01*
X95539853Y-125948616D01*
X95426627Y-125982963D01*
X95360442Y-125989482D01*
X95294260Y-125996000D01*
X95205740Y-125996000D01*
X95139558Y-125989482D01*
X95073373Y-125982963D01*
X94960147Y-125948616D01*
X94903533Y-125931443D01*
X94747011Y-125847779D01*
X94747009Y-125847778D01*
X94711271Y-125818448D01*
X94609814Y-125735186D01*
X94526552Y-125633729D01*
X94497222Y-125597991D01*
X94487652Y-125580087D01*
X94413557Y-125441467D01*
X94396384Y-125384853D01*
X94362037Y-125271627D01*
X94344641Y-125095000D01*
X94362037Y-124918373D01*
X94413557Y-124748534D01*
X94413557Y-124748533D01*
X94497221Y-124592011D01*
X94497222Y-124592009D01*
X94526552Y-124556271D01*
X94609814Y-124454814D01*
X94711271Y-124371552D01*
X94747009Y-124342222D01*
X94764913Y-124332652D01*
X94903533Y-124258557D01*
X94960147Y-124241384D01*
X95073373Y-124207037D01*
X95139558Y-124200518D01*
X95205740Y-124194000D01*
X95294260Y-124194000D01*
X95360442Y-124200518D01*
X95360442Y-124200518D01*
G37*
G36*
X92820442Y-124200518D02*
X92886627Y-124207037D01*
X92999853Y-124241384D01*
X93056467Y-124258557D01*
X93195087Y-124332652D01*
X93212991Y-124342222D01*
X93248729Y-124371552D01*
X93350186Y-124454814D01*
X93433448Y-124556271D01*
X93462778Y-124592009D01*
X93462779Y-124592011D01*
X93546443Y-124748533D01*
X93546443Y-124748534D01*
X93597963Y-124918373D01*
X93615359Y-125095000D01*
X93597963Y-125271627D01*
X93563616Y-125384853D01*
X93546443Y-125441467D01*
X93472348Y-125580087D01*
X93462778Y-125597991D01*
X93433448Y-125633729D01*
X93350186Y-125735186D01*
X93248729Y-125818448D01*
X93212991Y-125847778D01*
X93212989Y-125847779D01*
X93056467Y-125931443D01*
X92999853Y-125948616D01*
X92886627Y-125982963D01*
X92820442Y-125989482D01*
X92754260Y-125996000D01*
X92665740Y-125996000D01*
X92599558Y-125989482D01*
X92533373Y-125982963D01*
X92420147Y-125948616D01*
X92363533Y-125931443D01*
X92207011Y-125847779D01*
X92207009Y-125847778D01*
X92171271Y-125818448D01*
X92069814Y-125735186D01*
X91986552Y-125633729D01*
X91957222Y-125597991D01*
X91947652Y-125580087D01*
X91873557Y-125441467D01*
X91856384Y-125384853D01*
X91822037Y-125271627D01*
X91804641Y-125095000D01*
X91822037Y-124918373D01*
X91873557Y-124748534D01*
X91873557Y-124748533D01*
X91957221Y-124592011D01*
X91957222Y-124592009D01*
X91986552Y-124556271D01*
X92069814Y-124454814D01*
X92171271Y-124371552D01*
X92207009Y-124342222D01*
X92224913Y-124332652D01*
X92363533Y-124258557D01*
X92420147Y-124241384D01*
X92533373Y-124207037D01*
X92599558Y-124200518D01*
X92665740Y-124194000D01*
X92754260Y-124194000D01*
X92820442Y-124200518D01*
X92820442Y-124200518D01*
G37*
G36*
X146160442Y-124200518D02*
X146226627Y-124207037D01*
X146339853Y-124241384D01*
X146396467Y-124258557D01*
X146535087Y-124332652D01*
X146552991Y-124342222D01*
X146588729Y-124371552D01*
X146690186Y-124454814D01*
X146773448Y-124556271D01*
X146802778Y-124592009D01*
X146802779Y-124592011D01*
X146886443Y-124748533D01*
X146886443Y-124748534D01*
X146937963Y-124918373D01*
X146955359Y-125095000D01*
X146937963Y-125271627D01*
X146903616Y-125384853D01*
X146886443Y-125441467D01*
X146812348Y-125580087D01*
X146802778Y-125597991D01*
X146773448Y-125633729D01*
X146690186Y-125735186D01*
X146588729Y-125818448D01*
X146552991Y-125847778D01*
X146552989Y-125847779D01*
X146396467Y-125931443D01*
X146339853Y-125948616D01*
X146226627Y-125982963D01*
X146160442Y-125989482D01*
X146094260Y-125996000D01*
X146005740Y-125996000D01*
X145939558Y-125989482D01*
X145873373Y-125982963D01*
X145760147Y-125948616D01*
X145703533Y-125931443D01*
X145547011Y-125847779D01*
X145547009Y-125847778D01*
X145511271Y-125818448D01*
X145409814Y-125735186D01*
X145326552Y-125633729D01*
X145297222Y-125597991D01*
X145287652Y-125580087D01*
X145213557Y-125441467D01*
X145196384Y-125384853D01*
X145162037Y-125271627D01*
X145144641Y-125095000D01*
X145162037Y-124918373D01*
X145213557Y-124748534D01*
X145213557Y-124748533D01*
X145297221Y-124592011D01*
X145297222Y-124592009D01*
X145326552Y-124556271D01*
X145409814Y-124454814D01*
X145511271Y-124371552D01*
X145547009Y-124342222D01*
X145564913Y-124332652D01*
X145703533Y-124258557D01*
X145760147Y-124241384D01*
X145873373Y-124207037D01*
X145939558Y-124200518D01*
X146005740Y-124194000D01*
X146094260Y-124194000D01*
X146160442Y-124200518D01*
X146160442Y-124200518D01*
G37*
G36*
X143620442Y-124200518D02*
X143686627Y-124207037D01*
X143799853Y-124241384D01*
X143856467Y-124258557D01*
X143995087Y-124332652D01*
X144012991Y-124342222D01*
X144048729Y-124371552D01*
X144150186Y-124454814D01*
X144233448Y-124556271D01*
X144262778Y-124592009D01*
X144262779Y-124592011D01*
X144346443Y-124748533D01*
X144346443Y-124748534D01*
X144397963Y-124918373D01*
X144415359Y-125095000D01*
X144397963Y-125271627D01*
X144363616Y-125384853D01*
X144346443Y-125441467D01*
X144272348Y-125580087D01*
X144262778Y-125597991D01*
X144233448Y-125633729D01*
X144150186Y-125735186D01*
X144048729Y-125818448D01*
X144012991Y-125847778D01*
X144012989Y-125847779D01*
X143856467Y-125931443D01*
X143799853Y-125948616D01*
X143686627Y-125982963D01*
X143620442Y-125989482D01*
X143554260Y-125996000D01*
X143465740Y-125996000D01*
X143399558Y-125989482D01*
X143333373Y-125982963D01*
X143220147Y-125948616D01*
X143163533Y-125931443D01*
X143007011Y-125847779D01*
X143007009Y-125847778D01*
X142971271Y-125818448D01*
X142869814Y-125735186D01*
X142786552Y-125633729D01*
X142757222Y-125597991D01*
X142747652Y-125580087D01*
X142673557Y-125441467D01*
X142656384Y-125384853D01*
X142622037Y-125271627D01*
X142604641Y-125095000D01*
X142622037Y-124918373D01*
X142673557Y-124748534D01*
X142673557Y-124748533D01*
X142757221Y-124592011D01*
X142757222Y-124592009D01*
X142786552Y-124556271D01*
X142869814Y-124454814D01*
X142971271Y-124371552D01*
X143007009Y-124342222D01*
X143024913Y-124332652D01*
X143163533Y-124258557D01*
X143220147Y-124241384D01*
X143333373Y-124207037D01*
X143399558Y-124200518D01*
X143465740Y-124194000D01*
X143554260Y-124194000D01*
X143620442Y-124200518D01*
X143620442Y-124200518D01*
G37*
G36*
X146160442Y-121660518D02*
X146226627Y-121667037D01*
X146339853Y-121701384D01*
X146396467Y-121718557D01*
X146535087Y-121792652D01*
X146552991Y-121802222D01*
X146588729Y-121831552D01*
X146690186Y-121914814D01*
X146773448Y-122016271D01*
X146802778Y-122052009D01*
X146802779Y-122052011D01*
X146886443Y-122208533D01*
X146886443Y-122208534D01*
X146937963Y-122378373D01*
X146955359Y-122555000D01*
X146937963Y-122731627D01*
X146903616Y-122844853D01*
X146886443Y-122901467D01*
X146812348Y-123040087D01*
X146802778Y-123057991D01*
X146773448Y-123093729D01*
X146690186Y-123195186D01*
X146588729Y-123278448D01*
X146552991Y-123307778D01*
X146552989Y-123307779D01*
X146396467Y-123391443D01*
X146339853Y-123408616D01*
X146226627Y-123442963D01*
X146160442Y-123449482D01*
X146094260Y-123456000D01*
X146005740Y-123456000D01*
X145939558Y-123449482D01*
X145873373Y-123442963D01*
X145760147Y-123408616D01*
X145703533Y-123391443D01*
X145547011Y-123307779D01*
X145547009Y-123307778D01*
X145511271Y-123278448D01*
X145409814Y-123195186D01*
X145326552Y-123093729D01*
X145297222Y-123057991D01*
X145287652Y-123040087D01*
X145213557Y-122901467D01*
X145196384Y-122844853D01*
X145162037Y-122731627D01*
X145144641Y-122555000D01*
X145162037Y-122378373D01*
X145213557Y-122208534D01*
X145213557Y-122208533D01*
X145297221Y-122052011D01*
X145297222Y-122052009D01*
X145326552Y-122016271D01*
X145409814Y-121914814D01*
X145511271Y-121831552D01*
X145547009Y-121802222D01*
X145564913Y-121792652D01*
X145703533Y-121718557D01*
X145760147Y-121701384D01*
X145873373Y-121667037D01*
X145939558Y-121660518D01*
X146005740Y-121654000D01*
X146094260Y-121654000D01*
X146160442Y-121660518D01*
X146160442Y-121660518D01*
G37*
G36*
X92820442Y-121660518D02*
X92886627Y-121667037D01*
X92999853Y-121701384D01*
X93056467Y-121718557D01*
X93195087Y-121792652D01*
X93212991Y-121802222D01*
X93248729Y-121831552D01*
X93350186Y-121914814D01*
X93433448Y-122016271D01*
X93462778Y-122052009D01*
X93462779Y-122052011D01*
X93546443Y-122208533D01*
X93546443Y-122208534D01*
X93597963Y-122378373D01*
X93615359Y-122555000D01*
X93597963Y-122731627D01*
X93563616Y-122844853D01*
X93546443Y-122901467D01*
X93472348Y-123040087D01*
X93462778Y-123057991D01*
X93433448Y-123093729D01*
X93350186Y-123195186D01*
X93248729Y-123278448D01*
X93212991Y-123307778D01*
X93212989Y-123307779D01*
X93056467Y-123391443D01*
X92999853Y-123408616D01*
X92886627Y-123442963D01*
X92820442Y-123449482D01*
X92754260Y-123456000D01*
X92665740Y-123456000D01*
X92599558Y-123449482D01*
X92533373Y-123442963D01*
X92420147Y-123408616D01*
X92363533Y-123391443D01*
X92207011Y-123307779D01*
X92207009Y-123307778D01*
X92171271Y-123278448D01*
X92069814Y-123195186D01*
X91986552Y-123093729D01*
X91957222Y-123057991D01*
X91947652Y-123040087D01*
X91873557Y-122901467D01*
X91856384Y-122844853D01*
X91822037Y-122731627D01*
X91804641Y-122555000D01*
X91822037Y-122378373D01*
X91873557Y-122208534D01*
X91873557Y-122208533D01*
X91957221Y-122052011D01*
X91957222Y-122052009D01*
X91986552Y-122016271D01*
X92069814Y-121914814D01*
X92171271Y-121831552D01*
X92207009Y-121802222D01*
X92224913Y-121792652D01*
X92363533Y-121718557D01*
X92420147Y-121701384D01*
X92533373Y-121667037D01*
X92599558Y-121660518D01*
X92665740Y-121654000D01*
X92754260Y-121654000D01*
X92820442Y-121660518D01*
X92820442Y-121660518D01*
G37*
G36*
X95360442Y-121660518D02*
X95426627Y-121667037D01*
X95539853Y-121701384D01*
X95596467Y-121718557D01*
X95735087Y-121792652D01*
X95752991Y-121802222D01*
X95788729Y-121831552D01*
X95890186Y-121914814D01*
X95973448Y-122016271D01*
X96002778Y-122052009D01*
X96002779Y-122052011D01*
X96086443Y-122208533D01*
X96086443Y-122208534D01*
X96137963Y-122378373D01*
X96155359Y-122555000D01*
X96137963Y-122731627D01*
X96103616Y-122844853D01*
X96086443Y-122901467D01*
X96012348Y-123040087D01*
X96002778Y-123057991D01*
X95973448Y-123093729D01*
X95890186Y-123195186D01*
X95788729Y-123278448D01*
X95752991Y-123307778D01*
X95752989Y-123307779D01*
X95596467Y-123391443D01*
X95539853Y-123408616D01*
X95426627Y-123442963D01*
X95360442Y-123449482D01*
X95294260Y-123456000D01*
X95205740Y-123456000D01*
X95139558Y-123449482D01*
X95073373Y-123442963D01*
X94960147Y-123408616D01*
X94903533Y-123391443D01*
X94747011Y-123307779D01*
X94747009Y-123307778D01*
X94711271Y-123278448D01*
X94609814Y-123195186D01*
X94526552Y-123093729D01*
X94497222Y-123057991D01*
X94487652Y-123040087D01*
X94413557Y-122901467D01*
X94396384Y-122844853D01*
X94362037Y-122731627D01*
X94344641Y-122555000D01*
X94362037Y-122378373D01*
X94413557Y-122208534D01*
X94413557Y-122208533D01*
X94497221Y-122052011D01*
X94497222Y-122052009D01*
X94526552Y-122016271D01*
X94609814Y-121914814D01*
X94711271Y-121831552D01*
X94747009Y-121802222D01*
X94764913Y-121792652D01*
X94903533Y-121718557D01*
X94960147Y-121701384D01*
X95073373Y-121667037D01*
X95139558Y-121660518D01*
X95205740Y-121654000D01*
X95294260Y-121654000D01*
X95360442Y-121660518D01*
X95360442Y-121660518D01*
G37*
G36*
X143620442Y-121660518D02*
X143686627Y-121667037D01*
X143799853Y-121701384D01*
X143856467Y-121718557D01*
X143995087Y-121792652D01*
X144012991Y-121802222D01*
X144048729Y-121831552D01*
X144150186Y-121914814D01*
X144233448Y-122016271D01*
X144262778Y-122052009D01*
X144262779Y-122052011D01*
X144346443Y-122208533D01*
X144346443Y-122208534D01*
X144397963Y-122378373D01*
X144415359Y-122555000D01*
X144397963Y-122731627D01*
X144363616Y-122844853D01*
X144346443Y-122901467D01*
X144272348Y-123040087D01*
X144262778Y-123057991D01*
X144233448Y-123093729D01*
X144150186Y-123195186D01*
X144048729Y-123278448D01*
X144012991Y-123307778D01*
X144012989Y-123307779D01*
X143856467Y-123391443D01*
X143799853Y-123408616D01*
X143686627Y-123442963D01*
X143620442Y-123449482D01*
X143554260Y-123456000D01*
X143465740Y-123456000D01*
X143399558Y-123449482D01*
X143333373Y-123442963D01*
X143220147Y-123408616D01*
X143163533Y-123391443D01*
X143007011Y-123307779D01*
X143007009Y-123307778D01*
X142971271Y-123278448D01*
X142869814Y-123195186D01*
X142786552Y-123093729D01*
X142757222Y-123057991D01*
X142747652Y-123040087D01*
X142673557Y-122901467D01*
X142656384Y-122844853D01*
X142622037Y-122731627D01*
X142604641Y-122555000D01*
X142622037Y-122378373D01*
X142673557Y-122208534D01*
X142673557Y-122208533D01*
X142757221Y-122052011D01*
X142757222Y-122052009D01*
X142786552Y-122016271D01*
X142869814Y-121914814D01*
X142971271Y-121831552D01*
X143007009Y-121802222D01*
X143024913Y-121792652D01*
X143163533Y-121718557D01*
X143220147Y-121701384D01*
X143333373Y-121667037D01*
X143399558Y-121660518D01*
X143465740Y-121654000D01*
X143554260Y-121654000D01*
X143620442Y-121660518D01*
X143620442Y-121660518D01*
G37*
G36*
X146160443Y-119120519D02*
X146226627Y-119127037D01*
X146339853Y-119161384D01*
X146396467Y-119178557D01*
X146535087Y-119252652D01*
X146552991Y-119262222D01*
X146588729Y-119291552D01*
X146690186Y-119374814D01*
X146773448Y-119476271D01*
X146802778Y-119512009D01*
X146802779Y-119512011D01*
X146886443Y-119668533D01*
X146886443Y-119668534D01*
X146937963Y-119838373D01*
X146955359Y-120015000D01*
X146937963Y-120191627D01*
X146903616Y-120304853D01*
X146886443Y-120361467D01*
X146812348Y-120500087D01*
X146802778Y-120517991D01*
X146773448Y-120553729D01*
X146690186Y-120655186D01*
X146588729Y-120738448D01*
X146552991Y-120767778D01*
X146552989Y-120767779D01*
X146396467Y-120851443D01*
X146339853Y-120868616D01*
X146226627Y-120902963D01*
X146160442Y-120909482D01*
X146094260Y-120916000D01*
X146005740Y-120916000D01*
X145939558Y-120909482D01*
X145873373Y-120902963D01*
X145760147Y-120868616D01*
X145703533Y-120851443D01*
X145547011Y-120767779D01*
X145547009Y-120767778D01*
X145511271Y-120738448D01*
X145409814Y-120655186D01*
X145326552Y-120553729D01*
X145297222Y-120517991D01*
X145287652Y-120500087D01*
X145213557Y-120361467D01*
X145196384Y-120304853D01*
X145162037Y-120191627D01*
X145144641Y-120015000D01*
X145162037Y-119838373D01*
X145213557Y-119668534D01*
X145213557Y-119668533D01*
X145297221Y-119512011D01*
X145297222Y-119512009D01*
X145326552Y-119476271D01*
X145409814Y-119374814D01*
X145511271Y-119291552D01*
X145547009Y-119262222D01*
X145564913Y-119252652D01*
X145703533Y-119178557D01*
X145760147Y-119161384D01*
X145873373Y-119127037D01*
X145939557Y-119120519D01*
X146005740Y-119114000D01*
X146094260Y-119114000D01*
X146160443Y-119120519D01*
X146160443Y-119120519D01*
G37*
G36*
X143620443Y-119120519D02*
X143686627Y-119127037D01*
X143799853Y-119161384D01*
X143856467Y-119178557D01*
X143995087Y-119252652D01*
X144012991Y-119262222D01*
X144048729Y-119291552D01*
X144150186Y-119374814D01*
X144233448Y-119476271D01*
X144262778Y-119512009D01*
X144262779Y-119512011D01*
X144346443Y-119668533D01*
X144346443Y-119668534D01*
X144397963Y-119838373D01*
X144415359Y-120015000D01*
X144397963Y-120191627D01*
X144363616Y-120304853D01*
X144346443Y-120361467D01*
X144272348Y-120500087D01*
X144262778Y-120517991D01*
X144233448Y-120553729D01*
X144150186Y-120655186D01*
X144048729Y-120738448D01*
X144012991Y-120767778D01*
X144012989Y-120767779D01*
X143856467Y-120851443D01*
X143799853Y-120868616D01*
X143686627Y-120902963D01*
X143620442Y-120909482D01*
X143554260Y-120916000D01*
X143465740Y-120916000D01*
X143399558Y-120909482D01*
X143333373Y-120902963D01*
X143220147Y-120868616D01*
X143163533Y-120851443D01*
X143007011Y-120767779D01*
X143007009Y-120767778D01*
X142971271Y-120738448D01*
X142869814Y-120655186D01*
X142786552Y-120553729D01*
X142757222Y-120517991D01*
X142747652Y-120500087D01*
X142673557Y-120361467D01*
X142656384Y-120304853D01*
X142622037Y-120191627D01*
X142604641Y-120015000D01*
X142622037Y-119838373D01*
X142673557Y-119668534D01*
X142673557Y-119668533D01*
X142757221Y-119512011D01*
X142757222Y-119512009D01*
X142786552Y-119476271D01*
X142869814Y-119374814D01*
X142971271Y-119291552D01*
X143007009Y-119262222D01*
X143024913Y-119252652D01*
X143163533Y-119178557D01*
X143220147Y-119161384D01*
X143333373Y-119127037D01*
X143399557Y-119120519D01*
X143465740Y-119114000D01*
X143554260Y-119114000D01*
X143620443Y-119120519D01*
X143620443Y-119120519D01*
G37*
G36*
X95360443Y-119120519D02*
X95426627Y-119127037D01*
X95539853Y-119161384D01*
X95596467Y-119178557D01*
X95735087Y-119252652D01*
X95752991Y-119262222D01*
X95788729Y-119291552D01*
X95890186Y-119374814D01*
X95973448Y-119476271D01*
X96002778Y-119512009D01*
X96002779Y-119512011D01*
X96086443Y-119668533D01*
X96086443Y-119668534D01*
X96137963Y-119838373D01*
X96155359Y-120015000D01*
X96137963Y-120191627D01*
X96103616Y-120304853D01*
X96086443Y-120361467D01*
X96012348Y-120500087D01*
X96002778Y-120517991D01*
X95973448Y-120553729D01*
X95890186Y-120655186D01*
X95788729Y-120738448D01*
X95752991Y-120767778D01*
X95752989Y-120767779D01*
X95596467Y-120851443D01*
X95539853Y-120868616D01*
X95426627Y-120902963D01*
X95360442Y-120909482D01*
X95294260Y-120916000D01*
X95205740Y-120916000D01*
X95139558Y-120909482D01*
X95073373Y-120902963D01*
X94960147Y-120868616D01*
X94903533Y-120851443D01*
X94747011Y-120767779D01*
X94747009Y-120767778D01*
X94711271Y-120738448D01*
X94609814Y-120655186D01*
X94526552Y-120553729D01*
X94497222Y-120517991D01*
X94487652Y-120500087D01*
X94413557Y-120361467D01*
X94396384Y-120304853D01*
X94362037Y-120191627D01*
X94344641Y-120015000D01*
X94362037Y-119838373D01*
X94413557Y-119668534D01*
X94413557Y-119668533D01*
X94497221Y-119512011D01*
X94497222Y-119512009D01*
X94526552Y-119476271D01*
X94609814Y-119374814D01*
X94711271Y-119291552D01*
X94747009Y-119262222D01*
X94764913Y-119252652D01*
X94903533Y-119178557D01*
X94960147Y-119161384D01*
X95073373Y-119127037D01*
X95139557Y-119120519D01*
X95205740Y-119114000D01*
X95294260Y-119114000D01*
X95360443Y-119120519D01*
X95360443Y-119120519D01*
G37*
G36*
X92820443Y-119120519D02*
X92886627Y-119127037D01*
X92999853Y-119161384D01*
X93056467Y-119178557D01*
X93195087Y-119252652D01*
X93212991Y-119262222D01*
X93248729Y-119291552D01*
X93350186Y-119374814D01*
X93433448Y-119476271D01*
X93462778Y-119512009D01*
X93462779Y-119512011D01*
X93546443Y-119668533D01*
X93546443Y-119668534D01*
X93597963Y-119838373D01*
X93615359Y-120015000D01*
X93597963Y-120191627D01*
X93563616Y-120304853D01*
X93546443Y-120361467D01*
X93472348Y-120500087D01*
X93462778Y-120517991D01*
X93433448Y-120553729D01*
X93350186Y-120655186D01*
X93248729Y-120738448D01*
X93212991Y-120767778D01*
X93212989Y-120767779D01*
X93056467Y-120851443D01*
X92999853Y-120868616D01*
X92886627Y-120902963D01*
X92820442Y-120909482D01*
X92754260Y-120916000D01*
X92665740Y-120916000D01*
X92599558Y-120909482D01*
X92533373Y-120902963D01*
X92420147Y-120868616D01*
X92363533Y-120851443D01*
X92207011Y-120767779D01*
X92207009Y-120767778D01*
X92171271Y-120738448D01*
X92069814Y-120655186D01*
X91986552Y-120553729D01*
X91957222Y-120517991D01*
X91947652Y-120500087D01*
X91873557Y-120361467D01*
X91856384Y-120304853D01*
X91822037Y-120191627D01*
X91804641Y-120015000D01*
X91822037Y-119838373D01*
X91873557Y-119668534D01*
X91873557Y-119668533D01*
X91957221Y-119512011D01*
X91957222Y-119512009D01*
X91986552Y-119476271D01*
X92069814Y-119374814D01*
X92171271Y-119291552D01*
X92207009Y-119262222D01*
X92224913Y-119252652D01*
X92363533Y-119178557D01*
X92420147Y-119161384D01*
X92533373Y-119127037D01*
X92599557Y-119120519D01*
X92665740Y-119114000D01*
X92754260Y-119114000D01*
X92820443Y-119120519D01*
X92820443Y-119120519D01*
G37*
G36*
X143620443Y-116580519D02*
X143686627Y-116587037D01*
X143799853Y-116621384D01*
X143856467Y-116638557D01*
X143995087Y-116712652D01*
X144012991Y-116722222D01*
X144048729Y-116751552D01*
X144150186Y-116834814D01*
X144233448Y-116936271D01*
X144262778Y-116972009D01*
X144262779Y-116972011D01*
X144346443Y-117128533D01*
X144346443Y-117128534D01*
X144397963Y-117298373D01*
X144415359Y-117475000D01*
X144397963Y-117651627D01*
X144363616Y-117764853D01*
X144346443Y-117821467D01*
X144272348Y-117960087D01*
X144262778Y-117977991D01*
X144233448Y-118013729D01*
X144150186Y-118115186D01*
X144048729Y-118198448D01*
X144012991Y-118227778D01*
X144012989Y-118227779D01*
X143856467Y-118311443D01*
X143799853Y-118328616D01*
X143686627Y-118362963D01*
X143620442Y-118369482D01*
X143554260Y-118376000D01*
X143465740Y-118376000D01*
X143399558Y-118369482D01*
X143333373Y-118362963D01*
X143220147Y-118328616D01*
X143163533Y-118311443D01*
X143007011Y-118227779D01*
X143007009Y-118227778D01*
X142971271Y-118198448D01*
X142869814Y-118115186D01*
X142786552Y-118013729D01*
X142757222Y-117977991D01*
X142747652Y-117960087D01*
X142673557Y-117821467D01*
X142656384Y-117764853D01*
X142622037Y-117651627D01*
X142604641Y-117475000D01*
X142622037Y-117298373D01*
X142673557Y-117128534D01*
X142673557Y-117128533D01*
X142757221Y-116972011D01*
X142757222Y-116972009D01*
X142786552Y-116936271D01*
X142869814Y-116834814D01*
X142971271Y-116751552D01*
X143007009Y-116722222D01*
X143024913Y-116712652D01*
X143163533Y-116638557D01*
X143220147Y-116621384D01*
X143333373Y-116587037D01*
X143399557Y-116580519D01*
X143465740Y-116574000D01*
X143554260Y-116574000D01*
X143620443Y-116580519D01*
X143620443Y-116580519D01*
G37*
G36*
X146160443Y-116580519D02*
X146226627Y-116587037D01*
X146339853Y-116621384D01*
X146396467Y-116638557D01*
X146535087Y-116712652D01*
X146552991Y-116722222D01*
X146588729Y-116751552D01*
X146690186Y-116834814D01*
X146773448Y-116936271D01*
X146802778Y-116972009D01*
X146802779Y-116972011D01*
X146886443Y-117128533D01*
X146886443Y-117128534D01*
X146937963Y-117298373D01*
X146955359Y-117475000D01*
X146937963Y-117651627D01*
X146903616Y-117764853D01*
X146886443Y-117821467D01*
X146812348Y-117960087D01*
X146802778Y-117977991D01*
X146773448Y-118013729D01*
X146690186Y-118115186D01*
X146588729Y-118198448D01*
X146552991Y-118227778D01*
X146552989Y-118227779D01*
X146396467Y-118311443D01*
X146339853Y-118328616D01*
X146226627Y-118362963D01*
X146160442Y-118369482D01*
X146094260Y-118376000D01*
X146005740Y-118376000D01*
X145939558Y-118369482D01*
X145873373Y-118362963D01*
X145760147Y-118328616D01*
X145703533Y-118311443D01*
X145547011Y-118227779D01*
X145547009Y-118227778D01*
X145511271Y-118198448D01*
X145409814Y-118115186D01*
X145326552Y-118013729D01*
X145297222Y-117977991D01*
X145287652Y-117960087D01*
X145213557Y-117821467D01*
X145196384Y-117764853D01*
X145162037Y-117651627D01*
X145144641Y-117475000D01*
X145162037Y-117298373D01*
X145213557Y-117128534D01*
X145213557Y-117128533D01*
X145297221Y-116972011D01*
X145297222Y-116972009D01*
X145326552Y-116936271D01*
X145409814Y-116834814D01*
X145511271Y-116751552D01*
X145547009Y-116722222D01*
X145564913Y-116712652D01*
X145703533Y-116638557D01*
X145760147Y-116621384D01*
X145873373Y-116587037D01*
X145939557Y-116580519D01*
X146005740Y-116574000D01*
X146094260Y-116574000D01*
X146160443Y-116580519D01*
X146160443Y-116580519D01*
G37*
G36*
X92820443Y-116580519D02*
X92886627Y-116587037D01*
X92999853Y-116621384D01*
X93056467Y-116638557D01*
X93195087Y-116712652D01*
X93212991Y-116722222D01*
X93248729Y-116751552D01*
X93350186Y-116834814D01*
X93433448Y-116936271D01*
X93462778Y-116972009D01*
X93462779Y-116972011D01*
X93546443Y-117128533D01*
X93546443Y-117128534D01*
X93597963Y-117298373D01*
X93615359Y-117475000D01*
X93597963Y-117651627D01*
X93563616Y-117764853D01*
X93546443Y-117821467D01*
X93472348Y-117960087D01*
X93462778Y-117977991D01*
X93433448Y-118013729D01*
X93350186Y-118115186D01*
X93248729Y-118198448D01*
X93212991Y-118227778D01*
X93212989Y-118227779D01*
X93056467Y-118311443D01*
X92999853Y-118328616D01*
X92886627Y-118362963D01*
X92820442Y-118369482D01*
X92754260Y-118376000D01*
X92665740Y-118376000D01*
X92599558Y-118369482D01*
X92533373Y-118362963D01*
X92420147Y-118328616D01*
X92363533Y-118311443D01*
X92207011Y-118227779D01*
X92207009Y-118227778D01*
X92171271Y-118198448D01*
X92069814Y-118115186D01*
X91986552Y-118013729D01*
X91957222Y-117977991D01*
X91947652Y-117960087D01*
X91873557Y-117821467D01*
X91856384Y-117764853D01*
X91822037Y-117651627D01*
X91804641Y-117475000D01*
X91822037Y-117298373D01*
X91873557Y-117128534D01*
X91873557Y-117128533D01*
X91957221Y-116972011D01*
X91957222Y-116972009D01*
X91986552Y-116936271D01*
X92069814Y-116834814D01*
X92171271Y-116751552D01*
X92207009Y-116722222D01*
X92224913Y-116712652D01*
X92363533Y-116638557D01*
X92420147Y-116621384D01*
X92533373Y-116587037D01*
X92599557Y-116580519D01*
X92665740Y-116574000D01*
X92754260Y-116574000D01*
X92820443Y-116580519D01*
X92820443Y-116580519D01*
G37*
G36*
X95360443Y-116580519D02*
X95426627Y-116587037D01*
X95539853Y-116621384D01*
X95596467Y-116638557D01*
X95735087Y-116712652D01*
X95752991Y-116722222D01*
X95788729Y-116751552D01*
X95890186Y-116834814D01*
X95973448Y-116936271D01*
X96002778Y-116972009D01*
X96002779Y-116972011D01*
X96086443Y-117128533D01*
X96086443Y-117128534D01*
X96137963Y-117298373D01*
X96155359Y-117475000D01*
X96137963Y-117651627D01*
X96103616Y-117764853D01*
X96086443Y-117821467D01*
X96012348Y-117960087D01*
X96002778Y-117977991D01*
X95973448Y-118013729D01*
X95890186Y-118115186D01*
X95788729Y-118198448D01*
X95752991Y-118227778D01*
X95752989Y-118227779D01*
X95596467Y-118311443D01*
X95539853Y-118328616D01*
X95426627Y-118362963D01*
X95360442Y-118369482D01*
X95294260Y-118376000D01*
X95205740Y-118376000D01*
X95139558Y-118369482D01*
X95073373Y-118362963D01*
X94960147Y-118328616D01*
X94903533Y-118311443D01*
X94747011Y-118227779D01*
X94747009Y-118227778D01*
X94711271Y-118198448D01*
X94609814Y-118115186D01*
X94526552Y-118013729D01*
X94497222Y-117977991D01*
X94487652Y-117960087D01*
X94413557Y-117821467D01*
X94396384Y-117764853D01*
X94362037Y-117651627D01*
X94344641Y-117475000D01*
X94362037Y-117298373D01*
X94413557Y-117128534D01*
X94413557Y-117128533D01*
X94497221Y-116972011D01*
X94497222Y-116972009D01*
X94526552Y-116936271D01*
X94609814Y-116834814D01*
X94711271Y-116751552D01*
X94747009Y-116722222D01*
X94764913Y-116712652D01*
X94903533Y-116638557D01*
X94960147Y-116621384D01*
X95073373Y-116587037D01*
X95139557Y-116580519D01*
X95205740Y-116574000D01*
X95294260Y-116574000D01*
X95360443Y-116580519D01*
X95360443Y-116580519D01*
G37*
G36*
X92820442Y-114040518D02*
X92886627Y-114047037D01*
X92999853Y-114081384D01*
X93056467Y-114098557D01*
X93195087Y-114172652D01*
X93212991Y-114182222D01*
X93248729Y-114211552D01*
X93350186Y-114294814D01*
X93433448Y-114396271D01*
X93462778Y-114432009D01*
X93462779Y-114432011D01*
X93546443Y-114588533D01*
X93546443Y-114588534D01*
X93597963Y-114758373D01*
X93615359Y-114935000D01*
X93597963Y-115111627D01*
X93563616Y-115224853D01*
X93546443Y-115281467D01*
X93472348Y-115420087D01*
X93462778Y-115437991D01*
X93433448Y-115473729D01*
X93350186Y-115575186D01*
X93248729Y-115658448D01*
X93212991Y-115687778D01*
X93212989Y-115687779D01*
X93056467Y-115771443D01*
X92999853Y-115788616D01*
X92886627Y-115822963D01*
X92820443Y-115829481D01*
X92754260Y-115836000D01*
X92665740Y-115836000D01*
X92599557Y-115829481D01*
X92533373Y-115822963D01*
X92420147Y-115788616D01*
X92363533Y-115771443D01*
X92207011Y-115687779D01*
X92207009Y-115687778D01*
X92171271Y-115658448D01*
X92069814Y-115575186D01*
X91986552Y-115473729D01*
X91957222Y-115437991D01*
X91947652Y-115420087D01*
X91873557Y-115281467D01*
X91856384Y-115224853D01*
X91822037Y-115111627D01*
X91804641Y-114935000D01*
X91822037Y-114758373D01*
X91873557Y-114588534D01*
X91873557Y-114588533D01*
X91957221Y-114432011D01*
X91957222Y-114432009D01*
X91986552Y-114396271D01*
X92069814Y-114294814D01*
X92171271Y-114211552D01*
X92207009Y-114182222D01*
X92224913Y-114172652D01*
X92363533Y-114098557D01*
X92420147Y-114081384D01*
X92533373Y-114047037D01*
X92599558Y-114040518D01*
X92665740Y-114034000D01*
X92754260Y-114034000D01*
X92820442Y-114040518D01*
X92820442Y-114040518D01*
G37*
G36*
X146160442Y-114040518D02*
X146226627Y-114047037D01*
X146339853Y-114081384D01*
X146396467Y-114098557D01*
X146535087Y-114172652D01*
X146552991Y-114182222D01*
X146588729Y-114211552D01*
X146690186Y-114294814D01*
X146773448Y-114396271D01*
X146802778Y-114432009D01*
X146802779Y-114432011D01*
X146886443Y-114588533D01*
X146886443Y-114588534D01*
X146937963Y-114758373D01*
X146955359Y-114935000D01*
X146937963Y-115111627D01*
X146903616Y-115224853D01*
X146886443Y-115281467D01*
X146812348Y-115420087D01*
X146802778Y-115437991D01*
X146773448Y-115473729D01*
X146690186Y-115575186D01*
X146588729Y-115658448D01*
X146552991Y-115687778D01*
X146552989Y-115687779D01*
X146396467Y-115771443D01*
X146339853Y-115788616D01*
X146226627Y-115822963D01*
X146160443Y-115829481D01*
X146094260Y-115836000D01*
X146005740Y-115836000D01*
X145939557Y-115829481D01*
X145873373Y-115822963D01*
X145760147Y-115788616D01*
X145703533Y-115771443D01*
X145547011Y-115687779D01*
X145547009Y-115687778D01*
X145511271Y-115658448D01*
X145409814Y-115575186D01*
X145326552Y-115473729D01*
X145297222Y-115437991D01*
X145287652Y-115420087D01*
X145213557Y-115281467D01*
X145196384Y-115224853D01*
X145162037Y-115111627D01*
X145144641Y-114935000D01*
X145162037Y-114758373D01*
X145213557Y-114588534D01*
X145213557Y-114588533D01*
X145297221Y-114432011D01*
X145297222Y-114432009D01*
X145326552Y-114396271D01*
X145409814Y-114294814D01*
X145511271Y-114211552D01*
X145547009Y-114182222D01*
X145564913Y-114172652D01*
X145703533Y-114098557D01*
X145760147Y-114081384D01*
X145873373Y-114047037D01*
X145939558Y-114040518D01*
X146005740Y-114034000D01*
X146094260Y-114034000D01*
X146160442Y-114040518D01*
X146160442Y-114040518D01*
G37*
G36*
X95360442Y-114040518D02*
X95426627Y-114047037D01*
X95539853Y-114081384D01*
X95596467Y-114098557D01*
X95735087Y-114172652D01*
X95752991Y-114182222D01*
X95788729Y-114211552D01*
X95890186Y-114294814D01*
X95973448Y-114396271D01*
X96002778Y-114432009D01*
X96002779Y-114432011D01*
X96086443Y-114588533D01*
X96086443Y-114588534D01*
X96137963Y-114758373D01*
X96155359Y-114935000D01*
X96137963Y-115111627D01*
X96103616Y-115224853D01*
X96086443Y-115281467D01*
X96012348Y-115420087D01*
X96002778Y-115437991D01*
X95973448Y-115473729D01*
X95890186Y-115575186D01*
X95788729Y-115658448D01*
X95752991Y-115687778D01*
X95752989Y-115687779D01*
X95596467Y-115771443D01*
X95539853Y-115788616D01*
X95426627Y-115822963D01*
X95360443Y-115829481D01*
X95294260Y-115836000D01*
X95205740Y-115836000D01*
X95139557Y-115829481D01*
X95073373Y-115822963D01*
X94960147Y-115788616D01*
X94903533Y-115771443D01*
X94747011Y-115687779D01*
X94747009Y-115687778D01*
X94711271Y-115658448D01*
X94609814Y-115575186D01*
X94526552Y-115473729D01*
X94497222Y-115437991D01*
X94487652Y-115420087D01*
X94413557Y-115281467D01*
X94396384Y-115224853D01*
X94362037Y-115111627D01*
X94344641Y-114935000D01*
X94362037Y-114758373D01*
X94413557Y-114588534D01*
X94413557Y-114588533D01*
X94497221Y-114432011D01*
X94497222Y-114432009D01*
X94526552Y-114396271D01*
X94609814Y-114294814D01*
X94711271Y-114211552D01*
X94747009Y-114182222D01*
X94764913Y-114172652D01*
X94903533Y-114098557D01*
X94960147Y-114081384D01*
X95073373Y-114047037D01*
X95139558Y-114040518D01*
X95205740Y-114034000D01*
X95294260Y-114034000D01*
X95360442Y-114040518D01*
X95360442Y-114040518D01*
G37*
G36*
X143620442Y-114040518D02*
X143686627Y-114047037D01*
X143799853Y-114081384D01*
X143856467Y-114098557D01*
X143995087Y-114172652D01*
X144012991Y-114182222D01*
X144048729Y-114211552D01*
X144150186Y-114294814D01*
X144233448Y-114396271D01*
X144262778Y-114432009D01*
X144262779Y-114432011D01*
X144346443Y-114588533D01*
X144346443Y-114588534D01*
X144397963Y-114758373D01*
X144415359Y-114935000D01*
X144397963Y-115111627D01*
X144363616Y-115224853D01*
X144346443Y-115281467D01*
X144272348Y-115420087D01*
X144262778Y-115437991D01*
X144233448Y-115473729D01*
X144150186Y-115575186D01*
X144048729Y-115658448D01*
X144012991Y-115687778D01*
X144012989Y-115687779D01*
X143856467Y-115771443D01*
X143799853Y-115788616D01*
X143686627Y-115822963D01*
X143620443Y-115829481D01*
X143554260Y-115836000D01*
X143465740Y-115836000D01*
X143399557Y-115829481D01*
X143333373Y-115822963D01*
X143220147Y-115788616D01*
X143163533Y-115771443D01*
X143007011Y-115687779D01*
X143007009Y-115687778D01*
X142971271Y-115658448D01*
X142869814Y-115575186D01*
X142786552Y-115473729D01*
X142757222Y-115437991D01*
X142747652Y-115420087D01*
X142673557Y-115281467D01*
X142656384Y-115224853D01*
X142622037Y-115111627D01*
X142604641Y-114935000D01*
X142622037Y-114758373D01*
X142673557Y-114588534D01*
X142673557Y-114588533D01*
X142757221Y-114432011D01*
X142757222Y-114432009D01*
X142786552Y-114396271D01*
X142869814Y-114294814D01*
X142971271Y-114211552D01*
X143007009Y-114182222D01*
X143024913Y-114172652D01*
X143163533Y-114098557D01*
X143220147Y-114081384D01*
X143333373Y-114047037D01*
X143399558Y-114040518D01*
X143465740Y-114034000D01*
X143554260Y-114034000D01*
X143620442Y-114040518D01*
X143620442Y-114040518D01*
G37*
G36*
X143620443Y-111500519D02*
X143686627Y-111507037D01*
X143799853Y-111541384D01*
X143856467Y-111558557D01*
X143995087Y-111632652D01*
X144012991Y-111642222D01*
X144048729Y-111671552D01*
X144150186Y-111754814D01*
X144233448Y-111856271D01*
X144262778Y-111892009D01*
X144262779Y-111892011D01*
X144346443Y-112048533D01*
X144346443Y-112048534D01*
X144397963Y-112218373D01*
X144415359Y-112395000D01*
X144397963Y-112571627D01*
X144363616Y-112684853D01*
X144346443Y-112741467D01*
X144272348Y-112880087D01*
X144262778Y-112897991D01*
X144233448Y-112933729D01*
X144150186Y-113035186D01*
X144048729Y-113118448D01*
X144012991Y-113147778D01*
X144012989Y-113147779D01*
X143856467Y-113231443D01*
X143799853Y-113248616D01*
X143686627Y-113282963D01*
X143620443Y-113289481D01*
X143554260Y-113296000D01*
X143465740Y-113296000D01*
X143399557Y-113289481D01*
X143333373Y-113282963D01*
X143220147Y-113248616D01*
X143163533Y-113231443D01*
X143007011Y-113147779D01*
X143007009Y-113147778D01*
X142971271Y-113118448D01*
X142869814Y-113035186D01*
X142786552Y-112933729D01*
X142757222Y-112897991D01*
X142747652Y-112880087D01*
X142673557Y-112741467D01*
X142656384Y-112684853D01*
X142622037Y-112571627D01*
X142604641Y-112395000D01*
X142622037Y-112218373D01*
X142673557Y-112048534D01*
X142673557Y-112048533D01*
X142757221Y-111892011D01*
X142757222Y-111892009D01*
X142786552Y-111856271D01*
X142869814Y-111754814D01*
X142971271Y-111671552D01*
X143007009Y-111642222D01*
X143024913Y-111632652D01*
X143163533Y-111558557D01*
X143220147Y-111541384D01*
X143333373Y-111507037D01*
X143399557Y-111500519D01*
X143465740Y-111494000D01*
X143554260Y-111494000D01*
X143620443Y-111500519D01*
X143620443Y-111500519D01*
G37*
G36*
X92820443Y-111500519D02*
X92886627Y-111507037D01*
X92999853Y-111541384D01*
X93056467Y-111558557D01*
X93195087Y-111632652D01*
X93212991Y-111642222D01*
X93248729Y-111671552D01*
X93350186Y-111754814D01*
X93433448Y-111856271D01*
X93462778Y-111892009D01*
X93462779Y-111892011D01*
X93546443Y-112048533D01*
X93546443Y-112048534D01*
X93597963Y-112218373D01*
X93615359Y-112395000D01*
X93597963Y-112571627D01*
X93563616Y-112684853D01*
X93546443Y-112741467D01*
X93472348Y-112880087D01*
X93462778Y-112897991D01*
X93433448Y-112933729D01*
X93350186Y-113035186D01*
X93248729Y-113118448D01*
X93212991Y-113147778D01*
X93212989Y-113147779D01*
X93056467Y-113231443D01*
X92999853Y-113248616D01*
X92886627Y-113282963D01*
X92820443Y-113289481D01*
X92754260Y-113296000D01*
X92665740Y-113296000D01*
X92599557Y-113289481D01*
X92533373Y-113282963D01*
X92420147Y-113248616D01*
X92363533Y-113231443D01*
X92207011Y-113147779D01*
X92207009Y-113147778D01*
X92171271Y-113118448D01*
X92069814Y-113035186D01*
X91986552Y-112933729D01*
X91957222Y-112897991D01*
X91947652Y-112880087D01*
X91873557Y-112741467D01*
X91856384Y-112684853D01*
X91822037Y-112571627D01*
X91804641Y-112395000D01*
X91822037Y-112218373D01*
X91873557Y-112048534D01*
X91873557Y-112048533D01*
X91957221Y-111892011D01*
X91957222Y-111892009D01*
X91986552Y-111856271D01*
X92069814Y-111754814D01*
X92171271Y-111671552D01*
X92207009Y-111642222D01*
X92224913Y-111632652D01*
X92363533Y-111558557D01*
X92420147Y-111541384D01*
X92533373Y-111507037D01*
X92599557Y-111500519D01*
X92665740Y-111494000D01*
X92754260Y-111494000D01*
X92820443Y-111500519D01*
X92820443Y-111500519D01*
G37*
G36*
X95360443Y-111500519D02*
X95426627Y-111507037D01*
X95539853Y-111541384D01*
X95596467Y-111558557D01*
X95735087Y-111632652D01*
X95752991Y-111642222D01*
X95788729Y-111671552D01*
X95890186Y-111754814D01*
X95973448Y-111856271D01*
X96002778Y-111892009D01*
X96002779Y-111892011D01*
X96086443Y-112048533D01*
X96086443Y-112048534D01*
X96137963Y-112218373D01*
X96155359Y-112395000D01*
X96137963Y-112571627D01*
X96103616Y-112684853D01*
X96086443Y-112741467D01*
X96012348Y-112880087D01*
X96002778Y-112897991D01*
X95973448Y-112933729D01*
X95890186Y-113035186D01*
X95788729Y-113118448D01*
X95752991Y-113147778D01*
X95752989Y-113147779D01*
X95596467Y-113231443D01*
X95539853Y-113248616D01*
X95426627Y-113282963D01*
X95360443Y-113289481D01*
X95294260Y-113296000D01*
X95205740Y-113296000D01*
X95139557Y-113289481D01*
X95073373Y-113282963D01*
X94960147Y-113248616D01*
X94903533Y-113231443D01*
X94747011Y-113147779D01*
X94747009Y-113147778D01*
X94711271Y-113118448D01*
X94609814Y-113035186D01*
X94526552Y-112933729D01*
X94497222Y-112897991D01*
X94487652Y-112880087D01*
X94413557Y-112741467D01*
X94396384Y-112684853D01*
X94362037Y-112571627D01*
X94344641Y-112395000D01*
X94362037Y-112218373D01*
X94413557Y-112048534D01*
X94413557Y-112048533D01*
X94497221Y-111892011D01*
X94497222Y-111892009D01*
X94526552Y-111856271D01*
X94609814Y-111754814D01*
X94711271Y-111671552D01*
X94747009Y-111642222D01*
X94764913Y-111632652D01*
X94903533Y-111558557D01*
X94960147Y-111541384D01*
X95073373Y-111507037D01*
X95139557Y-111500519D01*
X95205740Y-111494000D01*
X95294260Y-111494000D01*
X95360443Y-111500519D01*
X95360443Y-111500519D01*
G37*
G36*
X146160443Y-111500519D02*
X146226627Y-111507037D01*
X146339853Y-111541384D01*
X146396467Y-111558557D01*
X146535087Y-111632652D01*
X146552991Y-111642222D01*
X146588729Y-111671552D01*
X146690186Y-111754814D01*
X146773448Y-111856271D01*
X146802778Y-111892009D01*
X146802779Y-111892011D01*
X146886443Y-112048533D01*
X146886443Y-112048534D01*
X146937963Y-112218373D01*
X146955359Y-112395000D01*
X146937963Y-112571627D01*
X146903616Y-112684853D01*
X146886443Y-112741467D01*
X146812348Y-112880087D01*
X146802778Y-112897991D01*
X146773448Y-112933729D01*
X146690186Y-113035186D01*
X146588729Y-113118448D01*
X146552991Y-113147778D01*
X146552989Y-113147779D01*
X146396467Y-113231443D01*
X146339853Y-113248616D01*
X146226627Y-113282963D01*
X146160443Y-113289481D01*
X146094260Y-113296000D01*
X146005740Y-113296000D01*
X145939557Y-113289481D01*
X145873373Y-113282963D01*
X145760147Y-113248616D01*
X145703533Y-113231443D01*
X145547011Y-113147779D01*
X145547009Y-113147778D01*
X145511271Y-113118448D01*
X145409814Y-113035186D01*
X145326552Y-112933729D01*
X145297222Y-112897991D01*
X145287652Y-112880087D01*
X145213557Y-112741467D01*
X145196384Y-112684853D01*
X145162037Y-112571627D01*
X145144641Y-112395000D01*
X145162037Y-112218373D01*
X145213557Y-112048534D01*
X145213557Y-112048533D01*
X145297221Y-111892011D01*
X145297222Y-111892009D01*
X145326552Y-111856271D01*
X145409814Y-111754814D01*
X145511271Y-111671552D01*
X145547009Y-111642222D01*
X145564913Y-111632652D01*
X145703533Y-111558557D01*
X145760147Y-111541384D01*
X145873373Y-111507037D01*
X145939557Y-111500519D01*
X146005740Y-111494000D01*
X146094260Y-111494000D01*
X146160443Y-111500519D01*
X146160443Y-111500519D01*
G37*
G36*
X95360443Y-108960519D02*
X95426627Y-108967037D01*
X95539853Y-109001384D01*
X95596467Y-109018557D01*
X95735087Y-109092652D01*
X95752991Y-109102222D01*
X95788729Y-109131552D01*
X95890186Y-109214814D01*
X95973448Y-109316271D01*
X96002778Y-109352009D01*
X96002779Y-109352011D01*
X96086443Y-109508533D01*
X96086443Y-109508534D01*
X96137963Y-109678373D01*
X96155359Y-109855000D01*
X96137963Y-110031627D01*
X96103616Y-110144853D01*
X96086443Y-110201467D01*
X96012348Y-110340087D01*
X96002778Y-110357991D01*
X95973448Y-110393729D01*
X95890186Y-110495186D01*
X95788729Y-110578448D01*
X95752991Y-110607778D01*
X95752989Y-110607779D01*
X95596467Y-110691443D01*
X95539853Y-110708616D01*
X95426627Y-110742963D01*
X95360442Y-110749482D01*
X95294260Y-110756000D01*
X95205740Y-110756000D01*
X95139558Y-110749482D01*
X95073373Y-110742963D01*
X94960147Y-110708616D01*
X94903533Y-110691443D01*
X94747011Y-110607779D01*
X94747009Y-110607778D01*
X94711271Y-110578448D01*
X94609814Y-110495186D01*
X94526552Y-110393729D01*
X94497222Y-110357991D01*
X94487652Y-110340087D01*
X94413557Y-110201467D01*
X94396384Y-110144853D01*
X94362037Y-110031627D01*
X94344641Y-109855000D01*
X94362037Y-109678373D01*
X94413557Y-109508534D01*
X94413557Y-109508533D01*
X94497221Y-109352011D01*
X94497222Y-109352009D01*
X94526552Y-109316271D01*
X94609814Y-109214814D01*
X94711271Y-109131552D01*
X94747009Y-109102222D01*
X94764913Y-109092652D01*
X94903533Y-109018557D01*
X94960147Y-109001384D01*
X95073373Y-108967037D01*
X95139557Y-108960519D01*
X95205740Y-108954000D01*
X95294260Y-108954000D01*
X95360443Y-108960519D01*
X95360443Y-108960519D01*
G37*
G36*
X143620443Y-108960519D02*
X143686627Y-108967037D01*
X143799853Y-109001384D01*
X143856467Y-109018557D01*
X143995087Y-109092652D01*
X144012991Y-109102222D01*
X144048729Y-109131552D01*
X144150186Y-109214814D01*
X144233448Y-109316271D01*
X144262778Y-109352009D01*
X144262779Y-109352011D01*
X144346443Y-109508533D01*
X144346443Y-109508534D01*
X144397963Y-109678373D01*
X144415359Y-109855000D01*
X144397963Y-110031627D01*
X144363616Y-110144853D01*
X144346443Y-110201467D01*
X144272348Y-110340087D01*
X144262778Y-110357991D01*
X144233448Y-110393729D01*
X144150186Y-110495186D01*
X144048729Y-110578448D01*
X144012991Y-110607778D01*
X144012989Y-110607779D01*
X143856467Y-110691443D01*
X143799853Y-110708616D01*
X143686627Y-110742963D01*
X143620442Y-110749482D01*
X143554260Y-110756000D01*
X143465740Y-110756000D01*
X143399558Y-110749482D01*
X143333373Y-110742963D01*
X143220147Y-110708616D01*
X143163533Y-110691443D01*
X143007011Y-110607779D01*
X143007009Y-110607778D01*
X142971271Y-110578448D01*
X142869814Y-110495186D01*
X142786552Y-110393729D01*
X142757222Y-110357991D01*
X142747652Y-110340087D01*
X142673557Y-110201467D01*
X142656384Y-110144853D01*
X142622037Y-110031627D01*
X142604641Y-109855000D01*
X142622037Y-109678373D01*
X142673557Y-109508534D01*
X142673557Y-109508533D01*
X142757221Y-109352011D01*
X142757222Y-109352009D01*
X142786552Y-109316271D01*
X142869814Y-109214814D01*
X142971271Y-109131552D01*
X143007009Y-109102222D01*
X143024913Y-109092652D01*
X143163533Y-109018557D01*
X143220147Y-109001384D01*
X143333373Y-108967037D01*
X143399557Y-108960519D01*
X143465740Y-108954000D01*
X143554260Y-108954000D01*
X143620443Y-108960519D01*
X143620443Y-108960519D01*
G37*
G36*
X146160443Y-108960519D02*
X146226627Y-108967037D01*
X146339853Y-109001384D01*
X146396467Y-109018557D01*
X146535087Y-109092652D01*
X146552991Y-109102222D01*
X146588729Y-109131552D01*
X146690186Y-109214814D01*
X146773448Y-109316271D01*
X146802778Y-109352009D01*
X146802779Y-109352011D01*
X146886443Y-109508533D01*
X146886443Y-109508534D01*
X146937963Y-109678373D01*
X146955359Y-109855000D01*
X146937963Y-110031627D01*
X146903616Y-110144853D01*
X146886443Y-110201467D01*
X146812348Y-110340087D01*
X146802778Y-110357991D01*
X146773448Y-110393729D01*
X146690186Y-110495186D01*
X146588729Y-110578448D01*
X146552991Y-110607778D01*
X146552989Y-110607779D01*
X146396467Y-110691443D01*
X146339853Y-110708616D01*
X146226627Y-110742963D01*
X146160442Y-110749482D01*
X146094260Y-110756000D01*
X146005740Y-110756000D01*
X145939558Y-110749482D01*
X145873373Y-110742963D01*
X145760147Y-110708616D01*
X145703533Y-110691443D01*
X145547011Y-110607779D01*
X145547009Y-110607778D01*
X145511271Y-110578448D01*
X145409814Y-110495186D01*
X145326552Y-110393729D01*
X145297222Y-110357991D01*
X145287652Y-110340087D01*
X145213557Y-110201467D01*
X145196384Y-110144853D01*
X145162037Y-110031627D01*
X145144641Y-109855000D01*
X145162037Y-109678373D01*
X145213557Y-109508534D01*
X145213557Y-109508533D01*
X145297221Y-109352011D01*
X145297222Y-109352009D01*
X145326552Y-109316271D01*
X145409814Y-109214814D01*
X145511271Y-109131552D01*
X145547009Y-109102222D01*
X145564913Y-109092652D01*
X145703533Y-109018557D01*
X145760147Y-109001384D01*
X145873373Y-108967037D01*
X145939557Y-108960519D01*
X146005740Y-108954000D01*
X146094260Y-108954000D01*
X146160443Y-108960519D01*
X146160443Y-108960519D01*
G37*
G36*
X92820443Y-108960519D02*
X92886627Y-108967037D01*
X92999853Y-109001384D01*
X93056467Y-109018557D01*
X93195087Y-109092652D01*
X93212991Y-109102222D01*
X93248729Y-109131552D01*
X93350186Y-109214814D01*
X93433448Y-109316271D01*
X93462778Y-109352009D01*
X93462779Y-109352011D01*
X93546443Y-109508533D01*
X93546443Y-109508534D01*
X93597963Y-109678373D01*
X93615359Y-109855000D01*
X93597963Y-110031627D01*
X93563616Y-110144853D01*
X93546443Y-110201467D01*
X93472348Y-110340087D01*
X93462778Y-110357991D01*
X93433448Y-110393729D01*
X93350186Y-110495186D01*
X93248729Y-110578448D01*
X93212991Y-110607778D01*
X93212989Y-110607779D01*
X93056467Y-110691443D01*
X92999853Y-110708616D01*
X92886627Y-110742963D01*
X92820442Y-110749482D01*
X92754260Y-110756000D01*
X92665740Y-110756000D01*
X92599558Y-110749482D01*
X92533373Y-110742963D01*
X92420147Y-110708616D01*
X92363533Y-110691443D01*
X92207011Y-110607779D01*
X92207009Y-110607778D01*
X92171271Y-110578448D01*
X92069814Y-110495186D01*
X91986552Y-110393729D01*
X91957222Y-110357991D01*
X91947652Y-110340087D01*
X91873557Y-110201467D01*
X91856384Y-110144853D01*
X91822037Y-110031627D01*
X91804641Y-109855000D01*
X91822037Y-109678373D01*
X91873557Y-109508534D01*
X91873557Y-109508533D01*
X91957221Y-109352011D01*
X91957222Y-109352009D01*
X91986552Y-109316271D01*
X92069814Y-109214814D01*
X92171271Y-109131552D01*
X92207009Y-109102222D01*
X92224913Y-109092652D01*
X92363533Y-109018557D01*
X92420147Y-109001384D01*
X92533373Y-108967037D01*
X92599557Y-108960519D01*
X92665740Y-108954000D01*
X92754260Y-108954000D01*
X92820443Y-108960519D01*
X92820443Y-108960519D01*
G37*
G36*
X146160443Y-106420519D02*
X146226627Y-106427037D01*
X146339853Y-106461384D01*
X146396467Y-106478557D01*
X146535087Y-106552652D01*
X146552991Y-106562222D01*
X146588729Y-106591552D01*
X146690186Y-106674814D01*
X146773448Y-106776271D01*
X146802778Y-106812009D01*
X146802779Y-106812011D01*
X146886443Y-106968533D01*
X146886443Y-106968534D01*
X146937963Y-107138373D01*
X146955359Y-107315000D01*
X146937963Y-107491627D01*
X146903616Y-107604853D01*
X146886443Y-107661467D01*
X146812348Y-107800087D01*
X146802778Y-107817991D01*
X146773448Y-107853729D01*
X146690186Y-107955186D01*
X146588729Y-108038448D01*
X146552991Y-108067778D01*
X146552989Y-108067779D01*
X146396467Y-108151443D01*
X146339853Y-108168616D01*
X146226627Y-108202963D01*
X146160443Y-108209481D01*
X146094260Y-108216000D01*
X146005740Y-108216000D01*
X145939557Y-108209481D01*
X145873373Y-108202963D01*
X145760147Y-108168616D01*
X145703533Y-108151443D01*
X145547011Y-108067779D01*
X145547009Y-108067778D01*
X145511271Y-108038448D01*
X145409814Y-107955186D01*
X145326552Y-107853729D01*
X145297222Y-107817991D01*
X145287652Y-107800087D01*
X145213557Y-107661467D01*
X145196384Y-107604853D01*
X145162037Y-107491627D01*
X145144641Y-107315000D01*
X145162037Y-107138373D01*
X145213557Y-106968534D01*
X145213557Y-106968533D01*
X145297221Y-106812011D01*
X145297222Y-106812009D01*
X145326552Y-106776271D01*
X145409814Y-106674814D01*
X145511271Y-106591552D01*
X145547009Y-106562222D01*
X145564913Y-106552652D01*
X145703533Y-106478557D01*
X145760147Y-106461384D01*
X145873373Y-106427037D01*
X145939557Y-106420519D01*
X146005740Y-106414000D01*
X146094260Y-106414000D01*
X146160443Y-106420519D01*
X146160443Y-106420519D01*
G37*
G36*
X144411000Y-108216000D02*
X142609000Y-108216000D01*
X142609000Y-106414000D01*
X144411000Y-106414000D01*
X144411000Y-108216000D01*
X144411000Y-108216000D01*
G37*
G36*
X95360443Y-106420519D02*
X95426627Y-106427037D01*
X95539853Y-106461384D01*
X95596467Y-106478557D01*
X95735087Y-106552652D01*
X95752991Y-106562222D01*
X95788729Y-106591552D01*
X95890186Y-106674814D01*
X95973448Y-106776271D01*
X96002778Y-106812009D01*
X96002779Y-106812011D01*
X96086443Y-106968533D01*
X96086443Y-106968534D01*
X96137963Y-107138373D01*
X96155359Y-107315000D01*
X96137963Y-107491627D01*
X96103616Y-107604853D01*
X96086443Y-107661467D01*
X96012348Y-107800087D01*
X96002778Y-107817991D01*
X95973448Y-107853729D01*
X95890186Y-107955186D01*
X95788729Y-108038448D01*
X95752991Y-108067778D01*
X95752989Y-108067779D01*
X95596467Y-108151443D01*
X95539853Y-108168616D01*
X95426627Y-108202963D01*
X95360443Y-108209481D01*
X95294260Y-108216000D01*
X95205740Y-108216000D01*
X95139557Y-108209481D01*
X95073373Y-108202963D01*
X94960147Y-108168616D01*
X94903533Y-108151443D01*
X94747011Y-108067779D01*
X94747009Y-108067778D01*
X94711271Y-108038448D01*
X94609814Y-107955186D01*
X94526552Y-107853729D01*
X94497222Y-107817991D01*
X94487652Y-107800087D01*
X94413557Y-107661467D01*
X94396384Y-107604853D01*
X94362037Y-107491627D01*
X94344641Y-107315000D01*
X94362037Y-107138373D01*
X94413557Y-106968534D01*
X94413557Y-106968533D01*
X94497221Y-106812011D01*
X94497222Y-106812009D01*
X94526552Y-106776271D01*
X94609814Y-106674814D01*
X94711271Y-106591552D01*
X94747009Y-106562222D01*
X94764913Y-106552652D01*
X94903533Y-106478557D01*
X94960147Y-106461384D01*
X95073373Y-106427037D01*
X95139557Y-106420519D01*
X95205740Y-106414000D01*
X95294260Y-106414000D01*
X95360443Y-106420519D01*
X95360443Y-106420519D01*
G37*
G36*
X93611000Y-108216000D02*
X91809000Y-108216000D01*
X91809000Y-106414000D01*
X93611000Y-106414000D01*
X93611000Y-108216000D01*
X93611000Y-108216000D01*
G37*
G36*
X137729083Y-102898975D02*
X137729085Y-102898976D01*
X137729086Y-102898976D01*
X138084145Y-103046046D01*
X138084146Y-103046047D01*
X138403693Y-103259561D01*
X138675439Y-103531307D01*
X138675441Y-103531310D01*
X138888954Y-103850855D01*
X139036024Y-104205914D01*
X139111000Y-104582843D01*
X139111000Y-104967157D01*
X139036024Y-105344086D01*
X138888954Y-105699145D01*
X138888953Y-105699146D01*
X138675439Y-106018693D01*
X138403693Y-106290439D01*
X138403690Y-106290441D01*
X138084145Y-106503954D01*
X137729086Y-106651024D01*
X137729085Y-106651024D01*
X137729083Y-106651025D01*
X137352158Y-106726000D01*
X136967842Y-106726000D01*
X136590917Y-106651025D01*
X136590915Y-106651024D01*
X136590914Y-106651024D01*
X136235855Y-106503954D01*
X135916310Y-106290441D01*
X135916307Y-106290439D01*
X135644561Y-106018693D01*
X135431047Y-105699146D01*
X135431046Y-105699145D01*
X135283976Y-105344086D01*
X135209000Y-104967157D01*
X135209000Y-104582843D01*
X135283976Y-104205914D01*
X135431046Y-103850855D01*
X135644559Y-103531310D01*
X135644561Y-103531307D01*
X135916307Y-103259561D01*
X136235854Y-103046047D01*
X136235855Y-103046046D01*
X136590914Y-102898976D01*
X136590915Y-102898976D01*
X136590917Y-102898975D01*
X136967842Y-102824000D01*
X137352158Y-102824000D01*
X137729083Y-102898975D01*
X137729083Y-102898975D01*
G37*
G36*
X102169083Y-102898975D02*
X102169085Y-102898976D01*
X102169086Y-102898976D01*
X102524145Y-103046046D01*
X102524146Y-103046047D01*
X102843693Y-103259561D01*
X103115439Y-103531307D01*
X103115441Y-103531310D01*
X103328954Y-103850855D01*
X103476024Y-104205914D01*
X103551000Y-104582843D01*
X103551000Y-104967157D01*
X103476024Y-105344086D01*
X103328954Y-105699145D01*
X103328953Y-105699146D01*
X103115439Y-106018693D01*
X102843693Y-106290439D01*
X102843690Y-106290441D01*
X102524145Y-106503954D01*
X102169086Y-106651024D01*
X102169085Y-106651024D01*
X102169083Y-106651025D01*
X101792158Y-106726000D01*
X101407842Y-106726000D01*
X101030917Y-106651025D01*
X101030915Y-106651024D01*
X101030914Y-106651024D01*
X100675855Y-106503954D01*
X100356310Y-106290441D01*
X100356307Y-106290439D01*
X100084561Y-106018693D01*
X99871047Y-105699146D01*
X99871046Y-105699145D01*
X99723976Y-105344086D01*
X99649000Y-104967157D01*
X99649000Y-104582843D01*
X99723976Y-104205914D01*
X99871046Y-103850855D01*
X100084559Y-103531310D01*
X100084561Y-103531307D01*
X100356307Y-103259561D01*
X100675854Y-103046047D01*
X100675855Y-103046046D01*
X101030914Y-102898976D01*
X101030915Y-102898976D01*
X101030917Y-102898975D01*
X101407842Y-102824000D01*
X101792158Y-102824000D01*
X102169083Y-102898975D01*
X102169083Y-102898975D01*
G37*
G36*
X134256337Y-96534763D02*
X134288367Y-96548030D01*
X134317194Y-96567292D01*
X134341708Y-96591806D01*
X134360970Y-96620633D01*
X134374237Y-96652663D01*
X134381000Y-96686665D01*
X134381000Y-96721335D01*
X134374237Y-96755337D01*
X134360970Y-96787367D01*
X134341708Y-96816194D01*
X134317194Y-96840708D01*
X134288367Y-96859970D01*
X134256337Y-96873237D01*
X134222335Y-96880000D01*
X134187665Y-96880000D01*
X134153663Y-96873237D01*
X134121633Y-96859970D01*
X134092806Y-96840708D01*
X134068292Y-96816194D01*
X134049030Y-96787367D01*
X134035763Y-96755337D01*
X134029000Y-96721335D01*
X134029000Y-96686665D01*
X134035763Y-96652663D01*
X134049030Y-96620633D01*
X134068292Y-96591806D01*
X134092806Y-96567292D01*
X134121633Y-96548030D01*
X134153663Y-96534763D01*
X134187665Y-96528000D01*
X134222335Y-96528000D01*
X134256337Y-96534763D01*
X134256337Y-96534763D01*
G37*
G36*
X130006337Y-96534763D02*
X130038367Y-96548030D01*
X130067194Y-96567292D01*
X130091708Y-96591806D01*
X130110970Y-96620633D01*
X130124237Y-96652663D01*
X130131000Y-96686665D01*
X130131000Y-96721335D01*
X130124237Y-96755337D01*
X130110970Y-96787367D01*
X130091708Y-96816194D01*
X130067194Y-96840708D01*
X130038367Y-96859970D01*
X130006337Y-96873237D01*
X129972335Y-96880000D01*
X129937665Y-96880000D01*
X129903663Y-96873237D01*
X129871633Y-96859970D01*
X129842806Y-96840708D01*
X129818292Y-96816194D01*
X129799030Y-96787367D01*
X129785763Y-96755337D01*
X129779000Y-96721335D01*
X129779000Y-96686665D01*
X129785763Y-96652663D01*
X129799030Y-96620633D01*
X129818292Y-96591806D01*
X129842806Y-96567292D01*
X129871633Y-96548030D01*
X129903663Y-96534763D01*
X129937665Y-96528000D01*
X129972335Y-96528000D01*
X130006337Y-96534763D01*
X130006337Y-96534763D01*
G37*
M02*
